<svg width="306" height="91" viewBox="0 0 306 91" fill="none" xmlns="http://www.w3.org/2000/svg">
<g filter="url(#filter0_d_73_107)">
<rect x="4" width="298" height="83" rx="10" fill="#FCFCFC"/>
</g>
<path d="M97.6037 9.67188C97.5639 9.29972 97.3963 9.00994 97.1009 8.80256C96.8082 8.59517 96.4276 8.49148 95.9588 8.49148C95.6293 8.49148 95.3466 8.54119 95.1108 8.64062C94.875 8.74006 94.6946 8.875 94.5696 9.04545C94.4446 9.21591 94.3807 9.41051 94.3778 9.62926C94.3778 9.81108 94.419 9.96875 94.5014 10.1023C94.5866 10.2358 94.7017 10.3494 94.8466 10.4432C94.9915 10.5341 95.152 10.6108 95.3281 10.6733C95.5043 10.7358 95.6818 10.7884 95.8608 10.831L96.679 11.0355C97.0085 11.1122 97.3253 11.2159 97.6293 11.3466C97.9361 11.4773 98.2102 11.642 98.4517 11.8409C98.696 12.0398 98.8892 12.2798 99.0312 12.5611C99.1733 12.8423 99.2443 13.1719 99.2443 13.5497C99.2443 14.0611 99.1136 14.5114 98.8523 14.9006C98.5909 15.2869 98.2131 15.5895 97.7188 15.8082C97.2273 16.0241 96.6321 16.1321 95.9332 16.1321C95.2543 16.1321 94.6648 16.027 94.1648 15.8168C93.6676 15.6065 93.2784 15.2997 92.9972 14.8963C92.7188 14.4929 92.5682 14.0014 92.5455 13.4219H94.1009C94.1236 13.7259 94.2173 13.9787 94.3821 14.1804C94.5469 14.3821 94.7614 14.5327 95.0256 14.6321C95.2926 14.7315 95.5909 14.7812 95.9205 14.7812C96.2642 14.7812 96.5653 14.7301 96.8239 14.6278C97.0852 14.5227 97.2898 14.3778 97.4375 14.1932C97.5852 14.0057 97.6605 13.7869 97.6634 13.5369C97.6605 13.3097 97.5938 13.1222 97.4631 12.9744C97.3324 12.8239 97.1491 12.6989 96.9134 12.5994C96.6804 12.4972 96.4077 12.4062 96.0952 12.3267L95.1023 12.071C94.3835 11.8864 93.8153 11.6065 93.3977 11.2315C92.983 10.8537 92.7756 10.3523 92.7756 9.72727C92.7756 9.21307 92.9148 8.76278 93.1932 8.37642C93.4744 7.99006 93.8565 7.69034 94.3395 7.47727C94.8224 7.26136 95.3693 7.15341 95.9801 7.15341C96.5994 7.15341 97.142 7.26136 97.608 7.47727C98.0767 7.69034 98.4446 7.98722 98.7116 8.3679C98.9787 8.74574 99.1165 9.1804 99.125 9.67188H97.6037ZM100.586 16V9.45455H102.06V10.5668H102.137C102.273 10.1918 102.499 9.89915 102.814 9.68892C103.13 9.47585 103.506 9.36932 103.944 9.36932C104.387 9.36932 104.76 9.47727 105.064 9.69318C105.371 9.90625 105.587 10.1974 105.712 10.5668H105.78C105.925 10.2031 106.169 9.91335 106.513 9.69744C106.86 9.47869 107.27 9.36932 107.745 9.36932C108.347 9.36932 108.838 9.55966 109.219 9.94034C109.6 10.321 109.79 10.8764 109.79 11.6065V16H108.243V11.8452C108.243 11.4389 108.135 11.142 107.919 10.9545C107.703 10.7642 107.439 10.669 107.127 10.669C106.755 10.669 106.463 10.7855 106.253 11.0185C106.046 11.2486 105.942 11.5483 105.942 11.9176V16H104.429V11.7812C104.429 11.4432 104.327 11.1733 104.123 10.9716C103.921 10.7699 103.657 10.669 103.33 10.669C103.108 10.669 102.907 10.7259 102.725 10.8395C102.543 10.9503 102.398 11.108 102.29 11.3125C102.182 11.5142 102.128 11.75 102.128 12.0199V16H100.586ZM113.239 16.1321C112.824 16.1321 112.45 16.0582 112.118 15.9105C111.788 15.7599 111.527 15.5384 111.334 15.2457C111.143 14.9531 111.048 14.5923 111.048 14.1634C111.048 13.794 111.116 13.4886 111.253 13.2472C111.389 13.0057 111.575 12.8125 111.811 12.6676C112.047 12.5227 112.313 12.4134 112.608 12.3395C112.906 12.2628 113.214 12.2074 113.533 12.1733C113.916 12.1335 114.227 12.098 114.466 12.0668C114.705 12.0327 114.878 11.9815 114.986 11.9134C115.097 11.8423 115.152 11.733 115.152 11.5852V11.5597C115.152 11.2386 115.057 10.9901 114.866 10.8139C114.676 10.6378 114.402 10.5497 114.044 10.5497C113.666 10.5497 113.366 10.6321 113.145 10.7969C112.926 10.9616 112.778 11.1562 112.702 11.3807L111.261 11.1761C111.375 10.7784 111.563 10.446 111.824 10.179C112.085 9.90909 112.405 9.70739 112.783 9.57386C113.161 9.4375 113.578 9.36932 114.036 9.36932C114.351 9.36932 114.665 9.40625 114.977 9.48011C115.29 9.55398 115.575 9.67614 115.834 9.84659C116.092 10.0142 116.3 10.2429 116.456 10.5327C116.615 10.8224 116.695 11.1847 116.695 11.6193V16H115.212V15.1009H115.161C115.067 15.2827 114.935 15.4531 114.764 15.6122C114.597 15.7685 114.385 15.8949 114.129 15.9915C113.876 16.0852 113.58 16.1321 113.239 16.1321ZM113.639 14.9986C113.949 14.9986 114.217 14.9375 114.445 14.8153C114.672 14.6903 114.847 14.5256 114.969 14.321C115.094 14.1165 115.156 13.8935 115.156 13.652V12.8807C115.108 12.9205 115.026 12.9574 114.909 12.9915C114.795 13.0256 114.668 13.0554 114.526 13.081C114.384 13.1065 114.243 13.1293 114.104 13.1491C113.964 13.169 113.844 13.1861 113.741 13.2003C113.511 13.2315 113.305 13.2827 113.124 13.3537C112.942 13.4247 112.798 13.5241 112.693 13.652C112.588 13.777 112.536 13.9389 112.536 14.1378C112.536 14.4219 112.639 14.6364 112.847 14.7812C113.054 14.9261 113.318 14.9986 113.639 14.9986ZM118.246 16V9.45455H119.741V10.5455H119.81C119.929 10.1676 120.134 9.87642 120.423 9.67188C120.716 9.46449 121.05 9.3608 121.425 9.3608C121.51 9.3608 121.605 9.36506 121.71 9.37358C121.818 9.37926 121.908 9.3892 121.979 9.40341V10.8224C121.913 10.7997 121.81 10.7798 121.668 10.7628C121.528 10.7429 121.393 10.733 121.263 10.733C120.982 10.733 120.729 10.794 120.504 10.9162C120.283 11.0355 120.108 11.2017 119.98 11.4148C119.852 11.6278 119.788 11.8736 119.788 12.152V16H118.246ZM126.624 9.45455V10.6477H122.861V9.45455H126.624ZM123.79 7.88636H125.332V14.0312C125.332 14.2386 125.364 14.3977 125.426 14.5085C125.491 14.6165 125.577 14.6903 125.682 14.7301C125.787 14.7699 125.903 14.7898 126.031 14.7898C126.128 14.7898 126.216 14.7827 126.295 14.7685C126.378 14.7543 126.44 14.7415 126.483 14.7301L126.743 15.9361C126.661 15.9645 126.543 15.9957 126.389 16.0298C126.239 16.0639 126.054 16.0838 125.835 16.0895C125.449 16.1009 125.101 16.0426 124.791 15.9148C124.482 15.7841 124.236 15.5824 124.054 15.3097C123.875 15.0369 123.787 14.696 123.79 14.2869V7.88636ZM135.701 9.67188C135.662 9.29972 135.494 9.00994 135.199 8.80256C134.906 8.59517 134.525 8.49148 134.056 8.49148C133.727 8.49148 133.444 8.54119 133.208 8.64062C132.973 8.74006 132.792 8.875 132.667 9.04545C132.542 9.21591 132.478 9.41051 132.475 9.62926C132.475 9.81108 132.517 9.96875 132.599 10.1023C132.684 10.2358 132.799 10.3494 132.944 10.4432C133.089 10.5341 133.25 10.6108 133.426 10.6733C133.602 10.7358 133.779 10.7884 133.958 10.831L134.777 11.0355C135.106 11.1122 135.423 11.2159 135.727 11.3466C136.034 11.4773 136.308 11.642 136.549 11.8409C136.794 12.0398 136.987 12.2798 137.129 12.5611C137.271 12.8423 137.342 13.1719 137.342 13.5497C137.342 14.0611 137.211 14.5114 136.95 14.9006C136.689 15.2869 136.311 15.5895 135.816 15.8082C135.325 16.0241 134.73 16.1321 134.031 16.1321C133.352 16.1321 132.762 16.027 132.262 15.8168C131.765 15.6065 131.376 15.2997 131.095 14.8963C130.816 14.4929 130.666 14.0014 130.643 13.4219H132.199C132.221 13.7259 132.315 13.9787 132.48 14.1804C132.645 14.3821 132.859 14.5327 133.123 14.6321C133.39 14.7315 133.689 14.7812 134.018 14.7812C134.362 14.7812 134.663 14.7301 134.922 14.6278C135.183 14.5227 135.387 14.3778 135.535 14.1932C135.683 14.0057 135.758 13.7869 135.761 13.5369C135.758 13.3097 135.691 13.1222 135.561 12.9744C135.43 12.8239 135.247 12.6989 135.011 12.5994C134.778 12.4972 134.505 12.4062 134.193 12.3267L133.2 12.071C132.481 11.8864 131.913 11.6065 131.495 11.2315C131.081 10.8537 130.873 10.3523 130.873 9.72727C130.873 9.21307 131.012 8.76278 131.291 8.37642C131.572 7.99006 131.954 7.69034 132.437 7.47727C132.92 7.26136 133.467 7.15341 134.078 7.15341C134.697 7.15341 135.24 7.26136 135.706 7.47727C136.174 7.69034 136.542 7.98722 136.809 8.3679C137.076 8.74574 137.214 9.1804 137.223 9.67188H135.701ZM142.855 13.2472V9.45455H144.398V16H142.902V14.8366H142.834C142.686 15.2031 142.443 15.5028 142.105 15.7358C141.77 15.9687 141.357 16.0852 140.865 16.0852C140.436 16.0852 140.057 15.9901 139.727 15.7997C139.401 15.6065 139.145 15.3267 138.96 14.9602C138.776 14.5909 138.683 14.1449 138.683 13.6222V9.45455H140.226V13.3835C140.226 13.7983 140.339 14.1278 140.567 14.3722C140.794 14.6165 141.092 14.7386 141.462 14.7386C141.689 14.7386 141.909 14.6832 142.122 14.5724C142.335 14.4616 142.51 14.2969 142.646 14.0781C142.786 13.8565 142.855 13.5795 142.855 13.2472ZM145.984 18.4545V9.45455H147.501V10.5369H147.591C147.67 10.3778 147.782 10.2088 147.927 10.0298C148.072 9.84801 148.268 9.69318 148.515 9.56534C148.762 9.43466 149.078 9.36932 149.461 9.36932C149.967 9.36932 150.423 9.49858 150.829 9.7571C151.238 10.0128 151.562 10.392 151.801 10.8949C152.042 11.3949 152.163 12.0085 152.163 12.7358C152.163 13.4545 152.045 14.0653 151.809 14.5682C151.574 15.071 151.252 15.4545 150.846 15.7188C150.44 15.983 149.98 16.1151 149.466 16.1151C149.091 16.1151 148.779 16.0526 148.532 15.9276C148.285 15.8026 148.086 15.652 147.936 15.4759C147.788 15.2969 147.673 15.1278 147.591 14.9688H147.527V18.4545H145.984ZM147.497 12.7273C147.497 13.1506 147.556 13.5213 147.676 13.8395C147.798 14.1577 147.973 14.4062 148.2 14.5852C148.43 14.7614 148.708 14.8494 149.035 14.8494C149.376 14.8494 149.662 14.7585 149.892 14.5767C150.122 14.392 150.295 14.1406 150.412 13.8224C150.531 13.5014 150.591 13.1364 150.591 12.7273C150.591 12.321 150.532 11.9602 150.416 11.6449C150.299 11.3295 150.126 11.0824 149.896 10.9034C149.666 10.7244 149.379 10.6349 149.035 10.6349C148.706 10.6349 148.426 10.7216 148.196 10.8949C147.966 11.0682 147.791 11.3111 147.672 11.6236C147.555 11.9361 147.497 12.304 147.497 12.7273ZM153.484 18.4545V9.45455H155.001V10.5369H155.091C155.17 10.3778 155.282 10.2088 155.427 10.0298C155.572 9.84801 155.768 9.69318 156.015 9.56534C156.262 9.43466 156.578 9.36932 156.961 9.36932C157.467 9.36932 157.923 9.49858 158.329 9.7571C158.738 10.0128 159.062 10.392 159.301 10.8949C159.542 11.3949 159.663 12.0085 159.663 12.7358C159.663 13.4545 159.545 14.0653 159.309 14.5682C159.074 15.071 158.752 15.4545 158.346 15.7188C157.94 15.983 157.48 16.1151 156.966 16.1151C156.591 16.1151 156.279 16.0526 156.032 15.9276C155.785 15.8026 155.586 15.652 155.436 15.4759C155.288 15.2969 155.173 15.1278 155.091 14.9688H155.027V18.4545H153.484ZM154.997 12.7273C154.997 13.1506 155.056 13.5213 155.176 13.8395C155.298 14.1577 155.473 14.4062 155.7 14.5852C155.93 14.7614 156.208 14.8494 156.535 14.8494C156.876 14.8494 157.162 14.7585 157.392 14.5767C157.622 14.392 157.795 14.1406 157.912 13.8224C158.031 13.5014 158.091 13.1364 158.091 12.7273C158.091 12.321 158.032 11.9602 157.916 11.6449C157.799 11.3295 157.626 11.0824 157.396 10.9034C157.166 10.7244 156.879 10.6349 156.535 10.6349C156.206 10.6349 155.926 10.7216 155.696 10.8949C155.466 11.0682 155.291 11.3111 155.172 11.6236C155.055 11.9361 154.997 12.304 154.997 12.7273ZM163.839 16.1278C163.2 16.1278 162.646 15.9872 162.177 15.706C161.708 15.4247 161.345 15.0312 161.086 14.5256C160.831 14.0199 160.703 13.429 160.703 12.7528C160.703 12.0767 160.831 11.4844 161.086 10.9759C161.345 10.4673 161.708 10.0724 162.177 9.79119C162.646 9.50994 163.2 9.36932 163.839 9.36932C164.478 9.36932 165.032 9.50994 165.501 9.79119C165.97 10.0724 166.332 10.4673 166.588 10.9759C166.846 11.4844 166.975 12.0767 166.975 12.7528C166.975 13.429 166.846 14.0199 166.588 14.5256C166.332 15.0312 165.97 15.4247 165.501 15.706C165.032 15.9872 164.478 16.1278 163.839 16.1278ZM163.848 14.892C164.194 14.892 164.484 14.7969 164.717 14.6065C164.95 14.4134 165.123 14.1548 165.237 13.831C165.353 13.5071 165.412 13.1463 165.412 12.7486C165.412 12.348 165.353 11.9858 165.237 11.6619C165.123 11.3352 164.95 11.0753 164.717 10.8821C164.484 10.6889 164.194 10.5923 163.848 10.5923C163.493 10.5923 163.197 10.6889 162.961 10.8821C162.728 11.0753 162.554 11.3352 162.437 11.6619C162.324 11.9858 162.267 12.348 162.267 12.7486C162.267 13.1463 162.324 13.5071 162.437 13.831C162.554 14.1548 162.728 14.4134 162.961 14.6065C163.197 14.7969 163.493 14.892 163.848 14.892ZM168.285 16V9.45455H169.781V10.5455H169.849C169.968 10.1676 170.173 9.87642 170.462 9.67188C170.755 9.46449 171.089 9.3608 171.464 9.3608C171.549 9.3608 171.644 9.36506 171.749 9.37358C171.857 9.37926 171.947 9.3892 172.018 9.40341V10.8224C171.952 10.7997 171.849 10.7798 171.707 10.7628C171.567 10.7429 171.433 10.733 171.302 10.733C171.021 10.733 170.768 10.794 170.543 10.9162C170.322 11.0355 170.147 11.2017 170.019 11.4148C169.891 11.6278 169.827 11.8736 169.827 12.152V16H168.285ZM176.663 9.45455V10.6477H172.9V9.45455H176.663ZM173.829 7.88636H175.371V14.0312C175.371 14.2386 175.403 14.3977 175.465 14.5085C175.531 14.6165 175.616 14.6903 175.721 14.7301C175.826 14.7699 175.942 14.7898 176.07 14.7898C176.167 14.7898 176.255 14.7827 176.335 14.7685C176.417 14.7543 176.479 14.7415 176.522 14.7301L176.782 15.9361C176.7 15.9645 176.582 15.9957 176.428 16.0298C176.278 16.0639 176.093 16.0838 175.874 16.0895C175.488 16.1009 175.14 16.0426 174.83 15.9148C174.521 15.7841 174.275 15.5824 174.093 15.3097C173.914 15.0369 173.826 14.696 173.829 14.2869V7.88636ZM180.998 7.27273H182.932L185.523 13.5966H185.625L188.216 7.27273H190.151V16H188.634V10.0043H188.553L186.141 15.9744H185.007L182.596 9.99148H182.515V16H180.998V7.27273ZM199.343 10.2173H197.749C197.703 9.95597 197.62 9.72443 197.498 9.52273C197.375 9.31818 197.223 9.14489 197.042 9.00284C196.86 8.8608 196.652 8.75426 196.419 8.68324C196.189 8.60938 195.941 8.57244 195.674 8.57244C195.199 8.57244 194.779 8.69176 194.412 8.9304C194.046 9.16619 193.759 9.51278 193.551 9.97017C193.344 10.4247 193.24 10.9801 193.24 11.6364C193.24 12.304 193.344 12.8665 193.551 13.3239C193.762 13.7784 194.049 14.1222 194.412 14.3551C194.779 14.5852 195.198 14.7003 195.669 14.7003C195.931 14.7003 196.175 14.6662 196.402 14.598C196.632 14.527 196.838 14.4233 197.02 14.2869C197.205 14.1506 197.36 13.983 197.485 13.7841C197.613 13.5852 197.701 13.358 197.749 13.1023L199.343 13.1108C199.283 13.5256 199.154 13.9148 198.955 14.2784C198.759 14.642 198.502 14.9631 198.184 15.2415C197.865 15.517 197.493 15.733 197.067 15.8892C196.641 16.0426 196.168 16.1193 195.648 16.1193C194.881 16.1193 194.196 15.9418 193.594 15.5866C192.992 15.2315 192.517 14.7188 192.171 14.0483C191.824 13.3778 191.651 12.5739 191.651 11.6364C191.651 10.696 191.826 9.89205 192.175 9.22443C192.525 8.55398 193 8.04119 193.603 7.68608C194.205 7.33097 194.887 7.15341 195.648 7.15341C196.134 7.15341 196.586 7.22159 197.003 7.35795C197.421 7.49432 197.793 7.6946 198.12 7.95881C198.446 8.22017 198.715 8.54119 198.925 8.92188C199.138 9.29972 199.277 9.73153 199.343 10.2173ZM200.79 16V7.27273H204.063C204.734 7.27273 205.296 7.39773 205.751 7.64773C206.208 7.89773 206.553 8.24148 206.786 8.67898C207.022 9.11364 207.14 9.60795 207.14 10.1619C207.14 10.7216 207.022 11.2187 206.786 11.6534C206.55 12.0881 206.202 12.4304 205.742 12.6804C205.282 12.9276 204.715 13.0511 204.042 13.0511H201.873V11.7514H203.829C204.221 11.7514 204.542 11.6832 204.792 11.5469C205.042 11.4105 205.227 11.223 205.346 10.9844C205.468 10.7457 205.529 10.4716 205.529 10.1619C205.529 9.85227 205.468 9.57955 205.346 9.34375C205.227 9.10795 205.04 8.92472 204.788 8.79403C204.538 8.66051 204.215 8.59375 203.82 8.59375H202.371V16H200.79Z" fill="black"/>
<path d="M121 41.5H135C136.933 41.5 138.5 43.067 138.5 45V51C138.5 52.933 136.933 54.5 135 54.5H121C119.067 54.5 117.5 52.933 117.5 51V45L117.505 44.8203C117.598 42.9708 119.127 41.5 121 41.5Z" fill="#E1FFCE" stroke="#10BD8F"/>
<path d="M122.687 52V44.7273H125.145C125.713 44.7273 126.179 44.8243 126.544 45.0185C126.908 45.2102 127.178 45.4742 127.354 45.8104C127.529 46.1465 127.616 46.5289 127.616 46.9574C127.616 47.3859 127.529 47.7659 127.354 48.0973C127.178 48.4287 126.91 48.6892 126.547 48.8786C126.185 49.0656 125.722 49.1591 125.159 49.1591H123.17V48.3636H125.131C125.519 48.3636 125.831 48.3068 126.068 48.1932C126.307 48.0795 126.48 47.9186 126.587 47.7102C126.695 47.4995 126.75 47.2486 126.75 46.9574C126.75 46.6662 126.695 46.4117 126.587 46.1939C126.478 45.9761 126.304 45.808 126.064 45.6896C125.825 45.5689 125.509 45.5085 125.116 45.5085H123.568V52H122.687ZM126.111 48.733L127.9 52H126.878L125.116 48.733H126.111ZM129.084 52V44.7273H133.445V45.5085H129.965V47.9659H133.118V48.7472H129.965V52H129.084Z" fill="black"/>
<path d="M96 41.5H108C109.933 41.5 111.5 43.067 111.5 45V51C111.5 52.933 109.933 54.5 108 54.5H96C94.067 54.5 92.5 52.933 92.5 51V45L92.5049 44.8203C92.5984 42.9708 94.1273 41.5 96 41.5Z" fill="#FFE2FC" stroke="#A8005D"/>
<path d="M99.0592 44.7273V52H98.1785V44.7273H99.0592ZM101.123 52H100.2L102.87 44.7273H103.78L106.45 52H105.527L103.353 45.8778H103.297L101.123 52ZM101.464 49.1591H105.186V49.9403H101.464V49.1591Z" fill="black"/>
<path d="M148 41.5H168C169.933 41.5 171.5 43.067 171.5 45V51C171.5 52.933 169.933 54.5 168 54.5H148C146.067 54.5 144.5 52.933 144.5 51V45L144.505 44.8203C144.598 42.9708 146.127 41.5 148 41.5Z" fill="#FEDAD5" stroke="#B80606"/>
<path d="M148.983 52V44.7273H151.441C152.009 44.7273 152.475 44.8243 152.84 45.0185C153.204 45.2102 153.474 45.4742 153.649 45.8104C153.825 46.1465 153.912 46.5289 153.912 46.9574C153.912 47.3859 153.825 47.7659 153.649 48.0973C153.474 48.4287 153.206 48.6892 152.843 48.8786C152.481 49.0656 152.018 49.1591 151.455 49.1591H149.466V48.3636H151.426C151.815 48.3636 152.127 48.3068 152.364 48.1932C152.603 48.0795 152.776 47.9186 152.882 47.7102C152.991 47.4995 153.046 47.2486 153.046 46.9574C153.046 46.6662 152.991 46.4117 152.882 46.1939C152.773 45.9761 152.599 45.808 152.36 45.6896C152.121 45.5689 151.805 45.5085 151.412 45.5085H149.864V52H148.983ZM152.407 48.733L154.196 52H153.174L151.412 48.733H152.407ZM161.147 44.7273V52H160.295L156.331 46.2898H156.26V52H155.38V44.7273H156.232L160.209 50.4517H160.28V44.7273H161.147ZM162.909 52V44.7273H167.27V45.5085H163.79V47.9659H166.943V48.7472H163.79V52H162.909Z" fill="black"/>
<path d="M181 41.5H201C202.933 41.5 204.5 43.067 204.5 45V51C204.5 52.933 202.933 54.5 201 54.5H181C179.067 54.5 177.5 52.933 177.5 51V45L177.505 44.8203C177.598 42.9708 179.127 41.5 181 41.5Z" fill="#FFEFDE" stroke="#733712"/>
<path d="M185.687 44.7273H186.567V49.5426C186.567 50.0398 186.45 50.4837 186.216 50.8743C185.984 51.2625 185.656 51.5691 185.232 51.794C184.808 52.0166 184.311 52.1278 183.741 52.1278C183.17 52.1278 182.673 52.0166 182.249 51.794C181.825 51.5691 181.496 51.2625 181.262 50.8743C181.03 50.4837 180.914 50.0398 180.914 49.5426V44.7273H181.795V49.4716C181.795 49.8267 181.873 50.1428 182.029 50.4197C182.185 50.6944 182.408 50.911 182.697 51.0696C182.988 51.2259 183.336 51.304 183.741 51.304C184.145 51.304 184.493 51.2259 184.785 51.0696C185.076 50.911 185.298 50.6944 185.452 50.4197C185.609 50.1428 185.687 49.8267 185.687 49.4716V44.7273ZM188.326 44.7273H189.377L191.849 50.7642H191.934L194.406 44.7273H195.457V52H194.633V46.4744H194.562L192.289 52H191.494L189.221 46.4744H189.15V52H188.326V44.7273ZM197.223 52V44.7273H198.103V51.2188H201.484V52H197.223Z" fill="black"/>
<path d="M98.4375 27.5C98.3516 27.237 98.2383 27.0013 98.0977 26.793C97.9596 26.582 97.7943 26.4023 97.6016 26.2539C97.4115 26.1055 97.1953 25.9922 96.9531 25.9141C96.7109 25.8359 96.4453 25.7969 96.1562 25.7969C95.6823 25.7969 95.2513 25.9193 94.8633 26.1641C94.4753 26.4089 94.1667 26.7695 93.9375 27.2461C93.7083 27.7227 93.5938 28.3073 93.5938 29C93.5938 29.6927 93.7096 30.2773 93.9414 30.7539C94.1732 31.2305 94.487 31.5911 94.8828 31.8359C95.2786 32.0807 95.724 32.2031 96.2188 32.2031C96.6771 32.2031 97.0807 32.1055 97.4297 31.9102C97.7813 31.7122 98.0547 31.4336 98.25 31.0742C98.4479 30.7122 98.5469 30.2865 98.5469 29.7969L98.8438 29.8594H96.4375V29H99.4844V29.8594C99.4844 30.5182 99.3438 31.0911 99.0625 31.5781C98.7839 32.0651 98.3984 32.4427 97.9062 32.7109C97.4167 32.9766 96.8542 33.1094 96.2188 33.1094C95.5104 33.1094 94.888 32.9427 94.3516 32.6094C93.8177 32.276 93.401 31.8021 93.1016 31.1875C92.8047 30.5729 92.6563 29.8437 92.6563 29C92.6563 28.3672 92.7409 27.7982 92.9102 27.293C93.082 26.7852 93.3242 26.3529 93.6367 25.9961C93.9492 25.6393 94.319 25.3659 94.7461 25.1758C95.1732 24.9857 95.6432 24.8906 96.1562 24.8906C96.5781 24.8906 96.9714 24.9544 97.3359 25.082C97.7031 25.207 98.0299 25.3854 98.3164 25.6172C98.6055 25.8464 98.8464 26.1211 99.0391 26.4414C99.2318 26.7591 99.3646 27.112 99.4375 27.5H98.4375ZM103.534 33.125C102.956 33.125 102.457 32.9974 102.038 32.7422C101.621 32.4844 101.3 32.125 101.073 31.6641C100.849 31.2005 100.737 30.6615 100.737 30.0469C100.737 29.4323 100.849 28.8906 101.073 28.4219C101.3 27.9505 101.615 27.5833 102.019 27.3203C102.425 27.0547 102.899 26.9219 103.44 26.9219C103.753 26.9219 104.062 26.974 104.366 27.0781C104.671 27.1823 104.948 27.3516 105.198 27.5859C105.448 27.8177 105.647 28.125 105.796 28.5078C105.944 28.8906 106.019 29.362 106.019 29.9219V30.3125H101.394V29.5156H105.081C105.081 29.1771 105.013 28.875 104.878 28.6094C104.745 28.3437 104.555 28.1341 104.308 27.9805C104.063 27.8268 103.774 27.75 103.44 27.75C103.073 27.75 102.756 27.8411 102.487 28.0234C102.222 28.2031 102.017 28.4375 101.874 28.7266C101.731 29.0156 101.659 29.3255 101.659 29.6562V30.1875C101.659 30.6406 101.737 31.0247 101.894 31.3398C102.052 31.6523 102.272 31.8906 102.554 32.0547C102.835 32.2161 103.162 32.2969 103.534 32.2969C103.776 32.2969 103.995 32.263 104.19 32.1953C104.388 32.125 104.559 32.0208 104.702 31.8828C104.845 31.7422 104.956 31.5677 105.034 31.3594L105.925 31.6094C105.831 31.9115 105.674 32.1771 105.452 32.4062C105.231 32.6328 104.957 32.8099 104.632 32.9375C104.306 33.0625 103.94 33.125 103.534 33.125ZM111.671 28.3437L110.843 28.5781C110.791 28.4401 110.714 28.306 110.612 28.1758C110.513 28.043 110.378 27.9336 110.206 27.8477C110.034 27.7617 109.814 27.7187 109.546 27.7187C109.179 27.7187 108.873 27.8034 108.628 27.9727C108.386 28.1393 108.265 28.3516 108.265 28.6094C108.265 28.8385 108.348 29.0195 108.515 29.1523C108.681 29.2852 108.942 29.3958 109.296 29.4844L110.187 29.7031C110.723 29.8333 111.123 30.0326 111.386 30.3008C111.649 30.5664 111.78 30.9089 111.78 31.3281C111.78 31.6719 111.681 31.9792 111.483 32.25C111.288 32.5208 111.015 32.7344 110.663 32.8906C110.312 33.0469 109.903 33.125 109.437 33.125C108.825 33.125 108.318 32.9922 107.917 32.7266C107.516 32.4609 107.262 32.0729 107.155 31.5625L108.03 31.3437C108.114 31.6667 108.271 31.9089 108.503 32.0703C108.737 32.2318 109.043 32.3125 109.421 32.3125C109.851 32.3125 110.192 32.2214 110.444 32.0391C110.7 31.8542 110.827 31.6328 110.827 31.375C110.827 31.1667 110.754 30.9922 110.608 30.8516C110.463 30.7083 110.239 30.6016 109.937 30.5312L108.937 30.2969C108.387 30.1667 107.983 29.9648 107.726 29.6914C107.47 29.4154 107.343 29.0703 107.343 28.6562C107.343 28.3177 107.438 28.0182 107.628 27.7578C107.821 27.4974 108.082 27.293 108.413 27.1445C108.746 26.9961 109.124 26.9219 109.546 26.9219C110.14 26.9219 110.606 27.0521 110.944 27.3125C111.285 27.5729 111.528 27.9167 111.671 28.3437ZM115.777 27V27.7812H112.668V27H115.777ZM113.574 25.5625H114.496V31.2812C114.496 31.5417 114.534 31.737 114.609 31.8672C114.688 31.9948 114.786 32.0807 114.906 32.125C115.029 32.1667 115.158 32.1875 115.293 32.1875C115.395 32.1875 115.478 32.1823 115.543 32.1719C115.608 32.1589 115.66 32.1484 115.699 32.1406L115.887 32.9687C115.824 32.9922 115.737 33.0156 115.625 33.0391C115.513 33.0651 115.371 33.0781 115.199 33.0781C114.939 33.0781 114.684 33.0221 114.434 32.9102C114.186 32.7982 113.98 32.6276 113.816 32.3984C113.655 32.1693 113.574 31.8802 113.574 31.5312V25.5625ZM118.93 33.1406C118.549 33.1406 118.204 33.069 117.895 32.9258C117.585 32.7799 117.339 32.5703 117.156 32.2969C116.974 32.0208 116.883 31.6875 116.883 31.2969C116.883 30.9531 116.951 30.6745 117.086 30.4609C117.221 30.2448 117.402 30.0755 117.629 29.9531C117.855 29.8307 118.105 29.7396 118.379 29.6797C118.655 29.6172 118.932 29.5677 119.211 29.5313C119.576 29.4844 119.871 29.4492 120.098 29.4258C120.327 29.3997 120.493 29.3568 120.598 29.2969C120.704 29.237 120.758 29.1328 120.758 28.9844V28.9531C120.758 28.5677 120.652 28.2682 120.441 28.0547C120.233 27.8411 119.917 27.7344 119.492 27.7344C119.052 27.7344 118.707 27.8307 118.457 28.0234C118.207 28.2161 118.031 28.4219 117.93 28.6406L117.055 28.3281C117.211 27.9635 117.419 27.6797 117.68 27.4766C117.943 27.2708 118.229 27.1276 118.539 27.0469C118.852 26.9635 119.159 26.9219 119.461 26.9219C119.654 26.9219 119.875 26.9453 120.125 26.9922C120.378 27.0365 120.621 27.1289 120.855 27.2695C121.092 27.4102 121.289 27.6224 121.445 27.9062C121.602 28.1901 121.68 28.5703 121.68 29.0469V33H120.758V32.1875H120.711C120.648 32.3177 120.544 32.457 120.398 32.6055C120.253 32.7539 120.059 32.8802 119.816 32.9844C119.574 33.0885 119.279 33.1406 118.93 33.1406ZM119.07 32.3125C119.435 32.3125 119.742 32.2409 119.992 32.0977C120.245 31.9544 120.435 31.7695 120.562 31.543C120.693 31.3164 120.758 31.0781 120.758 30.8281V29.9844C120.719 30.0312 120.633 30.0742 120.5 30.1133C120.37 30.1497 120.219 30.1823 120.047 30.2109C119.878 30.237 119.712 30.2604 119.551 30.2812C119.392 30.2995 119.263 30.3151 119.164 30.3281C118.924 30.3594 118.701 30.4102 118.492 30.4805C118.286 30.5482 118.12 30.651 117.992 30.7891C117.867 30.9245 117.805 31.1094 117.805 31.3437C117.805 31.6641 117.923 31.9062 118.16 32.0703C118.4 32.2318 118.703 32.3125 119.07 32.3125ZM118.32 26.2812L117.602 26.25C117.602 25.8516 117.715 25.526 117.941 25.2734C118.171 25.0182 118.453 24.8906 118.789 24.8906C118.938 24.8906 119.069 24.9167 119.184 24.9687C119.298 25.0182 119.408 25.0755 119.512 25.1406C119.616 25.2057 119.723 25.2643 119.832 25.3164C119.944 25.3659 120.07 25.3906 120.211 25.3906C120.359 25.3906 120.484 25.3333 120.586 25.2187C120.69 25.1016 120.742 24.9609 120.742 24.7969L121.445 24.8594C121.445 25.2656 121.331 25.5885 121.102 25.8281C120.875 26.0677 120.594 26.1875 120.258 26.1875C120.078 26.1875 119.93 26.1628 119.813 26.1133C119.695 26.0612 119.591 26.0026 119.5 25.9375C119.409 25.8724 119.313 25.8151 119.211 25.7656C119.109 25.7135 118.984 25.6875 118.836 25.6875C118.688 25.6875 118.564 25.7461 118.465 25.8633C118.368 25.9779 118.32 26.1172 118.32 26.2812ZM125.8 33.125C125.258 33.125 124.783 32.9961 124.374 32.7383C123.968 32.4805 123.65 32.1198 123.421 31.6562C123.194 31.1927 123.081 30.651 123.081 30.0312C123.081 29.4062 123.194 28.8607 123.421 28.3945C123.65 27.9284 123.968 27.5664 124.374 27.3086C124.783 27.0508 125.258 26.9219 125.8 26.9219C126.341 26.9219 126.815 27.0508 127.222 27.3086C127.631 27.5664 127.948 27.9284 128.175 28.3945C128.404 28.8607 128.519 29.4062 128.519 30.0312C128.519 30.651 128.404 31.1927 128.175 31.6562C127.948 32.1198 127.631 32.4805 127.222 32.7383C126.815 32.9961 126.341 33.125 125.8 33.125ZM125.8 32.2969C126.211 32.2969 126.55 32.1914 126.815 31.9805C127.081 31.7695 127.278 31.4922 127.405 31.1484C127.533 30.8047 127.597 30.4323 127.597 30.0312C127.597 29.6302 127.533 29.2565 127.405 28.9102C127.278 28.5638 127.081 28.2839 126.815 28.0703C126.55 27.8568 126.211 27.75 125.8 27.75C125.388 27.75 125.05 27.8568 124.784 28.0703C124.519 28.2839 124.322 28.5638 124.194 28.9102C124.067 29.2565 124.003 29.6302 124.003 30.0312C124.003 30.4323 124.067 30.8047 124.194 31.1484C124.322 31.4922 124.519 31.7695 124.784 31.9805C125.05 32.1914 125.388 32.2969 125.8 32.2969ZM135.285 33.125C134.785 33.125 134.344 32.9987 133.961 32.7461C133.578 32.4909 133.279 32.1315 133.063 31.668C132.846 31.2018 132.738 30.651 132.738 30.0156C132.738 29.3854 132.846 28.8385 133.063 28.375C133.279 27.9115 133.579 27.5534 133.965 27.3008C134.35 27.0482 134.796 26.9219 135.301 26.9219C135.691 26.9219 136 26.987 136.227 27.1172C136.456 27.2448 136.63 27.3906 136.75 27.5547C136.872 27.7161 136.967 27.849 137.035 27.9531H137.113V25H138.035V33H137.145V32.0781H137.035C136.967 32.1875 136.871 32.3255 136.746 32.4922C136.621 32.6562 136.443 32.8034 136.211 32.9336C135.979 33.0612 135.671 33.125 135.285 33.125ZM135.41 32.2969C135.78 32.2969 136.092 32.2005 136.348 32.0078C136.603 31.8125 136.797 31.543 136.93 31.1992C137.063 30.8529 137.129 30.4531 137.129 30C137.129 29.5521 137.064 29.1602 136.934 28.8242C136.803 28.4857 136.611 28.2227 136.355 28.0352C136.1 27.8451 135.785 27.75 135.41 27.75C135.02 27.75 134.694 27.8503 134.434 28.0508C134.176 28.2487 133.982 28.5182 133.852 28.8594C133.724 29.1979 133.66 29.5781 133.66 30C133.66 30.4271 133.725 30.8151 133.855 31.1641C133.988 31.5104 134.184 31.7865 134.441 31.9922C134.702 32.1953 135.025 32.2969 135.41 32.2969ZM142.367 33.125C141.789 33.125 141.29 32.9974 140.871 32.7422C140.454 32.4844 140.133 32.125 139.906 31.6641C139.682 31.2005 139.57 30.6615 139.57 30.0469C139.57 29.4323 139.682 28.8906 139.906 28.4219C140.133 27.9505 140.448 27.5833 140.852 27.3203C141.258 27.0547 141.732 26.9219 142.273 26.9219C142.586 26.9219 142.895 26.974 143.199 27.0781C143.504 27.1823 143.781 27.3516 144.031 27.5859C144.281 27.8177 144.48 28.125 144.629 28.5078C144.777 28.8906 144.852 29.362 144.852 29.9219V30.3125H140.227V29.5156H143.914C143.914 29.1771 143.846 28.875 143.711 28.6094C143.578 28.3437 143.388 28.1341 143.141 27.9805C142.896 27.8268 142.607 27.75 142.273 27.75C141.906 27.75 141.589 27.8411 141.32 28.0234C141.055 28.2031 140.85 28.4375 140.707 28.7266C140.564 29.0156 140.492 29.3255 140.492 29.6562V30.1875C140.492 30.6406 140.57 31.0247 140.727 31.3398C140.885 31.6523 141.105 31.8906 141.387 32.0547C141.668 32.2161 141.995 32.2969 142.367 32.2969C142.609 32.2969 142.828 32.263 143.023 32.1953C143.221 32.125 143.392 32.0208 143.535 31.8828C143.678 31.7422 143.789 31.5677 143.867 31.3594L144.758 31.6094C144.664 31.9115 144.507 32.1771 144.285 32.4062C144.064 32.6328 143.79 32.8099 143.465 32.9375C143.139 33.0625 142.773 33.125 142.367 33.125ZM149.035 25.8594V25H155.035V25.8594H152.52V33H151.551V25.8594H149.035ZM156.405 33V27H157.327V33H156.405ZM156.874 26C156.694 26 156.539 25.9388 156.409 25.8164C156.282 25.694 156.218 25.5469 156.218 25.375C156.218 25.2031 156.282 25.056 156.409 24.9336C156.539 24.8112 156.694 24.75 156.874 24.75C157.054 24.75 157.207 24.8112 157.335 24.9336C157.465 25.056 157.53 25.2031 157.53 25.375C157.53 25.5469 157.465 25.694 157.335 25.8164C157.207 25.9388 157.054 26 156.874 26ZM161.453 33.125C160.891 33.125 160.406 32.9922 160 32.7266C159.594 32.4609 159.281 32.0951 159.063 31.6289C158.844 31.1628 158.734 30.6302 158.734 30.0312C158.734 29.4219 158.846 28.8841 159.07 28.418C159.297 27.9492 159.612 27.5833 160.016 27.3203C160.422 27.0547 160.896 26.9219 161.438 26.9219C161.859 26.9219 162.24 27 162.578 27.1562C162.917 27.3125 163.194 27.5312 163.41 27.8125C163.626 28.0937 163.76 28.4219 163.813 28.7969H162.891C162.82 28.5234 162.664 28.2812 162.422 28.0703C162.182 27.8568 161.859 27.75 161.453 27.75C161.094 27.75 160.779 27.8437 160.508 28.0312C160.24 28.2161 160.03 28.4779 159.879 28.8164C159.73 29.1523 159.656 29.5469 159.656 30C159.656 30.4635 159.729 30.8672 159.875 31.2109C160.023 31.5547 160.232 31.8216 160.5 32.0117C160.771 32.2018 161.089 32.2969 161.453 32.2969C161.693 32.2969 161.91 32.2552 162.105 32.1719C162.301 32.0885 162.466 31.9688 162.602 31.8125C162.737 31.6562 162.833 31.4687 162.891 31.25H163.813C163.76 31.6042 163.632 31.9232 163.426 32.207C163.223 32.4883 162.953 32.7122 162.617 32.8789C162.284 33.043 161.896 33.125 161.453 33.125ZM166.02 30.8125L166.004 29.6719H166.191L168.816 27H169.957L167.16 29.8281H167.082L166.02 30.8125ZM165.16 33V25H166.082V33H165.16ZM168.973 33L166.629 30.0312L167.285 29.3906L170.145 33H168.973ZM173.412 33.125C172.834 33.125 172.335 32.9974 171.916 32.7422C171.499 32.4844 171.178 32.125 170.951 31.6641C170.727 31.2005 170.615 30.6615 170.615 30.0469C170.615 29.4323 170.727 28.8906 170.951 28.4219C171.178 27.9505 171.493 27.5833 171.896 27.3203C172.303 27.0547 172.777 26.9219 173.318 26.9219C173.631 26.9219 173.939 26.974 174.244 27.0781C174.549 27.1823 174.826 27.3516 175.076 27.5859C175.326 27.8177 175.525 28.125 175.674 28.5078C175.822 28.8906 175.896 29.362 175.896 29.9219V30.3125H171.271V29.5156H174.959C174.959 29.1771 174.891 28.875 174.756 28.6094C174.623 28.3437 174.433 28.1341 174.186 27.9805C173.941 27.8268 173.652 27.75 173.318 27.75C172.951 27.75 172.633 27.8411 172.365 28.0234C172.1 28.2031 171.895 28.4375 171.752 28.7266C171.609 29.0156 171.537 29.3255 171.537 29.6562V30.1875C171.537 30.6406 171.615 31.0247 171.771 31.3398C171.93 31.6523 172.15 31.8906 172.432 32.0547C172.713 32.2161 173.04 32.2969 173.412 32.2969C173.654 32.2969 173.873 32.263 174.068 32.1953C174.266 32.125 174.437 32.0208 174.58 31.8828C174.723 31.7422 174.834 31.5677 174.912 31.3594L175.803 31.6094C175.709 31.9115 175.551 32.1771 175.33 32.4062C175.109 32.6328 174.835 32.8099 174.51 32.9375C174.184 33.0625 173.818 33.125 173.412 33.125ZM179.908 27V27.7812H176.799V27H179.908ZM177.705 25.5625H178.627V31.2812C178.627 31.5417 178.665 31.737 178.74 31.8672C178.818 31.9948 178.917 32.0807 179.037 32.125C179.16 32.1667 179.288 32.1875 179.424 32.1875C179.525 32.1875 179.609 32.1823 179.674 32.1719C179.739 32.1589 179.791 32.1484 179.83 32.1406L180.018 32.9687C179.955 32.9922 179.868 33.0156 179.756 33.0391C179.644 33.0651 179.502 33.0781 179.33 33.0781C179.07 33.0781 178.814 33.0221 178.564 32.9102C178.317 32.7982 178.111 32.6276 177.947 32.3984C177.786 32.1693 177.705 31.8802 177.705 31.5312V25.5625ZM185.438 28.3437L184.609 28.5781C184.557 28.4401 184.48 28.306 184.379 28.1758C184.28 28.043 184.145 27.9336 183.973 27.8477C183.801 27.7617 183.581 27.7187 183.313 27.7187C182.945 27.7187 182.639 27.8034 182.395 27.9727C182.152 28.1393 182.031 28.3516 182.031 28.6094C182.031 28.8385 182.115 29.0195 182.281 29.1523C182.448 29.2852 182.708 29.3958 183.063 29.4844L183.953 29.7031C184.49 29.8333 184.889 30.0326 185.152 30.3008C185.415 30.5664 185.547 30.9089 185.547 31.3281C185.547 31.6719 185.448 31.9792 185.25 32.25C185.055 32.5208 184.781 32.7344 184.43 32.8906C184.078 33.0469 183.669 33.125 183.203 33.125C182.591 33.125 182.085 32.9922 181.684 32.7266C181.283 32.4609 181.029 32.0729 180.922 31.5625L181.797 31.3437C181.88 31.6667 182.038 31.9089 182.27 32.0703C182.504 32.2318 182.81 32.3125 183.188 32.3125C183.617 32.3125 183.958 32.2214 184.211 32.0391C184.466 31.8542 184.594 31.6328 184.594 31.375C184.594 31.1667 184.521 30.9922 184.375 30.8516C184.229 30.7083 184.005 30.6016 183.703 30.5312L182.703 30.2969C182.154 30.1667 181.75 29.9648 181.492 29.6914C181.237 29.4154 181.109 29.0703 181.109 28.6562C181.109 28.3177 181.204 28.0182 181.395 27.7578C181.587 27.4974 181.849 27.293 182.18 27.1445C182.513 26.9961 182.891 26.9219 183.313 26.9219C183.906 26.9219 184.372 27.0521 184.711 27.3125C185.052 27.5729 185.294 27.9167 185.438 28.3437ZM192.466 33.125C191.903 33.125 191.419 32.9922 191.013 32.7266C190.606 32.4609 190.294 32.0951 190.075 31.6289C189.856 31.1628 189.747 30.6302 189.747 30.0312C189.747 29.4219 189.859 28.8841 190.083 28.418C190.31 27.9492 190.625 27.5833 191.028 27.3203C191.435 27.0547 191.909 26.9219 192.45 26.9219C192.872 26.9219 193.252 27 193.591 27.1562C193.929 27.3125 194.207 27.5312 194.423 27.8125C194.639 28.0937 194.773 28.4219 194.825 28.7969H193.903C193.833 28.5234 193.677 28.2812 193.435 28.0703C193.195 27.8568 192.872 27.75 192.466 27.75C192.106 27.75 191.791 27.8437 191.521 28.0312C191.252 28.2161 191.043 28.4779 190.892 28.8164C190.743 29.1523 190.669 29.5469 190.669 30C190.669 30.4635 190.742 30.8672 190.888 31.2109C191.036 31.5547 191.244 31.8216 191.513 32.0117C191.784 32.2018 192.101 32.2969 192.466 32.2969C192.705 32.2969 192.923 32.2552 193.118 32.1719C193.313 32.0885 193.479 31.9688 193.614 31.8125C193.75 31.6562 193.846 31.4687 193.903 31.25H194.825C194.773 31.6042 194.644 31.9232 194.438 32.207C194.235 32.4883 193.966 32.7122 193.63 32.8789C193.297 33.043 192.909 33.125 192.466 33.125ZM198.61 33.125C198.069 33.125 197.593 32.9961 197.185 32.7383C196.778 32.4805 196.461 32.1198 196.231 31.6562C196.005 31.1927 195.892 30.651 195.892 30.0312C195.892 29.4062 196.005 28.8607 196.231 28.3945C196.461 27.9284 196.778 27.5664 197.185 27.3086C197.593 27.0508 198.069 26.9219 198.61 26.9219C199.152 26.9219 199.626 27.0508 200.032 27.3086C200.441 27.5664 200.759 27.9284 200.985 28.3945C201.215 28.8607 201.329 29.4062 201.329 30.0312C201.329 30.651 201.215 31.1927 200.985 31.6562C200.759 32.1198 200.441 32.4805 200.032 32.7383C199.626 32.9961 199.152 33.125 198.61 33.125ZM198.61 32.2969C199.022 32.2969 199.36 32.1914 199.626 31.9805C199.892 31.7695 200.088 31.4922 200.216 31.1484C200.343 30.8047 200.407 30.4323 200.407 30.0312C200.407 29.6302 200.343 29.2565 200.216 28.9102C200.088 28.5638 199.892 28.2839 199.626 28.0703C199.36 27.8568 199.022 27.75 198.61 27.75C198.199 27.75 197.86 27.8568 197.595 28.0703C197.329 28.2839 197.132 28.5638 197.005 28.9102C196.877 29.2565 196.813 29.6302 196.813 30.0312C196.813 30.4323 196.877 30.8047 197.005 31.1484C197.132 31.4922 197.329 31.7695 197.595 31.9805C197.86 32.1914 198.199 32.2969 198.61 32.2969ZM202.736 33V27H203.627V27.9375H203.705C203.83 27.6172 204.032 27.3685 204.311 27.1914C204.589 27.0117 204.924 26.9219 205.314 26.9219C205.71 26.9219 206.04 27.0117 206.303 27.1914C206.568 27.3685 206.775 27.6172 206.924 27.9375H206.986C207.14 27.6276 207.37 27.3815 207.678 27.1992C207.985 27.0143 208.354 26.9219 208.783 26.9219C209.32 26.9219 209.758 27.0898 210.1 27.4258C210.441 27.7591 210.611 28.2786 210.611 28.9844V33H209.689V28.9844C209.689 28.5417 209.568 28.2253 209.326 28.0352C209.084 27.8451 208.799 27.75 208.471 27.75C208.049 27.75 207.722 27.8776 207.49 28.1328C207.258 28.3854 207.143 28.7057 207.143 29.0937V33H206.205V28.8906C206.205 28.5495 206.094 28.2747 205.873 28.0664C205.652 27.8555 205.367 27.75 205.018 27.75C204.778 27.75 204.554 27.8138 204.346 27.9414C204.14 28.069 203.973 28.2461 203.846 28.4727C203.721 28.6966 203.658 28.9557 203.658 29.25V33H202.736ZM216.484 25V33H215.516V25H216.484ZM218.755 33H217.739L220.677 25H221.677L224.614 33H223.599L221.208 26.2656H221.146L218.755 33ZM219.13 29.875H223.224V30.7344H219.13V29.875Z" fill="black"/>
<path d="M253.179 66.7273L255.338 72.8494H255.423L257.582 66.7273H258.506L255.835 74H254.926L252.256 66.7273H253.179ZM261.304 74.1136C260.778 74.1136 260.325 73.9976 259.944 73.7656C259.565 73.5312 259.273 73.2045 259.067 72.7855C258.863 72.3641 258.761 71.8741 258.761 71.3153C258.761 70.7566 258.863 70.2642 259.067 69.8381C259.273 69.4096 259.559 69.0758 259.926 68.8366C260.295 68.5952 260.726 68.4744 261.219 68.4744C261.503 68.4744 261.783 68.5218 262.06 68.6165C262.337 68.7112 262.589 68.8651 262.817 69.0781C263.044 69.2888 263.225 69.5682 263.36 69.9162C263.495 70.2642 263.562 70.6927 263.562 71.2017V71.5568H259.358V70.8324H262.71C262.71 70.5246 262.649 70.25 262.526 70.0085C262.405 69.767 262.232 69.5765 262.007 69.4368C261.785 69.2971 261.522 69.2273 261.219 69.2273C260.885 69.2273 260.596 69.3101 260.352 69.4759C260.111 69.6392 259.925 69.8523 259.795 70.1151C259.665 70.3778 259.599 70.6596 259.599 70.9602V71.4432C259.599 71.8551 259.67 72.2043 259.812 72.4908C259.957 72.7749 260.157 72.9915 260.413 73.1406C260.668 73.2874 260.965 73.3608 261.304 73.3608C261.524 73.3608 261.723 73.33 261.901 73.2685C262.08 73.2045 262.236 73.1098 262.366 72.9844C262.496 72.8565 262.597 72.6979 262.668 72.5085L263.477 72.7358C263.392 73.0104 263.249 73.2519 263.048 73.4602C262.846 73.6662 262.598 73.8272 262.302 73.9432C262.006 74.0568 261.673 74.1136 261.304 74.1136ZM264.837 74V68.5455H265.647V69.3693H265.704C265.803 69.0994 265.983 68.8804 266.244 68.7124C266.504 68.5443 266.798 68.4602 267.124 68.4602C267.186 68.4602 267.263 68.4614 267.355 68.4638C267.447 68.4661 267.517 68.4697 267.565 68.4744V69.3267C267.536 69.3196 267.471 69.3089 267.369 69.2947C267.27 69.2782 267.165 69.2699 267.053 69.2699C266.788 69.2699 266.551 69.3255 266.343 69.4368C266.137 69.5457 265.974 69.6972 265.853 69.8913C265.735 70.0831 265.675 70.3021 265.675 70.5483V74H264.837ZM271.484 66.7273H272.535L275.007 72.7642H275.092L277.564 66.7273H278.615V74H277.791V68.4744H277.72L275.447 74H274.652L272.379 68.4744H272.308V74H271.484V66.7273ZM281.872 74.1278C281.527 74.1278 281.213 74.0627 280.931 73.9325C280.649 73.8 280.426 73.6094 280.26 73.3608C280.094 73.1098 280.011 72.8068 280.011 72.4517C280.011 72.1392 280.073 71.8859 280.196 71.6918C280.319 71.4953 280.484 71.3414 280.69 71.2301C280.896 71.1188 281.123 71.036 281.371 70.9815C281.622 70.9247 281.875 70.8797 282.128 70.8466C282.459 70.804 282.728 70.772 282.934 70.7507C283.142 70.727 283.294 70.688 283.388 70.6335C283.486 70.5791 283.534 70.4844 283.534 70.3494V70.321C283.534 69.9706 283.438 69.6984 283.246 69.5043C283.057 69.3101 282.769 69.2131 282.384 69.2131C281.983 69.2131 281.67 69.3007 281.442 69.4759C281.215 69.651 281.055 69.8381 280.963 70.0369L280.168 69.7528C280.31 69.4214 280.499 69.1634 280.736 68.9787C280.975 68.7917 281.235 68.6615 281.517 68.5881C281.801 68.5123 282.08 68.4744 282.355 68.4744C282.53 68.4744 282.732 68.4957 282.959 68.5384C283.188 68.5786 283.41 68.6626 283.623 68.7905C283.838 68.9183 284.017 69.1113 284.159 69.3693C284.301 69.6274 284.372 69.973 284.372 70.4062V74H283.534V73.2614H283.491C283.435 73.3797 283.34 73.5064 283.207 73.6413C283.075 73.7763 282.898 73.8911 282.678 73.9858C282.458 74.0805 282.189 74.1278 281.872 74.1278ZM282 73.375C282.331 73.375 282.611 73.3099 282.838 73.1797C283.068 73.0495 283.241 72.8814 283.357 72.6754C283.475 72.4695 283.534 72.2528 283.534 72.0256V71.2585C283.499 71.3011 283.42 71.3402 283.3 71.3757C283.181 71.4089 283.044 71.4384 282.888 71.4645C282.734 71.4882 282.584 71.5095 282.437 71.5284C282.292 71.545 282.175 71.5592 282.085 71.571C281.867 71.5994 281.664 71.6456 281.474 71.7095C281.287 71.7711 281.136 71.8646 281.02 71.9901C280.906 72.1132 280.849 72.2812 280.849 72.4943C280.849 72.7855 280.957 73.0057 281.173 73.1548C281.39 73.3016 281.666 73.375 282 73.375ZM285.902 74V68.5455H286.74V74H285.902ZM286.328 67.6364C286.165 67.6364 286.024 67.5807 285.905 67.4695C285.789 67.3582 285.731 67.2244 285.731 67.0682C285.731 66.9119 285.789 66.7782 285.905 66.6669C286.024 66.5556 286.165 66.5 286.328 66.5C286.491 66.5 286.631 66.5556 286.747 66.6669C286.865 66.7782 286.925 66.9119 286.925 67.0682C286.925 67.2244 286.865 67.3582 286.747 67.4695C286.631 67.5807 286.491 67.6364 286.328 67.6364ZM292.138 69.767L291.386 69.9801C291.338 69.8546 291.268 69.7327 291.176 69.6143C291.086 69.4936 290.963 69.3942 290.807 69.3161C290.651 69.2379 290.451 69.1989 290.207 69.1989C289.873 69.1989 289.595 69.2758 289.372 69.4297C289.152 69.5812 289.042 69.7741 289.042 70.0085C289.042 70.2169 289.118 70.3814 289.269 70.5021C289.421 70.6229 289.657 70.7235 289.979 70.804L290.789 71.0028C291.277 71.1212 291.64 71.3023 291.879 71.5462C292.118 71.7876 292.238 72.099 292.238 72.4801C292.238 72.7926 292.148 73.072 291.968 73.3182C291.79 73.5644 291.542 73.7585 291.222 73.9006C290.903 74.0426 290.531 74.1136 290.107 74.1136C289.551 74.1136 289.09 73.9929 288.726 73.7514C288.361 73.5099 288.13 73.1572 288.033 72.6932L288.829 72.4943C288.905 72.7879 289.048 73.008 289.259 73.1548C289.472 73.3016 289.75 73.375 290.093 73.375C290.484 73.375 290.794 73.2921 291.023 73.1264C291.255 72.9583 291.371 72.7571 291.371 72.5227C291.371 72.3333 291.305 72.1747 291.173 72.0469C291.04 71.9167 290.836 71.8196 290.562 71.7557L289.653 71.5426C289.153 71.4242 288.786 71.2408 288.552 70.9922C288.32 70.7412 288.204 70.4276 288.204 70.0511C288.204 69.7434 288.29 69.4711 288.463 69.2344C288.638 68.9976 288.876 68.8118 289.177 68.6768C289.48 68.5419 289.823 68.4744 290.207 68.4744C290.746 68.4744 291.17 68.5928 291.478 68.8295C291.788 69.0663 292.008 69.3788 292.138 69.767Z" fill="#0015FF"/>
<path d="M252 75.9886H292.735V76.6705H252V75.9886Z" fill="#0015FF"/>
<path d="M4 10C4 4.47715 8.47715 0 14 0H87V83H14C8.47715 83 4 78.5228 4 73V10Z" fill="#ECEEFF"/>
<path d="M19.1523 40.912H19.6523V58.5585H19.1523V59.0585C16.5832 59.0585 14.5001 56.9753 14.5 54.4062V45.0644C14.5 42.4951 16.5831 40.412 19.1523 40.412V40.912Z" fill="#D9D9D9" stroke="black"/>
<path d="M71.0518 58.558H70.5518V40.9116H71.0518V40.4116C73.6209 40.4116 75.704 42.4947 75.7041 45.0639V54.4057C75.7041 56.9749 73.621 59.058 71.0518 59.058V58.558Z" fill="#D9D9D9" stroke="black"/>
<rect x="18.864" y="32.32" width="52.4761" height="33.792" rx="11.25" fill="#D9D9D9" stroke="black" stroke-width="1.5"/>
<rect x="24.842" y="38.298" width="40.5201" height="21.836" rx="6.5" fill="#2294FF" stroke="black"/>
<path d="M45.1021 23.266L45.1021 28.975" stroke="black" stroke-width="2"/>
<path d="M39.9121 32.608C39.9121 29.7416 42.2358 27.418 45.1021 27.418V27.418C47.9685 27.418 50.2921 29.7416 50.2921 32.608V32.608H39.9121V32.608Z" fill="#D9D9D9" stroke="black"/>
<circle cx="45.1021" cy="20.152" r="3.652" fill="#2294FF" stroke="black"/>
<rect x="33.6841" y="45.064" width="5.19001" height="9.34201" rx="2.5" fill="black"/>
<rect x="52.368" y="45.064" width="5.19001" height="9.34201" rx="2.5" fill="black"/>
<defs>
<filter id="filter0_d_73_107" x="0" y="0" width="306" height="91" filterUnits="userSpaceOnUse" color-interpolation-filters="sRGB">
<feFlood flood-opacity="0" result="BackgroundImageFix"/>
<feColorMatrix in="SourceAlpha" type="matrix" values="0 0 0 0 0 0 0 0 0 0 0 0 0 0 0 0 0 0 127 0" result="hardAlpha"/>
<feOffset dy="4"/>
<feGaussianBlur stdDeviation="2"/>
<feComposite in2="hardAlpha" operator="out"/>
<feColorMatrix type="matrix" values="0 0 0 0 0 0 0 0 0 0 0 0 0 0 0 0 0 0 0.25 0"/>
<feBlend mode="normal" in2="BackgroundImageFix" result="effect1_dropShadow_73_107"/>
<feBlend mode="normal" in="SourceGraphic" in2="effect1_dropShadow_73_107" result="shape"/>
</filter>
</defs>
</svg>
