<svg width="306" height="91" viewBox="0 0 306 91" fill="none" xmlns="http://www.w3.org/2000/svg">
<g filter="url(#filter0_d_71_103)">
<rect x="4" width="298" height="83" rx="10" fill="#FCFCFC"/>
</g>
<path d="M92.8608 20V11.2727H98.5369V12.598H94.4418V14.9673H98.2429V16.2926H94.4418V18.6747H98.571V20H92.8608ZM105.255 15.1847L103.849 15.3381C103.809 15.196 103.739 15.0625 103.64 14.9375C103.543 14.8125 103.413 14.7116 103.248 14.6349C103.083 14.5582 102.881 14.5199 102.643 14.5199C102.322 14.5199 102.052 14.5895 101.833 14.7287C101.617 14.8679 101.511 15.0483 101.513 15.2699C101.511 15.4602 101.58 15.6151 101.722 15.7344C101.867 15.8537 102.106 15.9517 102.438 16.0284L103.555 16.267C104.174 16.4006 104.634 16.6122 104.935 16.902C105.239 17.1918 105.393 17.571 105.396 18.0398C105.393 18.4517 105.272 18.8153 105.033 19.1307C104.798 19.4432 104.469 19.6875 104.049 19.8636C103.629 20.0398 103.146 20.1278 102.6 20.1278C101.799 20.1278 101.154 19.9602 100.665 19.625C100.177 19.2869 99.8857 18.8168 99.7919 18.2145L101.296 18.0696C101.364 18.3651 101.509 18.5881 101.731 18.7386C101.952 18.8892 102.241 18.9645 102.596 18.9645C102.962 18.9645 103.256 18.8892 103.478 18.7386C103.702 18.5881 103.815 18.402 103.815 18.1804C103.815 17.9929 103.742 17.8381 103.597 17.7159C103.455 17.5937 103.234 17.5 102.933 17.4347L101.816 17.2003C101.188 17.0696 100.724 16.8494 100.423 16.5398C100.121 16.2273 99.9723 15.8324 99.9751 15.3551C99.9723 14.9517 100.082 14.6023 100.303 14.3068C100.528 14.0085 100.839 13.7784 101.237 13.6165C101.637 13.4517 102.099 13.3693 102.621 13.3693C103.388 13.3693 103.992 13.5327 104.433 13.8594C104.876 14.1861 105.15 14.6278 105.255 15.1847ZM109.936 13.4545V14.6477H106.173V13.4545H109.936ZM107.102 11.8864H108.645V18.0312C108.645 18.2386 108.676 18.3977 108.739 18.5085C108.804 18.6165 108.889 18.6903 108.994 18.7301C109.099 18.7699 109.216 18.7898 109.344 18.7898C109.44 18.7898 109.528 18.7827 109.608 18.7685C109.69 18.7543 109.753 18.7415 109.795 18.7301L110.055 19.9361C109.973 19.9645 109.855 19.9957 109.702 20.0298C109.551 20.0639 109.366 20.0838 109.148 20.0895C108.761 20.1009 108.413 20.0426 108.104 19.9148C107.794 19.7841 107.548 19.5824 107.366 19.3097C107.188 19.0369 107.099 18.696 107.102 18.2869V11.8864ZM115.398 17.2472V13.4545H116.941V20H115.445V18.8366H115.377C115.229 19.2031 114.986 19.5028 114.648 19.7358C114.313 19.9687 113.9 20.0852 113.408 20.0852C112.979 20.0852 112.6 19.9901 112.27 19.7997C111.944 19.6065 111.688 19.3267 111.503 18.9602C111.319 18.5909 111.226 18.1449 111.226 17.6222V13.4545H112.769V17.3835C112.769 17.7983 112.882 18.1278 113.11 18.3722C113.337 18.6165 113.635 18.7386 114.005 18.7386C114.232 18.7386 114.452 18.6832 114.665 18.5724C114.878 18.4616 115.053 18.2969 115.189 18.0781C115.328 17.8565 115.398 17.5795 115.398 17.2472ZM120.956 20.1151C120.442 20.1151 119.982 19.983 119.575 19.7188C119.169 19.4545 118.848 19.071 118.612 18.5682C118.376 18.0653 118.259 17.4545 118.259 16.7358C118.259 16.0085 118.378 15.3949 118.616 14.8949C118.858 14.392 119.183 14.0128 119.592 13.7571C120.001 13.4986 120.457 13.3693 120.96 13.3693C121.344 13.3693 121.659 13.4347 121.906 13.5653C122.153 13.6932 122.349 13.848 122.494 14.0298C122.639 14.2088 122.751 14.3778 122.831 14.5369H122.895V11.2727H124.442V20H122.925V18.9688H122.831C122.751 19.1278 122.636 19.2969 122.486 19.4759C122.335 19.652 122.136 19.8026 121.889 19.9276C121.642 20.0526 121.331 20.1151 120.956 20.1151ZM121.386 18.8494C121.713 18.8494 121.991 18.7614 122.222 18.5852C122.452 18.4062 122.626 18.1577 122.746 17.8395C122.865 17.5213 122.925 17.1506 122.925 16.7273C122.925 16.304 122.865 15.9361 122.746 15.6236C122.629 15.3111 122.456 15.0682 122.226 14.8949C121.999 14.7216 121.719 14.6349 121.386 14.6349C121.043 14.6349 120.756 14.7244 120.526 14.9034C120.295 15.0824 120.122 15.3295 120.006 15.6449C119.889 15.9602 119.831 16.321 119.831 16.7273C119.831 17.1364 119.889 17.5014 120.006 17.8224C120.125 18.1406 120.3 18.392 120.53 18.5767C120.763 18.7585 121.048 18.8494 121.386 18.8494ZM128.941 20.1278C128.301 20.1278 127.748 19.9872 127.279 19.706C126.81 19.4247 126.446 19.0312 126.188 18.5256C125.932 18.0199 125.804 17.429 125.804 16.7528C125.804 16.0767 125.932 15.4844 126.188 14.9759C126.446 14.4673 126.81 14.0724 127.279 13.7912C127.748 13.5099 128.301 13.3693 128.941 13.3693C129.58 13.3693 130.134 13.5099 130.603 13.7912C131.071 14.0724 131.434 14.4673 131.689 14.9759C131.948 15.4844 132.077 16.0767 132.077 16.7528C132.077 17.429 131.948 18.0199 131.689 18.5256C131.434 19.0312 131.071 19.4247 130.603 19.706C130.134 19.9872 129.58 20.1278 128.941 20.1278ZM128.949 18.892C129.296 18.892 129.586 18.7969 129.819 18.6065C130.051 18.4134 130.225 18.1548 130.338 17.831C130.455 17.5071 130.513 17.1463 130.513 16.7486C130.513 16.348 130.455 15.9858 130.338 15.6619C130.225 15.3352 130.051 15.0753 129.819 14.8821C129.586 14.6889 129.296 14.5923 128.949 14.5923C128.594 14.5923 128.299 14.6889 128.063 14.8821C127.83 15.0753 127.655 15.3352 127.539 15.6619C127.425 15.9858 127.368 16.348 127.368 16.7486C127.368 17.1463 127.425 17.5071 127.539 17.831C127.655 18.1548 127.83 18.4134 128.063 18.6065C128.299 18.7969 128.594 18.892 128.949 18.892ZM138.56 15.1847L137.153 15.3381C137.114 15.196 137.044 15.0625 136.945 14.9375C136.848 14.8125 136.717 14.7116 136.553 14.6349C136.388 14.5582 136.186 14.5199 135.947 14.5199C135.626 14.5199 135.357 14.5895 135.138 14.7287C134.922 14.8679 134.815 15.0483 134.818 15.2699C134.815 15.4602 134.885 15.6151 135.027 15.7344C135.172 15.8537 135.411 15.9517 135.743 16.0284L136.859 16.267C137.479 16.4006 137.939 16.6122 138.24 16.902C138.544 17.1918 138.697 17.571 138.7 18.0398C138.697 18.4517 138.577 18.8153 138.338 19.1307C138.102 19.4432 137.774 19.6875 137.354 19.8636C136.933 20.0398 136.45 20.1278 135.905 20.1278C135.104 20.1278 134.459 19.9602 133.97 19.625C133.482 19.2869 133.19 18.8168 133.097 18.2145L134.601 18.0696C134.669 18.3651 134.814 18.5881 135.036 18.7386C135.257 18.8892 135.545 18.9645 135.901 18.9645C136.267 18.9645 136.561 18.8892 136.783 18.7386C137.007 18.5881 137.119 18.402 137.119 18.1804C137.119 17.9929 137.047 17.8381 136.902 17.7159C136.76 17.5937 136.538 17.5 136.237 17.4347L135.121 17.2003C134.493 17.0696 134.028 16.8494 133.727 16.5398C133.426 16.2273 133.277 15.8324 133.28 15.3551C133.277 14.9517 133.386 14.6023 133.608 14.3068C133.832 14.0085 134.143 13.7784 134.541 13.6165C134.942 13.4517 135.403 13.3693 135.926 13.3693C136.693 13.3693 137.297 13.5327 137.737 13.8594C138.18 14.1861 138.455 14.6278 138.56 15.1847ZM145.378 20.1151C144.864 20.1151 144.403 19.983 143.997 19.7188C143.591 19.4545 143.27 19.071 143.034 18.5682C142.798 18.0653 142.68 17.4545 142.68 16.7358C142.68 16.0085 142.8 15.3949 143.038 14.8949C143.28 14.392 143.605 14.0128 144.014 13.7571C144.423 13.4986 144.879 13.3693 145.382 13.3693C145.766 13.3693 146.081 13.4347 146.328 13.5653C146.575 13.6932 146.771 13.848 146.916 14.0298C147.061 14.2088 147.173 14.3778 147.253 14.5369H147.317V11.2727H148.864V20H147.347V18.9688H147.253C147.173 19.1278 147.058 19.2969 146.908 19.4759C146.757 19.652 146.558 19.8026 146.311 19.9276C146.064 20.0526 145.753 20.1151 145.378 20.1151ZM145.808 18.8494C146.135 18.8494 146.413 18.7614 146.643 18.5852C146.874 18.4062 147.048 18.1577 147.168 17.8395C147.287 17.5213 147.347 17.1506 147.347 16.7273C147.347 16.304 147.287 15.9361 147.168 15.6236C147.051 15.3111 146.878 15.0682 146.648 14.8949C146.42 14.7216 146.141 14.6349 145.808 14.6349C145.464 14.6349 145.178 14.7244 144.947 14.9034C144.717 15.0824 144.544 15.3295 144.428 15.6449C144.311 15.9602 144.253 16.321 144.253 16.7273C144.253 17.1364 144.311 17.5014 144.428 17.8224C144.547 18.1406 144.722 18.392 144.952 18.5767C145.185 18.7585 145.47 18.8494 145.808 18.8494ZM153.405 20.1278C152.749 20.1278 152.182 19.9915 151.705 19.7188C151.23 19.4432 150.865 19.054 150.61 18.5511C150.354 18.0455 150.226 17.4503 150.226 16.7656C150.226 16.0923 150.354 15.5014 150.61 14.9929C150.868 14.4815 151.229 14.0838 151.692 13.7997C152.155 13.5128 152.699 13.3693 153.324 13.3693C153.728 13.3693 154.108 13.4347 154.466 13.5653C154.827 13.6932 155.145 13.892 155.421 14.1619C155.699 14.4318 155.918 14.7756 156.077 15.1932C156.236 15.608 156.316 16.1023 156.316 16.6761V17.1491H150.951V16.1094H154.837C154.834 15.8139 154.77 15.5511 154.645 15.321C154.52 15.0881 154.346 14.9048 154.121 14.7713C153.9 14.6378 153.641 14.571 153.346 14.571C153.03 14.571 152.753 14.6477 152.515 14.8011C152.276 14.9517 152.09 15.1506 151.956 15.3977C151.826 15.642 151.759 15.9105 151.756 16.2031V17.1108C151.756 17.4915 151.826 17.8182 151.965 18.0909C152.104 18.3608 152.299 18.5682 152.549 18.7131C152.799 18.8551 153.091 18.9261 153.426 18.9261C153.651 18.9261 153.854 18.8949 154.036 18.8324C154.218 18.767 154.375 18.6719 154.509 18.5469C154.642 18.4219 154.743 18.267 154.811 18.0824L156.252 18.2443C156.161 18.625 155.988 18.9574 155.732 19.2415C155.479 19.5227 155.155 19.7415 154.76 19.8977C154.365 20.0511 153.914 20.1278 153.405 20.1278ZM168.136 14.2173H166.542C166.496 13.956 166.413 13.7244 166.29 13.5227C166.168 13.3182 166.016 13.1449 165.835 13.0028C165.653 12.8608 165.445 12.7543 165.212 12.6832C164.982 12.6094 164.734 12.5724 164.467 12.5724C163.992 12.5724 163.572 12.6918 163.205 12.9304C162.839 13.1662 162.552 13.5128 162.344 13.9702C162.137 14.4247 162.033 14.9801 162.033 15.6364C162.033 16.304 162.137 16.8665 162.344 17.3239C162.555 17.7784 162.842 18.1222 163.205 18.3551C163.572 18.5852 163.991 18.7003 164.462 18.7003C164.724 18.7003 164.968 18.6662 165.195 18.598C165.425 18.527 165.631 18.4233 165.813 18.2869C165.998 18.1506 166.153 17.983 166.278 17.7841C166.406 17.5852 166.494 17.358 166.542 17.1023L168.136 17.1108C168.076 17.5256 167.947 17.9148 167.748 18.2784C167.552 18.642 167.295 18.9631 166.977 19.2415C166.658 19.517 166.286 19.733 165.86 19.8892C165.434 20.0426 164.961 20.1193 164.441 20.1193C163.674 20.1193 162.989 19.9418 162.387 19.5866C161.785 19.2315 161.31 18.7188 160.964 18.0483C160.617 17.3778 160.444 16.5739 160.444 15.6364C160.444 14.696 160.619 13.892 160.968 13.2244C161.317 12.554 161.793 12.0412 162.396 11.6861C162.998 11.331 163.68 11.1534 164.441 11.1534C164.927 11.1534 165.379 11.2216 165.796 11.358C166.214 11.4943 166.586 11.6946 166.913 11.9588C167.239 12.2202 167.508 12.5412 167.718 12.9219C167.931 13.2997 168.07 13.7315 168.136 14.2173ZM171.399 20.1321C170.984 20.1321 170.61 20.0582 170.278 19.9105C169.949 19.7599 169.687 19.5384 169.494 19.2457C169.304 18.9531 169.208 18.5923 169.208 18.1634C169.208 17.794 169.277 17.4886 169.413 17.2472C169.549 17.0057 169.735 16.8125 169.971 16.6676C170.207 16.5227 170.473 16.4134 170.768 16.3395C171.066 16.2628 171.375 16.2074 171.693 16.1733C172.076 16.1335 172.387 16.098 172.626 16.0668C172.865 16.0327 173.038 15.9815 173.146 15.9134C173.257 15.8423 173.312 15.733 173.312 15.5852V15.5597C173.312 15.2386 173.217 14.9901 173.027 14.8139C172.836 14.6378 172.562 14.5497 172.204 14.5497C171.826 14.5497 171.527 14.6321 171.305 14.7969C171.086 14.9616 170.939 15.1562 170.862 15.3807L169.422 15.1761C169.535 14.7784 169.723 14.446 169.984 14.179C170.245 13.9091 170.565 13.7074 170.943 13.5739C171.321 13.4375 171.738 13.3693 172.196 13.3693C172.511 13.3693 172.825 13.4062 173.137 13.4801C173.45 13.554 173.735 13.6761 173.994 13.8466C174.252 14.0142 174.46 14.2429 174.616 14.5327C174.775 14.8224 174.855 15.1847 174.855 15.6193V20H173.372V19.1009H173.321C173.227 19.2827 173.095 19.4531 172.924 19.6122C172.757 19.7685 172.545 19.8949 172.289 19.9915C172.037 20.0852 171.74 20.1321 171.399 20.1321ZM171.799 18.9986C172.109 18.9986 172.377 18.9375 172.605 18.8153C172.832 18.6903 173.007 18.5256 173.129 18.321C173.254 18.1165 173.316 17.8935 173.316 17.652V16.8807C173.268 16.9205 173.186 16.9574 173.069 16.9915C172.956 17.0256 172.828 17.0554 172.686 17.081C172.544 17.1065 172.403 17.1293 172.264 17.1491C172.125 17.169 172.004 17.1861 171.902 17.2003C171.672 17.2315 171.466 17.2827 171.284 17.3537C171.102 17.4247 170.958 17.5241 170.853 17.652C170.748 17.777 170.696 17.9389 170.696 18.1378C170.696 18.4219 170.799 18.6364 171.007 18.7812C171.214 18.9261 171.478 18.9986 171.799 18.9986ZM181.579 15.1847L180.173 15.3381C180.133 15.196 180.064 15.0625 179.964 14.9375C179.868 14.8125 179.737 14.7116 179.572 14.6349C179.407 14.5582 179.206 14.5199 178.967 14.5199C178.646 14.5199 178.376 14.5895 178.157 14.7287C177.941 14.8679 177.835 15.0483 177.838 15.2699C177.835 15.4602 177.904 15.6151 178.047 15.7344C178.191 15.8537 178.43 15.9517 178.762 16.0284L179.879 16.267C180.498 16.4006 180.958 16.6122 181.26 16.902C181.564 17.1918 181.717 17.571 181.72 18.0398C181.717 18.4517 181.596 18.8153 181.358 19.1307C181.122 19.4432 180.794 19.6875 180.373 19.8636C179.953 20.0398 179.47 20.1278 178.924 20.1278C178.123 20.1278 177.478 19.9602 176.99 19.625C176.501 19.2869 176.21 18.8168 176.116 18.2145L177.62 18.0696C177.689 18.3651 177.833 18.5881 178.055 18.7386C178.277 18.8892 178.565 18.9645 178.92 18.9645C179.287 18.9645 179.581 18.8892 179.802 18.7386C180.027 18.5881 180.139 18.402 180.139 18.1804C180.139 17.9929 180.066 17.8381 179.922 17.7159C179.779 17.5937 179.558 17.5 179.257 17.4347L178.14 17.2003C177.512 17.0696 177.048 16.8494 176.747 16.5398C176.446 16.2273 176.297 15.8324 176.299 15.3551C176.297 14.9517 176.406 14.6023 176.627 14.3068C176.852 14.0085 177.163 13.7784 177.561 13.6165C177.961 13.4517 178.423 13.3693 178.946 13.3693C179.713 13.3693 180.316 13.5327 180.757 13.8594C181.2 14.1861 181.474 14.6278 181.579 15.1847ZM185.847 20.1278C185.208 20.1278 184.654 19.9872 184.185 19.706C183.716 19.4247 183.353 19.0312 183.094 18.5256C182.838 18.0199 182.711 17.429 182.711 16.7528C182.711 16.0767 182.838 15.4844 183.094 14.9759C183.353 14.4673 183.716 14.0724 184.185 13.7912C184.654 13.5099 185.208 13.3693 185.847 13.3693C186.486 13.3693 187.04 13.5099 187.509 13.7912C187.978 14.0724 188.34 14.4673 188.596 14.9759C188.854 15.4844 188.983 16.0767 188.983 16.7528C188.983 17.429 188.854 18.0199 188.596 18.5256C188.34 19.0312 187.978 19.4247 187.509 19.706C187.04 19.9872 186.486 20.1278 185.847 20.1278ZM185.855 18.892C186.202 18.892 186.492 18.7969 186.725 18.6065C186.958 18.4134 187.131 18.1548 187.245 17.831C187.361 17.5071 187.419 17.1463 187.419 16.7486C187.419 16.348 187.361 15.9858 187.245 15.6619C187.131 15.3352 186.958 15.0753 186.725 14.8821C186.492 14.6889 186.202 14.5923 185.855 14.5923C185.5 14.5923 185.205 14.6889 184.969 14.8821C184.736 15.0753 184.561 15.3352 184.445 15.6619C184.331 15.9858 184.275 16.348 184.275 16.7486C184.275 17.1463 184.331 17.5071 184.445 17.831C184.561 18.1548 184.736 18.4134 184.969 18.6065C185.205 18.7969 185.5 18.892 185.855 18.892ZM197.237 15.0014V16.2713H193.308V15.0014H197.237ZM203.025 20H201.337L204.409 11.2727H206.361L209.438 20H207.75L205.419 13.0625H205.351L203.025 20ZM203.08 16.5781H207.682V17.848H203.08V16.5781ZM212.062 16.1648V20H210.519V13.4545H211.994V14.5668H212.07C212.221 14.2003 212.461 13.9091 212.79 13.6932C213.123 13.4773 213.533 13.3693 214.022 13.3693C214.474 13.3693 214.867 13.4659 215.202 13.6591C215.54 13.8523 215.802 14.1321 215.987 14.4986C216.174 14.8651 216.266 15.3097 216.263 15.8324V20H214.721V16.071C214.721 15.6335 214.607 15.2912 214.38 15.044C214.156 14.7969 213.844 14.6733 213.447 14.6733C213.177 14.6733 212.937 14.733 212.727 14.8523C212.519 14.9687 212.356 15.1378 212.237 15.3594C212.12 15.581 212.062 15.8494 212.062 16.1648ZM219.715 20.1321C219.3 20.1321 218.927 20.0582 218.594 19.9105C218.265 19.7599 218.004 19.5384 217.81 19.2457C217.62 18.9531 217.525 18.5923 217.525 18.1634C217.525 17.794 217.593 17.4886 217.729 17.2472C217.866 17.0057 218.052 16.8125 218.288 16.6676C218.523 16.5227 218.789 16.4134 219.085 16.3395C219.383 16.2628 219.691 16.2074 220.009 16.1733C220.393 16.1335 220.704 16.098 220.942 16.0668C221.181 16.0327 221.354 15.9815 221.462 15.9134C221.573 15.8423 221.629 15.733 221.629 15.5852V15.5597C221.629 15.2386 221.533 14.9901 221.343 14.8139C221.153 14.6378 220.879 14.5497 220.521 14.5497C220.143 14.5497 219.843 14.6321 219.621 14.7969C219.403 14.9616 219.255 15.1562 219.178 15.3807L217.738 15.1761C217.852 14.7784 218.039 14.446 218.3 14.179C218.562 13.9091 218.881 13.7074 219.259 13.5739C219.637 13.4375 220.055 13.3693 220.512 13.3693C220.827 13.3693 221.141 13.4062 221.454 13.4801C221.766 13.554 222.052 13.6761 222.31 13.8466C222.569 14.0142 222.776 14.2429 222.933 14.5327C223.092 14.8224 223.171 15.1847 223.171 15.6193V20H221.688V19.1009H221.637C221.543 19.2827 221.411 19.4531 221.241 19.6122C221.073 19.7685 220.862 19.8949 220.606 19.9915C220.353 20.0852 220.056 20.1321 219.715 20.1321ZM220.116 18.9986C220.425 18.9986 220.694 18.9375 220.921 18.8153C221.148 18.6903 221.323 18.5256 221.445 18.321C221.57 18.1165 221.633 17.8935 221.633 17.652V16.8807C221.585 16.9205 221.502 16.9574 221.386 16.9915C221.272 17.0256 221.144 17.0554 221.002 17.081C220.86 17.1065 220.719 17.1293 220.58 17.1491C220.441 17.169 220.32 17.1861 220.218 17.2003C219.988 17.2315 219.782 17.2827 219.6 17.3537C219.418 17.4247 219.275 17.5241 219.17 17.652C219.065 17.777 219.012 17.9389 219.012 18.1378C219.012 18.4219 219.116 18.6364 219.323 18.7812C219.531 18.9261 219.795 18.9986 220.116 18.9986ZM226.265 11.2727V20H224.722V11.2727H226.265ZM227.851 20V13.4545H229.394V20H227.851ZM228.627 12.5256C228.382 12.5256 228.172 12.4446 227.996 12.2827C227.82 12.1179 227.732 11.9205 227.732 11.6903C227.732 11.4574 227.82 11.2599 227.996 11.098C228.172 10.9332 228.382 10.8509 228.627 10.8509C228.874 10.8509 229.084 10.9332 229.257 11.098C229.434 11.2599 229.522 11.4574 229.522 11.6903C229.522 11.9205 229.434 12.1179 229.257 12.2827C229.084 12.4446 228.874 12.5256 228.627 12.5256ZM236.153 15.1847L234.747 15.3381C234.707 15.196 234.638 15.0625 234.538 14.9375C234.442 14.8125 234.311 14.7116 234.146 14.6349C233.982 14.5582 233.78 14.5199 233.541 14.5199C233.22 14.5199 232.95 14.5895 232.732 14.7287C232.516 14.8679 232.409 15.0483 232.412 15.2699C232.409 15.4602 232.479 15.6151 232.621 15.7344C232.766 15.8537 233.004 15.9517 233.337 16.0284L234.453 16.267C235.072 16.4006 235.533 16.6122 235.834 16.902C236.138 17.1918 236.291 17.571 236.294 18.0398C236.291 18.4517 236.17 18.8153 235.932 19.1307C235.696 19.4432 235.368 19.6875 234.947 19.8636C234.527 20.0398 234.044 20.1278 233.499 20.1278C232.697 20.1278 232.053 19.9602 231.564 19.625C231.075 19.2869 230.784 18.8168 230.69 18.2145L232.195 18.0696C232.263 18.3651 232.408 18.5881 232.629 18.7386C232.851 18.8892 233.139 18.9645 233.494 18.9645C233.861 18.9645 234.155 18.8892 234.376 18.7386C234.601 18.5881 234.713 18.402 234.713 18.1804C234.713 17.9929 234.641 17.8381 234.496 17.7159C234.354 17.5937 234.132 17.5 233.831 17.4347L232.714 17.2003C232.087 17.0696 231.622 16.8494 231.321 16.5398C231.02 16.2273 230.871 15.8324 230.874 15.3551C230.871 14.9517 230.98 14.6023 231.202 14.3068C231.426 14.0085 231.737 13.7784 232.135 13.6165C232.536 13.4517 232.997 13.3693 233.52 13.3693C234.287 13.3693 234.891 13.5327 235.331 13.8594C235.774 14.1861 236.048 14.6278 236.153 15.1847ZM240.835 13.4545V14.6477H237.072V13.4545H240.835ZM238.001 11.8864H239.543V18.0312C239.543 18.2386 239.575 18.3977 239.637 18.5085C239.702 18.6165 239.788 18.6903 239.893 18.7301C239.998 18.7699 240.114 18.7898 240.242 18.7898C240.339 18.7898 240.427 18.7827 240.506 18.7685C240.589 18.7543 240.651 18.7415 240.694 18.7301L240.954 19.9361C240.871 19.9645 240.754 19.9957 240.6 20.0298C240.45 20.0639 240.265 20.0838 240.046 20.0895C239.66 20.1009 239.312 20.0426 239.002 19.9148C238.692 19.7841 238.447 19.5824 238.265 19.3097C238.086 19.0369 237.998 18.696 238.001 18.2869V11.8864ZM244.008 20.1321C243.593 20.1321 243.22 20.0582 242.887 19.9105C242.558 19.7599 242.297 19.5384 242.103 19.2457C241.913 18.9531 241.818 18.5923 241.818 18.1634C241.818 17.794 241.886 17.4886 242.022 17.2472C242.159 17.0057 242.345 16.8125 242.581 16.6676C242.816 16.5227 243.082 16.4134 243.377 16.3395C243.676 16.2628 243.984 16.2074 244.302 16.1733C244.686 16.1335 244.997 16.098 245.235 16.0668C245.474 16.0327 245.647 15.9815 245.755 15.9134C245.866 15.8423 245.922 15.733 245.922 15.5852V15.5597C245.922 15.2386 245.826 14.9901 245.636 14.8139C245.446 14.6378 245.172 14.5497 244.814 14.5497C244.436 14.5497 244.136 14.6321 243.914 14.7969C243.696 14.9616 243.548 15.1562 243.471 15.3807L242.031 15.1761C242.145 14.7784 242.332 14.446 242.593 14.179C242.855 13.9091 243.174 13.7074 243.552 13.5739C243.93 13.4375 244.348 13.3693 244.805 13.3693C245.12 13.3693 245.434 13.4062 245.747 13.4801C246.059 13.554 246.345 13.6761 246.603 13.8466C246.862 14.0142 247.069 14.2429 247.225 14.5327C247.385 14.8224 247.464 15.1847 247.464 15.6193V20H245.981V19.1009H245.93C245.836 19.2827 245.704 19.4531 245.534 19.6122C245.366 19.7685 245.154 19.8949 244.899 19.9915C244.646 20.0852 244.349 20.1321 244.008 20.1321ZM244.409 18.9986C244.718 18.9986 244.987 18.9375 245.214 18.8153C245.441 18.6903 245.616 18.5256 245.738 18.321C245.863 18.1165 245.926 17.8935 245.926 17.652V16.8807C245.877 16.9205 245.795 16.9574 245.679 16.9915C245.565 17.0256 245.437 17.0554 245.295 17.081C245.153 17.1065 245.012 17.1293 244.873 17.1491C244.734 17.169 244.613 17.1861 244.511 17.2003C244.281 17.2315 244.075 17.2827 243.893 17.3537C243.711 17.4247 243.568 17.5241 243.463 17.652C243.358 17.777 243.305 17.9389 243.305 18.1378C243.305 18.4219 243.409 18.6364 243.616 18.7812C243.824 18.9261 244.088 18.9986 244.409 18.9986ZM251.676 12.598V11.2727H258.64V12.598H255.942V20H254.374V12.598H251.676ZM261.862 20.1278C261.206 20.1278 260.639 19.9915 260.162 19.7188C259.688 19.4432 259.322 19.054 259.067 18.5511C258.811 18.0455 258.683 17.4503 258.683 16.7656C258.683 16.0923 258.811 15.5014 259.067 14.9929C259.325 14.4815 259.686 14.0838 260.149 13.7997C260.612 13.5128 261.156 13.3693 261.781 13.3693C262.185 13.3693 262.565 13.4347 262.923 13.5653C263.284 13.6932 263.602 13.892 263.878 14.1619C264.156 14.4318 264.375 14.7756 264.534 15.1932C264.693 15.608 264.773 16.1023 264.773 16.6761V17.1491H259.408V16.1094H263.294C263.291 15.8139 263.227 15.5511 263.102 15.321C262.977 15.0881 262.803 14.9048 262.578 14.7713C262.357 14.6378 262.098 14.571 261.803 14.571C261.487 14.571 261.21 14.6477 260.972 14.8011C260.733 14.9517 260.547 15.1506 260.413 15.3977C260.283 15.642 260.216 15.9105 260.213 16.2031V17.1108C260.213 17.4915 260.283 17.8182 260.422 18.0909C260.561 18.3608 260.756 18.5682 261.006 18.7131C261.256 18.8551 261.548 18.9261 261.884 18.9261C262.108 18.9261 262.311 18.8949 262.493 18.8324C262.675 18.767 262.832 18.6719 262.966 18.5469C263.099 18.4219 263.2 18.267 263.268 18.0824L264.709 18.2443C264.618 18.625 264.445 18.9574 264.189 19.2415C263.936 19.5227 263.612 19.7415 263.217 19.8977C262.822 20.0511 262.371 20.1278 261.862 20.1278ZM271.251 15.1847L269.845 15.3381C269.805 15.196 269.735 15.0625 269.636 14.9375C269.539 14.8125 269.409 14.7116 269.244 14.6349C269.079 14.5582 268.877 14.5199 268.639 14.5199C268.318 14.5199 268.048 14.5895 267.829 14.7287C267.613 14.8679 267.507 15.0483 267.51 15.2699C267.507 15.4602 267.576 15.6151 267.718 15.7344C267.863 15.8537 268.102 15.9517 268.434 16.0284L269.551 16.267C270.17 16.4006 270.63 16.6122 270.931 16.902C271.235 17.1918 271.389 17.571 271.392 18.0398C271.389 18.4517 271.268 18.8153 271.029 19.1307C270.794 19.4432 270.466 19.6875 270.045 19.8636C269.625 20.0398 269.142 20.1278 268.596 20.1278C267.795 20.1278 267.15 19.9602 266.662 19.625C266.173 19.2869 265.882 18.8168 265.788 18.2145L267.292 18.0696C267.36 18.3651 267.505 18.5881 267.727 18.7386C267.949 18.8892 268.237 18.9645 268.592 18.9645C268.958 18.9645 269.252 18.8892 269.474 18.7386C269.699 18.5881 269.811 18.402 269.811 18.1804C269.811 17.9929 269.738 17.8381 269.593 17.7159C269.451 17.5937 269.23 17.5 268.929 17.4347L267.812 17.2003C267.184 17.0696 266.72 16.8494 266.419 16.5398C266.118 16.2273 265.968 15.8324 265.971 15.3551C265.968 14.9517 266.078 14.6023 266.299 14.3068C266.524 14.0085 266.835 13.7784 267.233 13.6165C267.633 13.4517 268.095 13.3693 268.618 13.3693C269.385 13.3693 269.988 13.5327 270.429 13.8594C270.872 14.1861 271.146 14.6278 271.251 15.1847ZM275.932 13.4545V14.6477H272.169V13.4545H275.932ZM273.098 11.8864H274.641V18.0312C274.641 18.2386 274.672 18.3977 274.735 18.5085C274.8 18.6165 274.885 18.6903 274.99 18.7301C275.096 18.7699 275.212 18.7898 275.34 18.7898C275.436 18.7898 275.525 18.7827 275.604 18.7685C275.686 18.7543 275.749 18.7415 275.792 18.7301L276.051 19.9361C275.969 19.9645 275.851 19.9957 275.698 20.0298C275.547 20.0639 275.363 20.0838 275.144 20.0895C274.757 20.1009 274.409 20.0426 274.1 19.9148C273.79 19.7841 273.544 19.5824 273.363 19.3097C273.184 19.0369 273.096 18.696 273.098 18.2869V11.8864ZM280.05 20.1278C279.393 20.1278 278.827 19.9915 278.349 19.7188C277.875 19.4432 277.51 19.054 277.254 18.5511C276.999 18.0455 276.871 17.4503 276.871 16.7656C276.871 16.0923 276.999 15.5014 277.254 14.9929C277.513 14.4815 277.874 14.0838 278.337 13.7997C278.8 13.5128 279.344 13.3693 279.969 13.3693C280.372 13.3693 280.753 13.4347 281.111 13.5653C281.472 13.6932 281.79 13.892 282.065 14.1619C282.344 14.4318 282.563 14.7756 282.722 15.1932C282.881 15.608 282.96 16.1023 282.96 16.6761V17.1491H277.595V16.1094H281.482C281.479 15.8139 281.415 15.5511 281.29 15.321C281.165 15.0881 280.99 14.9048 280.766 14.7713C280.544 14.6378 280.286 14.571 279.99 14.571C279.675 14.571 279.398 14.6477 279.159 14.8011C278.92 14.9517 278.734 15.1506 278.601 15.3977C278.47 15.642 278.403 15.9105 278.401 16.2031V17.1108C278.401 17.4915 278.47 17.8182 278.609 18.0909C278.749 18.3608 278.943 18.5682 279.193 18.7131C279.443 18.8551 279.736 18.9261 280.071 18.9261C280.295 18.9261 280.499 18.8949 280.68 18.8324C280.862 18.767 281.02 18.6719 281.153 18.5469C281.287 18.4219 281.388 18.267 281.456 18.0824L282.896 18.2443C282.805 18.625 282.632 18.9574 282.376 19.2415C282.124 19.5227 281.8 19.7415 281.405 19.8977C281.01 20.0511 280.558 20.1278 280.05 20.1278ZM289.439 15.1847L288.032 15.3381C287.993 15.196 287.923 15.0625 287.824 14.9375C287.727 14.8125 287.596 14.7116 287.431 14.6349C287.267 14.5582 287.065 14.5199 286.826 14.5199C286.505 14.5199 286.235 14.5895 286.017 14.7287C285.801 14.8679 285.694 15.0483 285.697 15.2699C285.694 15.4602 285.764 15.6151 285.906 15.7344C286.051 15.8537 286.289 15.9517 286.622 16.0284L287.738 16.267C288.358 16.4006 288.818 16.6122 289.119 16.902C289.423 17.1918 289.576 17.571 289.579 18.0398C289.576 18.4517 289.456 18.8153 289.217 19.1307C288.981 19.4432 288.653 19.6875 288.233 19.8636C287.812 20.0398 287.329 20.1278 286.784 20.1278C285.983 20.1278 285.338 19.9602 284.849 19.625C284.36 19.2869 284.069 18.8168 283.975 18.2145L285.48 18.0696C285.548 18.3651 285.693 18.5881 285.914 18.7386C286.136 18.8892 286.424 18.9645 286.779 18.9645C287.146 18.9645 287.44 18.8892 287.662 18.7386C287.886 18.5881 287.998 18.402 287.998 18.1804C287.998 17.9929 287.926 17.8381 287.781 17.7159C287.639 17.5937 287.417 17.5 287.116 17.4347L286 17.2003C285.372 17.0696 284.907 16.8494 284.606 16.5398C284.305 16.2273 284.156 15.8324 284.159 15.3551C284.156 14.9517 284.265 14.6023 284.487 14.3068C284.711 14.0085 285.022 13.7784 285.42 13.6165C285.821 13.4517 286.282 13.3693 286.805 13.3693C287.572 13.3693 288.176 13.5327 288.616 13.8594C289.059 14.1861 289.333 14.6278 289.439 15.1847Z" fill="black"/>
<path d="M129 45.5H171C172.933 45.5 174.5 47.067 174.5 49V55C174.5 56.933 172.933 58.5 171 58.5H129C127.067 58.5 125.5 56.933 125.5 55V49L125.505 48.8203C125.595 47.0303 127.03 45.5954 128.82 45.5049L129 45.5Z" fill="#DCFFBC" stroke="#12CC40"/>
<path d="M130.396 48.7273H131.448L133.919 54.7642H134.004L136.476 48.7273H137.527V56H136.703V50.4744H136.632L134.36 56H133.564L131.291 50.4744H131.22V56H130.396V48.7273ZM141.466 56.1136C140.941 56.1136 140.487 55.9976 140.106 55.7656C139.727 55.5312 139.435 55.2045 139.229 54.7855C139.025 54.3641 138.924 53.8741 138.924 53.3153C138.924 52.7566 139.025 52.2642 139.229 51.8381C139.435 51.4096 139.721 51.0758 140.088 50.8366C140.458 50.5952 140.889 50.4744 141.381 50.4744C141.665 50.4744 141.946 50.5218 142.223 50.6165C142.5 50.7112 142.752 50.8651 142.979 51.0781C143.206 51.2888 143.387 51.5682 143.522 51.9162C143.657 52.2642 143.725 52.6927 143.725 53.2017V53.5568H139.52V52.8324H142.873C142.873 52.5246 142.811 52.25 142.688 52.0085C142.567 51.767 142.394 51.5765 142.169 51.4368C141.947 51.2971 141.684 51.2273 141.381 51.2273C141.047 51.2273 140.758 51.3101 140.515 51.4759C140.273 51.6392 140.087 51.8523 139.957 52.1151C139.827 52.3778 139.762 52.6596 139.762 52.9602V53.4432C139.762 53.8551 139.833 54.2043 139.975 54.4908C140.119 54.7749 140.319 54.9915 140.575 55.1406C140.831 55.2874 141.128 55.3608 141.466 55.3608C141.686 55.3608 141.885 55.33 142.063 55.2685C142.243 55.2045 142.398 55.1098 142.528 54.9844C142.658 54.8565 142.759 54.6979 142.83 54.5085L143.64 54.7358C143.554 55.0104 143.411 55.2519 143.21 55.4602C143.009 55.6662 142.76 55.8272 142.464 55.9432C142.168 56.0568 141.836 56.1136 141.466 56.1136ZM145.838 48.7273V56H145V48.7273H145.838ZM148.211 52.7188V56H147.373V48.7273H148.211V51.3977H148.282C148.41 51.116 148.601 50.8923 148.857 50.7266C149.115 50.5585 149.458 50.4744 149.887 50.4744C150.259 50.4744 150.584 50.549 150.863 50.6982C151.143 50.8449 151.359 51.071 151.513 51.3764C151.67 51.6795 151.748 52.0653 151.748 52.5341V56H150.91V52.5909C150.91 52.1577 150.797 51.8227 150.572 51.5859C150.35 51.3468 150.041 51.2273 149.645 51.2273C149.371 51.2273 149.125 51.2853 148.907 51.4013C148.691 51.5173 148.521 51.6866 148.395 51.9091C148.272 52.1316 148.211 52.4015 148.211 52.7188ZM155.497 56.1136C155.004 56.1136 154.572 55.9964 154.201 55.7621C153.831 55.5277 153.543 55.1998 153.334 54.7784C153.128 54.357 153.025 53.8646 153.025 53.3011C153.025 52.733 153.128 52.237 153.334 51.8132C153.543 51.3894 153.831 51.0604 154.201 50.826C154.572 50.5916 155.004 50.4744 155.497 50.4744C155.989 50.4744 156.42 50.5916 156.789 50.826C157.161 51.0604 157.45 51.3894 157.656 51.8132C157.864 52.237 157.968 52.733 157.968 53.3011C157.968 53.8646 157.864 54.357 157.656 54.7784C157.45 55.1998 157.161 55.5277 156.789 55.7621C156.42 55.9964 155.989 56.1136 155.497 56.1136ZM155.497 55.3608C155.871 55.3608 156.179 55.2649 156.42 55.0732C156.662 54.8814 156.84 54.6293 156.956 54.3168C157.072 54.0043 157.13 53.6657 157.13 53.3011C157.13 52.9366 157.072 52.5968 156.956 52.282C156.84 51.9671 156.662 51.7126 156.42 51.5185C156.179 51.3243 155.871 51.2273 155.497 51.2273C155.123 51.2273 154.815 51.3243 154.574 51.5185C154.332 51.7126 154.153 51.9671 154.037 52.282C153.921 52.5968 153.863 52.9366 153.863 53.3011C153.863 53.6657 153.921 54.0043 154.037 54.3168C154.153 54.6293 154.332 54.8814 154.574 55.0732C154.815 55.2649 155.123 55.3608 155.497 55.3608ZM159.248 56V50.5455H160.057V51.3693H160.114C160.214 51.0994 160.394 50.8804 160.654 50.7124C160.914 50.5443 161.208 50.4602 161.535 50.4602C161.596 50.4602 161.673 50.4614 161.765 50.4638C161.858 50.4661 161.928 50.4697 161.975 50.4744V51.3267C161.947 51.3196 161.881 51.3089 161.78 51.2947C161.68 51.2782 161.575 51.2699 161.464 51.2699C161.198 51.2699 160.962 51.3255 160.753 51.4368C160.547 51.5457 160.384 51.6972 160.263 51.8913C160.145 52.0831 160.086 52.3021 160.086 52.5483V56H159.248ZM162.968 56V50.5455H163.806V56H162.968ZM163.395 49.6364C163.231 49.6364 163.09 49.5807 162.972 49.4695C162.856 49.3582 162.798 49.2244 162.798 49.0682C162.798 48.9119 162.856 48.7782 162.972 48.6669C163.09 48.5556 163.231 48.5 163.395 48.5C163.558 48.5 163.698 48.5556 163.814 48.6669C163.932 48.7782 163.991 48.9119 163.991 49.0682C163.991 49.2244 163.932 49.3582 163.814 49.4695C163.698 49.5807 163.558 49.6364 163.395 49.6364ZM166.947 56.1278C166.601 56.1278 166.287 56.0627 166.006 55.9325C165.724 55.8 165.5 55.6094 165.334 55.3608C165.169 55.1098 165.086 54.8068 165.086 54.4517C165.086 54.1392 165.147 53.8859 165.27 53.6918C165.394 53.4953 165.558 53.3414 165.764 53.2301C165.97 53.1188 166.197 53.036 166.446 52.9815C166.697 52.9247 166.949 52.8797 167.202 52.8466C167.534 52.804 167.802 52.772 168.008 52.7507C168.217 52.727 168.368 52.688 168.463 52.6335C168.56 52.5791 168.608 52.4844 168.608 52.3494V52.321C168.608 51.9706 168.513 51.6984 168.321 51.5043C168.131 51.3101 167.844 51.2131 167.458 51.2131C167.058 51.2131 166.744 51.3007 166.517 51.4759C166.29 51.651 166.13 51.8381 166.037 52.0369L165.242 51.7528C165.384 51.4214 165.573 51.1634 165.81 50.9787C166.049 50.7917 166.31 50.6615 166.591 50.5881C166.876 50.5123 167.155 50.4744 167.43 50.4744C167.605 50.4744 167.806 50.4957 168.033 50.5384C168.263 50.5786 168.484 50.6626 168.697 50.7905C168.913 50.9183 169.091 51.1113 169.233 51.3693C169.376 51.6274 169.447 51.973 169.447 52.4062V56H168.608V55.2614H168.566C168.509 55.3797 168.414 55.5064 168.282 55.6413C168.149 55.7763 167.973 55.8911 167.753 55.9858C167.533 56.0805 167.264 56.1278 166.947 56.1278ZM167.074 55.375C167.406 55.375 167.685 55.3099 167.912 55.1797C168.142 55.0495 168.315 54.8814 168.431 54.6754C168.549 54.4695 168.608 54.2528 168.608 54.0256V53.2585C168.573 53.3011 168.495 53.3402 168.374 53.3757C168.256 53.4089 168.118 53.4384 167.962 53.4645C167.808 53.4882 167.658 53.5095 167.511 53.5284C167.367 53.545 167.25 53.5592 167.16 53.571C166.942 53.5994 166.738 53.6456 166.549 53.7095C166.362 53.7711 166.21 53.8646 166.094 53.9901C165.981 54.1132 165.924 54.2812 165.924 54.4943C165.924 54.7855 166.032 55.0057 166.247 55.1548C166.465 55.3016 166.741 55.375 167.074 55.375Z" fill="black"/>
<path d="M96 45.5H115C116.933 45.5 118.5 47.067 118.5 49V55C118.5 56.933 116.933 58.5 115 58.5H96C94.067 58.5 92.5 56.933 92.5 55V49L92.5049 48.8203C92.5984 46.9708 94.1273 45.5 96 45.5Z" fill="#BCF0FF" stroke="#0016A8"/>
<path d="M99.2549 56H97.0106V48.7273H99.3543C100.06 48.7273 100.664 48.8729 101.165 49.1641C101.667 49.4529 102.052 49.8684 102.32 50.4105C102.587 50.9503 102.721 51.5966 102.721 52.3494C102.721 53.107 102.586 53.7592 102.316 54.3061C102.046 54.8506 101.653 55.2696 101.137 55.5632C100.621 55.8544 99.9935 56 99.2549 56ZM97.8912 55.2188H99.1981C99.7994 55.2188 100.298 55.1027 100.693 54.8707C101.088 54.6387 101.383 54.3085 101.577 53.88C101.771 53.4515 101.869 52.9413 101.869 52.3494C101.869 51.7623 101.773 51.2569 101.581 50.8331C101.389 50.407 101.103 50.0803 100.722 49.853C100.34 49.6233 99.8657 49.5085 99.2975 49.5085H97.8912V55.2188ZM106.3 56.1136C105.808 56.1136 105.376 55.9964 105.004 55.7621C104.635 55.5277 104.346 55.1998 104.138 54.7784C103.932 54.357 103.829 53.8646 103.829 53.3011C103.829 52.733 103.932 52.237 104.138 51.8132C104.346 51.3894 104.635 51.0604 105.004 50.826C105.376 50.5916 105.808 50.4744 106.3 50.4744C106.793 50.4744 107.224 50.5916 107.593 50.826C107.965 51.0604 108.253 51.3894 108.459 51.8132C108.668 52.237 108.772 52.733 108.772 53.3011C108.772 53.8646 108.668 54.357 108.459 54.7784C108.253 55.1998 107.965 55.5277 107.593 55.7621C107.224 55.9964 106.793 56.1136 106.3 56.1136ZM106.3 55.3608C106.674 55.3608 106.982 55.2649 107.224 55.0732C107.465 54.8814 107.644 54.6293 107.76 54.3168C107.876 54.0043 107.934 53.6657 107.934 53.3011C107.934 52.9366 107.876 52.5968 107.76 52.282C107.644 51.9671 107.465 51.7126 107.224 51.5185C106.982 51.3243 106.674 51.2273 106.3 51.2273C105.926 51.2273 105.619 51.3243 105.377 51.5185C105.136 51.7126 104.957 51.9671 104.841 52.282C104.725 52.5968 104.667 52.9366 104.667 53.3011C104.667 53.6657 104.725 54.0043 104.841 54.3168C104.957 54.6293 105.136 54.8814 105.377 55.0732C105.619 55.2649 105.926 55.3608 106.3 55.3608ZM112.267 56.1136C111.756 56.1136 111.315 55.9929 110.946 55.7514C110.577 55.5099 110.293 55.1773 110.094 54.7536C109.895 54.3298 109.796 53.8456 109.796 53.3011C109.796 52.7472 109.897 52.2583 110.101 51.8345C110.307 51.4084 110.593 51.0758 110.96 50.8366C111.33 50.5952 111.761 50.4744 112.253 50.4744C112.636 50.4744 112.982 50.5455 113.29 50.6875C113.598 50.8295 113.85 51.0284 114.046 51.2841C114.243 51.5398 114.365 51.8381 114.412 52.179H113.574C113.51 51.9304 113.368 51.7102 113.148 51.5185C112.93 51.3243 112.636 51.2273 112.267 51.2273C111.94 51.2273 111.654 51.3125 111.408 51.483C111.164 51.651 110.973 51.889 110.836 52.1967C110.701 52.5021 110.634 52.8608 110.634 53.2727C110.634 53.6941 110.7 54.0611 110.832 54.3736C110.967 54.6861 111.157 54.9287 111.401 55.1016C111.647 55.2744 111.936 55.3608 112.267 55.3608C112.485 55.3608 112.683 55.3229 112.86 55.2472C113.038 55.1714 113.188 55.0625 113.311 54.9205C113.434 54.7784 113.522 54.608 113.574 54.4091H114.412C114.365 54.7311 114.247 55.0211 114.06 55.2791C113.876 55.5348 113.631 55.7384 113.325 55.8899C113.022 56.0391 112.67 56.1136 112.267 56.1136Z" fill="black"/>
<path d="M185 45.5H206C207.933 45.5 209.5 47.067 209.5 49V55C209.5 56.933 207.933 58.5 206 58.5H185C183.067 58.5 181.5 56.933 181.5 55V49L181.505 48.8203C181.598 46.9708 183.127 45.5 185 45.5Z" fill="#FFEDEA" stroke="#A8150D"/>
<path d="M187.177 56V48.7273H189.719C190.226 48.7273 190.644 48.8149 190.973 48.9901C191.302 49.1629 191.547 49.3961 191.708 49.6896C191.869 49.9808 191.949 50.304 191.949 50.6591C191.949 50.9716 191.894 51.2296 191.782 51.4332C191.673 51.6368 191.529 51.7978 191.349 51.9162C191.172 52.0346 190.979 52.1222 190.77 52.179V52.25C190.993 52.2642 191.217 52.3423 191.441 52.4844C191.666 52.6264 191.855 52.83 192.006 53.0952C192.158 53.3603 192.233 53.6847 192.233 54.0682C192.233 54.4328 192.15 54.7607 191.985 55.0518C191.819 55.343 191.557 55.5739 191.2 55.7443C190.842 55.9148 190.377 56 189.804 56H187.177ZM188.057 55.2188H189.804C190.38 55.2188 190.788 55.1075 191.029 54.8849C191.273 54.66 191.395 54.3878 191.395 54.0682C191.395 53.822 191.333 53.5947 191.207 53.3864C191.082 53.1757 190.903 53.0076 190.671 52.8821C190.439 52.7543 190.164 52.6903 189.847 52.6903H188.057V55.2188ZM188.057 51.9233H189.691C189.956 51.9233 190.195 51.8712 190.408 51.767C190.623 51.6629 190.794 51.5161 190.919 51.3267C191.047 51.1373 191.111 50.9148 191.111 50.6591C191.111 50.3395 191 50.0684 190.777 49.8459C190.555 49.621 190.202 49.5085 189.719 49.5085H188.057V51.9233ZM197.004 53.7699V50.5455H197.842V56H197.004V55.0767H196.947C196.82 55.3537 196.621 55.5893 196.351 55.7834C196.081 55.9751 195.74 56.071 195.328 56.071C194.987 56.071 194.684 55.9964 194.419 55.8473C194.154 55.6958 193.946 55.4685 193.794 55.1655C193.643 54.8601 193.567 54.4754 193.567 54.0114V50.5455H194.405V53.9545C194.405 54.3523 194.516 54.6695 194.739 54.9062C194.964 55.143 195.25 55.2614 195.598 55.2614C195.806 55.2614 196.018 55.2081 196.234 55.1016C196.451 54.995 196.634 54.8317 196.781 54.6115C196.93 54.3913 197.004 54.1108 197.004 53.7699ZM201.579 58.1591C201.174 58.1591 200.826 58.107 200.535 58.0028C200.244 57.901 200.001 57.7661 199.807 57.598C199.615 57.4323 199.463 57.2547 199.349 57.0653L200.017 56.5966C200.092 56.696 200.188 56.8097 200.304 56.9375C200.42 57.0677 200.579 57.1802 200.78 57.2749C200.984 57.3719 201.25 57.4205 201.579 57.4205C202.019 57.4205 202.383 57.3139 202.669 57.1009C202.956 56.8878 203.099 56.554 203.099 56.0994V54.9915H203.028C202.966 55.0909 202.879 55.214 202.765 55.3608C202.654 55.5052 202.493 55.6342 202.282 55.7479C202.074 55.8591 201.792 55.9148 201.437 55.9148C200.997 55.9148 200.601 55.8106 200.251 55.6023C199.903 55.3939 199.627 55.0909 199.423 54.6932C199.222 54.2955 199.122 53.8125 199.122 53.2443C199.122 52.6856 199.22 52.1991 199.416 51.7848C199.613 51.3681 199.886 51.0462 200.237 50.8189C200.587 50.5893 200.992 50.4744 201.451 50.4744C201.806 50.4744 202.088 50.5336 202.296 50.652C202.507 50.768 202.668 50.9006 202.779 51.0497C202.893 51.1965 202.981 51.3172 203.042 51.4119H203.127V50.5455H203.937V56.1562C203.937 56.625 203.83 57.0062 203.617 57.2997C203.407 57.5956 203.123 57.8123 202.765 57.9496C202.41 58.0893 202.015 58.1591 201.579 58.1591ZM201.551 55.1619C201.887 55.1619 202.171 55.085 202.403 54.9311C202.635 54.7772 202.811 54.5559 202.932 54.267C203.053 53.9782 203.113 53.6326 203.113 53.2301C203.113 52.8371 203.054 52.4903 202.936 52.1896C202.817 51.889 202.642 51.6534 202.41 51.483C202.178 51.3125 201.892 51.2273 201.551 51.2273C201.196 51.2273 200.9 51.3172 200.663 51.4972C200.428 51.6771 200.252 51.9186 200.134 52.2216C200.018 52.5246 199.96 52.8608 199.96 53.2301C199.96 53.6089 200.019 53.9439 200.137 54.2351C200.258 54.5239 200.436 54.7512 200.67 54.9169C200.907 55.0803 201.2 55.1619 201.551 55.1619Z" fill="black"/>
<path d="M92.9688 29H94.125L96.8438 35.6406H96.9375L99.6563 29H100.813V37H99.9062V30.9219H99.8281L97.3281 37H96.4531L93.9531 30.9219H93.875V37H92.9688V29ZM105.146 37.125C104.567 37.125 104.069 36.9974 103.649 36.7422C103.233 36.4844 102.911 36.125 102.685 35.6641C102.461 35.2005 102.349 34.6615 102.349 34.0469C102.349 33.4323 102.461 32.8906 102.685 32.4219C102.911 31.9505 103.226 31.5833 103.63 31.3203C104.036 31.0547 104.51 30.9219 105.052 30.9219C105.364 30.9219 105.673 30.974 105.978 31.0781C106.282 31.1823 106.56 31.3516 106.81 31.5859C107.06 31.8177 107.259 32.125 107.407 32.5078C107.556 32.8906 107.63 33.362 107.63 33.9219V34.3125H103.005V33.5156H106.692C106.692 33.1771 106.625 32.875 106.489 32.6094C106.356 32.3437 106.166 32.1341 105.919 31.9805C105.674 31.8268 105.385 31.75 105.052 31.75C104.685 31.75 104.367 31.8411 104.099 32.0234C103.833 32.2031 103.629 32.4375 103.485 32.7266C103.342 33.0156 103.271 33.3255 103.271 33.6562V34.1875C103.271 34.6406 103.349 35.0247 103.505 35.3398C103.664 35.6523 103.884 35.8906 104.165 36.0547C104.446 36.2161 104.773 36.2969 105.146 36.2969C105.388 36.2969 105.606 36.263 105.802 36.1953C106 36.125 106.17 36.0208 106.313 35.8828C106.457 35.7422 106.567 35.5677 106.646 35.3594L107.536 35.6094C107.442 35.9115 107.285 36.1771 107.063 36.4062C106.842 36.6328 106.569 36.8099 106.243 36.9375C105.918 37.0625 105.552 37.125 105.146 37.125ZM111.642 31V31.7812H108.532V31H111.642ZM109.438 29.5625H110.36V35.2812C110.36 35.5417 110.398 35.737 110.474 35.8672C110.552 35.9948 110.651 36.0807 110.771 36.125C110.893 36.1667 111.022 36.1875 111.157 36.1875C111.259 36.1875 111.342 36.1823 111.407 36.1719C111.472 36.1589 111.524 36.1484 111.563 36.1406L111.751 36.9687C111.688 36.9922 111.601 37.0156 111.489 37.0391C111.377 37.0651 111.235 37.0781 111.063 37.0781C110.803 37.0781 110.548 37.0221 110.298 36.9102C110.05 36.7982 109.845 36.6276 109.681 36.3984C109.519 36.1693 109.438 35.8802 109.438 35.5312V29.5625ZM115.401 37.125C114.86 37.125 114.384 36.9961 113.976 36.7383C113.569 36.4805 113.252 36.1198 113.022 35.6562C112.796 35.1927 112.683 34.651 112.683 34.0312C112.683 33.4062 112.796 32.8607 113.022 32.3945C113.252 31.9284 113.569 31.5664 113.976 31.3086C114.384 31.0508 114.86 30.9219 115.401 30.9219C115.943 30.9219 116.417 31.0508 116.823 31.3086C117.232 31.5664 117.55 31.9284 117.776 32.3945C118.006 32.8607 118.12 33.4062 118.12 34.0312C118.12 34.651 118.006 35.1927 117.776 35.6562C117.55 36.1198 117.232 36.4805 116.823 36.7383C116.417 36.9961 115.943 37.125 115.401 37.125ZM115.401 36.2969C115.813 36.2969 116.151 36.1914 116.417 35.9805C116.683 35.7695 116.879 35.4922 117.007 35.1484C117.134 34.8047 117.198 34.4323 117.198 34.0312C117.198 33.6302 117.134 33.2565 117.007 32.9102C116.879 32.5638 116.683 32.2839 116.417 32.0703C116.151 31.8568 115.813 31.75 115.401 31.75C114.99 31.75 114.651 31.8568 114.386 32.0703C114.12 32.2839 113.924 32.5638 113.796 32.9102C113.668 33.2565 113.604 33.6302 113.604 34.0312C113.604 34.4323 113.668 34.8047 113.796 35.1484C113.924 35.4922 114.12 35.7695 114.386 35.9805C114.651 36.1914 114.99 36.2969 115.401 36.2969ZM121.793 37.125C121.293 37.125 120.852 36.9987 120.469 36.7461C120.086 36.4909 119.786 36.1315 119.57 35.668C119.354 35.2018 119.246 34.651 119.246 34.0156C119.246 33.3854 119.354 32.8385 119.57 32.375C119.786 31.9115 120.087 31.5534 120.473 31.3008C120.858 31.0482 121.303 30.9219 121.809 30.9219C122.199 30.9219 122.508 30.987 122.734 31.1172C122.964 31.2448 123.138 31.3906 123.258 31.5547C123.38 31.7161 123.475 31.849 123.543 31.9531H123.621V29H124.543V37H123.652V36.0781H123.543C123.475 36.1875 123.379 36.3255 123.254 36.4922C123.129 36.6562 122.951 36.8034 122.719 36.9336C122.487 37.0612 122.178 37.125 121.793 37.125ZM121.918 36.2969C122.288 36.2969 122.6 36.2005 122.855 36.0078C123.111 35.8125 123.305 35.543 123.438 35.1992C123.57 34.8529 123.637 34.4531 123.637 34C123.637 33.5521 123.572 33.1602 123.441 32.8242C123.311 32.4857 123.118 32.2227 122.863 32.0352C122.608 31.8451 122.293 31.75 121.918 31.75C121.527 31.75 121.202 31.8503 120.941 32.0508C120.684 32.2487 120.49 32.5182 120.359 32.8594C120.232 33.1979 120.168 33.5781 120.168 34C120.168 34.4271 120.233 34.8151 120.363 35.1641C120.496 35.5104 120.691 35.7865 120.949 35.9922C121.21 36.1953 121.533 36.2969 121.918 36.2969ZM128.797 37.125C128.255 37.125 127.78 36.9961 127.371 36.7383C126.965 36.4805 126.647 36.1198 126.418 35.6562C126.191 35.1927 126.078 34.651 126.078 34.0312C126.078 33.4062 126.191 32.8607 126.418 32.3945C126.647 31.9284 126.965 31.5664 127.371 31.3086C127.78 31.0508 128.255 30.9219 128.797 30.9219C129.339 30.9219 129.813 31.0508 130.219 31.3086C130.628 31.5664 130.945 31.9284 131.172 32.3945C131.401 32.8607 131.516 33.4062 131.516 34.0312C131.516 34.651 131.401 35.1927 131.172 35.6562C130.945 36.1198 130.628 36.4805 130.219 36.7383C129.813 36.9961 129.339 37.125 128.797 37.125ZM128.797 36.2969C129.208 36.2969 129.547 36.1914 129.812 35.9805C130.078 35.7695 130.275 35.4922 130.402 35.1484C130.53 34.8047 130.594 34.4323 130.594 34.0312C130.594 33.6302 130.53 33.2565 130.402 32.9102C130.275 32.5638 130.078 32.2839 129.812 32.0703C129.547 31.8568 129.208 31.75 128.797 31.75C128.385 31.75 128.047 31.8568 127.781 32.0703C127.516 32.2839 127.319 32.5638 127.191 32.9102C127.064 33.2565 127 33.6302 127 34.0312C127 34.4323 127.064 34.8047 127.191 35.1484C127.319 35.4922 127.516 35.7695 127.781 35.9805C128.047 36.1914 128.385 36.2969 128.797 36.2969ZM133.845 29V37H132.923V29H133.845ZM137.971 37.125C137.429 37.125 136.954 36.9961 136.545 36.7383C136.139 36.4805 135.821 36.1198 135.592 35.6562C135.365 35.1927 135.252 34.651 135.252 34.0312C135.252 33.4062 135.365 32.8607 135.592 32.3945C135.821 31.9284 136.139 31.5664 136.545 31.3086C136.954 31.0508 137.429 30.9219 137.971 30.9219C138.512 30.9219 138.986 31.0508 139.393 31.3086C139.801 31.5664 140.119 31.9284 140.346 32.3945C140.575 32.8607 140.689 33.4062 140.689 34.0312C140.689 34.651 140.575 35.1927 140.346 35.6562C140.119 36.1198 139.801 36.4805 139.393 36.7383C138.986 36.9961 138.512 37.125 137.971 37.125ZM137.971 36.2969C138.382 36.2969 138.721 36.1914 138.986 35.9805C139.252 35.7695 139.449 35.4922 139.576 35.1484C139.704 34.8047 139.768 34.4323 139.768 34.0312C139.768 33.6302 139.704 33.2565 139.576 32.9102C139.449 32.5638 139.252 32.2839 138.986 32.0703C138.721 31.8568 138.382 31.75 137.971 31.75C137.559 31.75 137.221 31.8568 136.955 32.0703C136.689 32.2839 136.493 32.5638 136.365 32.9102C136.238 33.2565 136.174 33.6302 136.174 34.0312C136.174 34.4323 136.238 34.8047 136.365 35.1484C136.493 35.4922 136.689 35.7695 136.955 35.9805C137.221 36.1914 137.559 36.2969 137.971 36.2969ZM144.519 39.375C144.073 39.375 143.69 39.3177 143.37 39.2031C143.05 39.0911 142.783 38.9427 142.569 38.7578C142.358 38.5755 142.19 38.3802 142.065 38.1719L142.8 37.6563C142.883 37.7656 142.989 37.8906 143.116 38.0312C143.244 38.1745 143.418 38.2982 143.64 38.4023C143.864 38.5091 144.157 38.5625 144.519 38.5625C145.003 38.5625 145.403 38.4453 145.718 38.2109C146.033 37.9766 146.19 37.6094 146.19 37.1094V35.8906H146.112C146.045 36 145.948 36.1354 145.823 36.2969C145.701 36.4557 145.524 36.5977 145.292 36.7227C145.063 36.8451 144.753 36.9062 144.362 36.9062C143.878 36.9062 143.443 36.7917 143.058 36.5625C142.675 36.3333 142.371 36 142.147 35.5625C141.926 35.125 141.815 34.5937 141.815 33.9687C141.815 33.3542 141.924 32.819 142.14 32.3633C142.356 31.9049 142.657 31.5508 143.042 31.3008C143.427 31.0482 143.873 30.9219 144.378 30.9219C144.769 30.9219 145.078 30.987 145.308 31.1172C145.539 31.2448 145.716 31.3906 145.839 31.5547C145.964 31.7161 146.06 31.849 146.128 31.9531H146.222V31H147.112V37.1719C147.112 37.6875 146.995 38.1068 146.761 38.4297C146.529 38.7552 146.216 38.9935 145.823 39.1445C145.433 39.2982 144.998 39.375 144.519 39.375ZM144.487 36.0781C144.857 36.0781 145.17 35.9935 145.425 35.8242C145.68 35.6549 145.874 35.4115 146.007 35.0938C146.14 34.776 146.206 34.3958 146.206 33.9531C146.206 33.5208 146.141 33.1393 146.011 32.8086C145.881 32.4779 145.688 32.2187 145.433 32.0312C145.177 31.8437 144.862 31.75 144.487 31.75C144.097 31.75 143.771 31.849 143.511 32.0469C143.253 32.2448 143.059 32.5104 142.929 32.8438C142.801 33.1771 142.737 33.5469 142.737 33.9531C142.737 34.3698 142.802 34.7383 142.933 35.0586C143.065 35.3763 143.261 35.6263 143.519 35.8086C143.779 35.9883 144.102 36.0781 144.487 36.0781ZM148.8 37V31H149.722V37H148.8ZM149.269 30C149.089 30 148.934 29.9388 148.804 29.8164C148.676 29.694 148.612 29.5469 148.612 29.375C148.612 29.2031 148.676 29.056 148.804 28.9336C148.934 28.8112 149.089 28.75 149.269 28.75C149.448 28.75 149.602 28.8112 149.729 28.9336C149.86 29.056 149.925 29.2031 149.925 29.375C149.925 29.5469 149.86 29.694 149.729 29.8164C149.602 29.9388 149.448 30 149.269 30ZM153.176 37.1406C152.796 37.1406 152.451 37.069 152.141 36.9258C151.831 36.7799 151.585 36.5703 151.402 36.2969C151.22 36.0208 151.129 35.6875 151.129 35.2969C151.129 34.9531 151.197 34.6745 151.332 34.4609C151.467 34.2448 151.648 34.0755 151.875 33.9531C152.102 33.8307 152.352 33.7396 152.625 33.6797C152.901 33.6172 153.178 33.5677 153.457 33.5313C153.822 33.4844 154.117 33.4492 154.344 33.4258C154.573 33.3997 154.74 33.3568 154.844 33.2969C154.951 33.237 155.004 33.1328 155.004 32.9844V32.9531C155.004 32.5677 154.898 32.2682 154.688 32.0547C154.479 31.8411 154.163 31.7344 153.738 31.7344C153.298 31.7344 152.953 31.8307 152.703 32.0234C152.453 32.2161 152.277 32.4219 152.176 32.6406L151.301 32.3281C151.457 31.9635 151.665 31.6797 151.926 31.4766C152.189 31.2708 152.475 31.1276 152.785 31.0469C153.098 30.9635 153.405 30.9219 153.707 30.9219C153.9 30.9219 154.121 30.9453 154.371 30.9922C154.624 31.0365 154.867 31.1289 155.102 31.2695C155.339 31.4102 155.535 31.6224 155.691 31.9062C155.848 32.1901 155.926 32.5703 155.926 33.0469V37H155.004V36.1875H154.957C154.895 36.3177 154.79 36.457 154.645 36.6055C154.499 36.7539 154.305 36.8802 154.063 36.9844C153.82 37.0885 153.525 37.1406 153.176 37.1406ZM153.316 36.3125C153.681 36.3125 153.988 36.2409 154.238 36.0977C154.491 35.9544 154.681 35.7695 154.809 35.543C154.939 35.3164 155.004 35.0781 155.004 34.8281V33.9844C154.965 34.0312 154.879 34.0742 154.746 34.1133C154.616 34.1497 154.465 34.1823 154.293 34.2109C154.124 34.237 153.958 34.2604 153.797 34.2812C153.638 34.2995 153.509 34.3151 153.41 34.3281C153.171 34.3594 152.947 34.4102 152.738 34.4805C152.533 34.5482 152.366 34.651 152.238 34.7891C152.113 34.9245 152.051 35.1094 152.051 35.3437C152.051 35.6641 152.169 35.9062 152.406 36.0703C152.646 36.2318 152.949 36.3125 153.316 36.3125ZM163.733 34.5H164.796L165.687 35.6719L165.921 35.9844L167.249 37.75H166.187L165.312 36.5781L165.093 36.2812L163.733 34.5ZM167.577 33C167.577 33.8437 167.425 34.5729 167.12 35.1875C166.815 35.8021 166.397 36.276 165.866 36.6094C165.335 36.9427 164.728 37.1094 164.046 37.1094C163.364 37.1094 162.757 36.9427 162.226 36.6094C161.694 36.276 161.276 35.8021 160.972 35.1875C160.667 34.5729 160.515 33.8437 160.515 33C160.515 32.1562 160.667 31.4271 160.972 30.8125C161.276 30.1979 161.694 29.724 162.226 29.3906C162.757 29.0573 163.364 28.8906 164.046 28.8906C164.728 28.8906 165.335 29.0573 165.866 29.3906C166.397 29.724 166.815 30.1979 167.12 30.8125C167.425 31.4271 167.577 32.1562 167.577 33ZM166.64 33C166.64 32.3073 166.524 31.7227 166.292 31.2461C166.063 30.7695 165.752 30.4089 165.358 30.1641C164.968 29.9193 164.53 29.7969 164.046 29.7969C163.562 29.7969 163.123 29.9193 162.729 30.1641C162.339 30.4089 162.028 30.7695 161.796 31.2461C161.567 31.7227 161.452 32.3073 161.452 33C161.452 33.6927 161.567 34.2773 161.796 34.7539C162.028 35.2305 162.339 35.5911 162.729 35.8359C163.123 36.0807 163.562 36.2031 164.046 36.2031C164.53 36.2031 164.968 36.0807 165.358 35.8359C165.752 35.5911 166.063 35.2305 166.292 34.7539C166.524 34.2773 166.64 33.6927 166.64 33ZM169.158 37H168.143L171.08 29H172.08L175.018 37H174.002L171.611 30.2656H171.549L169.158 37ZM169.533 33.875H173.627V34.7344H169.533V33.875Z" fill="black"/>
<path d="M253.179 66.7273L255.338 72.8494H255.423L257.582 66.7273H258.506L255.835 74H254.926L252.256 66.7273H253.179ZM261.304 74.1136C260.778 74.1136 260.325 73.9976 259.944 73.7656C259.565 73.5312 259.273 73.2045 259.067 72.7855C258.863 72.3641 258.761 71.8741 258.761 71.3153C258.761 70.7566 258.863 70.2642 259.067 69.8381C259.273 69.4096 259.559 69.0758 259.926 68.8366C260.295 68.5952 260.726 68.4744 261.219 68.4744C261.503 68.4744 261.783 68.5218 262.06 68.6165C262.337 68.7112 262.589 68.8651 262.817 69.0781C263.044 69.2888 263.225 69.5682 263.36 69.9162C263.495 70.2642 263.562 70.6927 263.562 71.2017V71.5568H259.358V70.8324H262.71C262.71 70.5246 262.649 70.25 262.526 70.0085C262.405 69.767 262.232 69.5765 262.007 69.4368C261.785 69.2971 261.522 69.2273 261.219 69.2273C260.885 69.2273 260.596 69.3101 260.352 69.4759C260.111 69.6392 259.925 69.8523 259.795 70.1151C259.665 70.3778 259.599 70.6596 259.599 70.9602V71.4432C259.599 71.8551 259.67 72.2043 259.812 72.4908C259.957 72.7749 260.157 72.9915 260.413 73.1406C260.668 73.2874 260.965 73.3608 261.304 73.3608C261.524 73.3608 261.723 73.33 261.901 73.2685C262.08 73.2045 262.236 73.1098 262.366 72.9844C262.496 72.8565 262.597 72.6979 262.668 72.5085L263.477 72.7358C263.392 73.0104 263.249 73.2519 263.048 73.4602C262.846 73.6662 262.598 73.8272 262.302 73.9432C262.006 74.0568 261.673 74.1136 261.304 74.1136ZM264.837 74V68.5455H265.647V69.3693H265.704C265.803 69.0994 265.983 68.8804 266.244 68.7124C266.504 68.5443 266.798 68.4602 267.124 68.4602C267.186 68.4602 267.263 68.4614 267.355 68.4638C267.447 68.4661 267.517 68.4697 267.565 68.4744V69.3267C267.536 69.3196 267.471 69.3089 267.369 69.2947C267.27 69.2782 267.165 69.2699 267.053 69.2699C266.788 69.2699 266.551 69.3255 266.343 69.4368C266.137 69.5457 265.974 69.6972 265.853 69.8913C265.735 70.0831 265.675 70.3021 265.675 70.5483V74H264.837ZM271.484 66.7273H272.535L275.007 72.7642H275.092L277.564 66.7273H278.615V74H277.791V68.4744H277.72L275.447 74H274.652L272.379 68.4744H272.308V74H271.484V66.7273ZM281.872 74.1278C281.527 74.1278 281.213 74.0627 280.931 73.9325C280.649 73.8 280.426 73.6094 280.26 73.3608C280.094 73.1098 280.011 72.8068 280.011 72.4517C280.011 72.1392 280.073 71.8859 280.196 71.6918C280.319 71.4953 280.484 71.3414 280.69 71.2301C280.896 71.1188 281.123 71.036 281.371 70.9815C281.622 70.9247 281.875 70.8797 282.128 70.8466C282.459 70.804 282.728 70.772 282.934 70.7507C283.142 70.727 283.294 70.688 283.388 70.6335C283.486 70.5791 283.534 70.4844 283.534 70.3494V70.321C283.534 69.9706 283.438 69.6984 283.246 69.5043C283.057 69.3101 282.769 69.2131 282.384 69.2131C281.983 69.2131 281.67 69.3007 281.442 69.4759C281.215 69.651 281.055 69.8381 280.963 70.0369L280.168 69.7528C280.31 69.4214 280.499 69.1634 280.736 68.9787C280.975 68.7917 281.235 68.6615 281.517 68.5881C281.801 68.5123 282.08 68.4744 282.355 68.4744C282.53 68.4744 282.732 68.4957 282.959 68.5384C283.188 68.5786 283.41 68.6626 283.623 68.7905C283.838 68.9183 284.017 69.1113 284.159 69.3693C284.301 69.6274 284.372 69.973 284.372 70.4062V74H283.534V73.2614H283.491C283.435 73.3797 283.34 73.5064 283.207 73.6413C283.075 73.7763 282.898 73.8911 282.678 73.9858C282.458 74.0805 282.189 74.1278 281.872 74.1278ZM282 73.375C282.331 73.375 282.611 73.3099 282.838 73.1797C283.068 73.0495 283.241 72.8814 283.357 72.6754C283.475 72.4695 283.534 72.2528 283.534 72.0256V71.2585C283.499 71.3011 283.42 71.3402 283.3 71.3757C283.181 71.4089 283.044 71.4384 282.888 71.4645C282.734 71.4882 282.584 71.5095 282.437 71.5284C282.292 71.545 282.175 71.5592 282.085 71.571C281.867 71.5994 281.664 71.6456 281.474 71.7095C281.287 71.7711 281.136 71.8646 281.02 71.9901C280.906 72.1132 280.849 72.2812 280.849 72.4943C280.849 72.7855 280.957 73.0057 281.173 73.1548C281.39 73.3016 281.666 73.375 282 73.375ZM285.902 74V68.5455H286.74V74H285.902ZM286.328 67.6364C286.165 67.6364 286.024 67.5807 285.905 67.4695C285.789 67.3582 285.731 67.2244 285.731 67.0682C285.731 66.9119 285.789 66.7782 285.905 66.6669C286.024 66.5556 286.165 66.5 286.328 66.5C286.491 66.5 286.631 66.5556 286.747 66.6669C286.865 66.7782 286.925 66.9119 286.925 67.0682C286.925 67.2244 286.865 67.3582 286.747 67.4695C286.631 67.5807 286.491 67.6364 286.328 67.6364ZM292.138 69.767L291.386 69.9801C291.338 69.8546 291.268 69.7327 291.176 69.6143C291.086 69.4936 290.963 69.3942 290.807 69.3161C290.651 69.2379 290.451 69.1989 290.207 69.1989C289.873 69.1989 289.595 69.2758 289.372 69.4297C289.152 69.5812 289.042 69.7741 289.042 70.0085C289.042 70.2169 289.118 70.3814 289.269 70.5021C289.421 70.6229 289.657 70.7235 289.979 70.804L290.789 71.0028C291.277 71.1212 291.64 71.3023 291.879 71.5462C292.118 71.7876 292.238 72.099 292.238 72.4801C292.238 72.7926 292.148 73.072 291.968 73.3182C291.79 73.5644 291.542 73.7585 291.222 73.9006C290.903 74.0426 290.531 74.1136 290.107 74.1136C289.551 74.1136 289.09 73.9929 288.726 73.7514C288.361 73.5099 288.13 73.1572 288.033 72.6932L288.829 72.4943C288.905 72.7879 289.048 73.008 289.259 73.1548C289.472 73.3016 289.75 73.375 290.093 73.375C290.484 73.375 290.794 73.2921 291.023 73.1264C291.255 72.9583 291.371 72.7571 291.371 72.5227C291.371 72.3333 291.305 72.1747 291.173 72.0469C291.04 71.9167 290.836 71.8196 290.562 71.7557L289.653 71.5426C289.153 71.4242 288.786 71.2408 288.552 70.9922C288.32 70.7412 288.204 70.4276 288.204 70.0511C288.204 69.7434 288.29 69.4711 288.463 69.2344C288.638 68.9976 288.876 68.8118 289.177 68.6768C289.48 68.5419 289.823 68.4744 290.207 68.4744C290.746 68.4744 291.17 68.5928 291.478 68.8295C291.788 69.0663 292.008 69.3788 292.138 69.767Z" fill="#0015FF"/>
<path d="M252 75.9886H292.735V76.6705H252V75.9886Z" fill="#0015FF"/>
<path d="M4 10C4 4.47715 8.47715 0 14 0H87V83H14C8.47715 83 4 78.5228 4 73V10Z" fill="#ECEEFF"/>
<path d="M54.4307 19.123L54.6025 19.5068L55.0107 19.4033L61.6914 17.6963L61.5137 24.6143L61.5029 25.0342L61.915 25.1172L68.6855 26.4775L65.5293 32.625L65.3379 32.998L65.6709 33.252L71.1729 37.4365L65.6719 41.6113L65.3379 41.8643L65.5283 42.2373L68.6865 48.3965L61.915 49.7578L61.5029 49.8408L61.5137 50.2607L61.6914 57.1787L55.0107 55.4727L54.6025 55.3682L54.4307 55.752L51.5967 62.0635L46.3232 57.6045L46 57.3311L45.6768 57.6045L40.4023 62.0635L37.5693 55.752L37.3975 55.3682L36.9893 55.4727L30.3076 57.1787L30.4863 50.2607L30.4971 49.8408L30.085 49.7578L23.3125 48.3965L26.4717 42.2373L26.6621 41.8643L26.3281 41.6113L20.8262 37.4365L26.3291 33.252L26.6621 32.998L26.4707 32.625L23.3135 26.4775L30.085 25.1172L30.4971 25.0342L30.4863 24.6143L30.3076 17.6846L36.9893 19.4033L37.3965 19.5078L37.5693 19.123L40.4023 12.8105L45.6768 17.2715L46 17.5439L46.3232 17.2715L51.5967 12.8105L54.4307 19.123Z" fill="#FFD15C" stroke="black"/>
<path d="M29.2919 57.8141L29.2753 58.4752L29.9149 58.3112L36.829 56.5446L38.8895 61.151L38.1815 62.4215L32.3104 72.7975L30.1268 64.8932L29.993 64.4108L29.5106 64.5446L21.6405 66.7272L28.955 53.7819L28.9559 53.7809L29.412 52.9674L29.2919 57.8141Z" fill="#FF7058" stroke="black"/>
<path d="M63.0315 53.3287L63.0325 53.3306L70.6038 66.7281L62.7336 64.5445L62.2512 64.4107L62.1174 64.8941L59.9329 72.7974L53.928 62.1773L53.2092 60.9058L55.1702 56.5445L62.0852 58.3111L62.7249 58.4752L62.7083 57.814L62.5754 52.5172L63.0315 53.3287Z" fill="#FF7058" stroke="black"/>
<path d="M39.4481 61.1762L38.6168 62.6675L36.331 57.5824L28.3611 59.6238L28.52 53.5364L29.9624 50.9694L29.7913 57.8269L37.1133 55.9567L39.4481 61.1762Z" fill="#F1543F"/>
<path d="M63.639 59.6239L55.6691 57.5825L53.4932 62.4231L52.6498 60.9318L54.8867 55.9567L62.2088 57.827L62.0254 50.5172L63.4678 53.0841L63.639 59.6239Z" fill="#F1543F"/>
<path d="M45.9998 21.7412C54.6402 21.7412 61.6471 28.7672 61.6472 37.4375C61.6472 46.1079 54.6403 53.1338 45.9998 53.1338C37.3593 53.1337 30.3523 46.1078 30.3523 37.4375C30.3524 28.7673 37.3594 21.7413 45.9998 21.7412Z" fill="#F8B64C" stroke="black"/>
<path d="M53.4805 28.7363L56.3047 31.5722L56.6562 31.9247L56.3047 32.2773L42.5039 46.1269L42.1494 46.4824L41.7959 46.1279L35.6963 40.0156L35.3438 39.663L35.6953 39.3095L38.5195 36.4736L38.873 36.1181L39.2275 36.4736L42.1484 39.4052L52.7725 28.7363L53.126 28.3798L53.4805 28.7363Z" fill="#F2F2F2" stroke="black"/>
<defs>
<filter id="filter0_d_71_103" x="0" y="0" width="306" height="91" filterUnits="userSpaceOnUse" color-interpolation-filters="sRGB">
<feFlood flood-opacity="0" result="BackgroundImageFix"/>
<feColorMatrix in="SourceAlpha" type="matrix" values="0 0 0 0 0 0 0 0 0 0 0 0 0 0 0 0 0 0 127 0" result="hardAlpha"/>
<feOffset dy="4"/>
<feGaussianBlur stdDeviation="2"/>
<feComposite in2="hardAlpha" operator="out"/>
<feColorMatrix type="matrix" values="0 0 0 0 0 0 0 0 0 0 0 0 0 0 0 0 0 0 0.25 0"/>
<feBlend mode="normal" in2="BackgroundImageFix" result="effect1_dropShadow_71_103"/>
<feBlend mode="normal" in="SourceGraphic" in2="effect1_dropShadow_71_103" result="shape"/>
</filter>
</defs>
</svg>
