<svg width="306" height="91" viewBox="0 0 306 91" fill="none" xmlns="http://www.w3.org/2000/svg">
<g filter="url(#filter0_d_73_104)">
<rect x="4" width="298" height="83" rx="10" fill="#FCFCFC"/>
</g>
<path d="M97.6037 13.6719C97.5639 13.2997 97.3963 13.0099 97.1009 12.8026C96.8082 12.5952 96.4276 12.4915 95.9588 12.4915C95.6293 12.4915 95.3466 12.5412 95.1108 12.6406C94.875 12.7401 94.6946 12.875 94.5696 13.0455C94.4446 13.2159 94.3807 13.4105 94.3778 13.6293C94.3778 13.8111 94.419 13.9687 94.5014 14.1023C94.5866 14.2358 94.7017 14.3494 94.8466 14.4432C94.9915 14.5341 95.152 14.6108 95.3281 14.6733C95.5043 14.7358 95.6818 14.7884 95.8608 14.831L96.679 15.0355C97.0085 15.1122 97.3253 15.2159 97.6293 15.3466C97.9361 15.4773 98.2102 15.642 98.4517 15.8409C98.696 16.0398 98.8892 16.2798 99.0312 16.5611C99.1733 16.8423 99.2443 17.1719 99.2443 17.5497C99.2443 18.0611 99.1136 18.5114 98.8523 18.9006C98.5909 19.2869 98.2131 19.5895 97.7188 19.8082C97.2273 20.0241 96.6321 20.1321 95.9332 20.1321C95.2543 20.1321 94.6648 20.027 94.1648 19.8168C93.6676 19.6065 93.2784 19.2997 92.9972 18.8963C92.7188 18.4929 92.5682 18.0014 92.5455 17.4219H94.1009C94.1236 17.7259 94.2173 17.9787 94.3821 18.1804C94.5469 18.3821 94.7614 18.5327 95.0256 18.6321C95.2926 18.7315 95.5909 18.7812 95.9205 18.7812C96.2642 18.7812 96.5653 18.7301 96.8239 18.6278C97.0852 18.5227 97.2898 18.3778 97.4375 18.1932C97.5852 18.0057 97.6605 17.7869 97.6634 17.5369C97.6605 17.3097 97.5938 17.1222 97.4631 16.9744C97.3324 16.8239 97.1491 16.6989 96.9134 16.5994C96.6804 16.4972 96.4077 16.4062 96.0952 16.3267L95.1023 16.071C94.3835 15.8864 93.8153 15.6065 93.3977 15.2315C92.983 14.8537 92.7756 14.3523 92.7756 13.7273C92.7756 13.2131 92.9148 12.7628 93.1932 12.3764C93.4744 11.9901 93.8565 11.6903 94.3395 11.4773C94.8224 11.2614 95.3693 11.1534 95.9801 11.1534C96.5994 11.1534 97.142 11.2614 97.608 11.4773C98.0767 11.6903 98.4446 11.9872 98.7116 12.3679C98.9787 12.7457 99.1165 13.1804 99.125 13.6719H97.6037ZM102.469 20.1321C102.054 20.1321 101.681 20.0582 101.348 19.9105C101.019 19.7599 100.757 19.5384 100.564 19.2457C100.374 18.9531 100.279 18.5923 100.279 18.1634C100.279 17.794 100.347 17.4886 100.483 17.2472C100.62 17.0057 100.806 16.8125 101.042 16.6676C101.277 16.5227 101.543 16.4134 101.838 16.3395C102.137 16.2628 102.445 16.2074 102.763 16.1733C103.147 16.1335 103.458 16.098 103.696 16.0668C103.935 16.0327 104.108 15.9815 104.216 15.9134C104.327 15.8423 104.382 15.733 104.382 15.5852V15.5597C104.382 15.2386 104.287 14.9901 104.097 14.8139C103.907 14.6378 103.632 14.5497 103.275 14.5497C102.897 14.5497 102.597 14.6321 102.375 14.7969C102.157 14.9616 102.009 15.1562 101.932 15.3807L100.492 15.1761C100.605 14.7784 100.793 14.446 101.054 14.179C101.316 13.9091 101.635 13.7074 102.013 13.5739C102.391 13.4375 102.809 13.3693 103.266 13.3693C103.581 13.3693 103.895 13.4062 104.208 13.4801C104.52 13.554 104.806 13.6761 105.064 13.8466C105.323 14.0142 105.53 14.2429 105.686 14.5327C105.846 14.8224 105.925 15.1847 105.925 15.6193V20H104.442V19.1009H104.391C104.297 19.2827 104.165 19.4531 103.995 19.6122C103.827 19.7685 103.615 19.8949 103.36 19.9915C103.107 20.0852 102.81 20.1321 102.469 20.1321ZM102.87 18.9986C103.179 18.9986 103.448 18.9375 103.675 18.8153C103.902 18.6903 104.077 18.5256 104.199 18.321C104.324 18.1165 104.387 17.8935 104.387 17.652V16.8807C104.338 16.9205 104.256 16.9574 104.14 16.9915C104.026 17.0256 103.898 17.0554 103.756 17.081C103.614 17.1065 103.473 17.1293 103.334 17.1491C103.195 17.169 103.074 17.1861 102.972 17.2003C102.742 17.2315 102.536 17.2827 102.354 17.3537C102.172 17.4247 102.029 17.5241 101.924 17.652C101.819 17.777 101.766 17.9389 101.766 18.1378C101.766 18.4219 101.87 18.6364 102.077 18.7812C102.284 18.9261 102.549 18.9986 102.87 18.9986ZM111.648 17.2472V13.4545H113.191V20H111.695V18.8366H111.627C111.479 19.2031 111.236 19.5028 110.898 19.7358C110.563 19.9687 110.15 20.0852 109.658 20.0852C109.229 20.0852 108.85 19.9901 108.52 19.7997C108.194 19.6065 107.938 19.3267 107.753 18.9602C107.569 18.5909 107.476 18.1449 107.476 17.6222V13.4545H109.019V17.3835C109.019 17.7983 109.132 18.1278 109.36 18.3722C109.587 18.6165 109.885 18.7386 110.255 18.7386C110.482 18.7386 110.702 18.6832 110.915 18.5724C111.128 18.4616 111.303 18.2969 111.439 18.0781C111.578 17.8565 111.648 17.5795 111.648 17.2472ZM117.206 20.1151C116.692 20.1151 116.232 19.983 115.825 19.7188C115.419 19.4545 115.098 19.071 114.862 18.5682C114.626 18.0653 114.509 17.4545 114.509 16.7358C114.509 16.0085 114.628 15.3949 114.866 14.8949C115.108 14.392 115.433 14.0128 115.842 13.7571C116.251 13.4986 116.707 13.3693 117.21 13.3693C117.594 13.3693 117.909 13.4347 118.156 13.5653C118.403 13.6932 118.599 13.848 118.744 14.0298C118.889 14.2088 119.001 14.3778 119.081 14.5369H119.145V11.2727H120.692V20H119.175V18.9688H119.081C119.001 19.1278 118.886 19.2969 118.736 19.4759C118.585 19.652 118.386 19.8026 118.139 19.9276C117.892 20.0526 117.581 20.1151 117.206 20.1151ZM117.636 18.8494C117.963 18.8494 118.241 18.7614 118.472 18.5852C118.702 18.4062 118.876 18.1577 118.996 17.8395C119.115 17.5213 119.175 17.1506 119.175 16.7273C119.175 16.304 119.115 15.9361 118.996 15.6236C118.879 15.3111 118.706 15.0682 118.476 14.8949C118.249 14.7216 117.969 14.6349 117.636 14.6349C117.293 14.6349 117.006 14.7244 116.776 14.9034C116.545 15.0824 116.372 15.3295 116.256 15.6449C116.139 15.9602 116.081 16.321 116.081 16.7273C116.081 17.1364 116.139 17.5014 116.256 17.8224C116.375 18.1406 116.55 18.392 116.78 18.5767C117.013 18.7585 117.298 18.8494 117.636 18.8494ZM125.233 20.1278C124.577 20.1278 124.01 19.9915 123.533 19.7188C123.059 19.4432 122.694 19.054 122.438 18.5511C122.182 18.0455 122.054 17.4503 122.054 16.7656C122.054 16.0923 122.182 15.5014 122.438 14.9929C122.696 14.4815 123.057 14.0838 123.52 13.7997C123.983 13.5128 124.527 13.3693 125.152 13.3693C125.556 13.3693 125.936 13.4347 126.294 13.5653C126.655 13.6932 126.973 13.892 127.249 14.1619C127.527 14.4318 127.746 14.7756 127.905 15.1932C128.064 15.608 128.144 16.1023 128.144 16.6761V17.1491H122.779V16.1094H126.665C126.662 15.8139 126.598 15.5511 126.473 15.321C126.348 15.0881 126.174 14.9048 125.949 14.7713C125.728 14.6378 125.469 14.571 125.174 14.571C124.858 14.571 124.581 14.6477 124.343 14.8011C124.104 14.9517 123.918 15.1506 123.784 15.3977C123.654 15.642 123.587 15.9105 123.584 16.2031V17.1108C123.584 17.4915 123.654 17.8182 123.793 18.0909C123.932 18.3608 124.127 18.5682 124.377 18.7131C124.627 18.8551 124.919 18.9261 125.255 18.9261C125.479 18.9261 125.682 18.8949 125.864 18.8324C126.046 18.767 126.203 18.6719 126.337 18.5469C126.471 18.4219 126.571 18.267 126.64 18.0824L128.08 18.2443C127.989 18.625 127.816 18.9574 127.56 19.2415C127.307 19.5227 126.983 19.7415 126.588 19.8977C126.194 20.0511 125.742 20.1278 125.233 20.1278ZM132.304 20.1278C131.651 20.1278 131.089 19.9844 130.621 19.6974C130.155 19.4105 129.795 19.0142 129.543 18.5085C129.293 18 129.168 17.4148 129.168 16.7528C129.168 16.0881 129.295 15.5014 129.551 14.9929C129.807 14.4815 130.168 14.0838 130.634 13.7997C131.102 13.5128 131.656 13.3693 132.295 13.3693C132.827 13.3693 133.297 13.4673 133.706 13.6634C134.118 13.8565 134.446 14.1307 134.69 14.4858C134.935 14.8381 135.074 15.25 135.108 15.7216H133.634C133.574 15.4062 133.432 15.1435 133.207 14.9332C132.986 14.7202 132.689 14.6136 132.317 14.6136C132.001 14.6136 131.724 14.6989 131.486 14.8693C131.247 15.0369 131.061 15.2784 130.928 15.5938C130.797 15.9091 130.732 16.2869 130.732 16.7273C130.732 17.1733 130.797 17.5568 130.928 17.8778C131.058 18.196 131.241 18.4418 131.477 18.6151C131.716 18.7855 131.996 18.8707 132.317 18.8707C132.544 18.8707 132.747 18.8281 132.926 18.7429C133.108 18.6548 133.26 18.5284 133.382 18.3636C133.504 18.1989 133.588 17.9986 133.634 17.7628H135.108C135.071 18.2259 134.935 18.6364 134.699 18.9943C134.463 19.3494 134.142 19.6278 133.736 19.8295C133.33 20.0284 132.852 20.1278 132.304 20.1278ZM139.272 20.1278C138.616 20.1278 138.049 19.9915 137.572 19.7188C137.098 19.4432 136.733 19.054 136.477 18.5511C136.221 18.0455 136.093 17.4503 136.093 16.7656C136.093 16.0923 136.221 15.5014 136.477 14.9929C136.735 14.4815 137.096 14.0838 137.559 13.7997C138.022 13.5128 138.566 13.3693 139.191 13.3693C139.595 13.3693 139.975 13.4347 140.333 13.5653C140.694 13.6932 141.012 13.892 141.288 14.1619C141.566 14.4318 141.785 14.7756 141.944 15.1932C142.103 15.608 142.183 16.1023 142.183 16.6761V17.1491H136.818V16.1094H140.704C140.701 15.8139 140.637 15.5511 140.512 15.321C140.387 15.0881 140.213 14.9048 139.988 14.7713C139.767 14.6378 139.508 14.571 139.213 14.571C138.897 14.571 138.62 14.6477 138.382 14.8011C138.143 14.9517 137.957 15.1506 137.824 15.3977C137.693 15.642 137.626 15.9105 137.623 16.2031V17.1108C137.623 17.4915 137.693 17.8182 137.832 18.0909C137.971 18.3608 138.166 18.5682 138.416 18.7131C138.666 18.8551 138.958 18.9261 139.294 18.9261C139.518 18.9261 139.721 18.8949 139.903 18.8324C140.085 18.767 140.243 18.6719 140.376 18.5469C140.51 18.4219 140.61 18.267 140.679 18.0824L142.119 18.2443C142.028 18.625 141.855 18.9574 141.599 19.2415C141.346 19.5227 141.022 19.7415 140.627 19.8977C140.233 20.0511 139.781 20.1278 139.272 20.1278ZM143.488 20V13.4545H144.962V14.5668H145.039C145.175 14.1918 145.401 13.8991 145.717 13.6889C146.032 13.4759 146.408 13.3693 146.846 13.3693C147.289 13.3693 147.663 13.4773 147.967 13.6932C148.273 13.9062 148.489 14.1974 148.614 14.5668H148.683C148.827 14.2031 149.072 13.9134 149.415 13.6974C149.762 13.4787 150.173 13.3693 150.647 13.3693C151.249 13.3693 151.741 13.5597 152.121 13.9403C152.502 14.321 152.692 14.8764 152.692 15.6065V20H151.146V15.8452C151.146 15.4389 151.038 15.142 150.822 14.9545C150.606 14.7642 150.342 14.669 150.029 14.669C149.657 14.669 149.366 14.7855 149.156 15.0185C148.948 15.2486 148.844 15.5483 148.844 15.9176V20H147.332V15.7812C147.332 15.4432 147.229 15.1733 147.025 14.9716C146.823 14.7699 146.559 14.669 146.232 14.669C146.011 14.669 145.809 14.7259 145.627 14.8395C145.445 14.9503 145.3 15.108 145.192 15.3125C145.085 15.5142 145.031 15.75 145.031 16.0199V20H143.488ZM157.113 20.1278C156.473 20.1278 155.919 19.9872 155.451 19.706C154.982 19.4247 154.618 19.0312 154.36 18.5256C154.104 18.0199 153.976 17.429 153.976 16.7528C153.976 16.0767 154.104 15.4844 154.36 14.9759C154.618 14.4673 154.982 14.0724 155.451 13.7912C155.919 13.5099 156.473 13.3693 157.113 13.3693C157.752 13.3693 158.306 13.5099 158.775 13.7912C159.243 14.0724 159.605 14.4673 159.861 14.9759C160.12 15.4844 160.249 16.0767 160.249 16.7528C160.249 17.429 160.12 18.0199 159.861 18.5256C159.605 19.0312 159.243 19.4247 158.775 19.706C158.306 19.9872 157.752 20.1278 157.113 20.1278ZM157.121 18.892C157.468 18.892 157.757 18.7969 157.99 18.6065C158.223 18.4134 158.397 18.1548 158.51 17.831C158.627 17.5071 158.685 17.1463 158.685 16.7486C158.685 16.348 158.627 15.9858 158.51 15.6619C158.397 15.3352 158.223 15.0753 157.99 14.8821C157.757 14.6889 157.468 14.5923 157.121 14.5923C156.766 14.5923 156.471 14.6889 156.235 14.8821C156.002 15.0753 155.827 15.3352 155.711 15.6619C155.597 15.9858 155.54 16.348 155.54 16.7486C155.54 17.1463 155.597 17.5071 155.711 17.831C155.827 18.1548 156.002 18.4134 156.235 18.6065C156.471 18.7969 156.766 18.892 157.121 18.892ZM168.502 15.0014V16.2713H164.573V15.0014H168.502ZM173.169 20V11.2727H176.442C177.113 11.2727 177.675 11.3977 178.13 11.6477C178.587 11.8977 178.932 12.2415 179.165 12.679C179.401 13.1136 179.519 13.608 179.519 14.1619C179.519 14.7216 179.401 15.2187 179.165 15.6534C178.929 16.0881 178.581 16.4304 178.121 16.6804C177.661 16.9276 177.094 17.0511 176.421 17.0511H174.252V15.7514H176.208C176.6 15.7514 176.921 15.6832 177.171 15.5469C177.421 15.4105 177.605 15.223 177.725 14.9844C177.847 14.7457 177.908 14.4716 177.908 14.1619C177.908 13.8523 177.847 13.5795 177.725 13.3438C177.605 13.108 177.419 12.9247 177.167 12.794C176.917 12.6605 176.594 12.5938 176.199 12.5938H174.75V20H173.169ZM182.366 11.2727V20H180.824V11.2727H182.366ZM185.836 20.1321C185.422 20.1321 185.048 20.0582 184.716 19.9105C184.386 19.7599 184.125 19.5384 183.931 19.2457C183.741 18.9531 183.646 18.5923 183.646 18.1634C183.646 17.794 183.714 17.4886 183.85 17.2472C183.987 17.0057 184.173 16.8125 184.409 16.6676C184.645 16.5227 184.91 16.4134 185.206 16.3395C185.504 16.2628 185.812 16.2074 186.13 16.1733C186.514 16.1335 186.825 16.098 187.064 16.0668C187.302 16.0327 187.475 15.9815 187.583 15.9134C187.694 15.8423 187.75 15.733 187.75 15.5852V15.5597C187.75 15.2386 187.654 14.9901 187.464 14.8139C187.274 14.6378 187 14.5497 186.642 14.5497C186.264 14.5497 185.964 14.6321 185.743 14.7969C185.524 14.9616 185.376 15.1562 185.299 15.3807L183.859 15.1761C183.973 14.7784 184.16 14.446 184.422 14.179C184.683 13.9091 185.002 13.7074 185.38 13.5739C185.758 13.4375 186.176 13.3693 186.633 13.3693C186.949 13.3693 187.262 13.4062 187.575 13.4801C187.887 13.554 188.173 13.6761 188.431 13.8466C188.69 14.0142 188.897 14.2429 189.054 14.5327C189.213 14.8224 189.292 15.1847 189.292 15.6193V20H187.809V19.1009H187.758C187.664 19.2827 187.532 19.4531 187.362 19.6122C187.194 19.7685 186.983 19.8949 186.727 19.9915C186.474 20.0852 186.177 20.1321 185.836 20.1321ZM186.237 18.9986C186.547 18.9986 186.815 18.9375 187.042 18.8153C187.27 18.6903 187.444 18.5256 187.566 18.321C187.691 18.1165 187.754 17.8935 187.754 17.652V16.8807C187.706 16.9205 187.623 16.9574 187.507 16.9915C187.393 17.0256 187.265 17.0554 187.123 17.081C186.981 17.1065 186.841 17.1293 186.701 17.1491C186.562 17.169 186.441 17.1861 186.339 17.2003C186.109 17.2315 185.903 17.2827 185.721 17.3537C185.539 17.4247 185.396 17.5241 185.291 17.652C185.186 17.777 185.133 17.9389 185.133 18.1378C185.133 18.4219 185.237 18.6364 185.444 18.7812C185.652 18.9261 185.916 18.9986 186.237 18.9986ZM191.568 22.4545C191.358 22.4545 191.163 22.4375 190.984 22.4034C190.808 22.3722 190.667 22.3352 190.562 22.2926L190.92 21.0909C191.145 21.1563 191.345 21.1875 191.521 21.1847C191.697 21.1818 191.852 21.1264 191.985 21.0185C192.122 20.9134 192.237 20.7372 192.331 20.4901L192.463 20.1364L190.089 13.4545H191.725L193.234 18.3977H193.302L194.815 13.4545H196.456L193.835 20.7926C193.713 21.1392 193.551 21.4361 193.349 21.6832C193.147 21.9332 192.9 22.1236 192.608 22.2543C192.318 22.3878 191.971 22.4545 191.568 22.4545ZM198.874 20L197.025 13.4545H198.597L199.748 18.0568H199.807L200.983 13.4545H202.539L203.715 18.0312H203.779L204.912 13.4545H206.489L204.635 20H203.029L201.801 15.5767H201.712L200.485 20H198.874ZM207.566 20V13.4545H209.062V14.5455H209.13C209.249 14.1676 209.454 13.8764 209.744 13.6719C210.036 13.4645 210.37 13.3608 210.745 13.3608C210.83 13.3608 210.925 13.3651 211.031 13.3736C211.138 13.3793 211.228 13.3892 211.299 13.4034V14.8224C211.234 14.7997 211.13 14.7798 210.988 14.7628C210.849 14.7429 210.714 14.733 210.583 14.733C210.302 14.733 210.049 14.794 209.825 14.9162C209.603 15.0355 209.428 15.2017 209.3 15.4148C209.173 15.6278 209.109 15.8736 209.109 16.152V20H207.566ZM212.324 20V13.4545H213.866V20H212.324ZM213.099 12.5256C212.855 12.5256 212.645 12.4446 212.469 12.2827C212.293 12.1179 212.205 11.9205 212.205 11.6903C212.205 11.4574 212.293 11.2599 212.469 11.098C212.645 10.9332 212.855 10.8509 213.099 10.8509C213.347 10.8509 213.557 10.9332 213.73 11.098C213.906 11.2599 213.994 11.4574 213.994 11.6903C213.994 11.9205 213.906 12.1179 213.73 12.2827C213.557 12.4446 213.347 12.5256 213.099 12.5256ZM218.299 22.5909C217.745 22.5909 217.27 22.5156 216.872 22.3651C216.474 22.2173 216.154 22.0185 215.913 21.7685C215.672 21.5185 215.504 21.2415 215.41 20.9375L216.799 20.6009C216.862 20.7287 216.953 20.8551 217.072 20.9801C217.191 21.108 217.352 21.2131 217.554 21.2955C217.758 21.3807 218.015 21.4233 218.325 21.4233C218.762 21.4233 219.125 21.3168 219.412 21.1037C219.699 20.8935 219.842 20.5469 219.842 20.0639V18.8239H219.765C219.686 18.983 219.569 19.1463 219.416 19.3139C219.265 19.4815 219.065 19.6222 218.815 19.7358C218.568 19.8494 218.257 19.9062 217.882 19.9062C217.379 19.9062 216.923 19.7884 216.514 19.5526C216.108 19.3139 215.784 18.9588 215.542 18.4872C215.304 18.0128 215.184 17.419 215.184 16.706C215.184 15.9872 215.304 15.3807 215.542 14.8864C215.784 14.3892 216.109 14.0128 216.518 13.7571C216.927 13.4986 217.383 13.3693 217.886 13.3693C218.27 13.3693 218.585 13.4347 218.832 13.5653C219.082 13.6932 219.281 13.848 219.429 14.0298C219.576 14.2088 219.689 14.3778 219.765 14.5369H219.85V13.4545H221.372V20.1065C221.372 20.6662 221.238 21.1293 220.971 21.4957C220.704 21.8622 220.339 22.1364 219.876 22.3182C219.413 22.5 218.887 22.5909 218.299 22.5909ZM218.312 18.696C218.639 18.696 218.917 18.6165 219.147 18.4574C219.377 18.2983 219.552 18.0696 219.672 17.7713C219.791 17.473 219.85 17.1151 219.85 16.6974C219.85 16.2855 219.791 15.9247 219.672 15.6151C219.555 15.3054 219.382 15.0653 219.152 14.8949C218.924 14.7216 218.645 14.6349 218.312 14.6349C217.968 14.6349 217.681 14.7244 217.451 14.9034C217.221 15.0824 217.048 15.3281 216.931 15.6406C216.815 15.9503 216.757 16.3026 216.757 16.6974C216.757 17.098 216.815 17.4489 216.931 17.75C217.051 18.0483 217.225 18.2812 217.456 18.4489C217.689 18.6136 217.974 18.696 218.312 18.696ZM224.495 16.1648V20H222.953V11.2727H224.461V14.5668H224.538C224.691 14.1974 224.929 13.9062 225.25 13.6932C225.574 13.4773 225.985 13.3693 226.485 13.3693C226.94 13.3693 227.336 13.4645 227.674 13.6548C228.012 13.8452 228.274 14.1236 228.458 14.4901C228.646 14.8565 228.74 15.304 228.74 15.8324V20H227.197V16.071C227.197 15.6307 227.083 15.2884 226.856 15.044C226.632 14.7969 226.316 14.6733 225.91 14.6733C225.637 14.6733 225.393 14.733 225.177 14.8523C224.964 14.9687 224.797 15.1378 224.674 15.3594C224.555 15.581 224.495 15.8494 224.495 16.1648ZM233.581 13.4545V14.6477H229.818V13.4545H233.581ZM230.747 11.8864H232.289V18.0312C232.289 18.2386 232.321 18.3977 232.383 18.5085C232.449 18.6165 232.534 18.6903 232.639 18.7301C232.744 18.7699 232.86 18.7898 232.988 18.7898C233.085 18.7898 233.173 18.7827 233.252 18.7685C233.335 18.7543 233.397 18.7415 233.44 18.7301L233.7 19.9361C233.618 19.9645 233.5 19.9957 233.346 20.0298C233.196 20.0639 233.011 20.0838 232.792 20.0895C232.406 20.1009 232.058 20.0426 231.748 19.9148C231.439 19.7841 231.193 19.5824 231.011 19.3097C230.832 19.0369 230.744 18.696 230.747 18.2869V11.8864Z" fill="black"/>
<path d="M129 45.5H182.076C184.009 45.5 185.576 47.067 185.576 49V55C185.576 56.933 184.009 58.5 182.076 58.5H129C127.067 58.5 125.5 56.933 125.5 55V49C125.5 47.067 127.067 45.5 129 45.5Z" fill="#FFFCBC" stroke="#CCBA12"/>
<path d="M131.868 48.7273V56H130.987V48.7273H131.868ZM134.358 52.7188V56H133.52V50.5455H134.33V51.3977H134.401C134.529 51.1207 134.723 50.8982 134.983 50.7301C135.244 50.5597 135.58 50.4744 135.992 50.4744C136.361 50.4744 136.684 50.5502 136.961 50.7017C137.238 50.8509 137.454 51.0781 137.607 51.3835C137.761 51.6866 137.838 52.0701 137.838 52.5341V56H137V52.5909C137 52.1624 136.889 51.8286 136.666 51.5895C136.444 51.348 136.138 51.2273 135.75 51.2273C135.483 51.2273 135.244 51.2853 135.033 51.4013C134.825 51.5173 134.66 51.6866 134.539 51.9091C134.418 52.1316 134.358 52.4015 134.358 52.7188ZM141.742 50.5455V51.2557H138.915V50.5455H141.742ZM139.739 49.2386H140.577V54.4375C140.577 54.6742 140.611 54.8518 140.68 54.9702C140.751 55.0862 140.841 55.1643 140.95 55.2045C141.061 55.2424 141.178 55.2614 141.301 55.2614C141.394 55.2614 141.47 55.2566 141.529 55.2472C141.588 55.2353 141.635 55.2259 141.671 55.2188L141.841 55.9716C141.784 55.9929 141.705 56.0142 141.603 56.0355C141.502 56.0592 141.373 56.071 141.216 56.071C140.98 56.071 140.748 56.0201 140.52 55.9183C140.295 55.8165 140.108 55.6615 139.959 55.4531C139.812 55.2448 139.739 54.982 139.739 54.6648V49.2386ZM145.231 56.1136C144.705 56.1136 144.252 55.9976 143.871 55.7656C143.492 55.5312 143.2 55.2045 142.994 54.7855C142.79 54.3641 142.688 53.8741 142.688 53.3153C142.688 52.7566 142.79 52.2642 142.994 51.8381C143.2 51.4096 143.486 51.0758 143.853 50.8366C144.222 50.5952 144.653 50.4744 145.146 50.4744C145.43 50.4744 145.71 50.5218 145.987 50.6165C146.264 50.7112 146.516 50.8651 146.744 51.0781C146.971 51.2888 147.152 51.5682 147.287 51.9162C147.422 52.2642 147.489 52.6927 147.489 53.2017V53.5568H143.285V52.8324H146.637C146.637 52.5246 146.576 52.25 146.452 52.0085C146.332 51.767 146.159 51.5765 145.934 51.4368C145.711 51.2971 145.449 51.2273 145.146 51.2273C144.812 51.2273 144.523 51.3101 144.279 51.4759C144.038 51.6392 143.852 51.8523 143.722 52.1151C143.591 52.3778 143.526 52.6596 143.526 52.9602V53.4432C143.526 53.8551 143.597 54.2043 143.739 54.4908C143.884 54.7749 144.084 54.9915 144.339 55.1406C144.595 55.2874 144.892 55.3608 145.231 55.3608C145.451 55.3608 145.65 55.33 145.827 55.2685C146.007 55.2045 146.162 55.1098 146.293 54.9844C146.423 54.8565 146.523 54.6979 146.594 54.5085L147.404 54.7358C147.319 55.0104 147.176 55.2519 146.974 55.4602C146.773 55.6662 146.525 55.8272 146.229 55.9432C145.933 56.0568 145.6 56.1136 145.231 56.1136ZM150.966 58.1591C150.561 58.1591 150.213 58.107 149.922 58.0028C149.631 57.901 149.388 57.7661 149.194 57.598C149.002 57.4323 148.849 57.2547 148.736 57.0653L149.403 56.5966C149.479 56.696 149.575 56.8097 149.691 56.9375C149.807 57.0677 149.966 57.1802 150.167 57.2749C150.37 57.3719 150.637 57.4205 150.966 57.4205C151.406 57.4205 151.77 57.3139 152.056 57.1009C152.343 56.8878 152.486 56.554 152.486 56.0994V54.9915H152.415C152.353 55.0909 152.266 55.214 152.152 55.3608C152.041 55.5052 151.88 55.6342 151.669 55.7479C151.461 55.8591 151.179 55.9148 150.824 55.9148C150.384 55.9148 149.988 55.8106 149.638 55.6023C149.29 55.3939 149.014 55.0909 148.81 54.6932C148.609 54.2955 148.509 53.8125 148.509 53.2443C148.509 52.6856 148.607 52.1991 148.803 51.7848C149 51.3681 149.273 51.0462 149.624 50.8189C149.974 50.5893 150.379 50.4744 150.838 50.4744C151.193 50.4744 151.475 50.5336 151.683 50.652C151.894 50.768 152.055 50.9006 152.166 51.0497C152.28 51.1965 152.367 51.3172 152.429 51.4119H152.514V50.5455H153.324V56.1562C153.324 56.625 153.217 57.0062 153.004 57.2997C152.794 57.5956 152.509 57.8123 152.152 57.9496C151.797 58.0893 151.402 58.1591 150.966 58.1591ZM150.937 55.1619C151.274 55.1619 151.558 55.085 151.79 54.9311C152.022 54.7772 152.198 54.5559 152.319 54.267C152.44 53.9782 152.5 53.6326 152.5 53.2301C152.5 52.8371 152.441 52.4903 152.322 52.1896C152.204 51.889 152.029 51.6534 151.797 51.483C151.565 51.3125 151.278 51.2273 150.937 51.2273C150.582 51.2273 150.286 51.3172 150.05 51.4972C149.815 51.6771 149.639 51.9186 149.521 52.2216C149.405 52.5246 149.347 52.8608 149.347 53.2301C149.347 53.6089 149.406 53.9439 149.524 54.2351C149.645 54.5239 149.822 54.7512 150.057 54.9169C150.294 55.0803 150.587 55.1619 150.937 55.1619ZM154.858 56V50.5455H155.668V51.3693H155.724C155.824 51.0994 156.004 50.8804 156.264 50.7124C156.525 50.5443 156.818 50.4602 157.145 50.4602C157.206 50.4602 157.283 50.4614 157.376 50.4638C157.468 50.4661 157.538 50.4697 157.585 50.4744V51.3267C157.557 51.3196 157.492 51.3089 157.39 51.2947C157.29 51.2782 157.185 51.2699 157.074 51.2699C156.809 51.2699 156.572 51.3255 156.364 51.4368C156.158 51.5457 155.994 51.6972 155.874 51.8913C155.755 52.0831 155.696 52.3021 155.696 52.5483V56H154.858ZM160.184 56.1278C159.838 56.1278 159.524 56.0627 159.243 55.9325C158.961 55.8 158.737 55.6094 158.572 55.3608C158.406 55.1098 158.323 54.8068 158.323 54.4517C158.323 54.1392 158.385 53.8859 158.508 53.6918C158.631 53.4953 158.795 53.3414 159.001 53.2301C159.207 53.1188 159.434 53.036 159.683 52.9815C159.934 52.9247 160.186 52.8797 160.439 52.8466C160.771 52.804 161.04 52.772 161.246 52.7507C161.454 52.727 161.605 52.688 161.7 52.6335C161.797 52.5791 161.846 52.4844 161.846 52.3494V52.321C161.846 51.9706 161.75 51.6984 161.558 51.5043C161.369 51.3101 161.081 51.2131 160.695 51.2131C160.295 51.2131 159.981 51.3007 159.754 51.4759C159.527 51.651 159.367 51.8381 159.275 52.0369L158.479 51.7528C158.621 51.4214 158.811 51.1634 159.047 50.9787C159.287 50.7917 159.547 50.6615 159.829 50.5881C160.113 50.5123 160.392 50.4744 160.667 50.4744C160.842 50.4744 161.043 50.4957 161.27 50.5384C161.5 50.5786 161.721 50.6626 161.934 50.7905C162.15 50.9183 162.329 51.1113 162.471 51.3693C162.613 51.6274 162.684 51.973 162.684 52.4062V56H161.846V55.2614H161.803C161.746 55.3797 161.652 55.5064 161.519 55.6413C161.386 55.7763 161.21 55.8911 160.99 55.9858C160.77 56.0805 160.501 56.1278 160.184 56.1278ZM160.312 55.375C160.643 55.375 160.922 55.3099 161.15 55.1797C161.379 55.0495 161.552 54.8814 161.668 54.6754C161.787 54.4695 161.846 54.2528 161.846 54.0256V53.2585C161.81 53.3011 161.732 53.3402 161.611 53.3757C161.493 53.4089 161.356 53.4384 161.199 53.4645C161.046 53.4882 160.895 53.5095 160.748 53.5284C160.604 53.545 160.487 53.5592 160.397 53.571C160.179 53.5994 159.975 53.6456 159.786 53.7095C159.599 53.7711 159.447 53.8646 159.331 53.9901C159.218 54.1132 159.161 54.2812 159.161 54.4943C159.161 54.7855 159.269 55.0057 159.484 55.1548C159.702 55.3016 159.978 55.375 160.312 55.375ZM166.429 56.1136C165.918 56.1136 165.478 55.9929 165.108 55.7514C164.739 55.5099 164.455 55.1773 164.256 54.7536C164.057 54.3298 163.958 53.8456 163.958 53.3011C163.958 52.7472 164.06 52.2583 164.263 51.8345C164.469 51.4084 164.756 51.0758 165.123 50.8366C165.492 50.5952 165.923 50.4744 166.415 50.4744C166.799 50.4744 167.144 50.5455 167.452 50.6875C167.76 50.8295 168.012 51.0284 168.208 51.2841C168.405 51.5398 168.527 51.8381 168.574 52.179H167.736C167.672 51.9304 167.53 51.7102 167.31 51.5185C167.092 51.3243 166.799 51.2273 166.429 51.2273C166.103 51.2273 165.816 51.3125 165.57 51.483C165.326 51.651 165.136 51.889 164.998 52.1967C164.863 52.5021 164.796 52.8608 164.796 53.2727C164.796 53.6941 164.862 54.0611 164.995 54.3736C165.13 54.6861 165.319 54.9287 165.563 55.1016C165.809 55.2744 166.098 55.3608 166.429 55.3608C166.647 55.3608 166.845 55.3229 167.022 55.2472C167.2 55.1714 167.35 55.0625 167.473 54.9205C167.596 54.7784 167.684 54.608 167.736 54.4091H168.574C168.527 54.7311 168.41 55.0211 168.223 55.2791C168.038 55.5348 167.793 55.7384 167.488 55.8899C167.185 56.0391 166.832 56.1136 166.429 56.1136ZM166.032 55.9716H166.728L166.671 56.2557C166.855 56.2841 167.025 56.361 167.179 56.4865C167.333 56.6143 167.409 56.8168 167.409 57.0938C167.409 57.3991 167.283 57.6477 167.029 57.8395C166.779 58.0336 166.408 58.1307 165.918 58.1307L165.89 57.5767C166.11 57.5767 166.292 57.5412 166.436 57.4702C166.583 57.4015 166.657 57.2855 166.657 57.1222C166.657 56.9588 166.596 56.8475 166.475 56.7884C166.355 56.7292 166.159 56.6889 165.89 56.6676L166.032 55.9716ZM171.404 56.1278C171.059 56.1278 170.745 56.0627 170.463 55.9325C170.182 55.8 169.958 55.6094 169.792 55.3608C169.627 55.1098 169.544 54.8068 169.544 54.4517C169.544 54.1392 169.605 53.8859 169.728 53.6918C169.851 53.4953 170.016 53.3414 170.222 53.2301C170.428 53.1188 170.655 53.036 170.904 52.9815C171.155 52.9247 171.407 52.8797 171.66 52.8466C171.992 52.804 172.26 52.772 172.466 52.7507C172.675 52.727 172.826 52.688 172.921 52.6335C173.018 52.5791 173.066 52.4844 173.066 52.3494V52.321C173.066 51.9706 172.971 51.6984 172.779 51.5043C172.589 51.3101 172.302 51.2131 171.916 51.2131C171.516 51.2131 171.202 51.3007 170.975 51.4759C170.748 51.651 170.588 51.8381 170.495 52.0369L169.7 51.7528C169.842 51.4214 170.031 51.1634 170.268 50.9787C170.507 50.7917 170.768 50.6615 171.049 50.5881C171.333 50.5123 171.613 50.4744 171.887 50.4744C172.063 50.4744 172.264 50.4957 172.491 50.5384C172.721 50.5786 172.942 50.6626 173.155 50.7905C173.371 50.9183 173.549 51.1113 173.691 51.3693C173.833 51.6274 173.904 51.973 173.904 52.4062V56H173.066V55.2614H173.024C172.967 55.3797 172.872 55.5064 172.74 55.6413C172.607 55.7763 172.431 55.8911 172.211 55.9858C171.99 56.0805 171.722 56.1278 171.404 56.1278ZM171.532 55.375C171.864 55.375 172.143 55.3099 172.37 55.1797C172.6 55.0495 172.773 54.8814 172.889 54.6754C173.007 54.4695 173.066 54.2528 173.066 54.0256V53.2585C173.031 53.3011 172.953 53.3402 172.832 53.3757C172.714 53.4089 172.576 53.4384 172.42 53.4645C172.266 53.4882 172.116 53.5095 171.969 53.5284C171.825 53.545 171.708 53.5592 171.618 53.571C171.4 53.5994 171.196 53.6456 171.007 53.7095C170.82 53.7711 170.668 53.8646 170.552 53.9901C170.439 54.1132 170.382 54.2812 170.382 54.4943C170.382 54.7855 170.489 55.0057 170.705 55.1548C170.923 55.3016 171.199 55.375 171.532 55.375ZM170.85 49.892L170.197 49.8636C170.197 49.5014 170.3 49.2055 170.506 48.9759C170.714 48.7438 170.971 48.6278 171.277 48.6278C171.412 48.6278 171.531 48.6515 171.635 48.6989C171.739 48.7438 171.839 48.7959 171.934 48.8551C172.028 48.9143 172.125 48.9676 172.225 49.0149C172.327 49.0599 172.441 49.0824 172.569 49.0824C172.704 49.0824 172.818 49.0303 172.91 48.9261C173.005 48.8196 173.052 48.6918 173.052 48.5426L173.691 48.5994C173.691 48.9687 173.587 49.2623 173.379 49.4801C173.173 49.6979 172.917 49.8068 172.612 49.8068C172.449 49.8068 172.314 49.7843 172.207 49.7393C172.1 49.692 172.006 49.6387 171.923 49.5795C171.84 49.5204 171.752 49.4683 171.66 49.4233C171.568 49.3759 171.454 49.3523 171.319 49.3523C171.184 49.3523 171.072 49.4055 170.982 49.5121C170.894 49.6162 170.85 49.7429 170.85 49.892ZM177.65 56.1136C177.158 56.1136 176.726 55.9964 176.354 55.7621C175.985 55.5277 175.696 55.1998 175.487 54.7784C175.281 54.357 175.178 53.8646 175.178 53.3011C175.178 52.733 175.281 52.237 175.487 51.8132C175.696 51.3894 175.985 51.0604 176.354 50.826C176.726 50.5916 177.158 50.4744 177.65 50.4744C178.142 50.4744 178.573 50.5916 178.943 50.826C179.314 51.0604 179.603 51.3894 179.809 51.8132C180.017 52.237 180.122 52.733 180.122 53.3011C180.122 53.8646 180.017 54.357 179.809 54.7784C179.603 55.1998 179.314 55.5277 178.943 55.7621C178.573 55.9964 178.142 56.1136 177.65 56.1136ZM177.65 55.3608C178.024 55.3608 178.332 55.2649 178.573 55.0732C178.815 54.8814 178.994 54.6293 179.11 54.3168C179.226 54.0043 179.284 53.6657 179.284 53.3011C179.284 52.9366 179.226 52.5968 179.11 52.282C178.994 51.9671 178.815 51.7126 178.573 51.5185C178.332 51.3243 178.024 51.2273 177.65 51.2273C177.276 51.2273 176.968 51.3243 176.727 51.5185C176.485 51.7126 176.307 51.9671 176.191 52.282C176.075 52.5968 176.017 52.9366 176.017 53.3011C176.017 53.6657 176.075 54.0043 176.191 54.3168C176.307 54.6293 176.485 54.8814 176.727 55.0732C176.968 55.2649 177.276 55.3608 177.65 55.3608Z" fill="black"/>
<path d="M96 45.5H115C116.933 45.5 118.5 47.067 118.5 49V55C118.5 56.933 116.933 58.5 115 58.5H96C94.067 58.5 92.5 56.933 92.5 55V49C92.5 47.067 94.067 45.5 96 45.5Z" fill="#FFBCFD" stroke="#8C00A8"/>
<path d="M97.3768 56V48.7273H101.766V49.5085H98.2575V51.9659H101.539V52.7472H98.2575V55.2188H101.823V56H97.3768ZM103.225 56V55.3608L105.626 52.733C105.908 52.4252 106.14 52.1577 106.322 51.9304C106.504 51.7008 106.639 51.4853 106.727 51.2841C106.817 51.0805 106.862 50.8674 106.862 50.6449C106.862 50.3892 106.8 50.1679 106.677 49.9808C106.556 49.7938 106.391 49.6494 106.18 49.5476C105.969 49.4458 105.733 49.3949 105.47 49.3949C105.19 49.3949 104.947 49.4529 104.738 49.5689C104.532 49.6825 104.373 49.8423 104.259 50.0483C104.148 50.2543 104.092 50.4957 104.092 50.7727H103.254C103.254 50.3466 103.352 49.9725 103.549 49.6506C103.745 49.3286 104.013 49.0777 104.351 48.8977C104.692 48.7178 105.074 48.6278 105.498 48.6278C105.924 48.6278 106.302 48.7178 106.631 48.8977C106.96 49.0777 107.218 49.3203 107.405 49.6257C107.592 49.9311 107.686 50.2708 107.686 50.6449C107.686 50.9124 107.637 51.174 107.54 51.4297C107.445 51.683 107.28 51.9659 107.043 52.2784C106.809 52.5885 106.483 52.9673 106.066 53.4148L104.433 55.1619V55.2188H107.814V56H103.225ZM109.408 56V48.7273H113.797V49.5085H110.289V51.9659H113.57V52.7472H110.289V55.2188H113.854V56H109.408Z" fill="black"/>
<path d="M195 45.5H221C222.933 45.5 224.5 47.067 224.5 49V55C224.5 56.933 222.933 58.5 221 58.5H195C193.067 58.5 191.5 56.933 191.5 55V49C191.5 47.067 193.067 45.5 195 45.5Z" fill="#D5EAFE" stroke="#112169"/>
<path d="M200.758 51H199.878C199.825 50.7467 199.734 50.5241 199.604 50.3324C199.476 50.1406 199.32 49.9796 199.135 49.8494C198.953 49.7169 198.751 49.6174 198.528 49.5511C198.306 49.4848 198.074 49.4517 197.832 49.4517C197.392 49.4517 196.993 49.563 196.635 49.7855C196.28 50.008 195.997 50.3359 195.787 50.7692C195.578 51.2024 195.474 51.7339 195.474 52.3636C195.474 52.9934 195.578 53.5249 195.787 53.9581C195.997 54.3913 196.28 54.7192 196.635 54.9418C196.993 55.1643 197.392 55.2756 197.832 55.2756C198.074 55.2756 198.306 55.2424 198.528 55.1761C198.751 55.1098 198.953 55.0116 199.135 54.8814C199.32 54.7488 199.476 54.5866 199.604 54.3949C199.734 54.2008 199.825 53.9782 199.878 53.7273H200.758C200.692 54.099 200.571 54.4316 200.396 54.7251C200.221 55.0187 200.003 55.2685 199.743 55.4744C199.482 55.678 199.19 55.8331 198.866 55.9396C198.544 56.0462 198.199 56.0994 197.832 56.0994C197.212 56.0994 196.66 55.9479 196.177 55.6449C195.694 55.3419 195.314 54.911 195.037 54.3523C194.76 53.7936 194.622 53.1307 194.622 52.3636C194.622 51.5966 194.76 50.9337 195.037 50.375C195.314 49.8163 195.694 49.3854 196.177 49.0824C196.66 48.7794 197.212 48.6278 197.832 48.6278C198.199 48.6278 198.544 48.6811 198.866 48.7876C199.19 48.8942 199.482 49.0504 199.743 49.2564C200.003 49.46 200.221 49.7086 200.396 50.0021C200.571 50.2933 200.692 50.6259 200.758 51ZM203.062 48.7273V56H202.181V48.7273H203.062ZM207.285 48.3864L204.941 57.0938H204.174L206.518 48.3864H207.285ZM214.245 51H213.364C213.312 50.7467 213.221 50.5241 213.09 50.3324C212.963 50.1406 212.806 49.9796 212.622 49.8494C212.439 49.7169 212.237 49.6174 212.014 49.5511C211.792 49.4848 211.56 49.4517 211.318 49.4517C210.878 49.4517 210.479 49.563 210.122 49.7855C209.767 50.008 209.484 50.3359 209.273 50.7692C209.065 51.2024 208.96 51.7339 208.96 52.3636C208.96 52.9934 209.065 53.5249 209.273 53.9581C209.484 54.3913 209.767 54.7192 210.122 54.9418C210.479 55.1643 210.878 55.2756 211.318 55.2756C211.56 55.2756 211.792 55.2424 212.014 55.1761C212.237 55.1098 212.439 55.0116 212.622 54.8814C212.806 54.7488 212.963 54.5866 213.09 54.3949C213.221 54.2008 213.312 53.9782 213.364 53.7273H214.245C214.178 54.099 214.058 54.4316 213.882 54.7251C213.707 55.0187 213.489 55.2685 213.229 55.4744C212.969 55.678 212.676 55.8331 212.352 55.9396C212.03 56.0462 211.685 56.0994 211.318 56.0994C210.698 56.0994 210.147 55.9479 209.664 55.6449C209.181 55.3419 208.801 54.911 208.524 54.3523C208.247 53.7936 208.108 53.1307 208.108 52.3636C208.108 51.5966 208.247 50.9337 208.524 50.375C208.801 49.8163 209.181 49.3854 209.664 49.0824C210.147 48.7794 210.698 48.6278 211.318 48.6278C211.685 48.6278 212.03 48.6811 212.352 48.7876C212.676 48.8942 212.969 49.0504 213.229 49.2564C213.489 49.46 213.707 49.7086 213.882 50.0021C214.058 50.2933 214.178 50.6259 214.245 51ZM217.912 56H215.668V48.7273H218.011C218.717 48.7273 219.321 48.8729 219.823 49.1641C220.324 49.4529 220.709 49.8684 220.977 50.4105C221.244 50.9503 221.378 51.5966 221.378 52.3494C221.378 53.107 221.243 53.7592 220.973 54.3061C220.703 54.8506 220.31 55.2696 219.794 55.5632C219.278 55.8544 218.651 56 217.912 56ZM216.548 55.2188H217.855C218.457 55.2188 218.955 55.1027 219.35 54.8707C219.746 54.6387 220.04 54.3085 220.234 53.88C220.429 53.4515 220.526 52.9413 220.526 52.3494C220.526 51.7623 220.43 51.2569 220.238 50.8331C220.046 50.407 219.76 50.0803 219.379 49.853C218.997 49.6233 218.523 49.5085 217.955 49.5085H216.548V55.2188Z" fill="black"/>
<path d="M93.2969 37H92.2813L95.2188 29H96.2188L99.1563 37H98.1406L95.75 30.2656H95.6875L93.2969 37ZM93.6719 33.875H97.7656V34.7344H93.6719V33.875ZM104.059 34.5469V31H104.98V37H104.059V35.9844H103.996C103.855 36.2891 103.637 36.5482 103.34 36.7617C103.043 36.9727 102.668 37.0781 102.215 37.0781C101.84 37.0781 101.507 36.9961 101.215 36.832C100.923 36.6654 100.694 36.4154 100.527 36.082C100.361 35.7461 100.277 35.3229 100.277 34.8125V31H101.199V34.75C101.199 35.1875 101.322 35.5365 101.566 35.7969C101.814 36.0573 102.129 36.1875 102.512 36.1875C102.741 36.1875 102.974 36.1289 103.211 36.0117C103.451 35.8945 103.651 35.7148 103.813 35.4727C103.977 35.2305 104.059 34.9219 104.059 34.5469ZM109.278 31V31.7812H106.169V31H109.278ZM107.075 29.5625H107.997V35.2812C107.997 35.5417 108.035 35.737 108.11 35.8672C108.188 35.9948 108.287 36.0807 108.407 36.125C108.53 36.1667 108.659 36.1875 108.794 36.1875C108.896 36.1875 108.979 36.1823 109.044 36.1719C109.109 36.1589 109.161 36.1484 109.2 36.1406L109.388 36.9687C109.325 36.9922 109.238 37.0156 109.126 37.0391C109.014 37.0651 108.872 37.0781 108.7 37.0781C108.44 37.0781 108.185 37.0221 107.935 36.9102C107.687 36.7982 107.481 36.6276 107.317 36.3984C107.156 36.1693 107.075 35.8802 107.075 35.5312V29.5625ZM113.038 37.125C112.496 37.125 112.021 36.9961 111.612 36.7383C111.206 36.4805 110.888 36.1198 110.659 35.6562C110.433 35.1927 110.319 34.651 110.319 34.0312C110.319 33.4062 110.433 32.8607 110.659 32.3945C110.888 31.9284 111.206 31.5664 111.612 31.3086C112.021 31.0508 112.496 30.9219 113.038 30.9219C113.58 30.9219 114.054 31.0508 114.46 31.3086C114.869 31.5664 115.187 31.9284 115.413 32.3945C115.642 32.8607 115.757 33.4062 115.757 34.0312C115.757 34.651 115.642 35.1927 115.413 35.6562C115.187 36.1198 114.869 36.4805 114.46 36.7383C114.054 36.9961 113.58 37.125 113.038 37.125ZM113.038 36.2969C113.45 36.2969 113.788 36.1914 114.054 35.9805C114.319 35.7695 114.516 35.4922 114.644 35.1484C114.771 34.8047 114.835 34.4323 114.835 34.0312C114.835 33.6302 114.771 33.2565 114.644 32.9102C114.516 32.5638 114.319 32.2839 114.054 32.0703C113.788 31.8568 113.45 31.75 113.038 31.75C112.627 31.75 112.288 31.8568 112.022 32.0703C111.757 32.2839 111.56 32.5638 111.433 32.9102C111.305 33.2565 111.241 33.6302 111.241 34.0312C111.241 34.4323 111.305 34.8047 111.433 35.1484C111.56 35.4922 111.757 35.7695 112.022 35.9805C112.288 36.1914 112.627 36.2969 113.038 36.2969ZM117.164 37V31H118.055V31.9375H118.133C118.258 31.6172 118.46 31.3685 118.738 31.1914C119.017 31.0117 119.352 30.9219 119.742 30.9219C120.138 30.9219 120.467 31.0117 120.73 31.1914C120.996 31.3685 121.203 31.6172 121.352 31.9375H121.414C121.568 31.6276 121.798 31.3815 122.105 31.1992C122.413 31.0143 122.781 30.9219 123.211 30.9219C123.747 30.9219 124.186 31.0898 124.527 31.4258C124.868 31.7591 125.039 32.2786 125.039 32.9844V37H124.117V32.9844C124.117 32.5417 123.996 32.2253 123.754 32.0352C123.512 31.8451 123.227 31.75 122.898 31.75C122.477 31.75 122.15 31.8776 121.918 32.1328C121.686 32.3854 121.57 32.7057 121.57 33.0937V37H120.633V32.8906C120.633 32.5495 120.522 32.2747 120.301 32.0664C120.079 31.8555 119.794 31.75 119.445 31.75C119.206 31.75 118.982 31.8138 118.773 31.9414C118.568 32.069 118.401 32.2461 118.273 32.4727C118.148 32.6966 118.086 32.9557 118.086 33.25V37H117.164ZM128.49 37.1406C128.11 37.1406 127.765 37.069 127.455 36.9258C127.145 36.7799 126.899 36.5703 126.717 36.2969C126.535 36.0208 126.443 35.6875 126.443 35.2969C126.443 34.9531 126.511 34.6745 126.646 34.4609C126.782 34.2448 126.963 34.0755 127.189 33.9531C127.416 33.8307 127.666 33.7396 127.939 33.6797C128.215 33.6172 128.493 33.5677 128.771 33.5313C129.136 33.4844 129.432 33.4492 129.658 33.4258C129.887 33.3997 130.054 33.3568 130.158 33.2969C130.265 33.237 130.318 33.1328 130.318 32.9844V32.9531C130.318 32.5677 130.213 32.2682 130.002 32.0547C129.794 31.8411 129.477 31.7344 129.053 31.7344C128.613 31.7344 128.268 31.8307 128.018 32.0234C127.768 32.2161 127.592 32.4219 127.49 32.6406L126.615 32.3281C126.771 31.9635 126.98 31.6797 127.24 31.4766C127.503 31.2708 127.79 31.1276 128.1 31.0469C128.412 30.9635 128.719 30.9219 129.021 30.9219C129.214 30.9219 129.436 30.9453 129.686 30.9922C129.938 31.0365 130.182 31.1289 130.416 31.2695C130.653 31.4102 130.85 31.6224 131.006 31.9062C131.162 32.1901 131.24 32.5703 131.24 33.0469V37H130.318V36.1875H130.271C130.209 36.3177 130.105 36.457 129.959 36.6055C129.813 36.7539 129.619 36.8802 129.377 36.9844C129.135 37.0885 128.839 37.1406 128.49 37.1406ZM128.631 36.3125C128.995 36.3125 129.303 36.2409 129.553 36.0977C129.805 35.9544 129.995 35.7695 130.123 35.543C130.253 35.3164 130.318 35.0781 130.318 34.8281V33.9844C130.279 34.0312 130.193 34.0742 130.061 34.1133C129.93 34.1497 129.779 34.1823 129.607 34.2109C129.438 34.237 129.273 34.2604 129.111 34.2812C128.952 34.2995 128.824 34.3151 128.725 34.3281C128.485 34.3594 128.261 34.4102 128.053 34.4805C127.847 34.5482 127.68 34.651 127.553 34.7891C127.428 34.9245 127.365 35.1094 127.365 35.3437C127.365 35.6641 127.484 35.9062 127.721 36.0703C127.96 36.2318 128.264 36.3125 128.631 36.3125ZM135.36 37.125C134.798 37.125 134.313 36.9922 133.907 36.7266C133.501 36.4609 133.188 36.0951 132.97 35.6289C132.751 35.1628 132.642 34.6302 132.642 34.0312C132.642 33.4219 132.754 32.8841 132.978 32.418C133.204 31.9492 133.519 31.5833 133.923 31.3203C134.329 31.0547 134.803 30.9219 135.345 30.9219C135.767 30.9219 136.147 31 136.485 31.1562C136.824 31.3125 137.101 31.5312 137.317 31.8125C137.534 32.0937 137.668 32.4219 137.72 32.7969H136.798C136.728 32.5234 136.571 32.2812 136.329 32.0703C136.09 31.8568 135.767 31.75 135.36 31.75C135.001 31.75 134.686 31.8437 134.415 32.0312C134.147 32.2161 133.937 32.4779 133.786 32.8164C133.638 33.1523 133.563 33.5469 133.563 34C133.563 34.4635 133.636 34.8672 133.782 35.2109C133.931 35.5547 134.139 35.8216 134.407 36.0117C134.678 36.2018 134.996 36.2969 135.36 36.2969C135.6 36.2969 135.817 36.2552 136.013 36.1719C136.208 36.0885 136.373 35.9688 136.509 35.8125C136.644 35.6562 136.741 35.4687 136.798 35.25H137.72C137.668 35.6042 137.539 35.9232 137.333 36.207C137.13 36.4883 136.86 36.7122 136.524 36.8789C136.191 37.043 135.803 37.125 135.36 37.125ZM134.923 36.9687H135.688L135.626 37.2813C135.829 37.3125 136.015 37.3971 136.185 37.5352C136.354 37.6758 136.438 37.8984 136.438 38.2031C136.438 38.5391 136.299 38.8125 136.021 39.0234C135.744 39.237 135.337 39.3438 134.798 39.3438L134.767 38.7344C135.009 38.7344 135.209 38.6953 135.368 38.6172C135.53 38.5417 135.61 38.4141 135.61 38.2344C135.61 38.0547 135.544 37.9323 135.411 37.8672C135.278 37.8021 135.063 37.7578 134.767 37.7344L134.923 36.9687ZM140.833 37.1406C140.453 37.1406 140.108 37.069 139.798 36.9258C139.488 36.7799 139.242 36.5703 139.06 36.2969C138.877 36.0208 138.786 35.6875 138.786 35.2969C138.786 34.9531 138.854 34.6745 138.989 34.4609C139.125 34.2448 139.306 34.0755 139.532 33.9531C139.759 33.8307 140.009 33.7396 140.282 33.6797C140.558 33.6172 140.836 33.5677 141.114 33.5313C141.479 33.4844 141.774 33.4492 142.001 33.4258C142.23 33.3997 142.397 33.3568 142.501 33.2969C142.608 33.237 142.661 33.1328 142.661 32.9844V32.9531C142.661 32.5677 142.556 32.2682 142.345 32.0547C142.136 31.8411 141.82 31.7344 141.396 31.7344C140.955 31.7344 140.61 31.8307 140.36 32.0234C140.11 32.2161 139.935 32.4219 139.833 32.6406L138.958 32.3281C139.114 31.9635 139.323 31.6797 139.583 31.4766C139.846 31.2708 140.132 31.1276 140.442 31.0469C140.755 30.9635 141.062 30.9219 141.364 30.9219C141.557 30.9219 141.778 30.9453 142.028 30.9922C142.281 31.0365 142.524 31.1289 142.759 31.2695C142.996 31.4102 143.192 31.6224 143.349 31.9062C143.505 32.1901 143.583 32.5703 143.583 33.0469V37H142.661V36.1875H142.614C142.552 36.3177 142.448 36.457 142.302 36.6055C142.156 36.7539 141.962 36.8802 141.72 36.9844C141.478 37.0885 141.182 37.1406 140.833 37.1406ZM140.974 36.3125C141.338 36.3125 141.646 36.2409 141.896 36.0977C142.148 35.9544 142.338 35.7695 142.466 35.543C142.596 35.3164 142.661 35.0781 142.661 34.8281V33.9844C142.622 34.0312 142.536 34.0742 142.403 34.1133C142.273 34.1497 142.122 34.1823 141.95 34.2109C141.781 34.237 141.616 34.2604 141.454 34.2812C141.295 34.2995 141.166 34.3151 141.067 34.3281C140.828 34.3594 140.604 34.4102 140.396 34.4805C140.19 34.5482 140.023 34.651 139.896 34.7891C139.771 34.9245 139.708 35.1094 139.708 35.3437C139.708 35.6641 139.826 35.9062 140.063 36.0703C140.303 36.2318 140.606 36.3125 140.974 36.3125ZM140.224 30.2812L139.505 30.25C139.505 29.8516 139.618 29.526 139.845 29.2734C140.074 29.0182 140.356 28.8906 140.692 28.8906C140.841 28.8906 140.972 28.9167 141.087 28.9687C141.201 29.0182 141.311 29.0755 141.415 29.1406C141.519 29.2057 141.626 29.2643 141.735 29.3164C141.847 29.3659 141.974 29.3906 142.114 29.3906C142.263 29.3906 142.388 29.3333 142.489 29.2187C142.593 29.1016 142.646 28.9609 142.646 28.7969L143.349 28.8594C143.349 29.2656 143.234 29.5885 143.005 29.8281C142.778 30.0677 142.497 30.1875 142.161 30.1875C141.981 30.1875 141.833 30.1628 141.716 30.1133C141.599 30.0612 141.494 30.0026 141.403 29.9375C141.312 29.8724 141.216 29.8151 141.114 29.7656C141.013 29.7135 140.888 29.6875 140.739 29.6875C140.591 29.6875 140.467 29.7461 140.368 29.8633C140.272 29.9779 140.224 30.1172 140.224 30.2812ZM147.703 37.125C147.161 37.125 146.686 36.9961 146.277 36.7383C145.871 36.4805 145.553 36.1198 145.324 35.6562C145.098 35.1927 144.984 34.651 144.984 34.0312C144.984 33.4062 145.098 32.8607 145.324 32.3945C145.553 31.9284 145.871 31.5664 146.277 31.3086C146.686 31.0508 147.161 30.9219 147.703 30.9219C148.245 30.9219 148.719 31.0508 149.125 31.3086C149.534 31.5664 149.852 31.9284 150.078 32.3945C150.307 32.8607 150.422 33.4062 150.422 34.0312C150.422 34.651 150.307 35.1927 150.078 35.6562C149.852 36.1198 149.534 36.4805 149.125 36.7383C148.719 36.9961 148.245 37.125 147.703 37.125ZM147.703 36.2969C148.115 36.2969 148.453 36.1914 148.719 35.9805C148.984 35.7695 149.181 35.4922 149.309 35.1484C149.436 34.8047 149.5 34.4323 149.5 34.0312C149.5 33.6302 149.436 33.2565 149.309 32.9102C149.181 32.5638 148.984 32.2839 148.719 32.0703C148.453 31.8568 148.115 31.75 147.703 31.75C147.292 31.75 146.953 31.8568 146.688 32.0703C146.422 32.2839 146.225 32.5638 146.098 32.9102C145.97 33.2565 145.906 33.6302 145.906 34.0312C145.906 34.4323 145.97 34.8047 146.098 35.1484C146.225 35.4922 146.422 35.7695 146.688 35.9805C146.953 36.1914 147.292 36.2969 147.703 36.2969ZM157.188 37.125C156.688 37.125 156.247 36.9987 155.864 36.7461C155.481 36.4909 155.182 36.1315 154.966 35.668C154.75 35.2018 154.642 34.651 154.642 34.0156C154.642 33.3854 154.75 32.8385 154.966 32.375C155.182 31.9115 155.483 31.5534 155.868 31.3008C156.254 31.0482 156.699 30.9219 157.204 30.9219C157.595 30.9219 157.903 30.987 158.13 31.1172C158.359 31.2448 158.534 31.3906 158.653 31.5547C158.776 31.7161 158.871 31.849 158.938 31.9531H159.017V29H159.938V37H159.048V36.0781H158.938C158.871 36.1875 158.774 36.3255 158.649 36.4922C158.524 36.6562 158.346 36.8034 158.114 36.9336C157.882 37.0612 157.574 37.125 157.188 37.125ZM157.313 36.2969C157.683 36.2969 157.996 36.2005 158.251 36.0078C158.506 35.8125 158.7 35.543 158.833 35.1992C158.966 34.8529 159.032 34.4531 159.032 34C159.032 33.5521 158.967 33.1602 158.837 32.8242C158.707 32.4857 158.514 32.2227 158.259 32.0352C158.004 31.8451 157.688 31.75 157.313 31.75C156.923 31.75 156.597 31.8503 156.337 32.0508C156.079 32.2487 155.885 32.5182 155.755 32.8594C155.627 33.1979 155.563 33.5781 155.563 34C155.563 34.4271 155.629 34.8151 155.759 35.1641C155.892 35.5104 156.087 35.7865 156.345 35.9922C156.605 36.1953 156.928 36.2969 157.313 36.2969ZM164.271 37.125C163.692 37.125 163.194 36.9974 162.774 36.7422C162.358 36.4844 162.036 36.125 161.81 35.6641C161.586 35.2005 161.474 34.6615 161.474 34.0469C161.474 33.4323 161.586 32.8906 161.81 32.4219C162.036 31.9505 162.351 31.5833 162.755 31.3203C163.161 31.0547 163.635 30.9219 164.177 30.9219C164.489 30.9219 164.798 30.974 165.103 31.0781C165.407 31.1823 165.685 31.3516 165.935 31.5859C166.185 31.8177 166.384 32.125 166.532 32.5078C166.681 32.8906 166.755 33.362 166.755 33.9219V34.3125H162.13V33.5156H165.817C165.817 33.1771 165.75 32.875 165.614 32.6094C165.481 32.3437 165.291 32.1341 165.044 31.9805C164.799 31.8268 164.51 31.75 164.177 31.75C163.81 31.75 163.492 31.8411 163.224 32.0234C162.958 32.2031 162.754 32.4375 162.61 32.7266C162.467 33.0156 162.396 33.3255 162.396 33.6562V34.1875C162.396 34.6406 162.474 35.0247 162.63 35.3398C162.789 35.6523 163.009 35.8906 163.29 36.0547C163.571 36.2161 163.898 36.2969 164.271 36.2969C164.513 36.2969 164.731 36.263 164.927 36.1953C165.125 36.125 165.295 36.0208 165.438 35.8828C165.582 35.7422 165.692 35.5677 165.771 35.3594L166.661 35.6094C166.567 35.9115 166.41 36.1771 166.188 36.4062C165.967 36.6328 165.694 36.8099 165.368 36.9375C165.043 37.0625 164.677 37.125 164.271 37.125ZM173.86 31V31.7812H170.751V31H173.86ZM171.657 29.5625H172.579V35.2812C172.579 35.5417 172.617 35.737 172.692 35.8672C172.771 35.9948 172.869 36.0807 172.989 36.125C173.112 36.1667 173.241 36.1875 173.376 36.1875C173.478 36.1875 173.561 36.1823 173.626 36.1719C173.691 36.1589 173.743 36.1484 173.782 36.1406L173.97 36.9687C173.907 36.9922 173.82 37.0156 173.708 37.0391C173.596 37.0651 173.454 37.0781 173.282 37.0781C173.022 37.0781 172.767 37.0221 172.517 36.9102C172.269 36.7982 172.063 36.6276 171.899 36.3984C171.738 36.1693 171.657 35.8802 171.657 35.5312V29.5625ZM177.698 37.125C177.12 37.125 176.621 36.9974 176.202 36.7422C175.785 36.4844 175.464 36.125 175.237 35.6641C175.013 35.2005 174.901 34.6615 174.901 34.0469C174.901 33.4323 175.013 32.8906 175.237 32.4219C175.464 31.9505 175.779 31.5833 176.183 31.3203C176.589 31.0547 177.063 30.9219 177.604 30.9219C177.917 30.9219 178.226 30.974 178.53 31.0781C178.835 31.1823 179.112 31.3516 179.362 31.5859C179.612 31.8177 179.812 32.125 179.96 32.5078C180.108 32.8906 180.183 33.362 180.183 33.9219V34.3125H175.558V33.5156H179.245C179.245 33.1771 179.177 32.875 179.042 32.6094C178.909 32.3437 178.719 32.1341 178.472 31.9805C178.227 31.8268 177.938 31.75 177.604 31.75C177.237 31.75 176.92 31.8411 176.651 32.0234C176.386 32.2031 176.181 32.4375 176.038 32.7266C175.895 33.0156 175.823 33.3255 175.823 33.6562V34.1875C175.823 34.6406 175.901 35.0247 176.058 35.3398C176.216 35.6523 176.437 35.8906 176.718 36.0547C176.999 36.2161 177.326 36.2969 177.698 36.2969C177.94 36.2969 178.159 36.263 178.354 36.1953C178.552 36.125 178.723 36.0208 178.866 35.8828C179.009 35.7422 179.12 35.5677 179.198 35.3594L180.089 35.6094C179.995 35.9115 179.838 36.1771 179.616 36.4062C179.395 36.6328 179.121 36.8099 178.796 36.9375C178.47 37.0625 178.104 37.125 177.698 37.125ZM185.835 32.3437L185.007 32.5781C184.955 32.4401 184.878 32.306 184.776 32.1758C184.677 32.043 184.542 31.9336 184.37 31.8477C184.198 31.7617 183.978 31.7187 183.71 31.7187C183.343 31.7187 183.037 31.8034 182.792 31.9727C182.55 32.1393 182.429 32.3516 182.429 32.6094C182.429 32.8385 182.512 33.0195 182.679 33.1523C182.845 33.2852 183.106 33.3958 183.46 33.4844L184.351 33.7031C184.887 33.8333 185.287 34.0326 185.55 34.3008C185.813 34.5664 185.944 34.9089 185.944 35.3281C185.944 35.6719 185.845 35.9792 185.647 36.25C185.452 36.5208 185.179 36.7344 184.827 36.8906C184.476 37.0469 184.067 37.125 183.601 37.125C182.989 37.125 182.482 36.9922 182.081 36.7266C181.68 36.4609 181.426 36.0729 181.319 35.5625L182.194 35.3437C182.278 35.6667 182.435 35.9089 182.667 36.0703C182.901 36.2318 183.207 36.3125 183.585 36.3125C184.015 36.3125 184.356 36.2214 184.608 36.0391C184.864 35.8542 184.991 35.6328 184.991 35.375C184.991 35.1667 184.918 34.9922 184.772 34.8516C184.627 34.7083 184.403 34.6016 184.101 34.5312L183.101 34.2969C182.551 34.1667 182.147 33.9648 181.89 33.6914C181.634 33.4154 181.507 33.0703 181.507 32.6562C181.507 32.3177 181.602 32.0182 181.792 31.7578C181.985 31.4974 182.246 31.293 182.577 31.1445C182.91 30.9961 183.288 30.9219 183.71 30.9219C184.304 30.9219 184.77 31.0521 185.108 31.3125C185.45 31.5729 185.692 31.9167 185.835 32.3437ZM189.941 31V31.7812H186.832V31H189.941ZM187.738 29.5625H188.66V35.2812C188.66 35.5417 188.698 35.737 188.773 35.8672C188.852 35.9948 188.951 36.0807 189.07 36.125C189.193 36.1667 189.322 36.1875 189.457 36.1875C189.559 36.1875 189.642 36.1823 189.707 36.1719C189.772 36.1589 189.824 36.1484 189.863 36.1406L190.051 36.9687C189.988 36.9922 189.901 37.0156 189.789 37.0391C189.677 37.0651 189.535 37.0781 189.363 37.0781C189.103 37.0781 188.848 37.0221 188.598 36.9102C188.35 36.7982 188.145 36.6276 187.98 36.3984C187.819 36.1693 187.738 35.8802 187.738 35.5312V29.5625ZM193.779 37.125C193.201 37.125 192.702 36.9974 192.283 36.7422C191.867 36.4844 191.545 36.125 191.318 35.6641C191.094 35.2005 190.982 34.6615 190.982 34.0469C190.982 33.4323 191.094 32.8906 191.318 32.4219C191.545 31.9505 191.86 31.5833 192.264 31.3203C192.67 31.0547 193.144 30.9219 193.686 30.9219C193.998 30.9219 194.307 30.974 194.611 31.0781C194.916 31.1823 195.193 31.3516 195.443 31.5859C195.693 31.8177 195.893 32.125 196.041 32.5078C196.189 32.8906 196.264 33.362 196.264 33.9219V34.3125H191.639V33.5156H195.326C195.326 33.1771 195.258 32.875 195.123 32.6094C194.99 32.3437 194.8 32.1341 194.553 31.9805C194.308 31.8268 194.019 31.75 193.686 31.75C193.318 31.75 193.001 31.8411 192.732 32.0234C192.467 32.2031 192.262 32.4375 192.119 32.7266C191.976 33.0156 191.904 33.3255 191.904 33.6562V34.1875C191.904 34.6406 191.982 35.0247 192.139 35.3398C192.298 35.6523 192.518 35.8906 192.799 36.0547C193.08 36.2161 193.407 36.2969 193.779 36.2969C194.021 36.2969 194.24 36.263 194.436 36.1953C194.633 36.125 194.804 36.0208 194.947 35.8828C195.09 35.7422 195.201 35.5677 195.279 35.3594L196.17 35.6094C196.076 35.9115 195.919 36.1771 195.697 36.4062C195.476 36.6328 195.202 36.8099 194.877 36.9375C194.551 37.0625 194.186 37.125 193.779 37.125Z" fill="black"/>
<path d="M253.179 66.7273L255.338 72.8494H255.423L257.582 66.7273H258.506L255.835 74H254.926L252.256 66.7273H253.179ZM261.304 74.1136C260.778 74.1136 260.325 73.9976 259.944 73.7656C259.565 73.5312 259.273 73.2045 259.067 72.7855C258.863 72.3641 258.761 71.8741 258.761 71.3153C258.761 70.7566 258.863 70.2642 259.067 69.8381C259.273 69.4096 259.559 69.0758 259.926 68.8366C260.295 68.5952 260.726 68.4744 261.219 68.4744C261.503 68.4744 261.783 68.5218 262.06 68.6165C262.337 68.7112 262.589 68.8651 262.817 69.0781C263.044 69.2888 263.225 69.5682 263.36 69.9162C263.495 70.2642 263.562 70.6927 263.562 71.2017V71.5568H259.358V70.8324H262.71C262.71 70.5246 262.649 70.25 262.526 70.0085C262.405 69.767 262.232 69.5765 262.007 69.4368C261.785 69.2971 261.522 69.2273 261.219 69.2273C260.885 69.2273 260.596 69.3101 260.352 69.4759C260.111 69.6392 259.925 69.8523 259.795 70.1151C259.665 70.3778 259.599 70.6596 259.599 70.9602V71.4432C259.599 71.8551 259.67 72.2043 259.812 72.4908C259.957 72.7749 260.157 72.9915 260.413 73.1406C260.668 73.2874 260.965 73.3608 261.304 73.3608C261.524 73.3608 261.723 73.33 261.901 73.2685C262.08 73.2045 262.236 73.1098 262.366 72.9844C262.496 72.8565 262.597 72.6979 262.668 72.5085L263.477 72.7358C263.392 73.0104 263.249 73.2519 263.048 73.4602C262.846 73.6662 262.598 73.8272 262.302 73.9432C262.006 74.0568 261.673 74.1136 261.304 74.1136ZM264.837 74V68.5455H265.647V69.3693H265.704C265.803 69.0994 265.983 68.8804 266.244 68.7124C266.504 68.5443 266.798 68.4602 267.124 68.4602C267.186 68.4602 267.263 68.4614 267.355 68.4638C267.447 68.4661 267.517 68.4697 267.565 68.4744V69.3267C267.536 69.3196 267.471 69.3089 267.369 69.2947C267.27 69.2782 267.165 69.2699 267.053 69.2699C266.788 69.2699 266.551 69.3255 266.343 69.4368C266.137 69.5457 265.974 69.6972 265.853 69.8913C265.735 70.0831 265.675 70.3021 265.675 70.5483V74H264.837ZM271.484 66.7273H272.535L275.007 72.7642H275.092L277.564 66.7273H278.615V74H277.791V68.4744H277.72L275.447 74H274.652L272.379 68.4744H272.308V74H271.484V66.7273ZM281.872 74.1278C281.527 74.1278 281.213 74.0627 280.931 73.9325C280.649 73.8 280.426 73.6094 280.26 73.3608C280.094 73.1098 280.011 72.8068 280.011 72.4517C280.011 72.1392 280.073 71.8859 280.196 71.6918C280.319 71.4953 280.484 71.3414 280.69 71.2301C280.896 71.1188 281.123 71.036 281.371 70.9815C281.622 70.9247 281.875 70.8797 282.128 70.8466C282.459 70.804 282.728 70.772 282.934 70.7507C283.142 70.727 283.294 70.688 283.388 70.6335C283.486 70.5791 283.534 70.4844 283.534 70.3494V70.321C283.534 69.9706 283.438 69.6984 283.246 69.5043C283.057 69.3101 282.769 69.2131 282.384 69.2131C281.983 69.2131 281.67 69.3007 281.442 69.4759C281.215 69.651 281.055 69.8381 280.963 70.0369L280.168 69.7528C280.31 69.4214 280.499 69.1634 280.736 68.9787C280.975 68.7917 281.235 68.6615 281.517 68.5881C281.801 68.5123 282.08 68.4744 282.355 68.4744C282.53 68.4744 282.732 68.4957 282.959 68.5384C283.188 68.5786 283.41 68.6626 283.623 68.7905C283.838 68.9183 284.017 69.1113 284.159 69.3693C284.301 69.6274 284.372 69.973 284.372 70.4062V74H283.534V73.2614H283.491C283.435 73.3797 283.34 73.5064 283.207 73.6413C283.075 73.7763 282.898 73.8911 282.678 73.9858C282.458 74.0805 282.189 74.1278 281.872 74.1278ZM282 73.375C282.331 73.375 282.611 73.3099 282.838 73.1797C283.068 73.0495 283.241 72.8814 283.357 72.6754C283.475 72.4695 283.534 72.2528 283.534 72.0256V71.2585C283.499 71.3011 283.42 71.3402 283.3 71.3757C283.181 71.4089 283.044 71.4384 282.888 71.4645C282.734 71.4882 282.584 71.5095 282.437 71.5284C282.292 71.545 282.175 71.5592 282.085 71.571C281.867 71.5994 281.664 71.6456 281.474 71.7095C281.287 71.7711 281.136 71.8646 281.02 71.9901C280.906 72.1132 280.849 72.2812 280.849 72.4943C280.849 72.7855 280.957 73.0057 281.173 73.1548C281.39 73.3016 281.666 73.375 282 73.375ZM285.902 74V68.5455H286.74V74H285.902ZM286.328 67.6364C286.165 67.6364 286.024 67.5807 285.905 67.4695C285.789 67.3582 285.731 67.2244 285.731 67.0682C285.731 66.9119 285.789 66.7782 285.905 66.6669C286.024 66.5556 286.165 66.5 286.328 66.5C286.491 66.5 286.631 66.5556 286.747 66.6669C286.865 66.7782 286.925 66.9119 286.925 67.0682C286.925 67.2244 286.865 67.3582 286.747 67.4695C286.631 67.5807 286.491 67.6364 286.328 67.6364ZM292.138 69.767L291.386 69.9801C291.338 69.8546 291.268 69.7327 291.176 69.6143C291.086 69.4936 290.963 69.3942 290.807 69.3161C290.651 69.2379 290.451 69.1989 290.207 69.1989C289.873 69.1989 289.595 69.2758 289.372 69.4297C289.152 69.5812 289.042 69.7741 289.042 70.0085C289.042 70.2169 289.118 70.3814 289.269 70.5021C289.421 70.6229 289.657 70.7235 289.979 70.804L290.789 71.0028C291.277 71.1212 291.64 71.3023 291.879 71.5462C292.118 71.7876 292.238 72.099 292.238 72.4801C292.238 72.7926 292.148 73.072 291.968 73.3182C291.79 73.5644 291.542 73.7585 291.222 73.9006C290.903 74.0426 290.531 74.1136 290.107 74.1136C289.551 74.1136 289.09 73.9929 288.726 73.7514C288.361 73.5099 288.13 73.1572 288.033 72.6932L288.829 72.4943C288.905 72.7879 289.048 73.008 289.259 73.1548C289.472 73.3016 289.75 73.375 290.093 73.375C290.484 73.375 290.794 73.2921 291.023 73.1264C291.255 72.9583 291.371 72.7571 291.371 72.5227C291.371 72.3333 291.305 72.1747 291.173 72.0469C291.04 71.9167 290.836 71.8196 290.562 71.7557L289.653 71.5426C289.153 71.4242 288.786 71.2408 288.552 70.9922C288.32 70.7412 288.204 70.4276 288.204 70.0511C288.204 69.7434 288.29 69.4711 288.463 69.2344C288.638 68.9976 288.876 68.8118 289.177 68.6768C289.48 68.5419 289.823 68.4744 290.207 68.4744C290.746 68.4744 291.17 68.5928 291.478 68.8295C291.788 69.0663 292.008 69.3788 292.138 69.767Z" fill="#0015FF"/>
<path d="M252 75.9886H292.735V76.6705H252V75.9886Z" fill="#0015FF"/>
<path d="M4 10C4 4.47715 8.47715 0 14 0H87V83H14C8.47715 83 4 78.5229 4 73V10Z" fill="#ECEEFF"/>
<path d="M42.4424 32.4922L61.1318 13.7994L73.0596 25.729L54.3685 44.4201L42.4424 32.4922Z" fill="#CCD6DD"/>
<path d="M45.0724 29.8966L48.3609 27.7042L66.4477 29.8966L68.092 30.9927L66.9958 32.0889L58.7745 40.3102L37.9473 61.6855L33.5626 64.974L31.3703 66.0702L27.5337 65.5221L24.2452 63.3297L22.0529 59.4931V55.6565L23.6971 52.9161L29.726 45.2429L45.0724 29.8966Z" fill="#E068C0"/>
<path d="M67.5162 30.3161C67.4168 30.9656 63.0147 31.603 57.7645 30.9039C52.516 30.2048 48.371 28.8082 48.5063 27.7853C48.6434 26.7623 53.0078 26.4984 58.258 27.1975C63.5082 27.8967 67.6738 29.2949 67.5162 30.3161ZM36.0628 47.6278C35.9363 47.7542 35.7862 47.8544 35.621 47.9227C35.4558 47.9911 35.2788 48.0262 35.1 48.0261C34.9212 48.0261 34.7442 47.9908 34.5791 47.9223C34.414 47.8538 34.264 47.7535 34.1376 47.627C34.0113 47.5005 33.9111 47.3504 33.8427 47.1852C33.7744 47.02 33.7393 46.843 33.7393 46.6642C33.7394 46.4855 33.7747 46.3085 33.8432 46.1434C33.9117 45.9782 34.012 45.8282 34.1385 45.7019C34.3939 45.4467 34.7402 45.3034 35.1012 45.3036C35.4623 45.3037 35.8084 45.4473 36.0636 45.7027C36.3188 45.9581 36.4621 46.3044 36.4619 46.6655C36.4617 47.0265 36.3182 47.3727 36.0628 47.6278ZM41.7465 52.1087C41.5409 52.3195 41.2955 52.4874 41.0245 52.6026C40.7535 52.7178 40.4623 52.778 40.1679 52.7798C39.8734 52.7816 39.5815 52.7249 39.3091 52.6131C39.0368 52.5012 38.7893 52.3363 38.5812 52.128C38.373 51.9197 38.2083 51.6722 38.0965 51.3998C37.9848 51.1273 37.9282 50.8354 37.9302 50.541C37.9322 50.2465 37.9926 49.9554 38.1079 49.6844C38.2233 49.4135 38.3913 49.1682 38.6022 48.9627C39.0212 48.5545 39.5841 48.3277 40.1691 48.3316C40.754 48.3355 41.3139 48.5697 41.7274 48.9835C42.141 49.3972 42.3748 49.9572 42.3784 50.5422C42.382 51.1271 42.155 51.6899 41.7465 52.1087ZM44.6201 42.9859C44.2217 43.3463 43.7 43.5397 43.163 43.5263C42.626 43.5128 42.1147 43.2935 41.7348 42.9136C41.355 42.5338 41.1357 42.0225 41.1222 41.4855C41.1088 40.9484 41.3022 40.4268 41.6625 40.0284C41.8567 39.8342 42.0873 39.6801 42.341 39.575C42.5947 39.47 42.8667 39.4159 43.1413 39.4159C43.4159 39.4159 43.6879 39.47 43.9416 39.575C44.1953 39.6801 44.4259 39.8342 44.6201 40.0284C44.8143 40.2226 44.9683 40.4531 45.0734 40.7069C45.1785 40.9606 45.2326 41.2325 45.2326 41.5072C45.2326 41.7818 45.1785 42.0537 45.0734 42.3075C44.9683 42.5612 44.8143 42.7917 44.6201 42.9859ZM32.8516 58.1643C32.6161 58.4073 32.3345 58.6011 32.0233 58.7342C31.7122 58.8674 31.3776 58.9373 31.0392 58.9399C30.7007 58.9425 30.3651 58.8777 30.052 58.7493C29.7388 58.621 29.4543 58.4316 29.215 58.1922C28.9757 57.9528 28.7865 57.6682 28.6583 57.355C28.5301 57.0418 28.4655 56.7062 28.4682 56.3677C28.471 56.0293 28.5411 55.6947 28.6744 55.3836C28.8077 55.0725 29.0015 54.7911 29.2447 54.5556C29.7257 54.0897 30.3707 53.8317 31.0404 53.8372C31.71 53.8426 32.3507 54.1112 32.8241 54.5848C33.2976 55.0585 33.5658 55.6993 33.5709 56.3689C33.5761 57.0386 33.3177 57.6834 32.8516 58.1643ZM52.3789 42.4719C52.0387 42.8118 51.5775 43.0027 51.0966 43.0025C50.6157 43.0024 50.1546 42.8112 49.8146 42.471C49.4747 42.1308 49.2838 41.6696 49.284 41.1887C49.2841 40.7078 49.4753 40.2467 49.8155 39.9067C49.9839 39.7384 50.1838 39.6049 50.4039 39.5139C50.6239 39.4228 50.8597 39.376 51.0978 39.3761C51.3359 39.3762 51.5717 39.4231 51.7916 39.5143C52.0116 39.6055 52.2114 39.7392 52.3798 39.9076C52.5481 40.076 52.6816 40.2759 52.7726 40.496C52.8637 40.716 52.9105 40.9518 52.9104 41.1899C52.9103 41.428 52.8634 41.6638 52.7722 41.8837C52.681 42.1037 52.5473 42.3035 52.3789 42.4719ZM50.3107 35.1243C50.2018 35.2406 50.0707 35.3338 49.9251 35.3983C49.7795 35.4629 49.6223 35.4975 49.4631 35.5001C49.3038 35.5027 49.1456 35.4732 48.998 35.4134C48.8504 35.3536 48.7163 35.2647 48.6037 35.152C48.4911 35.0393 48.4024 34.9051 48.3427 34.7574C48.2831 34.6097 48.2537 34.4515 48.2565 34.2923C48.2592 34.133 48.294 33.9759 48.3587 33.8304C48.4234 33.6848 48.5168 33.5538 48.6332 33.445C48.8583 33.2347 49.1563 33.1202 49.4643 33.1255C49.7723 33.1308 50.0662 33.2556 50.2839 33.4735C50.5016 33.6915 50.6261 33.9855 50.6311 34.2935C50.6361 34.6015 50.5212 34.8994 50.3107 35.1243Z" fill="#BF1781"/>
<path d="M72.8606 26.3099L36.5606 63.3697C33.2145 66.7858 27.7329 66.8426 24.3167 63.4965C20.9008 60.1504 20.8439 54.6687 24.1899 51.2526L60.4899 14.1928L72.8606 26.3099Z" stroke="black" stroke-width="1.6"/>
<path d="M60.9641 13.8176C61.4496 13.4175 62.0978 13.4694 62.5717 13.5842C63.1269 13.7187 63.7611 14.0121 64.423 14.4024C65.7574 15.1894 67.358 16.4631 68.9247 18.0297C70.4913 19.5963 71.7644 21.1962 72.5514 22.5306C72.942 23.1927 73.2359 23.8272 73.3705 24.3826C73.4929 24.888 73.5428 25.591 73.0501 26.084C72.557 26.5771 71.8535 26.5276 71.3479 26.4052C70.7925 26.2707 70.1581 25.9768 69.4959 25.5862C68.1615 24.7993 66.5615 23.5262 64.9949 21.9596C63.4282 20.393 62.1545 18.7925 61.3675 17.4581C60.9771 16.7962 60.6837 16.162 60.5492 15.6068C60.4267 15.1012 60.3764 14.3971 60.8695 13.9039L60.9641 13.8176Z" fill="#CCD6DD" stroke="black" stroke-width="1.5"/>
<defs>
<filter id="filter0_d_73_104" x="0" y="0" width="306" height="91" filterUnits="userSpaceOnUse" color-interpolation-filters="sRGB">
<feFlood flood-opacity="0" result="BackgroundImageFix"/>
<feColorMatrix in="SourceAlpha" type="matrix" values="0 0 0 0 0 0 0 0 0 0 0 0 0 0 0 0 0 0 127 0" result="hardAlpha"/>
<feOffset dy="4"/>
<feGaussianBlur stdDeviation="2"/>
<feComposite in2="hardAlpha" operator="out"/>
<feColorMatrix type="matrix" values="0 0 0 0 0 0 0 0 0 0 0 0 0 0 0 0 0 0 0.25 0"/>
<feBlend mode="normal" in2="BackgroundImageFix" result="effect1_dropShadow_73_104"/>
<feBlend mode="normal" in="SourceGraphic" in2="effect1_dropShadow_73_104" result="shape"/>
</filter>
</defs>
</svg>
