<svg width="306" height="91" viewBox="0 0 306 91" fill="none" xmlns="http://www.w3.org/2000/svg">
<g filter="url(#filter0_d_73_105)">
<rect x="4" width="298" height="83" rx="10" fill="#FCFCFC"/>
</g>
<path d="M97.6037 9.67188C97.5639 9.29972 97.3963 9.00994 97.1009 8.80256C96.8082 8.59517 96.4276 8.49148 95.9588 8.49148C95.6293 8.49148 95.3466 8.54119 95.1108 8.64062C94.875 8.74006 94.6946 8.875 94.5696 9.04545C94.4446 9.21591 94.3807 9.41051 94.3778 9.62926C94.3778 9.81108 94.419 9.96875 94.5014 10.1023C94.5866 10.2358 94.7017 10.3494 94.8466 10.4432C94.9915 10.5341 95.152 10.6108 95.3281 10.6733C95.5043 10.7358 95.6818 10.7884 95.8608 10.831L96.679 11.0355C97.0085 11.1122 97.3253 11.2159 97.6293 11.3466C97.9361 11.4773 98.2102 11.642 98.4517 11.8409C98.696 12.0398 98.8892 12.2798 99.0312 12.5611C99.1733 12.8423 99.2443 13.1719 99.2443 13.5497C99.2443 14.0611 99.1136 14.5114 98.8523 14.9006C98.5909 15.2869 98.2131 15.5895 97.7188 15.8082C97.2273 16.0241 96.6321 16.1321 95.9332 16.1321C95.2543 16.1321 94.6648 16.027 94.1648 15.8168C93.6676 15.6065 93.2784 15.2997 92.9972 14.8963C92.7188 14.4929 92.5682 14.0014 92.5455 13.4219H94.1009C94.1236 13.7259 94.2173 13.9787 94.3821 14.1804C94.5469 14.3821 94.7614 14.5327 95.0256 14.6321C95.2926 14.7315 95.5909 14.7812 95.9205 14.7812C96.2642 14.7812 96.5653 14.7301 96.8239 14.6278C97.0852 14.5227 97.2898 14.3778 97.4375 14.1932C97.5852 14.0057 97.6605 13.7869 97.6634 13.5369C97.6605 13.3097 97.5938 13.1222 97.4631 12.9744C97.3324 12.8239 97.1491 12.6989 96.9134 12.5994C96.6804 12.4972 96.4077 12.4062 96.0952 12.3267L95.1023 12.071C94.3835 11.8864 93.8153 11.6065 93.3977 11.2315C92.983 10.8537 92.7756 10.3523 92.7756 9.72727C92.7756 9.21307 92.9148 8.76278 93.1932 8.37642C93.4744 7.99006 93.8565 7.69034 94.3395 7.47727C94.8224 7.26136 95.3693 7.15341 95.9801 7.15341C96.5994 7.15341 97.142 7.26136 97.608 7.47727C98.0767 7.69034 98.4446 7.98722 98.7116 8.3679C98.9787 8.74574 99.1165 9.1804 99.125 9.67188H97.6037ZM103.483 16.1278C102.827 16.1278 102.26 15.9915 101.783 15.7188C101.309 15.4432 100.944 15.054 100.688 14.5511C100.432 14.0455 100.304 13.4503 100.304 12.7656C100.304 12.0923 100.432 11.5014 100.688 10.9929C100.946 10.4815 101.307 10.0838 101.77 9.79972C102.233 9.51278 102.777 9.36932 103.402 9.36932C103.806 9.36932 104.186 9.43466 104.544 9.56534C104.905 9.69318 105.223 9.89205 105.499 10.1619C105.777 10.4318 105.996 10.7756 106.155 11.1932C106.314 11.608 106.394 12.1023 106.394 12.6761V13.1491H101.029V12.1094H104.915C104.912 11.8139 104.848 11.5511 104.723 11.321C104.598 11.0881 104.424 10.9048 104.199 10.7713C103.978 10.6378 103.719 10.571 103.424 10.571C103.108 10.571 102.831 10.6477 102.593 10.8011C102.354 10.9517 102.168 11.1506 102.034 11.3977C101.904 11.642 101.837 11.9105 101.834 12.2031V13.1108C101.834 13.4915 101.904 13.8182 102.043 14.0909C102.182 14.3608 102.377 14.5682 102.627 14.7131C102.877 14.8551 103.169 14.9261 103.505 14.9261C103.729 14.9261 103.932 14.8949 104.114 14.8324C104.296 14.767 104.453 14.6719 104.587 14.5469C104.721 14.4219 104.821 14.267 104.89 14.0824L106.33 14.2443C106.239 14.625 106.066 14.9574 105.81 15.2415C105.557 15.5227 105.233 15.7415 104.838 15.8977C104.444 16.0511 103.992 16.1278 103.483 16.1278ZM107.699 16V9.45455H109.195V10.5455H109.263C109.382 10.1676 109.587 9.87642 109.876 9.67188C110.169 9.46449 110.503 9.3608 110.878 9.3608C110.963 9.3608 111.058 9.36506 111.163 9.37358C111.271 9.37926 111.361 9.3892 111.432 9.40341V10.8224C111.366 10.7997 111.263 10.7798 111.121 10.7628C110.982 10.7429 110.847 10.733 110.716 10.733C110.435 10.733 110.182 10.794 109.957 10.9162C109.736 11.0355 109.561 11.2017 109.433 11.4148C109.305 11.6278 109.241 11.8736 109.241 12.152V16H107.699ZM118.502 9.45455L116.172 16H114.467L112.136 9.45455H113.781L115.285 14.3168H115.353L116.862 9.45455H118.502ZM122.245 16.1278C121.589 16.1278 121.022 15.9915 120.545 15.7188C120.07 15.4432 119.705 15.054 119.45 14.5511C119.194 14.0455 119.066 13.4503 119.066 12.7656C119.066 12.0923 119.194 11.5014 119.45 10.9929C119.708 10.4815 120.069 10.0838 120.532 9.79972C120.995 9.51278 121.539 9.36932 122.164 9.36932C122.567 9.36932 122.948 9.43466 123.306 9.56534C123.667 9.69318 123.985 9.89205 124.261 10.1619C124.539 10.4318 124.758 10.7756 124.917 11.1932C125.076 11.608 125.156 12.1023 125.156 12.6761V13.1491H119.79V12.1094H123.677C123.674 11.8139 123.61 11.5511 123.485 11.321C123.36 11.0881 123.185 10.9048 122.961 10.7713C122.739 10.6378 122.481 10.571 122.185 10.571C121.87 10.571 121.593 10.6477 121.354 10.8011C121.116 10.9517 120.93 11.1506 120.796 11.3977C120.665 11.642 120.599 11.9105 120.596 12.2031V13.1108C120.596 13.4915 120.665 13.8182 120.805 14.0909C120.944 14.3608 121.138 14.5682 121.388 14.7131C121.638 14.8551 121.931 14.9261 122.266 14.9261C122.491 14.9261 122.694 14.8949 122.876 14.8324C123.058 14.767 123.215 14.6719 123.349 14.5469C123.482 14.4219 123.583 14.267 123.651 14.0824L125.092 14.2443C125.001 14.625 124.827 14.9574 124.572 15.2415C124.319 15.5227 123.995 15.7415 123.6 15.8977C123.205 16.0511 122.754 16.1278 122.245 16.1278ZM126.529 16V7.27273H129.801C130.472 7.27273 131.034 7.3892 131.489 7.62216C131.946 7.85511 132.292 8.18182 132.525 8.60227C132.76 9.01989 132.878 9.5071 132.878 10.0639C132.878 10.6236 132.759 11.1094 132.52 11.5213C132.284 11.9304 131.936 12.2472 131.476 12.4716C131.016 12.6932 130.451 12.804 129.78 12.804H127.449V11.4915H129.567C129.959 11.4915 130.28 11.4375 130.53 11.3295C130.78 11.2187 130.965 11.0582 131.084 10.848C131.206 10.6349 131.267 10.3736 131.267 10.0639C131.267 9.75426 131.206 9.49006 131.084 9.27131C130.962 9.04972 130.776 8.8821 130.526 8.76847C130.276 8.65199 129.953 8.59375 129.559 8.59375H128.11V16H126.529ZM131.037 12.0455L133.198 16H131.434L129.311 12.0455H131.037ZM137.069 16.1278C136.413 16.1278 135.846 15.9915 135.369 15.7188C134.895 15.4432 134.529 15.054 134.274 14.5511C134.018 14.0455 133.89 13.4503 133.89 12.7656C133.89 12.0923 134.018 11.5014 134.274 10.9929C134.532 10.4815 134.893 10.0838 135.356 9.79972C135.819 9.51278 136.363 9.36932 136.988 9.36932C137.392 9.36932 137.772 9.43466 138.13 9.56534C138.491 9.69318 138.809 9.89205 139.085 10.1619C139.363 10.4318 139.582 10.7756 139.741 11.1932C139.9 11.608 139.98 12.1023 139.98 12.6761V13.1491H134.615V12.1094H138.501C138.498 11.8139 138.434 11.5511 138.309 11.321C138.184 11.0881 138.01 10.9048 137.785 10.7713C137.564 10.6378 137.305 10.571 137.01 10.571C136.694 10.571 136.417 10.6477 136.179 10.8011C135.94 10.9517 135.754 11.1506 135.62 11.3977C135.49 11.642 135.423 11.9105 135.42 12.2031V13.1108C135.42 13.4915 135.49 13.8182 135.629 14.0909C135.768 14.3608 135.963 14.5682 136.213 14.7131C136.463 14.8551 136.755 14.9261 137.091 14.9261C137.315 14.9261 137.518 14.8949 137.7 14.8324C137.882 14.767 138.039 14.6719 138.173 14.5469C138.306 14.4219 138.407 14.267 138.475 14.0824L139.916 14.2443C139.825 14.625 139.652 14.9574 139.396 15.2415C139.143 15.5227 138.819 15.7415 138.424 15.8977C138.029 16.0511 137.578 16.1278 137.069 16.1278ZM146.458 11.1847L145.052 11.3381C145.012 11.196 144.942 11.0625 144.843 10.9375C144.746 10.8125 144.616 10.7116 144.451 10.6349C144.286 10.5582 144.085 10.5199 143.846 10.5199C143.525 10.5199 143.255 10.5895 143.036 10.7287C142.82 10.8679 142.714 11.0483 142.717 11.2699C142.714 11.4602 142.783 11.6151 142.925 11.7344C143.07 11.8537 143.309 11.9517 143.641 12.0284L144.758 12.267C145.377 12.4006 145.837 12.6122 146.138 12.902C146.442 13.1918 146.596 13.571 146.599 14.0398C146.596 14.4517 146.475 14.8153 146.237 15.1307C146.001 15.4432 145.673 15.6875 145.252 15.8636C144.832 16.0398 144.349 16.1278 143.803 16.1278C143.002 16.1278 142.357 15.9602 141.869 15.625C141.38 15.2869 141.089 14.8168 140.995 14.2145L142.499 14.0696C142.567 14.3651 142.712 14.5881 142.934 14.7386C143.156 14.8892 143.444 14.9645 143.799 14.9645C144.165 14.9645 144.46 14.8892 144.681 14.7386C144.906 14.5881 145.018 14.402 145.018 14.1804C145.018 13.9929 144.945 13.8381 144.8 13.7159C144.658 13.5937 144.437 13.5 144.136 13.4347L143.019 13.2003C142.391 13.0696 141.927 12.8494 141.626 12.5398C141.325 12.2273 141.175 11.8324 141.178 11.3551C141.175 10.9517 141.285 10.6023 141.506 10.3068C141.731 10.0085 142.042 9.77841 142.44 9.61648C142.84 9.4517 143.302 9.36932 143.825 9.36932C144.592 9.36932 145.195 9.53267 145.636 9.85938C146.079 10.1861 146.353 10.6278 146.458 11.1847ZM151.139 9.45455V10.6477H147.376V9.45455H151.139ZM148.305 7.88636H149.848V14.0312C149.848 14.2386 149.879 14.3977 149.942 14.5085C150.007 14.6165 150.092 14.6903 150.197 14.7301C150.303 14.7699 150.419 14.7898 150.547 14.7898C150.643 14.7898 150.732 14.7827 150.811 14.7685C150.893 14.7543 150.956 14.7415 150.999 14.7301L151.259 15.9361C151.176 15.9645 151.058 15.9957 150.905 16.0298C150.754 16.0639 150.57 16.0838 150.351 16.0895C149.964 16.1009 149.616 16.0426 149.307 15.9148C148.997 15.7841 148.751 15.5824 148.57 15.3097C148.391 15.0369 148.303 14.696 148.305 14.2869V7.88636ZM159.373 11.0014V12.2713H155.444V11.0014H159.373ZM164.04 16V7.27273H167.313C167.984 7.27273 168.546 7.39773 169.001 7.64773C169.458 7.89773 169.803 8.24148 170.036 8.67898C170.272 9.11364 170.39 9.60795 170.39 10.1619C170.39 10.7216 170.272 11.2187 170.036 11.6534C169.8 12.0881 169.452 12.4304 168.992 12.6804C168.532 12.9276 167.965 13.0511 167.292 13.0511H165.123V11.7514H167.079C167.471 11.7514 167.792 11.6832 168.042 11.5469C168.292 11.4105 168.477 11.223 168.596 10.9844C168.718 10.7457 168.779 10.4716 168.779 10.1619C168.779 9.85227 168.718 9.57955 168.596 9.34375C168.477 9.10795 168.29 8.92472 168.038 8.79403C167.788 8.66051 167.465 8.59375 167.07 8.59375H165.621V16H164.04ZM174.456 16.1278C173.817 16.1278 173.263 15.9872 172.794 15.706C172.326 15.4247 171.962 15.0312 171.703 14.5256C171.448 14.0199 171.32 13.429 171.32 12.7528C171.32 12.0767 171.448 11.4844 171.703 10.9759C171.962 10.4673 172.326 10.0724 172.794 9.79119C173.263 9.50994 173.817 9.36932 174.456 9.36932C175.096 9.36932 175.65 9.50994 176.118 9.79119C176.587 10.0724 176.949 10.4673 177.205 10.9759C177.463 11.4844 177.593 12.0767 177.593 12.7528C177.593 13.429 177.463 14.0199 177.205 14.5256C176.949 15.0312 176.587 15.4247 176.118 15.706C175.65 15.9872 175.096 16.1278 174.456 16.1278ZM174.465 14.892C174.811 14.892 175.101 14.7969 175.334 14.6065C175.567 14.4134 175.74 14.1548 175.854 13.831C175.971 13.5071 176.029 13.1463 176.029 12.7486C176.029 12.348 175.971 11.9858 175.854 11.6619C175.74 11.3352 175.567 11.0753 175.334 10.8821C175.101 10.6889 174.811 10.5923 174.465 10.5923C174.11 10.5923 173.814 10.6889 173.578 10.8821C173.346 11.0753 173.171 11.3352 173.054 11.6619C172.941 11.9858 172.884 12.348 172.884 12.7486C172.884 13.1463 172.941 13.5071 173.054 13.831C173.171 14.1548 173.346 14.4134 173.578 14.6065C173.814 14.7969 174.11 14.892 174.465 14.892ZM184.075 11.1847L182.669 11.3381C182.629 11.196 182.56 11.0625 182.46 10.9375C182.364 10.8125 182.233 10.7116 182.068 10.6349C181.903 10.5582 181.702 10.5199 181.463 10.5199C181.142 10.5199 180.872 10.5895 180.653 10.7287C180.438 10.8679 180.331 11.0483 180.334 11.2699C180.331 11.4602 180.401 11.6151 180.543 11.7344C180.688 11.8537 180.926 11.9517 181.259 12.0284L182.375 12.267C182.994 12.4006 183.455 12.6122 183.756 12.902C184.06 13.1918 184.213 13.571 184.216 14.0398C184.213 14.4517 184.092 14.8153 183.854 15.1307C183.618 15.4432 183.29 15.6875 182.869 15.8636C182.449 16.0398 181.966 16.1278 181.42 16.1278C180.619 16.1278 179.974 15.9602 179.486 15.625C178.997 15.2869 178.706 14.8168 178.612 14.2145L180.116 14.0696C180.185 14.3651 180.33 14.5881 180.551 14.7386C180.773 14.8892 181.061 14.9645 181.416 14.9645C181.783 14.9645 182.077 14.8892 182.298 14.7386C182.523 14.5881 182.635 14.402 182.635 14.1804C182.635 13.9929 182.563 13.8381 182.418 13.7159C182.276 13.5937 182.054 13.5 181.753 13.4347L180.636 13.2003C180.009 13.0696 179.544 12.8494 179.243 12.5398C178.942 12.2273 178.793 11.8324 178.795 11.3551C178.793 10.9517 178.902 10.6023 179.124 10.3068C179.348 10.0085 179.659 9.77841 180.057 9.61648C180.457 9.4517 180.919 9.36932 181.442 9.36932C182.209 9.36932 182.813 9.53267 183.253 9.85938C183.696 10.1861 183.97 10.6278 184.075 11.1847ZM188.756 9.45455V10.6477H184.994V9.45455H188.756ZM185.923 7.88636H187.465V14.0312C187.465 14.2386 187.496 14.3977 187.559 14.5085C187.624 14.6165 187.71 14.6903 187.815 14.7301C187.92 14.7699 188.036 14.7898 188.164 14.7898C188.261 14.7898 188.349 14.7827 188.428 14.7685C188.511 14.7543 188.573 14.7415 188.616 14.7301L188.876 15.9361C188.793 15.9645 188.675 15.9957 188.522 16.0298C188.371 16.0639 188.187 16.0838 187.968 16.0895C187.582 16.1009 187.234 16.0426 186.924 15.9148C186.614 15.7841 186.369 15.5824 186.187 15.3097C186.008 15.0369 185.92 14.696 185.923 14.2869V7.88636ZM190.047 16V9.45455H191.521V10.5668H191.598C191.734 10.1918 191.96 9.89915 192.275 9.68892C192.591 9.47585 192.967 9.36932 193.404 9.36932C193.848 9.36932 194.221 9.47727 194.525 9.69318C194.832 9.90625 195.048 10.1974 195.173 10.5668H195.241C195.386 10.2031 195.63 9.91335 195.974 9.69744C196.321 9.47869 196.731 9.36932 197.206 9.36932C197.808 9.36932 198.299 9.55966 198.68 9.94034C199.061 10.321 199.251 10.8764 199.251 11.6065V16H197.704V11.8452C197.704 11.4389 197.596 11.142 197.38 10.9545C197.164 10.7642 196.9 10.669 196.588 10.669C196.216 10.669 195.924 10.7855 195.714 11.0185C195.507 11.2486 195.403 11.5483 195.403 11.9176V16H193.89V11.7812C193.89 11.4432 193.788 11.1733 193.583 10.9716C193.382 10.7699 193.118 10.669 192.791 10.669C192.569 10.669 192.368 10.7259 192.186 10.8395C192.004 10.9503 191.859 11.108 191.751 11.3125C191.643 11.5142 191.589 11.75 191.589 12.0199V16H190.047ZM202.7 16.1321C202.285 16.1321 201.911 16.0582 201.579 15.9105C201.249 15.7599 200.988 15.5384 200.795 15.2457C200.604 14.9531 200.509 14.5923 200.509 14.1634C200.509 13.794 200.577 13.4886 200.714 13.2472C200.85 13.0057 201.036 12.8125 201.272 12.6676C201.508 12.5227 201.773 12.4134 202.069 12.3395C202.367 12.2628 202.675 12.2074 202.994 12.1733C203.377 12.1335 203.688 12.098 203.927 12.0668C204.165 12.0327 204.339 11.9815 204.447 11.9134C204.558 11.8423 204.613 11.733 204.613 11.5852V11.5597C204.613 11.2386 204.518 10.9901 204.327 10.8139C204.137 10.6378 203.863 10.5497 203.505 10.5497C203.127 10.5497 202.827 10.6321 202.606 10.7969C202.387 10.9616 202.239 11.1562 202.163 11.3807L200.722 11.1761C200.836 10.7784 201.023 10.446 201.285 10.179C201.546 9.90909 201.866 9.70739 202.244 9.57386C202.621 9.4375 203.039 9.36932 203.496 9.36932C203.812 9.36932 204.126 9.40625 204.438 9.48011C204.751 9.55398 205.036 9.67614 205.295 9.84659C205.553 10.0142 205.761 10.2429 205.917 10.5327C206.076 10.8224 206.156 11.1847 206.156 11.6193V16H204.673V15.1009H204.621C204.528 15.2827 204.396 15.4531 204.225 15.6122C204.058 15.7685 203.846 15.8949 203.59 15.9915C203.337 16.0852 203.04 16.1321 202.7 16.1321ZM203.1 14.9986C203.41 14.9986 203.678 14.9375 203.906 14.8153C204.133 14.6903 204.308 14.5256 204.43 14.321C204.555 14.1165 204.617 13.8935 204.617 13.652V12.8807C204.569 12.9205 204.487 12.9574 204.37 12.9915C204.256 13.0256 204.129 13.0554 203.987 13.081C203.844 13.1065 203.704 13.1293 203.565 13.1491C203.425 13.169 203.305 13.1861 203.202 13.2003C202.972 13.2315 202.766 13.2827 202.585 13.3537C202.403 13.4247 202.259 13.5241 202.154 13.652C202.049 13.777 201.996 13.9389 201.996 14.1378C201.996 14.4219 202.1 14.6364 202.308 14.7812C202.515 14.9261 202.779 14.9986 203.1 14.9986ZM209.249 12.1648V16H207.707V9.45455H209.181V10.5668H209.258C209.408 10.2003 209.648 9.90909 209.978 9.69318C210.31 9.47727 210.721 9.36932 211.21 9.36932C211.661 9.36932 212.055 9.46591 212.39 9.65909C212.728 9.85227 212.989 10.1321 213.174 10.4986C213.362 10.8651 213.454 11.3097 213.451 11.8324V16H211.908V12.071C211.908 11.6335 211.795 11.2912 211.567 11.044C211.343 10.7969 211.032 10.6733 210.634 10.6733C210.364 10.6733 210.124 10.733 209.914 10.8523C209.707 10.9687 209.543 11.1378 209.424 11.3594C209.308 11.581 209.249 11.8494 209.249 12.1648Z" fill="black"/>
<path d="M4 10C4 4.47715 8.47715 0 14 0H87V83H14C8.47715 83 4 78.5229 4 73V10Z" fill="#ECEEFF"/>
<path d="M128 41.5H181.076C183.009 41.5 184.576 43.067 184.576 45V51C184.576 52.933 183.009 54.5 181.076 54.5H128C126.067 54.5 124.5 52.933 124.5 51V45C124.5 43.067 126.067 41.5 128 41.5Z" fill="#FFFCBC" stroke="#CCBA12"/>
<path d="M130.868 44.7273V52H129.987V44.7273H130.868ZM133.358 48.7188V52H132.52V46.5455H133.33V47.3977H133.401C133.529 47.1207 133.723 46.8982 133.983 46.7301C134.244 46.5597 134.58 46.4744 134.992 46.4744C135.361 46.4744 135.684 46.5502 135.961 46.7017C136.238 46.8509 136.454 47.0781 136.607 47.3835C136.761 47.6866 136.838 48.0701 136.838 48.5341V52H136V48.5909C136 48.1624 135.889 47.8286 135.666 47.5895C135.444 47.348 135.138 47.2273 134.75 47.2273C134.483 47.2273 134.244 47.2853 134.033 47.4013C133.825 47.5173 133.66 47.6866 133.539 47.9091C133.418 48.1316 133.358 48.4015 133.358 48.7188ZM140.742 46.5455V47.2557H137.915V46.5455H140.742ZM138.739 45.2386H139.577V50.4375C139.577 50.6742 139.611 50.8518 139.68 50.9702C139.751 51.0862 139.841 51.1643 139.95 51.2045C140.061 51.2424 140.178 51.2614 140.301 51.2614C140.394 51.2614 140.47 51.2566 140.529 51.2472C140.588 51.2353 140.635 51.2259 140.671 51.2188L140.841 51.9716C140.784 51.9929 140.705 52.0142 140.603 52.0355C140.502 52.0592 140.373 52.071 140.216 52.071C139.98 52.071 139.748 52.0201 139.52 51.9183C139.295 51.8165 139.108 51.6615 138.959 51.4531C138.812 51.2448 138.739 50.982 138.739 50.6648V45.2386ZM144.231 52.1136C143.705 52.1136 143.252 51.9976 142.871 51.7656C142.492 51.5312 142.2 51.2045 141.994 50.7855C141.79 50.3641 141.688 49.8741 141.688 49.3153C141.688 48.7566 141.79 48.2642 141.994 47.8381C142.2 47.4096 142.486 47.0758 142.853 46.8366C143.222 46.5952 143.653 46.4744 144.146 46.4744C144.43 46.4744 144.71 46.5218 144.987 46.6165C145.264 46.7112 145.516 46.8651 145.744 47.0781C145.971 47.2888 146.152 47.5682 146.287 47.9162C146.422 48.2642 146.489 48.6927 146.489 49.2017V49.5568H142.285V48.8324H145.637C145.637 48.5246 145.576 48.25 145.452 48.0085C145.332 47.767 145.159 47.5765 144.934 47.4368C144.711 47.2971 144.449 47.2273 144.146 47.2273C143.812 47.2273 143.523 47.3101 143.279 47.4759C143.038 47.6392 142.852 47.8523 142.722 48.1151C142.591 48.3778 142.526 48.6596 142.526 48.9602V49.4432C142.526 49.8551 142.597 50.2043 142.739 50.4908C142.884 50.7749 143.084 50.9915 143.339 51.1406C143.595 51.2874 143.892 51.3608 144.231 51.3608C144.451 51.3608 144.65 51.33 144.827 51.2685C145.007 51.2045 145.162 51.1098 145.293 50.9844C145.423 50.8565 145.523 50.6979 145.594 50.5085L146.404 50.7358C146.319 51.0104 146.176 51.2519 145.974 51.4602C145.773 51.6662 145.525 51.8272 145.229 51.9432C144.933 52.0568 144.6 52.1136 144.231 52.1136ZM149.966 54.1591C149.561 54.1591 149.213 54.107 148.922 54.0028C148.631 53.901 148.388 53.7661 148.194 53.598C148.002 53.4323 147.849 53.2547 147.736 53.0653L148.403 52.5966C148.479 52.696 148.575 52.8097 148.691 52.9375C148.807 53.0677 148.966 53.1802 149.167 53.2749C149.37 53.3719 149.637 53.4205 149.966 53.4205C150.406 53.4205 150.77 53.3139 151.056 53.1009C151.343 52.8878 151.486 52.554 151.486 52.0994V50.9915H151.415C151.353 51.0909 151.266 51.214 151.152 51.3608C151.041 51.5052 150.88 51.6342 150.669 51.7479C150.461 51.8591 150.179 51.9148 149.824 51.9148C149.384 51.9148 148.988 51.8106 148.638 51.6023C148.29 51.3939 148.014 51.0909 147.81 50.6932C147.609 50.2955 147.509 49.8125 147.509 49.2443C147.509 48.6856 147.607 48.1991 147.803 47.7848C148 47.3681 148.273 47.0462 148.624 46.8189C148.974 46.5893 149.379 46.4744 149.838 46.4744C150.193 46.4744 150.475 46.5336 150.683 46.652C150.894 46.768 151.055 46.9006 151.166 47.0497C151.28 47.1965 151.367 47.3172 151.429 47.4119H151.514V46.5455H152.324V52.1562C152.324 52.625 152.217 53.0062 152.004 53.2997C151.794 53.5956 151.509 53.8123 151.152 53.9496C150.797 54.0893 150.402 54.1591 149.966 54.1591ZM149.937 51.1619C150.274 51.1619 150.558 51.085 150.79 50.9311C151.022 50.7772 151.198 50.5559 151.319 50.267C151.44 49.9782 151.5 49.6326 151.5 49.2301C151.5 48.8371 151.441 48.4903 151.322 48.1896C151.204 47.889 151.029 47.6534 150.797 47.483C150.565 47.3125 150.278 47.2273 149.937 47.2273C149.582 47.2273 149.286 47.3172 149.05 47.4972C148.815 47.6771 148.639 47.9186 148.521 48.2216C148.405 48.5246 148.347 48.8608 148.347 49.2301C148.347 49.6089 148.406 49.9439 148.524 50.2351C148.645 50.5239 148.822 50.7512 149.057 50.9169C149.294 51.0803 149.587 51.1619 149.937 51.1619ZM153.858 52V46.5455H154.668V47.3693H154.724C154.824 47.0994 155.004 46.8804 155.264 46.7124C155.525 46.5443 155.818 46.4602 156.145 46.4602C156.206 46.4602 156.283 46.4614 156.376 46.4638C156.468 46.4661 156.538 46.4697 156.585 46.4744V47.3267C156.557 47.3196 156.492 47.3089 156.39 47.2947C156.29 47.2782 156.185 47.2699 156.074 47.2699C155.809 47.2699 155.572 47.3255 155.364 47.4368C155.158 47.5457 154.994 47.6972 154.874 47.8913C154.755 48.0831 154.696 48.3021 154.696 48.5483V52H153.858ZM159.184 52.1278C158.838 52.1278 158.524 52.0627 158.243 51.9325C157.961 51.8 157.737 51.6094 157.572 51.3608C157.406 51.1098 157.323 50.8068 157.323 50.4517C157.323 50.1392 157.385 49.8859 157.508 49.6918C157.631 49.4953 157.795 49.3414 158.001 49.2301C158.207 49.1188 158.434 49.036 158.683 48.9815C158.934 48.9247 159.186 48.8797 159.439 48.8466C159.771 48.804 160.04 48.772 160.246 48.7507C160.454 48.727 160.605 48.688 160.7 48.6335C160.797 48.5791 160.846 48.4844 160.846 48.3494V48.321C160.846 47.9706 160.75 47.6984 160.558 47.5043C160.369 47.3101 160.081 47.2131 159.695 47.2131C159.295 47.2131 158.981 47.3007 158.754 47.4759C158.527 47.651 158.367 47.8381 158.275 48.0369L157.479 47.7528C157.621 47.4214 157.811 47.1634 158.047 46.9787C158.287 46.7917 158.547 46.6615 158.829 46.5881C159.113 46.5123 159.392 46.4744 159.667 46.4744C159.842 46.4744 160.043 46.4957 160.27 46.5384C160.5 46.5786 160.721 46.6626 160.934 46.7905C161.15 46.9183 161.329 47.1113 161.471 47.3693C161.613 47.6274 161.684 47.973 161.684 48.4062V52H160.846V51.2614H160.803C160.746 51.3797 160.652 51.5064 160.519 51.6413C160.386 51.7763 160.21 51.8911 159.99 51.9858C159.77 52.0805 159.501 52.1278 159.184 52.1278ZM159.312 51.375C159.643 51.375 159.922 51.3099 160.15 51.1797C160.379 51.0495 160.552 50.8814 160.668 50.6754C160.787 50.4695 160.846 50.2528 160.846 50.0256V49.2585C160.81 49.3011 160.732 49.3402 160.611 49.3757C160.493 49.4089 160.356 49.4384 160.199 49.4645C160.046 49.4882 159.895 49.5095 159.748 49.5284C159.604 49.545 159.487 49.5592 159.397 49.571C159.179 49.5994 158.975 49.6456 158.786 49.7095C158.599 49.7711 158.447 49.8646 158.331 49.9901C158.218 50.1132 158.161 50.2812 158.161 50.4943C158.161 50.7855 158.269 51.0057 158.484 51.1548C158.702 51.3016 158.978 51.375 159.312 51.375ZM165.429 52.1136C164.918 52.1136 164.478 51.9929 164.108 51.7514C163.739 51.5099 163.455 51.1773 163.256 50.7536C163.057 50.3298 162.958 49.8456 162.958 49.3011C162.958 48.7472 163.06 48.2583 163.263 47.8345C163.469 47.4084 163.756 47.0758 164.123 46.8366C164.492 46.5952 164.923 46.4744 165.415 46.4744C165.799 46.4744 166.144 46.5455 166.452 46.6875C166.76 46.8295 167.012 47.0284 167.208 47.2841C167.405 47.5398 167.527 47.8381 167.574 48.179H166.736C166.672 47.9304 166.53 47.7102 166.31 47.5185C166.092 47.3243 165.799 47.2273 165.429 47.2273C165.103 47.2273 164.816 47.3125 164.57 47.483C164.326 47.651 164.136 47.889 163.998 48.1967C163.863 48.5021 163.796 48.8608 163.796 49.2727C163.796 49.6941 163.862 50.0611 163.995 50.3736C164.13 50.6861 164.319 50.9287 164.563 51.1016C164.809 51.2744 165.098 51.3608 165.429 51.3608C165.647 51.3608 165.845 51.3229 166.022 51.2472C166.2 51.1714 166.35 51.0625 166.473 50.9205C166.596 50.7784 166.684 50.608 166.736 50.4091H167.574C167.527 50.7311 167.41 51.0211 167.223 51.2791C167.038 51.5348 166.793 51.7384 166.488 51.8899C166.185 52.0391 165.832 52.1136 165.429 52.1136ZM165.032 51.9716H165.728L165.671 52.2557C165.855 52.2841 166.025 52.361 166.179 52.4865C166.333 52.6143 166.409 52.8168 166.409 53.0938C166.409 53.3991 166.283 53.6477 166.029 53.8395C165.779 54.0336 165.408 54.1307 164.918 54.1307L164.89 53.5767C165.11 53.5767 165.292 53.5412 165.436 53.4702C165.583 53.4015 165.657 53.2855 165.657 53.1222C165.657 52.9588 165.596 52.8475 165.475 52.7884C165.355 52.7292 165.159 52.6889 164.89 52.6676L165.032 51.9716ZM170.404 52.1278C170.059 52.1278 169.745 52.0627 169.463 51.9325C169.182 51.8 168.958 51.6094 168.792 51.3608C168.627 51.1098 168.544 50.8068 168.544 50.4517C168.544 50.1392 168.605 49.8859 168.728 49.6918C168.851 49.4953 169.016 49.3414 169.222 49.2301C169.428 49.1188 169.655 49.036 169.904 48.9815C170.155 48.9247 170.407 48.8797 170.66 48.8466C170.992 48.804 171.26 48.772 171.466 48.7507C171.675 48.727 171.826 48.688 171.921 48.6335C172.018 48.5791 172.066 48.4844 172.066 48.3494V48.321C172.066 47.9706 171.971 47.6984 171.779 47.5043C171.589 47.3101 171.302 47.2131 170.916 47.2131C170.516 47.2131 170.202 47.3007 169.975 47.4759C169.748 47.651 169.588 47.8381 169.495 48.0369L168.7 47.7528C168.842 47.4214 169.031 47.1634 169.268 46.9787C169.507 46.7917 169.768 46.6615 170.049 46.5881C170.333 46.5123 170.613 46.4744 170.887 46.4744C171.063 46.4744 171.264 46.4957 171.491 46.5384C171.721 46.5786 171.942 46.6626 172.155 46.7905C172.371 46.9183 172.549 47.1113 172.691 47.3693C172.833 47.6274 172.904 47.973 172.904 48.4062V52H172.066V51.2614H172.024C171.967 51.3797 171.872 51.5064 171.74 51.6413C171.607 51.7763 171.431 51.8911 171.211 51.9858C170.99 52.0805 170.722 52.1278 170.404 52.1278ZM170.532 51.375C170.864 51.375 171.143 51.3099 171.37 51.1797C171.6 51.0495 171.773 50.8814 171.889 50.6754C172.007 50.4695 172.066 50.2528 172.066 50.0256V49.2585C172.031 49.3011 171.953 49.3402 171.832 49.3757C171.714 49.4089 171.576 49.4384 171.42 49.4645C171.266 49.4882 171.116 49.5095 170.969 49.5284C170.825 49.545 170.708 49.5592 170.618 49.571C170.4 49.5994 170.196 49.6456 170.007 49.7095C169.82 49.7711 169.668 49.8646 169.552 49.9901C169.439 50.1132 169.382 50.2812 169.382 50.4943C169.382 50.7855 169.489 51.0057 169.705 51.1548C169.923 51.3016 170.199 51.375 170.532 51.375ZM169.85 45.892L169.197 45.8636C169.197 45.5014 169.3 45.2055 169.506 44.9759C169.714 44.7438 169.971 44.6278 170.277 44.6278C170.412 44.6278 170.531 44.6515 170.635 44.6989C170.739 44.7438 170.839 44.7959 170.934 44.8551C171.028 44.9143 171.125 44.9676 171.225 45.0149C171.327 45.0599 171.441 45.0824 171.569 45.0824C171.704 45.0824 171.818 45.0303 171.91 44.9261C172.005 44.8196 172.052 44.6918 172.052 44.5426L172.691 44.5994C172.691 44.9687 172.587 45.2623 172.379 45.4801C172.173 45.6979 171.917 45.8068 171.612 45.8068C171.449 45.8068 171.314 45.7843 171.207 45.7393C171.1 45.692 171.006 45.6387 170.923 45.5795C170.84 45.5204 170.752 45.4683 170.66 45.4233C170.568 45.3759 170.454 45.3523 170.319 45.3523C170.184 45.3523 170.072 45.4055 169.982 45.5121C169.894 45.6162 169.85 45.7429 169.85 45.892ZM176.65 52.1136C176.158 52.1136 175.726 51.9964 175.354 51.7621C174.985 51.5277 174.696 51.1998 174.487 50.7784C174.281 50.357 174.178 49.8646 174.178 49.3011C174.178 48.733 174.281 48.237 174.487 47.8132C174.696 47.3894 174.985 47.0604 175.354 46.826C175.726 46.5916 176.158 46.4744 176.65 46.4744C177.142 46.4744 177.573 46.5916 177.943 46.826C178.314 47.0604 178.603 47.3894 178.809 47.8132C179.017 48.237 179.122 48.733 179.122 49.3011C179.122 49.8646 179.017 50.357 178.809 50.7784C178.603 51.1998 178.314 51.5277 177.943 51.7621C177.573 51.9964 177.142 52.1136 176.65 52.1136ZM176.65 51.3608C177.024 51.3608 177.332 51.2649 177.573 51.0732C177.815 50.8814 177.994 50.6293 178.11 50.3168C178.226 50.0043 178.284 49.6657 178.284 49.3011C178.284 48.9366 178.226 48.5968 178.11 48.282C177.994 47.9671 177.815 47.7126 177.573 47.5185C177.332 47.3243 177.024 47.2273 176.65 47.2273C176.276 47.2273 175.968 47.3243 175.727 47.5185C175.485 47.7126 175.307 47.9671 175.191 48.282C175.075 48.5968 175.017 48.9366 175.017 49.3011C175.017 49.6657 175.075 50.0043 175.191 50.3168C175.307 50.6293 175.485 50.8814 175.727 51.0732C175.968 51.2649 176.276 51.3608 176.65 51.3608Z" fill="black"/>
<path d="M96 41.5H115C116.933 41.5 118.5 43.067 118.5 45V51C118.5 52.933 116.933 54.5 115 54.5H96C94.067 54.5 92.5 52.933 92.5 51V45C92.5 43.067 94.067 41.5 96 41.5Z" fill="#FFBCFD" stroke="#8C00A8"/>
<path d="M97.3768 52V44.7273H101.766V45.5085H98.2575V47.9659H101.539V48.7472H98.2575V51.2188H101.823V52H97.3768ZM103.225 52V51.3608L105.626 48.733C105.908 48.4252 106.14 48.1577 106.322 47.9304C106.504 47.7008 106.639 47.4853 106.727 47.2841C106.817 47.0805 106.862 46.8674 106.862 46.6449C106.862 46.3892 106.8 46.1679 106.677 45.9808C106.556 45.7938 106.391 45.6494 106.18 45.5476C105.969 45.4458 105.733 45.3949 105.47 45.3949C105.19 45.3949 104.947 45.4529 104.738 45.5689C104.532 45.6825 104.373 45.8423 104.259 46.0483C104.148 46.2543 104.092 46.4957 104.092 46.7727H103.254C103.254 46.3466 103.352 45.9725 103.549 45.6506C103.745 45.3286 104.013 45.0777 104.351 44.8977C104.692 44.7178 105.074 44.6278 105.498 44.6278C105.924 44.6278 106.302 44.7178 106.631 44.8977C106.96 45.0777 107.218 45.3203 107.405 45.6257C107.592 45.9311 107.686 46.2708 107.686 46.6449C107.686 46.9124 107.637 47.174 107.54 47.4297C107.445 47.683 107.28 47.9659 107.043 48.2784C106.809 48.5885 106.483 48.9673 106.066 49.4148L104.433 51.1619V51.2188H107.814V52H103.225ZM109.408 52V44.7273H113.797V45.5085H110.289V47.9659H113.57V48.7472H110.289V51.2188H113.854V52H109.408Z" fill="black"/>
<path d="M234 41.5H253C254.933 41.5 256.5 43.067 256.5 45V51C256.5 52.933 254.933 54.5 253 54.5H234C232.067 54.5 230.5 52.933 230.5 51V45C230.5 43.067 232.067 41.5 234 41.5Z" fill="#FFDFBC" stroke="#E02D00"/>
<path d="M236.803 52H235.88L238.55 44.7273H239.459L242.13 52H241.206L239.033 45.8778H238.976L236.803 52ZM237.144 49.1591H240.866V49.9403H237.144V49.1591ZM243.263 52V44.7273H245.72C246.29 44.7273 246.757 44.8303 247.119 45.0362C247.484 45.2398 247.754 45.5156 247.929 45.8636C248.104 46.2116 248.191 46.5999 248.191 47.0284C248.191 47.4569 248.104 47.8464 247.929 48.1967C247.756 48.5471 247.488 48.8265 247.126 49.0348C246.764 49.2408 246.3 49.3438 245.734 49.3438H243.973V48.5625H245.706C246.096 48.5625 246.41 48.495 246.647 48.3601C246.883 48.2251 247.055 48.0429 247.162 47.8132C247.271 47.5812 247.325 47.3196 247.325 47.0284C247.325 46.7372 247.271 46.4768 247.162 46.2472C247.055 46.0175 246.882 45.8376 246.643 45.7074C246.404 45.5748 246.087 45.5085 245.691 45.5085H244.143V52H243.263ZM250.491 44.7273V52H249.61V44.7273H250.491Z" fill="black"/>
<path d="M195 41.5H221C222.933 41.5 224.5 43.067 224.5 45V51C224.5 52.933 222.933 54.5 221 54.5H195C193.067 54.5 191.5 52.933 191.5 51V45C191.5 43.067 193.067 41.5 195 41.5Z" fill="#D5EAFE" stroke="#112169"/>
<path d="M200.758 47H199.878C199.825 46.7467 199.734 46.5241 199.604 46.3324C199.476 46.1406 199.32 45.9796 199.135 45.8494C198.953 45.7169 198.751 45.6174 198.528 45.5511C198.306 45.4848 198.074 45.4517 197.832 45.4517C197.392 45.4517 196.993 45.563 196.635 45.7855C196.28 46.008 195.997 46.3359 195.787 46.7692C195.578 47.2024 195.474 47.7339 195.474 48.3636C195.474 48.9934 195.578 49.5249 195.787 49.9581C195.997 50.3913 196.28 50.7192 196.635 50.9418C196.993 51.1643 197.392 51.2756 197.832 51.2756C198.074 51.2756 198.306 51.2424 198.528 51.1761C198.751 51.1098 198.953 51.0116 199.135 50.8814C199.32 50.7488 199.476 50.5866 199.604 50.3949C199.734 50.2008 199.825 49.9782 199.878 49.7273H200.758C200.692 50.099 200.571 50.4316 200.396 50.7251C200.221 51.0187 200.003 51.2685 199.743 51.4744C199.482 51.678 199.19 51.8331 198.866 51.9396C198.544 52.0462 198.199 52.0994 197.832 52.0994C197.212 52.0994 196.66 51.9479 196.177 51.6449C195.694 51.3419 195.314 50.911 195.037 50.3523C194.76 49.7936 194.622 49.1307 194.622 48.3636C194.622 47.5966 194.76 46.9337 195.037 46.375C195.314 45.8163 195.694 45.3854 196.177 45.0824C196.66 44.7794 197.212 44.6278 197.832 44.6278C198.199 44.6278 198.544 44.6811 198.866 44.7876C199.19 44.8942 199.482 45.0504 199.743 45.2564C200.003 45.46 200.221 45.7086 200.396 46.0021C200.571 46.2933 200.692 46.6259 200.758 47ZM203.062 44.7273V52H202.181V44.7273H203.062ZM207.285 44.3864L204.941 53.0938H204.174L206.518 44.3864H207.285ZM214.245 47H213.364C213.312 46.7467 213.221 46.5241 213.09 46.3324C212.963 46.1406 212.806 45.9796 212.622 45.8494C212.439 45.7169 212.237 45.6174 212.014 45.5511C211.792 45.4848 211.56 45.4517 211.318 45.4517C210.878 45.4517 210.479 45.563 210.122 45.7855C209.767 46.008 209.484 46.3359 209.273 46.7692C209.065 47.2024 208.96 47.7339 208.96 48.3636C208.96 48.9934 209.065 49.5249 209.273 49.9581C209.484 50.3913 209.767 50.7192 210.122 50.9418C210.479 51.1643 210.878 51.2756 211.318 51.2756C211.56 51.2756 211.792 51.2424 212.014 51.1761C212.237 51.1098 212.439 51.0116 212.622 50.8814C212.806 50.7488 212.963 50.5866 213.09 50.3949C213.221 50.2008 213.312 49.9782 213.364 49.7273H214.245C214.178 50.099 214.058 50.4316 213.882 50.7251C213.707 51.0187 213.489 51.2685 213.229 51.4744C212.969 51.678 212.676 51.8331 212.352 51.9396C212.03 52.0462 211.685 52.0994 211.318 52.0994C210.698 52.0994 210.147 51.9479 209.664 51.6449C209.181 51.3419 208.801 50.911 208.524 50.3523C208.247 49.7936 208.108 49.1307 208.108 48.3636C208.108 47.5966 208.247 46.9337 208.524 46.375C208.801 45.8163 209.181 45.3854 209.664 45.0824C210.147 44.7794 210.698 44.6278 211.318 44.6278C211.685 44.6278 212.03 44.6811 212.352 44.7876C212.676 44.8942 212.969 45.0504 213.229 45.2564C213.489 45.46 213.707 45.7086 213.882 46.0021C214.058 46.2933 214.178 46.6259 214.245 47ZM217.912 52H215.668V44.7273H218.011C218.717 44.7273 219.321 44.8729 219.823 45.1641C220.324 45.4529 220.709 45.8684 220.977 46.4105C221.244 46.9503 221.378 47.5966 221.378 48.3494C221.378 49.107 221.243 49.7592 220.973 50.3061C220.703 50.8506 220.31 51.2696 219.794 51.5632C219.278 51.8544 218.651 52 217.912 52ZM216.548 51.2188H217.855C218.457 51.2188 218.955 51.1027 219.35 50.8707C219.746 50.6387 220.04 50.3085 220.234 49.88C220.429 49.4515 220.526 48.9413 220.526 48.3494C220.526 47.7623 220.43 47.2569 220.238 46.8331C220.046 46.407 219.76 46.0803 219.379 45.853C218.997 45.6233 218.523 45.5085 217.955 45.5085H216.548V51.2188Z" fill="black"/>
<path d="M93.2969 33H92.2813L95.2188 25H96.2188L99.1563 33H98.1406L95.75 26.2656H95.6875L93.2969 33ZM93.6719 29.875H97.7656V30.7344H93.6719V29.875ZM104.059 30.5469V27H104.98V33H104.059V31.9844H103.996C103.855 32.2891 103.637 32.5482 103.34 32.7617C103.043 32.9727 102.668 33.0781 102.215 33.0781C101.84 33.0781 101.507 32.9961 101.215 32.832C100.923 32.6654 100.694 32.4154 100.527 32.082C100.361 31.7461 100.277 31.3229 100.277 30.8125V27H101.199V30.75C101.199 31.1875 101.322 31.5365 101.566 31.7969C101.814 32.0573 102.129 32.1875 102.512 32.1875C102.741 32.1875 102.974 32.1289 103.211 32.0117C103.451 31.8945 103.651 31.7148 103.813 31.4727C103.977 31.2305 104.059 30.9219 104.059 30.5469ZM109.278 27V27.7812H106.169V27H109.278ZM107.075 25.5625H107.997V31.2812C107.997 31.5417 108.035 31.737 108.11 31.8672C108.188 31.9948 108.287 32.0807 108.407 32.125C108.53 32.1667 108.659 32.1875 108.794 32.1875C108.896 32.1875 108.979 32.1823 109.044 32.1719C109.109 32.1589 109.161 32.1484 109.2 32.1406L109.388 32.9687C109.325 32.9922 109.238 33.0156 109.126 33.0391C109.014 33.0651 108.872 33.0781 108.7 33.0781C108.44 33.0781 108.185 33.0221 107.935 32.9102C107.687 32.7982 107.481 32.6276 107.317 32.3984C107.156 32.1693 107.075 31.8802 107.075 31.5312V25.5625ZM113.038 33.125C112.496 33.125 112.021 32.9961 111.612 32.7383C111.206 32.4805 110.888 32.1198 110.659 31.6562C110.433 31.1927 110.319 30.651 110.319 30.0312C110.319 29.4062 110.433 28.8607 110.659 28.3945C110.888 27.9284 111.206 27.5664 111.612 27.3086C112.021 27.0508 112.496 26.9219 113.038 26.9219C113.58 26.9219 114.054 27.0508 114.46 27.3086C114.869 27.5664 115.187 27.9284 115.413 28.3945C115.642 28.8607 115.757 29.4062 115.757 30.0312C115.757 30.651 115.642 31.1927 115.413 31.6562C115.187 32.1198 114.869 32.4805 114.46 32.7383C114.054 32.9961 113.58 33.125 113.038 33.125ZM113.038 32.2969C113.45 32.2969 113.788 32.1914 114.054 31.9805C114.319 31.7695 114.516 31.4922 114.644 31.1484C114.771 30.8047 114.835 30.4323 114.835 30.0312C114.835 29.6302 114.771 29.2565 114.644 28.9102C114.516 28.5638 114.319 28.2839 114.054 28.0703C113.788 27.8568 113.45 27.75 113.038 27.75C112.627 27.75 112.288 27.8568 112.022 28.0703C111.757 28.2839 111.56 28.5638 111.433 28.9102C111.305 29.2565 111.241 29.6302 111.241 30.0312C111.241 30.4323 111.305 30.8047 111.433 31.1484C111.56 31.4922 111.757 31.7695 112.022 31.9805C112.288 32.1914 112.627 32.2969 113.038 32.2969ZM117.164 33V27H118.055V27.9375H118.133C118.258 27.6172 118.46 27.3685 118.738 27.1914C119.017 27.0117 119.352 26.9219 119.742 26.9219C120.138 26.9219 120.467 27.0117 120.73 27.1914C120.996 27.3685 121.203 27.6172 121.352 27.9375H121.414C121.568 27.6276 121.798 27.3815 122.105 27.1992C122.413 27.0143 122.781 26.9219 123.211 26.9219C123.747 26.9219 124.186 27.0898 124.527 27.4258C124.868 27.7591 125.039 28.2786 125.039 28.9844V33H124.117V28.9844C124.117 28.5417 123.996 28.2253 123.754 28.0352C123.512 27.8451 123.227 27.75 122.898 27.75C122.477 27.75 122.15 27.8776 121.918 28.1328C121.686 28.3854 121.57 28.7057 121.57 29.0937V33H120.633V28.8906C120.633 28.5495 120.522 28.2747 120.301 28.0664C120.079 27.8555 119.794 27.75 119.445 27.75C119.206 27.75 118.982 27.8138 118.773 27.9414C118.568 28.069 118.401 28.2461 118.273 28.4727C118.148 28.6966 118.086 28.9557 118.086 29.25V33H117.164ZM128.49 33.1406C128.11 33.1406 127.765 33.069 127.455 32.9258C127.145 32.7799 126.899 32.5703 126.717 32.2969C126.535 32.0208 126.443 31.6875 126.443 31.2969C126.443 30.9531 126.511 30.6745 126.646 30.4609C126.782 30.2448 126.963 30.0755 127.189 29.9531C127.416 29.8307 127.666 29.7396 127.939 29.6797C128.215 29.6172 128.493 29.5677 128.771 29.5313C129.136 29.4844 129.432 29.4492 129.658 29.4258C129.887 29.3997 130.054 29.3568 130.158 29.2969C130.265 29.237 130.318 29.1328 130.318 28.9844V28.9531C130.318 28.5677 130.213 28.2682 130.002 28.0547C129.794 27.8411 129.477 27.7344 129.053 27.7344C128.613 27.7344 128.268 27.8307 128.018 28.0234C127.768 28.2161 127.592 28.4219 127.49 28.6406L126.615 28.3281C126.771 27.9635 126.98 27.6797 127.24 27.4766C127.503 27.2708 127.79 27.1276 128.1 27.0469C128.412 26.9635 128.719 26.9219 129.021 26.9219C129.214 26.9219 129.436 26.9453 129.686 26.9922C129.938 27.0365 130.182 27.1289 130.416 27.2695C130.653 27.4102 130.85 27.6224 131.006 27.9062C131.162 28.1901 131.24 28.5703 131.24 29.0469V33H130.318V32.1875H130.271C130.209 32.3177 130.105 32.457 129.959 32.6055C129.813 32.7539 129.619 32.8802 129.377 32.9844C129.135 33.0885 128.839 33.1406 128.49 33.1406ZM128.631 32.3125C128.995 32.3125 129.303 32.2409 129.553 32.0977C129.805 31.9544 129.995 31.7695 130.123 31.543C130.253 31.3164 130.318 31.0781 130.318 30.8281V29.9844C130.279 30.0312 130.193 30.0742 130.061 30.1133C129.93 30.1497 129.779 30.1823 129.607 30.2109C129.438 30.237 129.273 30.2604 129.111 30.2812C128.952 30.2995 128.824 30.3151 128.725 30.3281C128.485 30.3594 128.261 30.4102 128.053 30.4805C127.847 30.5482 127.68 30.651 127.553 30.7891C127.428 30.9245 127.365 31.1094 127.365 31.3437C127.365 31.6641 127.484 31.9062 127.721 32.0703C127.96 32.2318 128.264 32.3125 128.631 32.3125ZM135.36 33.125C134.798 33.125 134.313 32.9922 133.907 32.7266C133.501 32.4609 133.188 32.0951 132.97 31.6289C132.751 31.1628 132.642 30.6302 132.642 30.0312C132.642 29.4219 132.754 28.8841 132.978 28.418C133.204 27.9492 133.519 27.5833 133.923 27.3203C134.329 27.0547 134.803 26.9219 135.345 26.9219C135.767 26.9219 136.147 27 136.485 27.1562C136.824 27.3125 137.101 27.5312 137.317 27.8125C137.534 28.0937 137.668 28.4219 137.72 28.7969H136.798C136.728 28.5234 136.571 28.2812 136.329 28.0703C136.09 27.8568 135.767 27.75 135.36 27.75C135.001 27.75 134.686 27.8437 134.415 28.0312C134.147 28.2161 133.937 28.4779 133.786 28.8164C133.638 29.1523 133.563 29.5469 133.563 30C133.563 30.4635 133.636 30.8672 133.782 31.2109C133.931 31.5547 134.139 31.8216 134.407 32.0117C134.678 32.2018 134.996 32.2969 135.36 32.2969C135.6 32.2969 135.817 32.2552 136.013 32.1719C136.208 32.0885 136.373 31.9688 136.509 31.8125C136.644 31.6562 136.741 31.4687 136.798 31.25H137.72C137.668 31.6042 137.539 31.9232 137.333 32.207C137.13 32.4883 136.86 32.7122 136.524 32.8789C136.191 33.043 135.803 33.125 135.36 33.125ZM134.923 32.9687H135.688L135.626 33.2813C135.829 33.3125 136.015 33.3971 136.185 33.5352C136.354 33.6758 136.438 33.8984 136.438 34.2031C136.438 34.5391 136.299 34.8125 136.021 35.0234C135.744 35.237 135.337 35.3438 134.798 35.3438L134.767 34.7344C135.009 34.7344 135.209 34.6953 135.368 34.6172C135.53 34.5417 135.61 34.4141 135.61 34.2344C135.61 34.0547 135.544 33.9323 135.411 33.8672C135.278 33.8021 135.063 33.7578 134.767 33.7344L134.923 32.9687ZM140.833 33.1406C140.453 33.1406 140.108 33.069 139.798 32.9258C139.488 32.7799 139.242 32.5703 139.06 32.2969C138.877 32.0208 138.786 31.6875 138.786 31.2969C138.786 30.9531 138.854 30.6745 138.989 30.4609C139.125 30.2448 139.306 30.0755 139.532 29.9531C139.759 29.8307 140.009 29.7396 140.282 29.6797C140.558 29.6172 140.836 29.5677 141.114 29.5313C141.479 29.4844 141.774 29.4492 142.001 29.4258C142.23 29.3997 142.397 29.3568 142.501 29.2969C142.608 29.237 142.661 29.1328 142.661 28.9844V28.9531C142.661 28.5677 142.556 28.2682 142.345 28.0547C142.136 27.8411 141.82 27.7344 141.396 27.7344C140.955 27.7344 140.61 27.8307 140.36 28.0234C140.11 28.2161 139.935 28.4219 139.833 28.6406L138.958 28.3281C139.114 27.9635 139.323 27.6797 139.583 27.4766C139.846 27.2708 140.132 27.1276 140.442 27.0469C140.755 26.9635 141.062 26.9219 141.364 26.9219C141.557 26.9219 141.778 26.9453 142.028 26.9922C142.281 27.0365 142.524 27.1289 142.759 27.2695C142.996 27.4102 143.192 27.6224 143.349 27.9062C143.505 28.1901 143.583 28.5703 143.583 29.0469V33H142.661V32.1875H142.614C142.552 32.3177 142.448 32.457 142.302 32.6055C142.156 32.7539 141.962 32.8802 141.72 32.9844C141.478 33.0885 141.182 33.1406 140.833 33.1406ZM140.974 32.3125C141.338 32.3125 141.646 32.2409 141.896 32.0977C142.148 31.9544 142.338 31.7695 142.466 31.543C142.596 31.3164 142.661 31.0781 142.661 30.8281V29.9844C142.622 30.0312 142.536 30.0742 142.403 30.1133C142.273 30.1497 142.122 30.1823 141.95 30.2109C141.781 30.237 141.616 30.2604 141.454 30.2812C141.295 30.2995 141.166 30.3151 141.067 30.3281C140.828 30.3594 140.604 30.4102 140.396 30.4805C140.19 30.5482 140.023 30.651 139.896 30.7891C139.771 30.9245 139.708 31.1094 139.708 31.3437C139.708 31.6641 139.826 31.9062 140.063 32.0703C140.303 32.2318 140.606 32.3125 140.974 32.3125ZM140.224 26.2812L139.505 26.25C139.505 25.8516 139.618 25.526 139.845 25.2734C140.074 25.0182 140.356 24.8906 140.692 24.8906C140.841 24.8906 140.972 24.9167 141.087 24.9687C141.201 25.0182 141.311 25.0755 141.415 25.1406C141.519 25.2057 141.626 25.2643 141.735 25.3164C141.847 25.3659 141.974 25.3906 142.114 25.3906C142.263 25.3906 142.388 25.3333 142.489 25.2187C142.593 25.1016 142.646 24.9609 142.646 24.7969L143.349 24.8594C143.349 25.2656 143.234 25.5885 143.005 25.8281C142.778 26.0677 142.497 26.1875 142.161 26.1875C141.981 26.1875 141.833 26.1628 141.716 26.1133C141.599 26.0612 141.494 26.0026 141.403 25.9375C141.312 25.8724 141.216 25.8151 141.114 25.7656C141.013 25.7135 140.888 25.6875 140.739 25.6875C140.591 25.6875 140.467 25.7461 140.368 25.8633C140.272 25.9779 140.224 26.1172 140.224 26.2812ZM147.703 33.125C147.161 33.125 146.686 32.9961 146.277 32.7383C145.871 32.4805 145.553 32.1198 145.324 31.6562C145.098 31.1927 144.984 30.651 144.984 30.0312C144.984 29.4062 145.098 28.8607 145.324 28.3945C145.553 27.9284 145.871 27.5664 146.277 27.3086C146.686 27.0508 147.161 26.9219 147.703 26.9219C148.245 26.9219 148.719 27.0508 149.125 27.3086C149.534 27.5664 149.852 27.9284 150.078 28.3945C150.307 28.8607 150.422 29.4062 150.422 30.0312C150.422 30.651 150.307 31.1927 150.078 31.6562C149.852 32.1198 149.534 32.4805 149.125 32.7383C148.719 32.9961 148.245 33.125 147.703 33.125ZM147.703 32.2969C148.115 32.2969 148.453 32.1914 148.719 31.9805C148.984 31.7695 149.181 31.4922 149.309 31.1484C149.436 30.8047 149.5 30.4323 149.5 30.0312C149.5 29.6302 149.436 29.2565 149.309 28.9102C149.181 28.5638 148.984 28.2839 148.719 28.0703C148.453 27.8568 148.115 27.75 147.703 27.75C147.292 27.75 146.953 27.8568 146.688 28.0703C146.422 28.2839 146.225 28.5638 146.098 28.9102C145.97 29.2565 145.906 29.6302 145.906 30.0312C145.906 30.4323 145.97 30.8047 146.098 31.1484C146.225 31.4922 146.422 31.7695 146.688 31.9805C146.953 32.1914 147.292 32.2969 147.703 32.2969ZM157.188 33.125C156.688 33.125 156.247 32.9987 155.864 32.7461C155.481 32.4909 155.182 32.1315 154.966 31.668C154.75 31.2018 154.642 30.651 154.642 30.0156C154.642 29.3854 154.75 28.8385 154.966 28.375C155.182 27.9115 155.483 27.5534 155.868 27.3008C156.254 27.0482 156.699 26.9219 157.204 26.9219C157.595 26.9219 157.903 26.987 158.13 27.1172C158.359 27.2448 158.534 27.3906 158.653 27.5547C158.776 27.7161 158.871 27.849 158.938 27.9531H159.017V25H159.938V33H159.048V32.0781H158.938C158.871 32.1875 158.774 32.3255 158.649 32.4922C158.524 32.6562 158.346 32.8034 158.114 32.9336C157.882 33.0612 157.574 33.125 157.188 33.125ZM157.313 32.2969C157.683 32.2969 157.996 32.2005 158.251 32.0078C158.506 31.8125 158.7 31.543 158.833 31.1992C158.966 30.8529 159.032 30.4531 159.032 30C159.032 29.5521 158.967 29.1602 158.837 28.8242C158.707 28.4857 158.514 28.2227 158.259 28.0352C158.004 27.8451 157.688 27.75 157.313 27.75C156.923 27.75 156.597 27.8503 156.337 28.0508C156.079 28.2487 155.885 28.5182 155.755 28.8594C155.627 29.1979 155.563 29.5781 155.563 30C155.563 30.4271 155.629 30.8151 155.759 31.1641C155.892 31.5104 156.087 31.7865 156.345 31.9922C156.605 32.1953 156.928 32.2969 157.313 32.2969ZM164.271 33.125C163.692 33.125 163.194 32.9974 162.774 32.7422C162.358 32.4844 162.036 32.125 161.81 31.6641C161.586 31.2005 161.474 30.6615 161.474 30.0469C161.474 29.4323 161.586 28.8906 161.81 28.4219C162.036 27.9505 162.351 27.5833 162.755 27.3203C163.161 27.0547 163.635 26.9219 164.177 26.9219C164.489 26.9219 164.798 26.974 165.103 27.0781C165.407 27.1823 165.685 27.3516 165.935 27.5859C166.185 27.8177 166.384 28.125 166.532 28.5078C166.681 28.8906 166.755 29.362 166.755 29.9219V30.3125H162.13V29.5156H165.817C165.817 29.1771 165.75 28.875 165.614 28.6094C165.481 28.3437 165.291 28.1341 165.044 27.9805C164.799 27.8268 164.51 27.75 164.177 27.75C163.81 27.75 163.492 27.8411 163.224 28.0234C162.958 28.2031 162.754 28.4375 162.61 28.7266C162.467 29.0156 162.396 29.3255 162.396 29.6562V30.1875C162.396 30.6406 162.474 31.0247 162.63 31.3398C162.789 31.6523 163.009 31.8906 163.29 32.0547C163.571 32.2161 163.898 32.2969 164.271 32.2969C164.513 32.2969 164.731 32.263 164.927 32.1953C165.125 32.125 165.295 32.0208 165.438 31.8828C165.582 31.7422 165.692 31.5677 165.771 31.3594L166.661 31.6094C166.567 31.9115 166.41 32.1771 166.188 32.4062C165.967 32.6328 165.694 32.8099 165.368 32.9375C165.043 33.0625 164.677 33.125 164.271 33.125ZM173.86 27V27.7812H170.751V27H173.86ZM171.657 25.5625H172.579V31.2812C172.579 31.5417 172.617 31.737 172.692 31.8672C172.771 31.9948 172.869 32.0807 172.989 32.125C173.112 32.1667 173.241 32.1875 173.376 32.1875C173.478 32.1875 173.561 32.1823 173.626 32.1719C173.691 32.1589 173.743 32.1484 173.782 32.1406L173.97 32.9687C173.907 32.9922 173.82 33.0156 173.708 33.0391C173.596 33.0651 173.454 33.0781 173.282 33.0781C173.022 33.0781 172.767 33.0221 172.517 32.9102C172.269 32.7982 172.063 32.6276 171.899 32.3984C171.738 32.1693 171.657 31.8802 171.657 31.5312V25.5625ZM177.698 33.125C177.12 33.125 176.621 32.9974 176.202 32.7422C175.785 32.4844 175.464 32.125 175.237 31.6641C175.013 31.2005 174.901 30.6615 174.901 30.0469C174.901 29.4323 175.013 28.8906 175.237 28.4219C175.464 27.9505 175.779 27.5833 176.183 27.3203C176.589 27.0547 177.063 26.9219 177.604 26.9219C177.917 26.9219 178.226 26.974 178.53 27.0781C178.835 27.1823 179.112 27.3516 179.362 27.5859C179.612 27.8177 179.812 28.125 179.96 28.5078C180.108 28.8906 180.183 29.362 180.183 29.9219V30.3125H175.558V29.5156H179.245C179.245 29.1771 179.177 28.875 179.042 28.6094C178.909 28.3437 178.719 28.1341 178.472 27.9805C178.227 27.8268 177.938 27.75 177.604 27.75C177.237 27.75 176.92 27.8411 176.651 28.0234C176.386 28.2031 176.181 28.4375 176.038 28.7266C175.895 29.0156 175.823 29.3255 175.823 29.6562V30.1875C175.823 30.6406 175.901 31.0247 176.058 31.3398C176.216 31.6523 176.437 31.8906 176.718 32.0547C176.999 32.2161 177.326 32.2969 177.698 32.2969C177.94 32.2969 178.159 32.263 178.354 32.1953C178.552 32.125 178.723 32.0208 178.866 31.8828C179.009 31.7422 179.12 31.5677 179.198 31.3594L180.089 31.6094C179.995 31.9115 179.838 32.1771 179.616 32.4062C179.395 32.6328 179.121 32.8099 178.796 32.9375C178.47 33.0625 178.104 33.125 177.698 33.125ZM185.835 28.3437L185.007 28.5781C184.955 28.4401 184.878 28.306 184.776 28.1758C184.677 28.043 184.542 27.9336 184.37 27.8477C184.198 27.7617 183.978 27.7187 183.71 27.7187C183.343 27.7187 183.037 27.8034 182.792 27.9727C182.55 28.1393 182.429 28.3516 182.429 28.6094C182.429 28.8385 182.512 29.0195 182.679 29.1523C182.845 29.2852 183.106 29.3958 183.46 29.4844L184.351 29.7031C184.887 29.8333 185.287 30.0326 185.55 30.3008C185.813 30.5664 185.944 30.9089 185.944 31.3281C185.944 31.6719 185.845 31.9792 185.647 32.25C185.452 32.5208 185.179 32.7344 184.827 32.8906C184.476 33.0469 184.067 33.125 183.601 33.125C182.989 33.125 182.482 32.9922 182.081 32.7266C181.68 32.4609 181.426 32.0729 181.319 31.5625L182.194 31.3437C182.278 31.6667 182.435 31.9089 182.667 32.0703C182.901 32.2318 183.207 32.3125 183.585 32.3125C184.015 32.3125 184.356 32.2214 184.608 32.0391C184.864 31.8542 184.991 31.6328 184.991 31.375C184.991 31.1667 184.918 30.9922 184.772 30.8516C184.627 30.7083 184.403 30.6016 184.101 30.5312L183.101 30.2969C182.551 30.1667 182.147 29.9648 181.89 29.6914C181.634 29.4154 181.507 29.0703 181.507 28.6562C181.507 28.3177 181.602 28.0182 181.792 27.7578C181.985 27.4974 182.246 27.293 182.577 27.1445C182.91 26.9961 183.288 26.9219 183.71 26.9219C184.304 26.9219 184.77 27.0521 185.108 27.3125C185.45 27.5729 185.692 27.9167 185.835 28.3437ZM189.941 27V27.7812H186.832V27H189.941ZM187.738 25.5625H188.66V31.2812C188.66 31.5417 188.698 31.737 188.773 31.8672C188.852 31.9948 188.951 32.0807 189.07 32.125C189.193 32.1667 189.322 32.1875 189.457 32.1875C189.559 32.1875 189.642 32.1823 189.707 32.1719C189.772 32.1589 189.824 32.1484 189.863 32.1406L190.051 32.9687C189.988 32.9922 189.901 33.0156 189.789 33.0391C189.677 33.0651 189.535 33.0781 189.363 33.0781C189.103 33.0781 188.848 33.0221 188.598 32.9102C188.35 32.7982 188.145 32.6276 187.98 32.3984C187.819 32.1693 187.738 31.8802 187.738 31.5312V25.5625ZM193.779 33.125C193.201 33.125 192.702 32.9974 192.283 32.7422C191.867 32.4844 191.545 32.125 191.318 31.6641C191.094 31.2005 190.982 30.6615 190.982 30.0469C190.982 29.4323 191.094 28.8906 191.318 28.4219C191.545 27.9505 191.86 27.5833 192.264 27.3203C192.67 27.0547 193.144 26.9219 193.686 26.9219C193.998 26.9219 194.307 26.974 194.611 27.0781C194.916 27.1823 195.193 27.3516 195.443 27.5859C195.693 27.8177 195.893 28.125 196.041 28.5078C196.189 28.8906 196.264 29.362 196.264 29.9219V30.3125H191.639V29.5156H195.326C195.326 29.1771 195.258 28.875 195.123 28.6094C194.99 28.3437 194.8 28.1341 194.553 27.9805C194.308 27.8268 194.019 27.75 193.686 27.75C193.318 27.75 193.001 27.8411 192.732 28.0234C192.467 28.2031 192.262 28.4375 192.119 28.7266C191.976 29.0156 191.904 29.3255 191.904 29.6562V30.1875C191.904 30.6406 191.982 31.0247 192.139 31.3398C192.298 31.6523 192.518 31.8906 192.799 32.0547C193.08 32.2161 193.407 32.2969 193.779 32.2969C194.021 32.2969 194.24 32.263 194.436 32.1953C194.633 32.125 194.804 32.0208 194.947 31.8828C195.09 31.7422 195.201 31.5677 195.279 31.3594L196.17 31.6094C196.076 31.9115 195.919 32.1771 195.697 32.4062C195.476 32.6328 195.202 32.8099 194.877 32.9375C194.551 33.0625 194.186 33.125 193.779 33.125ZM201.213 33H200.197L203.135 25H204.135L207.072 33H206.057L203.666 26.2656H203.604L201.213 33ZM201.588 29.875H205.682V30.7344H201.588V29.875ZM208.318 33V25H211.021C211.649 25 212.162 25.1133 212.561 25.3398C212.962 25.5638 213.258 25.8672 213.451 26.25C213.644 26.6328 213.74 27.0599 213.74 27.5312C213.74 28.0026 213.644 28.431 213.451 28.8164C213.261 29.2018 212.967 29.5091 212.568 29.7383C212.17 29.9648 211.66 30.0781 211.037 30.0781H209.1V29.2188H211.006C211.436 29.2188 211.781 29.1445 212.041 28.9961C212.301 28.8477 212.49 28.6471 212.607 28.3945C212.727 28.1393 212.787 27.8516 212.787 27.5312C212.787 27.2109 212.727 26.9245 212.607 26.6719C212.49 26.4193 212.3 26.2214 212.037 26.0781C211.774 25.9323 211.425 25.8594 210.99 25.8594H209.287V33H208.318ZM216.27 25V33H215.301V25H216.27ZM221.306 33V25H224.009C224.634 25 225.147 25.1068 225.548 25.3203C225.949 25.5312 226.246 25.8216 226.438 26.1914C226.631 26.5612 226.728 26.9818 226.728 27.4531C226.728 27.9245 226.631 28.3424 226.438 28.707C226.246 29.0716 225.95 29.3581 225.552 29.5664C225.153 29.7721 224.644 29.875 224.024 29.875H221.837V29H223.993C224.42 29 224.764 28.9375 225.024 28.8125C225.287 28.6875 225.478 28.5104 225.595 28.2812C225.715 28.0495 225.774 27.7734 225.774 27.4531C225.774 27.1328 225.715 26.8529 225.595 26.6133C225.475 26.3737 225.284 26.1888 225.021 26.0586C224.757 25.9258 224.41 25.8594 223.978 25.8594H222.274V33H221.306ZM225.071 29.4062L227.04 33H225.915L223.978 29.4062H225.071ZM230.668 33.125C230.09 33.125 229.591 32.9974 229.172 32.7422C228.755 32.4844 228.434 32.125 228.207 31.6641C227.983 31.2005 227.871 30.6615 227.871 30.0469C227.871 29.4323 227.983 28.8906 228.207 28.4219C228.434 27.9505 228.749 27.5833 229.152 27.3203C229.559 27.0547 230.033 26.9219 230.574 26.9219C230.887 26.9219 231.195 26.974 231.5 27.0781C231.805 27.1823 232.082 27.3516 232.332 27.5859C232.582 27.8177 232.781 28.125 232.93 28.5078C233.078 28.8906 233.152 29.362 233.152 29.9219V30.3125H228.527V29.5156H232.215C232.215 29.1771 232.147 28.875 232.012 28.6094C231.879 28.3437 231.689 28.1341 231.441 27.9805C231.197 27.8268 230.908 27.75 230.574 27.75C230.207 27.75 229.889 27.8411 229.621 28.0234C229.355 28.2031 229.151 28.4375 229.008 28.7266C228.865 29.0156 228.793 29.3255 228.793 29.6562V30.1875C228.793 30.6406 228.871 31.0247 229.027 31.3398C229.186 31.6523 229.406 31.8906 229.688 32.0547C229.969 32.2161 230.296 32.2969 230.668 32.2969C230.91 32.2969 231.129 32.263 231.324 32.1953C231.522 32.125 231.693 32.0208 231.836 31.8828C231.979 31.7422 232.09 31.5677 232.168 31.3594L233.059 31.6094C232.965 31.9115 232.807 32.1771 232.586 32.4062C232.365 32.6328 232.091 32.8099 231.766 32.9375C231.44 33.0625 231.074 33.125 230.668 33.125ZM238.805 28.3437L237.977 28.5781C237.924 28.4401 237.848 28.306 237.746 28.1758C237.647 28.043 237.512 27.9336 237.34 27.8477C237.168 27.7617 236.948 27.7187 236.68 27.7187C236.313 27.7187 236.007 27.8034 235.762 27.9727C235.52 28.1393 235.398 28.3516 235.398 28.6094C235.398 28.8385 235.482 29.0195 235.648 29.1523C235.815 29.2852 236.076 29.3958 236.43 29.4844L237.32 29.7031C237.857 29.8333 238.257 30.0326 238.52 30.3008C238.783 30.5664 238.914 30.9089 238.914 31.3281C238.914 31.6719 238.815 31.9792 238.617 32.25C238.422 32.5208 238.148 32.7344 237.797 32.8906C237.445 33.0469 237.036 33.125 236.57 33.125C235.958 33.125 235.452 32.9922 235.051 32.7266C234.65 32.4609 234.396 32.0729 234.289 31.5625L235.164 31.3437C235.247 31.6667 235.405 31.9089 235.637 32.0703C235.871 32.2318 236.177 32.3125 236.555 32.3125C236.984 32.3125 237.326 32.2214 237.578 32.0391C237.833 31.8542 237.961 31.6328 237.961 31.375C237.961 31.1667 237.888 30.9922 237.742 30.8516C237.596 30.7083 237.372 30.6016 237.07 30.5312L236.07 30.2969C235.521 30.1667 235.117 29.9648 234.859 29.6914C234.604 29.4154 234.477 29.0703 234.477 28.6562C234.477 28.3177 234.572 28.0182 234.762 27.7578C234.954 27.4974 235.216 27.293 235.547 27.1445C235.88 26.9961 236.258 26.9219 236.68 26.9219C237.273 26.9219 237.74 27.0521 238.078 27.3125C238.419 27.5729 238.661 27.9167 238.805 28.3437ZM242.911 27V27.7812H239.802V27H242.911ZM240.708 25.5625H241.63V31.2812C241.63 31.5417 241.668 31.737 241.743 31.8672C241.821 31.9948 241.92 32.0807 242.04 32.125C242.162 32.1667 242.291 32.1875 242.427 32.1875C242.528 32.1875 242.612 32.1823 242.677 32.1719C242.742 32.1589 242.794 32.1484 242.833 32.1406L243.021 32.9687C242.958 32.9922 242.871 33.0156 242.759 33.0391C242.647 33.0651 242.505 33.0781 242.333 33.0781C242.073 33.0781 241.817 33.0221 241.567 32.9102C241.32 32.7982 241.114 32.6276 240.95 32.3984C240.789 32.1693 240.708 31.8802 240.708 31.5312V25.5625Z" fill="black"/>
<path d="M253.179 66.7273L255.338 72.8494H255.423L257.582 66.7273H258.506L255.835 74H254.926L252.256 66.7273H253.179ZM261.304 74.1136C260.778 74.1136 260.325 73.9976 259.944 73.7656C259.565 73.5312 259.273 73.2045 259.067 72.7855C258.863 72.3641 258.761 71.8741 258.761 71.3153C258.761 70.7566 258.863 70.2642 259.067 69.8381C259.273 69.4096 259.559 69.0758 259.926 68.8366C260.295 68.5952 260.726 68.4744 261.219 68.4744C261.503 68.4744 261.783 68.5218 262.06 68.6165C262.337 68.7112 262.589 68.8651 262.817 69.0781C263.044 69.2888 263.225 69.5682 263.36 69.9162C263.495 70.2642 263.562 70.6927 263.562 71.2017V71.5568H259.358V70.8324H262.71C262.71 70.5246 262.649 70.25 262.526 70.0085C262.405 69.767 262.232 69.5765 262.007 69.4368C261.785 69.2971 261.522 69.2273 261.219 69.2273C260.885 69.2273 260.596 69.3101 260.352 69.4759C260.111 69.6392 259.925 69.8523 259.795 70.1151C259.665 70.3778 259.599 70.6596 259.599 70.9602V71.4432C259.599 71.8551 259.67 72.2043 259.812 72.4908C259.957 72.7749 260.157 72.9915 260.413 73.1406C260.668 73.2874 260.965 73.3608 261.304 73.3608C261.524 73.3608 261.723 73.33 261.901 73.2685C262.08 73.2045 262.236 73.1098 262.366 72.9844C262.496 72.8565 262.597 72.6979 262.668 72.5085L263.477 72.7358C263.392 73.0104 263.249 73.2519 263.048 73.4602C262.846 73.6662 262.598 73.8272 262.302 73.9432C262.006 74.0568 261.673 74.1136 261.304 74.1136ZM264.837 74V68.5455H265.647V69.3693H265.704C265.803 69.0994 265.983 68.8804 266.244 68.7124C266.504 68.5443 266.798 68.4602 267.124 68.4602C267.186 68.4602 267.263 68.4614 267.355 68.4638C267.447 68.4661 267.517 68.4697 267.565 68.4744V69.3267C267.536 69.3196 267.471 69.3089 267.369 69.2947C267.27 69.2782 267.165 69.2699 267.053 69.2699C266.788 69.2699 266.551 69.3255 266.343 69.4368C266.137 69.5457 265.974 69.6972 265.853 69.8913C265.735 70.0831 265.675 70.3021 265.675 70.5483V74H264.837ZM271.484 66.7273H272.535L275.007 72.7642H275.092L277.564 66.7273H278.615V74H277.791V68.4744H277.72L275.447 74H274.652L272.379 68.4744H272.308V74H271.484V66.7273ZM281.872 74.1278C281.527 74.1278 281.213 74.0627 280.931 73.9325C280.649 73.8 280.426 73.6094 280.26 73.3608C280.094 73.1098 280.011 72.8068 280.011 72.4517C280.011 72.1392 280.073 71.8859 280.196 71.6918C280.319 71.4953 280.484 71.3414 280.69 71.2301C280.896 71.1188 281.123 71.036 281.371 70.9815C281.622 70.9247 281.875 70.8797 282.128 70.8466C282.459 70.804 282.728 70.772 282.934 70.7507C283.142 70.727 283.294 70.688 283.388 70.6335C283.486 70.5791 283.534 70.4844 283.534 70.3494V70.321C283.534 69.9706 283.438 69.6984 283.246 69.5043C283.057 69.3101 282.769 69.2131 282.384 69.2131C281.983 69.2131 281.67 69.3007 281.442 69.4759C281.215 69.651 281.055 69.8381 280.963 70.0369L280.168 69.7528C280.31 69.4214 280.499 69.1634 280.736 68.9787C280.975 68.7917 281.235 68.6615 281.517 68.5881C281.801 68.5123 282.08 68.4744 282.355 68.4744C282.53 68.4744 282.732 68.4957 282.959 68.5384C283.188 68.5786 283.41 68.6626 283.623 68.7905C283.838 68.9183 284.017 69.1113 284.159 69.3693C284.301 69.6274 284.372 69.973 284.372 70.4062V74H283.534V73.2614H283.491C283.435 73.3797 283.34 73.5064 283.207 73.6413C283.075 73.7763 282.898 73.8911 282.678 73.9858C282.458 74.0805 282.189 74.1278 281.872 74.1278ZM282 73.375C282.331 73.375 282.611 73.3099 282.838 73.1797C283.068 73.0495 283.241 72.8814 283.357 72.6754C283.475 72.4695 283.534 72.2528 283.534 72.0256V71.2585C283.499 71.3011 283.42 71.3402 283.3 71.3757C283.181 71.4089 283.044 71.4384 282.888 71.4645C282.734 71.4882 282.584 71.5095 282.437 71.5284C282.292 71.545 282.175 71.5592 282.085 71.571C281.867 71.5994 281.664 71.6456 281.474 71.7095C281.287 71.7711 281.136 71.8646 281.02 71.9901C280.906 72.1132 280.849 72.2812 280.849 72.4943C280.849 72.7855 280.957 73.0057 281.173 73.1548C281.39 73.3016 281.666 73.375 282 73.375ZM285.902 74V68.5455H286.74V74H285.902ZM286.328 67.6364C286.165 67.6364 286.024 67.5807 285.905 67.4695C285.789 67.3582 285.731 67.2244 285.731 67.0682C285.731 66.9119 285.789 66.7782 285.905 66.6669C286.024 66.5556 286.165 66.5 286.328 66.5C286.491 66.5 286.631 66.5556 286.747 66.6669C286.865 66.7782 286.925 66.9119 286.925 67.0682C286.925 67.2244 286.865 67.3582 286.747 67.4695C286.631 67.5807 286.491 67.6364 286.328 67.6364ZM292.138 69.767L291.386 69.9801C291.338 69.8546 291.268 69.7327 291.176 69.6143C291.086 69.4936 290.963 69.3942 290.807 69.3161C290.651 69.2379 290.451 69.1989 290.207 69.1989C289.873 69.1989 289.595 69.2758 289.372 69.4297C289.152 69.5812 289.042 69.7741 289.042 70.0085C289.042 70.2169 289.118 70.3814 289.269 70.5021C289.421 70.6229 289.657 70.7235 289.979 70.804L290.789 71.0028C291.277 71.1212 291.64 71.3023 291.879 71.5462C292.118 71.7876 292.238 72.099 292.238 72.4801C292.238 72.7926 292.148 73.072 291.968 73.3182C291.79 73.5644 291.542 73.7585 291.222 73.9006C290.903 74.0426 290.531 74.1136 290.107 74.1136C289.551 74.1136 289.09 73.9929 288.726 73.7514C288.361 73.5099 288.13 73.1572 288.033 72.6932L288.829 72.4943C288.905 72.7879 289.048 73.008 289.259 73.1548C289.472 73.3016 289.75 73.375 290.093 73.375C290.484 73.375 290.794 73.2921 291.023 73.1264C291.255 72.9583 291.371 72.7571 291.371 72.5227C291.371 72.3333 291.305 72.1747 291.173 72.0469C291.04 71.9167 290.836 71.8196 290.562 71.7557L289.653 71.5426C289.153 71.4242 288.786 71.2408 288.552 70.9922C288.32 70.7412 288.204 70.4276 288.204 70.0511C288.204 69.7434 288.29 69.4711 288.463 69.2344C288.638 68.9976 288.876 68.8118 289.177 68.6768C289.48 68.5419 289.823 68.4744 290.207 68.4744C290.746 68.4744 291.17 68.5928 291.478 68.8295C291.788 69.0663 292.008 69.3788 292.138 69.767Z" fill="#0015FF"/>
<path d="M252 75.9886H292.735V76.6705H252V75.9886Z" fill="#0015FF"/>
<path d="M42.4424 32.4922L61.1318 13.7994L73.0596 25.729L54.3685 44.4201L42.4424 32.4922Z" fill="#CCD6DD"/>
<path d="M45.0724 29.8966L48.3609 27.7042L66.4477 29.8966L68.092 30.9927L66.9958 32.0889L58.7745 40.3102L37.9473 61.6855L33.5626 64.974L31.3703 66.0702L27.5337 65.5221L24.2452 63.3297L22.0529 59.4931V55.6565L23.6971 52.9161L29.726 45.2429L45.0724 29.8966Z" fill="#FABC6B"/>
<path d="M67.5162 30.3161C67.4168 30.9656 63.0147 31.603 57.7645 30.9039C52.516 30.2048 48.371 28.8082 48.5064 27.7853C48.6434 26.7623 53.0078 26.4984 58.258 27.1975C63.5082 27.8967 67.6738 29.2949 67.5162 30.3161ZM36.0628 47.6279C35.9363 47.7542 35.7862 47.8544 35.621 47.9227C35.4558 47.9911 35.2788 48.0262 35.1 48.0261C34.9212 48.0261 34.7442 47.9908 34.5791 47.9223C34.414 47.8538 34.264 47.7535 34.1376 47.627C34.0113 47.5005 33.9111 47.3504 33.8427 47.1852C33.7744 47.02 33.7393 46.843 33.7393 46.6642C33.7394 46.4855 33.7747 46.3085 33.8432 46.1434C33.9117 45.9782 34.012 45.8282 34.1385 45.7019C34.3939 45.4467 34.7402 45.3034 35.1012 45.3036C35.4623 45.3037 35.8084 45.4473 36.0636 45.7027C36.3188 45.9581 36.4621 46.3044 36.4619 46.6655C36.4617 47.0265 36.3182 47.3727 36.0628 47.6279ZM41.7465 52.1087C41.5409 52.3195 41.2955 52.4874 41.0245 52.6026C40.7535 52.7178 40.4623 52.778 40.1679 52.7798C39.8734 52.7816 39.5815 52.7249 39.3092 52.6131C39.0368 52.5012 38.7893 52.3363 38.5812 52.128C38.373 51.9197 38.2083 51.6722 38.0965 51.3998C37.9848 51.1273 37.9282 50.8354 37.9302 50.541C37.9322 50.2465 37.9926 49.9554 38.1079 49.6844C38.2233 49.4135 38.3913 49.1682 38.6022 48.9627C39.0212 48.5545 39.5841 48.3277 40.1691 48.3316C40.754 48.3355 41.3139 48.5697 41.7274 48.9835C42.141 49.3972 42.3748 49.9572 42.3784 50.5422C42.382 51.1271 42.155 51.6899 41.7465 52.1087ZM44.6201 42.9859C44.2217 43.3463 43.7 43.5397 43.163 43.5263C42.626 43.5128 42.1147 43.2935 41.7348 42.9136C41.355 42.5338 41.1357 42.0225 41.1222 41.4855C41.1088 40.9484 41.3022 40.4268 41.6625 40.0284C41.8567 39.8342 42.0873 39.6801 42.341 39.575C42.5947 39.47 42.8667 39.4159 43.1413 39.4159C43.4159 39.4159 43.6879 39.47 43.9416 39.575C44.1953 39.6801 44.4259 39.8342 44.6201 40.0284C44.8143 40.2226 44.9683 40.4531 45.0734 40.7069C45.1785 40.9606 45.2326 41.2325 45.2326 41.5072C45.2326 41.7818 45.1785 42.0537 45.0734 42.3075C44.9683 42.5612 44.8143 42.7917 44.6201 42.9859ZM32.8516 58.1643C32.6161 58.4073 32.3345 58.6011 32.0233 58.7342C31.7122 58.8674 31.3776 58.9373 31.0392 58.9399C30.7007 58.9425 30.3651 58.8777 30.052 58.7493C29.7388 58.621 29.4543 58.4316 29.215 58.1922C28.9757 57.9528 28.7865 57.6682 28.6583 57.355C28.5301 57.0418 28.4655 56.7062 28.4682 56.3677C28.471 56.0293 28.5411 55.6947 28.6744 55.3836C28.8077 55.0725 29.0015 54.7911 29.2447 54.5556C29.7257 54.0897 30.3707 53.8317 31.0404 53.8372C31.71 53.8426 32.3507 54.1112 32.8241 54.5848C33.2976 55.0585 33.5658 55.6993 33.5709 56.3689C33.5761 57.0386 33.3177 57.6834 32.8516 58.1643ZM52.3789 42.4719C52.0387 42.8118 51.5775 43.0027 51.0966 43.0025C50.6157 43.0024 50.1546 42.8112 49.8146 42.471C49.4747 42.1308 49.2838 41.6696 49.284 41.1887C49.2841 40.7078 49.4753 40.2467 49.8155 39.9067C49.9839 39.7384 50.1838 39.6049 50.4039 39.5139C50.6239 39.4228 50.8597 39.376 51.0978 39.3761C51.3359 39.3762 51.5717 39.4231 51.7916 39.5143C52.0116 39.6055 52.2114 39.7392 52.3798 39.9076C52.5481 40.076 52.6816 40.2759 52.7726 40.496C52.8637 40.716 52.9105 40.9518 52.9104 41.1899C52.9103 41.428 52.8634 41.6638 52.7722 41.8837C52.681 42.1037 52.5473 42.3036 52.3789 42.4719ZM50.3107 35.1243C50.2018 35.2406 50.0707 35.3338 49.9251 35.3983C49.7795 35.4629 49.6223 35.4975 49.4631 35.5001C49.3038 35.5027 49.1456 35.4732 48.998 35.4134C48.8504 35.3536 48.7163 35.2647 48.6037 35.152C48.4911 35.0393 48.4024 34.9051 48.3427 34.7574C48.2831 34.6097 48.2537 34.4515 48.2565 34.2923C48.2592 34.133 48.294 33.9759 48.3587 33.8304C48.4234 33.6848 48.5168 33.5538 48.6332 33.445C48.8583 33.2347 49.1563 33.1202 49.4643 33.1255C49.7723 33.1308 50.0662 33.2556 50.2839 33.4735C50.5016 33.6915 50.6261 33.9855 50.6311 34.2935C50.6361 34.6015 50.5212 34.8994 50.3107 35.1243Z" fill="#E44A1B"/>
<path d="M72.8606 26.3099L36.5606 63.3697C33.2145 66.7858 27.7329 66.8426 24.3167 63.4965C20.9008 60.1504 20.8439 54.6687 24.1899 51.2526L60.4899 14.1928L72.8606 26.3099Z" stroke="black" stroke-width="1.6"/>
<path d="M60.9641 13.8176C61.4496 13.4175 62.0978 13.4694 62.5717 13.5842C63.1269 13.7187 63.7611 14.0121 64.423 14.4024C65.7574 15.1894 67.358 16.4631 68.9247 18.0297C70.4913 19.5963 71.7644 21.1962 72.5514 22.5306C72.942 23.1927 73.2359 23.8272 73.3705 24.3826C73.4929 24.888 73.5428 25.591 73.0501 26.084C72.557 26.5771 71.8535 26.5276 71.3479 26.4052C70.7925 26.2707 70.1581 25.9768 69.4959 25.5862C68.1615 24.7993 66.5615 23.5262 64.9949 21.9596C63.4282 20.393 62.1545 18.7925 61.3675 17.4581C60.9771 16.7962 60.6837 16.162 60.5492 15.6068C60.4267 15.1012 60.3764 14.3971 60.8695 13.9039L60.9641 13.8176Z" fill="#CCD6DD" stroke="black" stroke-width="1.5"/>
<defs>
<filter id="filter0_d_73_105" x="0" y="0" width="306" height="91" filterUnits="userSpaceOnUse" color-interpolation-filters="sRGB">
<feFlood flood-opacity="0" result="BackgroundImageFix"/>
<feColorMatrix in="SourceAlpha" type="matrix" values="0 0 0 0 0 0 0 0 0 0 0 0 0 0 0 0 0 0 127 0" result="hardAlpha"/>
<feOffset dy="4"/>
<feGaussianBlur stdDeviation="2"/>
<feComposite in2="hardAlpha" operator="out"/>
<feColorMatrix type="matrix" values="0 0 0 0 0 0 0 0 0 0 0 0 0 0 0 0 0 0 0.25 0"/>
<feBlend mode="normal" in2="BackgroundImageFix" result="effect1_dropShadow_73_105"/>
<feBlend mode="normal" in="SourceGraphic" in2="effect1_dropShadow_73_105" result="shape"/>
</filter>
</defs>
</svg>
