<svg width="306" height="91" viewBox="0 0 306 91" fill="none" xmlns="http://www.w3.org/2000/svg">
<g filter="url(#filter0_d_73_106)">
<rect x="4" width="298" height="83" rx="10" fill="#FCFCFC"/>
</g>
<path d="M97.6037 9.67188C97.5639 9.29972 97.3963 9.00994 97.1009 8.80256C96.8082 8.59517 96.4276 8.49148 95.9588 8.49148C95.6293 8.49148 95.3466 8.54119 95.1108 8.64062C94.875 8.74006 94.6946 8.875 94.5696 9.04545C94.4446 9.21591 94.3807 9.41051 94.3778 9.62926C94.3778 9.81108 94.419 9.96875 94.5014 10.1023C94.5866 10.2358 94.7017 10.3494 94.8466 10.4432C94.9915 10.5341 95.152 10.6108 95.3281 10.6733C95.5043 10.7358 95.6818 10.7884 95.8608 10.831L96.679 11.0355C97.0085 11.1122 97.3253 11.2159 97.6293 11.3466C97.9361 11.4773 98.2102 11.642 98.4517 11.8409C98.696 12.0398 98.8892 12.2798 99.0312 12.5611C99.1733 12.8423 99.2443 13.1719 99.2443 13.5497C99.2443 14.0611 99.1136 14.5114 98.8523 14.9006C98.5909 15.2869 98.2131 15.5895 97.7188 15.8082C97.2273 16.0241 96.6321 16.1321 95.9332 16.1321C95.2543 16.1321 94.6648 16.027 94.1648 15.8168C93.6676 15.6065 93.2784 15.2997 92.9972 14.8963C92.7188 14.4929 92.5682 14.0014 92.5455 13.4219H94.1009C94.1236 13.7259 94.2173 13.9787 94.3821 14.1804C94.5469 14.3821 94.7614 14.5327 95.0256 14.6321C95.2926 14.7315 95.5909 14.7812 95.9205 14.7812C96.2642 14.7812 96.5653 14.7301 96.8239 14.6278C97.0852 14.5227 97.2898 14.3778 97.4375 14.1932C97.5852 14.0057 97.6605 13.7869 97.6634 13.5369C97.6605 13.3097 97.5938 13.1222 97.4631 12.9744C97.3324 12.8239 97.1491 12.6989 96.9134 12.5994C96.6804 12.4972 96.4077 12.4062 96.0952 12.3267L95.1023 12.071C94.3835 11.8864 93.8153 11.6065 93.3977 11.2315C92.983 10.8537 92.7756 10.3523 92.7756 9.72727C92.7756 9.21307 92.9148 8.76278 93.1932 8.37642C93.4744 7.99006 93.8565 7.69034 94.3395 7.47727C94.8224 7.26136 95.3693 7.15341 95.9801 7.15341C96.5994 7.15341 97.142 7.26136 97.608 7.47727C98.0767 7.69034 98.4446 7.98722 98.7116 8.3679C98.9787 8.74574 99.1165 9.1804 99.125 9.67188H97.6037ZM102.469 16.1321C102.054 16.1321 101.681 16.0582 101.348 15.9105C101.019 15.7599 100.757 15.5384 100.564 15.2457C100.374 14.9531 100.279 14.5923 100.279 14.1634C100.279 13.794 100.347 13.4886 100.483 13.2472C100.62 13.0057 100.806 12.8125 101.042 12.6676C101.277 12.5227 101.543 12.4134 101.838 12.3395C102.137 12.2628 102.445 12.2074 102.763 12.1733C103.147 12.1335 103.458 12.098 103.696 12.0668C103.935 12.0327 104.108 11.9815 104.216 11.9134C104.327 11.8423 104.382 11.733 104.382 11.5852V11.5597C104.382 11.2386 104.287 10.9901 104.097 10.8139C103.907 10.6378 103.632 10.5497 103.275 10.5497C102.897 10.5497 102.597 10.6321 102.375 10.7969C102.157 10.9616 102.009 11.1562 101.932 11.3807L100.492 11.1761C100.605 10.7784 100.793 10.446 101.054 10.179C101.316 9.90909 101.635 9.70739 102.013 9.57386C102.391 9.4375 102.809 9.36932 103.266 9.36932C103.581 9.36932 103.895 9.40625 104.208 9.48011C104.52 9.55398 104.806 9.67614 105.064 9.84659C105.323 10.0142 105.53 10.2429 105.686 10.5327C105.846 10.8224 105.925 11.1847 105.925 11.6193V16H104.442V15.1009H104.391C104.297 15.2827 104.165 15.4531 103.995 15.6122C103.827 15.7685 103.615 15.8949 103.36 15.9915C103.107 16.0852 102.81 16.1321 102.469 16.1321ZM102.87 14.9986C103.179 14.9986 103.448 14.9375 103.675 14.8153C103.902 14.6903 104.077 14.5256 104.199 14.321C104.324 14.1165 104.387 13.8935 104.387 13.652V12.8807C104.338 12.9205 104.256 12.9574 104.14 12.9915C104.026 13.0256 103.898 13.0554 103.756 13.081C103.614 13.1065 103.473 13.1293 103.334 13.1491C103.195 13.169 103.074 13.1861 102.972 13.2003C102.742 13.2315 102.536 13.2827 102.354 13.3537C102.172 13.4247 102.029 13.5241 101.924 13.652C101.819 13.777 101.766 13.9389 101.766 14.1378C101.766 14.4219 101.87 14.6364 102.077 14.7812C102.284 14.9261 102.549 14.9986 102.87 14.9986ZM111.648 13.2472V9.45455H113.191V16H111.695V14.8366H111.627C111.479 15.2031 111.236 15.5028 110.898 15.7358C110.563 15.9687 110.15 16.0852 109.658 16.0852C109.229 16.0852 108.85 15.9901 108.52 15.7997C108.194 15.6065 107.938 15.3267 107.753 14.9602C107.569 14.5909 107.476 14.1449 107.476 13.6222V9.45455H109.019V13.3835C109.019 13.7983 109.132 14.1278 109.36 14.3722C109.587 14.6165 109.885 14.7386 110.255 14.7386C110.482 14.7386 110.702 14.6832 110.915 14.5724C111.128 14.4616 111.303 14.2969 111.439 14.0781C111.578 13.8565 111.648 13.5795 111.648 13.2472ZM117.206 16.1151C116.692 16.1151 116.232 15.983 115.825 15.7188C115.419 15.4545 115.098 15.071 114.862 14.5682C114.626 14.0653 114.509 13.4545 114.509 12.7358C114.509 12.0085 114.628 11.3949 114.866 10.8949C115.108 10.392 115.433 10.0128 115.842 9.7571C116.251 9.49858 116.707 9.36932 117.21 9.36932C117.594 9.36932 117.909 9.43466 118.156 9.56534C118.403 9.69318 118.599 9.84801 118.744 10.0298C118.889 10.2088 119.001 10.3778 119.081 10.5369H119.145V7.27273H120.692V16H119.175V14.9688H119.081C119.001 15.1278 118.886 15.2969 118.736 15.4759C118.585 15.652 118.386 15.8026 118.139 15.9276C117.892 16.0526 117.581 16.1151 117.206 16.1151ZM117.636 14.8494C117.963 14.8494 118.241 14.7614 118.472 14.5852C118.702 14.4062 118.876 14.1577 118.996 13.8395C119.115 13.5213 119.175 13.1506 119.175 12.7273C119.175 12.304 119.115 11.9361 118.996 11.6236C118.879 11.3111 118.706 11.0682 118.476 10.8949C118.249 10.7216 117.969 10.6349 117.636 10.6349C117.293 10.6349 117.006 10.7244 116.776 10.9034C116.545 11.0824 116.372 11.3295 116.256 11.6449C116.139 11.9602 116.081 12.321 116.081 12.7273C116.081 13.1364 116.139 13.5014 116.256 13.8224C116.375 14.1406 116.55 14.392 116.78 14.5767C117.013 14.7585 117.298 14.8494 117.636 14.8494ZM125.233 16.1278C124.577 16.1278 124.01 15.9915 123.533 15.7188C123.059 15.4432 122.694 15.054 122.438 14.5511C122.182 14.0455 122.054 13.4503 122.054 12.7656C122.054 12.0923 122.182 11.5014 122.438 10.9929C122.696 10.4815 123.057 10.0838 123.52 9.79972C123.983 9.51278 124.527 9.36932 125.152 9.36932C125.556 9.36932 125.936 9.43466 126.294 9.56534C126.655 9.69318 126.973 9.89205 127.249 10.1619C127.527 10.4318 127.746 10.7756 127.905 11.1932C128.064 11.608 128.144 12.1023 128.144 12.6761V13.1491H122.779V12.1094H126.665C126.662 11.8139 126.598 11.5511 126.473 11.321C126.348 11.0881 126.174 10.9048 125.949 10.7713C125.728 10.6378 125.469 10.571 125.174 10.571C124.858 10.571 124.581 10.6477 124.343 10.8011C124.104 10.9517 123.918 11.1506 123.784 11.3977C123.654 11.642 123.587 11.9105 123.584 12.2031V13.1108C123.584 13.4915 123.654 13.8182 123.793 14.0909C123.932 14.3608 124.127 14.5682 124.377 14.7131C124.627 14.8551 124.919 14.9261 125.255 14.9261C125.479 14.9261 125.682 14.8949 125.864 14.8324C126.046 14.767 126.203 14.6719 126.337 14.5469C126.471 14.4219 126.571 14.267 126.64 14.0824L128.08 14.2443C127.989 14.625 127.816 14.9574 127.56 15.2415C127.307 15.5227 126.983 15.7415 126.588 15.8977C126.194 16.0511 125.742 16.1278 125.233 16.1278ZM132.304 16.1278C131.651 16.1278 131.089 15.9844 130.621 15.6974C130.155 15.4105 129.795 15.0142 129.543 14.5085C129.293 14 129.168 13.4148 129.168 12.7528C129.168 12.0881 129.295 11.5014 129.551 10.9929C129.807 10.4815 130.168 10.0838 130.634 9.79972C131.102 9.51278 131.656 9.36932 132.295 9.36932C132.827 9.36932 133.297 9.46733 133.706 9.66335C134.118 9.85653 134.446 10.1307 134.69 10.4858C134.935 10.8381 135.074 11.25 135.108 11.7216H133.634C133.574 11.4062 133.432 11.1435 133.207 10.9332C132.986 10.7202 132.689 10.6136 132.317 10.6136C132.001 10.6136 131.724 10.6989 131.486 10.8693C131.247 11.0369 131.061 11.2784 130.928 11.5938C130.797 11.9091 130.732 12.2869 130.732 12.7273C130.732 13.1733 130.797 13.5568 130.928 13.8778C131.058 14.196 131.241 14.4418 131.477 14.6151C131.716 14.7855 131.996 14.8707 132.317 14.8707C132.544 14.8707 132.747 14.8281 132.926 14.7429C133.108 14.6548 133.26 14.5284 133.382 14.3636C133.504 14.1989 133.588 13.9986 133.634 13.7628H135.108C135.071 14.2259 134.935 14.6364 134.699 14.9943C134.463 15.3494 134.142 15.6278 133.736 15.8295C133.33 16.0284 132.852 16.1278 132.304 16.1278ZM139.272 16.1278C138.616 16.1278 138.049 15.9915 137.572 15.7188C137.098 15.4432 136.733 15.054 136.477 14.5511C136.221 14.0455 136.093 13.4503 136.093 12.7656C136.093 12.0923 136.221 11.5014 136.477 10.9929C136.735 10.4815 137.096 10.0838 137.559 9.79972C138.022 9.51278 138.566 9.36932 139.191 9.36932C139.595 9.36932 139.975 9.43466 140.333 9.56534C140.694 9.69318 141.012 9.89205 141.288 10.1619C141.566 10.4318 141.785 10.7756 141.944 11.1932C142.103 11.608 142.183 12.1023 142.183 12.6761V13.1491H136.818V12.1094H140.704C140.701 11.8139 140.637 11.5511 140.512 11.321C140.387 11.0881 140.213 10.9048 139.988 10.7713C139.767 10.6378 139.508 10.571 139.213 10.571C138.897 10.571 138.62 10.6477 138.382 10.8011C138.143 10.9517 137.957 11.1506 137.824 11.3977C137.693 11.642 137.626 11.9105 137.623 12.2031V13.1108C137.623 13.4915 137.693 13.8182 137.832 14.0909C137.971 14.3608 138.166 14.5682 138.416 14.7131C138.666 14.8551 138.958 14.9261 139.294 14.9261C139.518 14.9261 139.721 14.8949 139.903 14.8324C140.085 14.767 140.243 14.6719 140.376 14.5469C140.51 14.4219 140.61 14.267 140.679 14.0824L142.119 14.2443C142.028 14.625 141.855 14.9574 141.599 15.2415C141.346 15.5227 141.022 15.7415 140.627 15.8977C140.233 16.0511 139.781 16.1278 139.272 16.1278ZM143.488 16V9.45455H144.962V10.5668H145.039C145.175 10.1918 145.401 9.89915 145.717 9.68892C146.032 9.47585 146.408 9.36932 146.846 9.36932C147.289 9.36932 147.663 9.47727 147.967 9.69318C148.273 9.90625 148.489 10.1974 148.614 10.5668H148.683C148.827 10.2031 149.072 9.91335 149.415 9.69744C149.762 9.47869 150.173 9.36932 150.647 9.36932C151.249 9.36932 151.741 9.55966 152.121 9.94034C152.502 10.321 152.692 10.8764 152.692 11.6065V16H151.146V11.8452C151.146 11.4389 151.038 11.142 150.822 10.9545C150.606 10.7642 150.342 10.669 150.029 10.669C149.657 10.669 149.366 10.7855 149.156 11.0185C148.948 11.2486 148.844 11.5483 148.844 11.9176V16H147.332V11.7812C147.332 11.4432 147.229 11.1733 147.025 10.9716C146.823 10.7699 146.559 10.669 146.232 10.669C146.011 10.669 145.809 10.7259 145.627 10.8395C145.445 10.9503 145.3 11.108 145.192 11.3125C145.085 11.5142 145.031 11.75 145.031 12.0199V16H143.488ZM157.113 16.1278C156.473 16.1278 155.919 15.9872 155.451 15.706C154.982 15.4247 154.618 15.0312 154.36 14.5256C154.104 14.0199 153.976 13.429 153.976 12.7528C153.976 12.0767 154.104 11.4844 154.36 10.9759C154.618 10.4673 154.982 10.0724 155.451 9.79119C155.919 9.50994 156.473 9.36932 157.113 9.36932C157.752 9.36932 158.306 9.50994 158.775 9.79119C159.243 10.0724 159.605 10.4673 159.861 10.9759C160.12 11.4844 160.249 12.0767 160.249 12.7528C160.249 13.429 160.12 14.0199 159.861 14.5256C159.605 15.0312 159.243 15.4247 158.775 15.706C158.306 15.9872 157.752 16.1278 157.113 16.1278ZM157.121 14.892C157.468 14.892 157.757 14.7969 157.99 14.6065C158.223 14.4134 158.397 14.1548 158.51 13.831C158.627 13.5071 158.685 13.1463 158.685 12.7486C158.685 12.348 158.627 11.9858 158.51 11.6619C158.397 11.3352 158.223 11.0753 157.99 10.8821C157.757 10.6889 157.468 10.5923 157.121 10.5923C156.766 10.5923 156.471 10.6889 156.235 10.8821C156.002 11.0753 155.827 11.3352 155.711 11.6619C155.597 11.9858 155.54 12.348 155.54 12.7486C155.54 13.1463 155.597 13.5071 155.711 13.831C155.827 14.1548 156.002 14.4134 156.235 14.6065C156.471 14.7969 156.766 14.892 157.121 14.892ZM168.502 11.0014V12.2713H164.573V11.0014H168.502ZM177.912 9.67188C177.873 9.29972 177.705 9.00994 177.409 8.80256C177.117 8.59517 176.736 8.49148 176.267 8.49148C175.938 8.49148 175.655 8.54119 175.419 8.64062C175.184 8.74006 175.003 8.875 174.878 9.04545C174.753 9.21591 174.689 9.41051 174.686 9.62926C174.686 9.81108 174.728 9.96875 174.81 10.1023C174.895 10.2358 175.01 10.3494 175.155 10.4432C175.3 10.5341 175.461 10.6108 175.637 10.6733C175.813 10.7358 175.99 10.7884 176.169 10.831L176.988 11.0355C177.317 11.1122 177.634 11.2159 177.938 11.3466C178.245 11.4773 178.519 11.642 178.76 11.8409C179.005 12.0398 179.198 12.2798 179.34 12.5611C179.482 12.8423 179.553 13.1719 179.553 13.5497C179.553 14.0611 179.422 14.5114 179.161 14.9006C178.9 15.2869 178.522 15.5895 178.027 15.8082C177.536 16.0241 176.941 16.1321 176.242 16.1321C175.563 16.1321 174.973 16.027 174.473 15.8168C173.976 15.6065 173.587 15.2997 173.306 14.8963C173.027 14.4929 172.877 14.0014 172.854 13.4219H174.409C174.432 13.7259 174.526 13.9787 174.691 14.1804C174.855 14.3821 175.07 14.5327 175.334 14.6321C175.601 14.7315 175.9 14.7812 176.229 14.7812C176.573 14.7812 176.874 14.7301 177.132 14.6278C177.394 14.5227 177.598 14.3778 177.746 14.1932C177.894 14.0057 177.969 13.7869 177.972 13.5369C177.969 13.3097 177.902 13.1222 177.772 12.9744C177.641 12.8239 177.458 12.6989 177.222 12.5994C176.989 12.4972 176.716 12.4062 176.404 12.3267L175.411 12.071C174.692 11.8864 174.124 11.6065 173.706 11.2315C173.292 10.8537 173.084 10.3523 173.084 9.72727C173.084 9.21307 173.223 8.76278 173.502 8.37642C173.783 7.99006 174.165 7.69034 174.648 7.47727C175.131 7.26136 175.678 7.15341 176.289 7.15341C176.908 7.15341 177.451 7.26136 177.917 7.47727C178.385 7.69034 178.753 7.98722 179.02 8.3679C179.287 8.74574 179.425 9.1804 179.434 9.67188H177.912ZM183.792 16.1278C183.136 16.1278 182.569 15.9915 182.092 15.7188C181.617 15.4432 181.252 15.054 180.996 14.5511C180.741 14.0455 180.613 13.4503 180.613 12.7656C180.613 12.0923 180.741 11.5014 180.996 10.9929C181.255 10.4815 181.616 10.0838 182.079 9.79972C182.542 9.51278 183.086 9.36932 183.711 9.36932C184.114 9.36932 184.495 9.43466 184.853 9.56534C185.214 9.69318 185.532 9.89205 185.808 10.1619C186.086 10.4318 186.305 10.7756 186.464 11.1932C186.623 11.608 186.702 12.1023 186.702 12.6761V13.1491H181.337V12.1094H185.224C185.221 11.8139 185.157 11.5511 185.032 11.321C184.907 11.0881 184.732 10.9048 184.508 10.7713C184.286 10.6378 184.028 10.571 183.732 10.571C183.417 10.571 183.14 10.6477 182.901 10.8011C182.663 10.9517 182.477 11.1506 182.343 11.3977C182.212 11.642 182.146 11.9105 182.143 12.2031V13.1108C182.143 13.4915 182.212 13.8182 182.352 14.0909C182.491 14.3608 182.685 14.5682 182.935 14.7131C183.185 14.8551 183.478 14.9261 183.813 14.9261C184.038 14.9261 184.241 14.8949 184.423 14.8324C184.604 14.767 184.762 14.6719 184.896 14.5469C185.029 14.4219 185.13 14.267 185.198 14.0824L186.638 14.2443C186.548 14.625 186.374 14.9574 186.119 15.2415C185.866 15.5227 185.542 15.7415 185.147 15.8977C184.752 16.0511 184.3 16.1278 183.792 16.1278ZM189.55 7.27273V16H188.007V7.27273H189.55ZM194.034 16.1278C193.378 16.1278 192.811 15.9915 192.334 15.7188C191.859 15.4432 191.494 15.054 191.239 14.5511C190.983 14.0455 190.855 13.4503 190.855 12.7656C190.855 12.0923 190.983 11.5014 191.239 10.9929C191.497 10.4815 191.858 10.0838 192.321 9.79972C192.784 9.51278 193.328 9.36932 193.953 9.36932C194.357 9.36932 194.737 9.43466 195.095 9.56534C195.456 9.69318 195.774 9.89205 196.05 10.1619C196.328 10.4318 196.547 10.7756 196.706 11.1932C196.865 11.608 196.945 12.1023 196.945 12.6761V13.1491H191.58V12.1094H195.466C195.463 11.8139 195.399 11.5511 195.274 11.321C195.149 11.0881 194.974 10.9048 194.75 10.7713C194.528 10.6378 194.27 10.571 193.974 10.571C193.659 10.571 193.382 10.6477 193.143 10.8011C192.905 10.9517 192.719 11.1506 192.585 11.3977C192.455 11.642 192.388 11.9105 192.385 12.2031V13.1108C192.385 13.4915 192.455 13.8182 192.594 14.0909C192.733 14.3608 192.928 14.5682 193.178 14.7131C193.428 14.8551 193.72 14.9261 194.055 14.9261C194.28 14.9261 194.483 14.8949 194.665 14.8324C194.847 14.767 195.004 14.6719 195.138 14.5469C195.271 14.4219 195.372 14.267 195.44 14.0824L196.881 14.2443C196.79 14.625 196.616 14.9574 196.361 15.2415C196.108 15.5227 195.784 15.7415 195.389 15.8977C194.994 16.0511 194.543 16.1278 194.034 16.1278ZM199.792 12.1648V16H198.25V9.45455H199.724V10.5668H199.801C199.951 10.2003 200.191 9.90909 200.521 9.69318C200.853 9.47727 201.264 9.36932 201.752 9.36932C202.204 9.36932 202.598 9.46591 202.933 9.65909C203.271 9.85227 203.532 10.1321 203.717 10.4986C203.904 10.8651 203.997 11.3097 203.994 11.8324V16H202.451V12.071C202.451 11.6335 202.338 11.2912 202.11 11.044C201.886 10.7969 201.575 10.6733 201.177 10.6733C200.907 10.6733 200.667 10.733 200.457 10.8523C200.25 10.9687 200.086 11.1378 199.967 11.3594C199.85 11.581 199.792 11.8494 199.792 12.1648ZM205.562 16V9.45455H207.105V16H205.562ZM206.338 8.52557C206.093 8.52557 205.883 8.4446 205.707 8.28267C205.531 8.1179 205.443 7.92045 205.443 7.69034C205.443 7.45739 205.531 7.25994 205.707 7.09801C205.883 6.93324 206.093 6.85085 206.338 6.85085C206.585 6.85085 206.795 6.93324 206.968 7.09801C207.145 7.25994 207.233 7.45739 207.233 7.69034C207.233 7.92045 207.145 8.1179 206.968 8.28267C206.795 8.4446 206.585 8.52557 206.338 8.52557ZM212.863 13.2472V9.45455H214.406V16H212.91V14.8366H212.842C212.694 15.2031 212.451 15.5028 212.113 15.7358C211.778 15.9687 211.364 16.0852 210.873 16.0852C210.444 16.0852 210.065 15.9901 209.735 15.7997C209.408 15.6065 209.153 15.3267 208.968 14.9602C208.783 14.5909 208.691 14.1449 208.691 13.6222V9.45455H210.234V13.3835C210.234 13.7983 210.347 14.1278 210.575 14.3722C210.802 14.6165 211.1 14.7386 211.469 14.7386C211.697 14.7386 211.917 14.6832 212.13 14.5724C212.343 14.4616 212.518 14.2969 212.654 14.0781C212.793 13.8565 212.863 13.5795 212.863 13.2472ZM215.992 16V9.45455H217.466V10.5668H217.543C217.679 10.1918 217.905 9.89915 218.221 9.68892C218.536 9.47585 218.912 9.36932 219.35 9.36932C219.793 9.36932 220.167 9.47727 220.471 9.69318C220.777 9.90625 220.993 10.1974 221.118 10.5668H221.186C221.331 10.2031 221.576 9.91335 221.919 9.69744C222.266 9.47869 222.676 9.36932 223.151 9.36932C223.753 9.36932 224.245 9.55966 224.625 9.94034C225.006 10.321 225.196 10.8764 225.196 11.6065V16H223.65V11.8452C223.65 11.4389 223.542 11.142 223.326 10.9545C223.11 10.7642 222.846 10.669 222.533 10.669C222.161 10.669 221.87 10.7855 221.659 11.0185C221.452 11.2486 221.348 11.5483 221.348 11.9176V16H219.836V11.7812C219.836 11.4432 219.733 11.1733 219.529 10.9716C219.327 10.7699 219.063 10.669 218.736 10.669C218.515 10.669 218.313 10.7259 218.131 10.8395C217.949 10.9503 217.804 11.108 217.696 11.3125C217.588 11.5142 217.534 11.75 217.534 12.0199V16H215.992Z" fill="black"/>
<path d="M129 41.5H182.076C184.009 41.5 185.576 43.067 185.576 45V51C185.576 52.933 184.009 54.5 182.076 54.5H129C127.067 54.5 125.5 52.933 125.5 51V45C125.5 43.067 127.067 41.5 129 41.5Z" fill="#FFFCBC" stroke="#CCBA12"/>
<path d="M131.868 44.7273V52H130.987V44.7273H131.868ZM134.358 48.7188V52H133.52V46.5455H134.33V47.3977H134.401C134.529 47.1207 134.723 46.8982 134.983 46.7301C135.244 46.5597 135.58 46.4744 135.992 46.4744C136.361 46.4744 136.684 46.5502 136.961 46.7017C137.238 46.8509 137.454 47.0781 137.607 47.3835C137.761 47.6866 137.838 48.0701 137.838 48.5341V52H137V48.5909C137 48.1624 136.889 47.8286 136.666 47.5895C136.444 47.348 136.138 47.2273 135.75 47.2273C135.483 47.2273 135.244 47.2853 135.033 47.4013C134.825 47.5173 134.66 47.6866 134.539 47.9091C134.418 48.1316 134.358 48.4015 134.358 48.7188ZM141.742 46.5455V47.2557H138.915V46.5455H141.742ZM139.739 45.2386H140.577V50.4375C140.577 50.6742 140.611 50.8518 140.68 50.9702C140.751 51.0862 140.841 51.1643 140.95 51.2045C141.061 51.2424 141.178 51.2614 141.301 51.2614C141.394 51.2614 141.47 51.2566 141.529 51.2472C141.588 51.2353 141.635 51.2259 141.671 51.2188L141.841 51.9716C141.784 51.9929 141.705 52.0142 141.603 52.0355C141.502 52.0592 141.373 52.071 141.216 52.071C140.98 52.071 140.748 52.0201 140.52 51.9183C140.295 51.8165 140.108 51.6615 139.959 51.4531C139.812 51.2448 139.739 50.982 139.739 50.6648V45.2386ZM145.231 52.1136C144.705 52.1136 144.252 51.9976 143.871 51.7656C143.492 51.5312 143.2 51.2045 142.994 50.7855C142.79 50.3641 142.688 49.8741 142.688 49.3153C142.688 48.7566 142.79 48.2642 142.994 47.8381C143.2 47.4096 143.486 47.0758 143.853 46.8366C144.222 46.5952 144.653 46.4744 145.146 46.4744C145.43 46.4744 145.71 46.5218 145.987 46.6165C146.264 46.7112 146.516 46.8651 146.744 47.0781C146.971 47.2888 147.152 47.5682 147.287 47.9162C147.422 48.2642 147.489 48.6927 147.489 49.2017V49.5568H143.285V48.8324H146.637C146.637 48.5246 146.576 48.25 146.452 48.0085C146.332 47.767 146.159 47.5765 145.934 47.4368C145.711 47.2971 145.449 47.2273 145.146 47.2273C144.812 47.2273 144.523 47.3101 144.279 47.4759C144.038 47.6392 143.852 47.8523 143.722 48.1151C143.591 48.3778 143.526 48.6596 143.526 48.9602V49.4432C143.526 49.8551 143.597 50.2043 143.739 50.4908C143.884 50.7749 144.084 50.9915 144.339 51.1406C144.595 51.2874 144.892 51.3608 145.231 51.3608C145.451 51.3608 145.65 51.33 145.827 51.2685C146.007 51.2045 146.162 51.1098 146.293 50.9844C146.423 50.8565 146.523 50.6979 146.594 50.5085L147.404 50.7358C147.319 51.0104 147.176 51.2519 146.974 51.4602C146.773 51.6662 146.525 51.8272 146.229 51.9432C145.933 52.0568 145.6 52.1136 145.231 52.1136ZM150.966 54.1591C150.561 54.1591 150.213 54.107 149.922 54.0028C149.631 53.901 149.388 53.7661 149.194 53.598C149.002 53.4323 148.849 53.2547 148.736 53.0653L149.403 52.5966C149.479 52.696 149.575 52.8097 149.691 52.9375C149.807 53.0677 149.966 53.1802 150.167 53.2749C150.37 53.3719 150.637 53.4205 150.966 53.4205C151.406 53.4205 151.77 53.3139 152.056 53.1009C152.343 52.8878 152.486 52.554 152.486 52.0994V50.9915H152.415C152.353 51.0909 152.266 51.214 152.152 51.3608C152.041 51.5052 151.88 51.6342 151.669 51.7479C151.461 51.8591 151.179 51.9148 150.824 51.9148C150.384 51.9148 149.988 51.8106 149.638 51.6023C149.29 51.3939 149.014 51.0909 148.81 50.6932C148.609 50.2955 148.509 49.8125 148.509 49.2443C148.509 48.6856 148.607 48.1991 148.803 47.7848C149 47.3681 149.273 47.0462 149.624 46.8189C149.974 46.5893 150.379 46.4744 150.838 46.4744C151.193 46.4744 151.475 46.5336 151.683 46.652C151.894 46.768 152.055 46.9006 152.166 47.0497C152.28 47.1965 152.367 47.3172 152.429 47.4119H152.514V46.5455H153.324V52.1562C153.324 52.625 153.217 53.0062 153.004 53.2997C152.794 53.5956 152.509 53.8123 152.152 53.9496C151.797 54.0893 151.402 54.1591 150.966 54.1591ZM150.937 51.1619C151.274 51.1619 151.558 51.085 151.79 50.9311C152.022 50.7772 152.198 50.5559 152.319 50.267C152.44 49.9782 152.5 49.6326 152.5 49.2301C152.5 48.8371 152.441 48.4903 152.322 48.1896C152.204 47.889 152.029 47.6534 151.797 47.483C151.565 47.3125 151.278 47.2273 150.937 47.2273C150.582 47.2273 150.286 47.3172 150.05 47.4972C149.815 47.6771 149.639 47.9186 149.521 48.2216C149.405 48.5246 149.347 48.8608 149.347 49.2301C149.347 49.6089 149.406 49.9439 149.524 50.2351C149.645 50.5239 149.822 50.7512 150.057 50.9169C150.294 51.0803 150.587 51.1619 150.937 51.1619ZM154.858 52V46.5455H155.668V47.3693H155.724C155.824 47.0994 156.004 46.8804 156.264 46.7124C156.525 46.5443 156.818 46.4602 157.145 46.4602C157.206 46.4602 157.283 46.4614 157.376 46.4638C157.468 46.4661 157.538 46.4697 157.585 46.4744V47.3267C157.557 47.3196 157.492 47.3089 157.39 47.2947C157.29 47.2782 157.185 47.2699 157.074 47.2699C156.809 47.2699 156.572 47.3255 156.364 47.4368C156.158 47.5457 155.994 47.6972 155.874 47.8913C155.755 48.0831 155.696 48.3021 155.696 48.5483V52H154.858ZM160.184 52.1278C159.838 52.1278 159.524 52.0627 159.243 51.9325C158.961 51.8 158.737 51.6094 158.572 51.3608C158.406 51.1098 158.323 50.8068 158.323 50.4517C158.323 50.1392 158.385 49.8859 158.508 49.6918C158.631 49.4953 158.795 49.3414 159.001 49.2301C159.207 49.1188 159.434 49.036 159.683 48.9815C159.934 48.9247 160.186 48.8797 160.439 48.8466C160.771 48.804 161.04 48.772 161.246 48.7507C161.454 48.727 161.605 48.688 161.7 48.6335C161.797 48.5791 161.846 48.4844 161.846 48.3494V48.321C161.846 47.9706 161.75 47.6984 161.558 47.5043C161.369 47.3101 161.081 47.2131 160.695 47.2131C160.295 47.2131 159.981 47.3007 159.754 47.4759C159.527 47.651 159.367 47.8381 159.275 48.0369L158.479 47.7528C158.621 47.4214 158.811 47.1634 159.047 46.9787C159.287 46.7917 159.547 46.6615 159.829 46.5881C160.113 46.5123 160.392 46.4744 160.667 46.4744C160.842 46.4744 161.043 46.4957 161.27 46.5384C161.5 46.5786 161.721 46.6626 161.934 46.7905C162.15 46.9183 162.329 47.1113 162.471 47.3693C162.613 47.6274 162.684 47.973 162.684 48.4062V52H161.846V51.2614H161.803C161.746 51.3797 161.652 51.5064 161.519 51.6413C161.386 51.7763 161.21 51.8911 160.99 51.9858C160.77 52.0805 160.501 52.1278 160.184 52.1278ZM160.312 51.375C160.643 51.375 160.922 51.3099 161.15 51.1797C161.379 51.0495 161.552 50.8814 161.668 50.6754C161.787 50.4695 161.846 50.2528 161.846 50.0256V49.2585C161.81 49.3011 161.732 49.3402 161.611 49.3757C161.493 49.4089 161.356 49.4384 161.199 49.4645C161.046 49.4882 160.895 49.5095 160.748 49.5284C160.604 49.545 160.487 49.5592 160.397 49.571C160.179 49.5994 159.975 49.6456 159.786 49.7095C159.599 49.7711 159.447 49.8646 159.331 49.9901C159.218 50.1132 159.161 50.2812 159.161 50.4943C159.161 50.7855 159.269 51.0057 159.484 51.1548C159.702 51.3016 159.978 51.375 160.312 51.375ZM166.429 52.1136C165.918 52.1136 165.478 51.9929 165.108 51.7514C164.739 51.5099 164.455 51.1773 164.256 50.7536C164.057 50.3298 163.958 49.8456 163.958 49.3011C163.958 48.7472 164.06 48.2583 164.263 47.8345C164.469 47.4084 164.756 47.0758 165.123 46.8366C165.492 46.5952 165.923 46.4744 166.415 46.4744C166.799 46.4744 167.144 46.5455 167.452 46.6875C167.76 46.8295 168.012 47.0284 168.208 47.2841C168.405 47.5398 168.527 47.8381 168.574 48.179H167.736C167.672 47.9304 167.53 47.7102 167.31 47.5185C167.092 47.3243 166.799 47.2273 166.429 47.2273C166.103 47.2273 165.816 47.3125 165.57 47.483C165.326 47.651 165.136 47.889 164.998 48.1967C164.863 48.5021 164.796 48.8608 164.796 49.2727C164.796 49.6941 164.862 50.0611 164.995 50.3736C165.13 50.6861 165.319 50.9287 165.563 51.1016C165.809 51.2744 166.098 51.3608 166.429 51.3608C166.647 51.3608 166.845 51.3229 167.022 51.2472C167.2 51.1714 167.35 51.0625 167.473 50.9205C167.596 50.7784 167.684 50.608 167.736 50.4091H168.574C168.527 50.7311 168.41 51.0211 168.223 51.2791C168.038 51.5348 167.793 51.7384 167.488 51.8899C167.185 52.0391 166.832 52.1136 166.429 52.1136ZM166.032 51.9716H166.728L166.671 52.2557C166.855 52.2841 167.025 52.361 167.179 52.4865C167.333 52.6143 167.409 52.8168 167.409 53.0938C167.409 53.3991 167.283 53.6477 167.029 53.8395C166.779 54.0336 166.408 54.1307 165.918 54.1307L165.89 53.5767C166.11 53.5767 166.292 53.5412 166.436 53.4702C166.583 53.4015 166.657 53.2855 166.657 53.1222C166.657 52.9588 166.596 52.8475 166.475 52.7884C166.355 52.7292 166.159 52.6889 165.89 52.6676L166.032 51.9716ZM171.404 52.1278C171.059 52.1278 170.745 52.0627 170.463 51.9325C170.182 51.8 169.958 51.6094 169.792 51.3608C169.627 51.1098 169.544 50.8068 169.544 50.4517C169.544 50.1392 169.605 49.8859 169.728 49.6918C169.851 49.4953 170.016 49.3414 170.222 49.2301C170.428 49.1188 170.655 49.036 170.904 48.9815C171.155 48.9247 171.407 48.8797 171.66 48.8466C171.992 48.804 172.26 48.772 172.466 48.7507C172.675 48.727 172.826 48.688 172.921 48.6335C173.018 48.5791 173.066 48.4844 173.066 48.3494V48.321C173.066 47.9706 172.971 47.6984 172.779 47.5043C172.589 47.3101 172.302 47.2131 171.916 47.2131C171.516 47.2131 171.202 47.3007 170.975 47.4759C170.748 47.651 170.588 47.8381 170.495 48.0369L169.7 47.7528C169.842 47.4214 170.031 47.1634 170.268 46.9787C170.507 46.7917 170.768 46.6615 171.049 46.5881C171.333 46.5123 171.613 46.4744 171.887 46.4744C172.063 46.4744 172.264 46.4957 172.491 46.5384C172.721 46.5786 172.942 46.6626 173.155 46.7905C173.371 46.9183 173.549 47.1113 173.691 47.3693C173.833 47.6274 173.904 47.973 173.904 48.4062V52H173.066V51.2614H173.024C172.967 51.3797 172.872 51.5064 172.74 51.6413C172.607 51.7763 172.431 51.8911 172.211 51.9858C171.99 52.0805 171.722 52.1278 171.404 52.1278ZM171.532 51.375C171.864 51.375 172.143 51.3099 172.37 51.1797C172.6 51.0495 172.773 50.8814 172.889 50.6754C173.007 50.4695 173.066 50.2528 173.066 50.0256V49.2585C173.031 49.3011 172.953 49.3402 172.832 49.3757C172.714 49.4089 172.576 49.4384 172.42 49.4645C172.266 49.4882 172.116 49.5095 171.969 49.5284C171.825 49.545 171.708 49.5592 171.618 49.571C171.4 49.5994 171.196 49.6456 171.007 49.7095C170.82 49.7711 170.668 49.8646 170.552 49.9901C170.439 50.1132 170.382 50.2812 170.382 50.4943C170.382 50.7855 170.489 51.0057 170.705 51.1548C170.923 51.3016 171.199 51.375 171.532 51.375ZM170.85 45.892L170.197 45.8636C170.197 45.5014 170.3 45.2055 170.506 44.9759C170.714 44.7438 170.971 44.6278 171.277 44.6278C171.412 44.6278 171.531 44.6515 171.635 44.6989C171.739 44.7438 171.839 44.7959 171.934 44.8551C172.028 44.9143 172.125 44.9676 172.225 45.0149C172.327 45.0599 172.441 45.0824 172.569 45.0824C172.704 45.0824 172.818 45.0303 172.91 44.9261C173.005 44.8196 173.052 44.6918 173.052 44.5426L173.691 44.5994C173.691 44.9687 173.587 45.2623 173.379 45.4801C173.173 45.6979 172.917 45.8068 172.612 45.8068C172.449 45.8068 172.314 45.7843 172.207 45.7393C172.1 45.692 172.006 45.6387 171.923 45.5795C171.84 45.5204 171.752 45.4683 171.66 45.4233C171.568 45.3759 171.454 45.3523 171.319 45.3523C171.184 45.3523 171.072 45.4055 170.982 45.5121C170.894 45.6162 170.85 45.7429 170.85 45.892ZM177.65 52.1136C177.158 52.1136 176.726 51.9964 176.354 51.7621C175.985 51.5277 175.696 51.1998 175.487 50.7784C175.281 50.357 175.178 49.8646 175.178 49.3011C175.178 48.733 175.281 48.237 175.487 47.8132C175.696 47.3894 175.985 47.0604 176.354 46.826C176.726 46.5916 177.158 46.4744 177.65 46.4744C178.142 46.4744 178.573 46.5916 178.943 46.826C179.314 47.0604 179.603 47.3894 179.809 47.8132C180.017 48.237 180.122 48.733 180.122 49.3011C180.122 49.8646 180.017 50.357 179.809 50.7784C179.603 51.1998 179.314 51.5277 178.943 51.7621C178.573 51.9964 178.142 52.1136 177.65 52.1136ZM177.65 51.3608C178.024 51.3608 178.332 51.2649 178.573 51.0732C178.815 50.8814 178.994 50.6293 179.11 50.3168C179.226 50.0043 179.284 49.6657 179.284 49.3011C179.284 48.9366 179.226 48.5968 179.11 48.282C178.994 47.9671 178.815 47.7126 178.573 47.5185C178.332 47.3243 178.024 47.2273 177.65 47.2273C177.276 47.2273 176.968 47.3243 176.727 47.5185C176.485 47.7126 176.307 47.9671 176.191 48.282C176.075 48.5968 176.017 48.9366 176.017 49.3011C176.017 49.6657 176.075 50.0043 176.191 50.3168C176.307 50.6293 176.485 50.8814 176.727 51.0732C176.968 51.2649 177.276 51.3608 177.65 51.3608Z" fill="black"/>
<path d="M96 41.5H115C116.933 41.5 118.5 43.067 118.5 45V51C118.5 52.933 116.933 54.5 115 54.5H96C94.067 54.5 92.5 52.933 92.5 51V45C92.5 43.067 94.067 41.5 96 41.5Z" fill="#FFBCFD" stroke="#8C00A8"/>
<path d="M97.3768 52V44.7273H101.766V45.5085H98.2575V47.9659H101.539V48.7472H98.2575V51.2188H101.823V52H97.3768ZM103.225 52V51.3608L105.626 48.733C105.908 48.4252 106.14 48.1577 106.322 47.9304C106.504 47.7008 106.639 47.4853 106.727 47.2841C106.817 47.0805 106.862 46.8674 106.862 46.6449C106.862 46.3892 106.8 46.1679 106.677 45.9808C106.556 45.7938 106.391 45.6494 106.18 45.5476C105.969 45.4458 105.733 45.3949 105.47 45.3949C105.19 45.3949 104.947 45.4529 104.738 45.5689C104.532 45.6825 104.373 45.8423 104.259 46.0483C104.148 46.2543 104.092 46.4957 104.092 46.7727H103.254C103.254 46.3466 103.352 45.9725 103.549 45.6506C103.745 45.3286 104.013 45.0777 104.351 44.8977C104.692 44.7178 105.074 44.6278 105.498 44.6278C105.924 44.6278 106.302 44.7178 106.631 44.8977C106.96 45.0777 107.218 45.3203 107.405 45.6257C107.592 45.9311 107.686 46.2708 107.686 46.6449C107.686 46.9124 107.637 47.174 107.54 47.4297C107.445 47.683 107.28 47.9659 107.043 48.2784C106.809 48.5885 106.483 48.9673 106.066 49.4148L104.433 51.1619V51.2188H107.814V52H103.225ZM109.408 52V44.7273H113.797V45.5085H110.289V47.9659H113.57V48.7472H110.289V51.2188H113.854V52H109.408Z" fill="black"/>
<path d="M195 41.5H221C222.933 41.5 224.5 43.067 224.5 45V51C224.5 52.933 222.933 54.5 221 54.5H195C193.067 54.5 191.5 52.933 191.5 51V45C191.5 43.067 193.067 41.5 195 41.5Z" fill="#D5EAFE" stroke="#112169"/>
<path d="M200.758 47H199.878C199.825 46.7467 199.734 46.5241 199.604 46.3324C199.476 46.1406 199.32 45.9796 199.135 45.8494C198.953 45.7169 198.751 45.6174 198.528 45.5511C198.306 45.4848 198.074 45.4517 197.832 45.4517C197.392 45.4517 196.993 45.563 196.635 45.7855C196.28 46.008 195.997 46.3359 195.787 46.7692C195.578 47.2024 195.474 47.7339 195.474 48.3636C195.474 48.9934 195.578 49.5249 195.787 49.9581C195.997 50.3913 196.28 50.7192 196.635 50.9418C196.993 51.1643 197.392 51.2756 197.832 51.2756C198.074 51.2756 198.306 51.2424 198.528 51.1761C198.751 51.1098 198.953 51.0116 199.135 50.8814C199.32 50.7488 199.476 50.5866 199.604 50.3949C199.734 50.2008 199.825 49.9782 199.878 49.7273H200.758C200.692 50.099 200.571 50.4316 200.396 50.7251C200.221 51.0187 200.003 51.2685 199.743 51.4744C199.482 51.678 199.19 51.8331 198.866 51.9396C198.544 52.0462 198.199 52.0994 197.832 52.0994C197.212 52.0994 196.66 51.9479 196.177 51.6449C195.694 51.3419 195.314 50.911 195.037 50.3523C194.76 49.7936 194.622 49.1307 194.622 48.3636C194.622 47.5966 194.76 46.9337 195.037 46.375C195.314 45.8163 195.694 45.3854 196.177 45.0824C196.66 44.7794 197.212 44.6278 197.832 44.6278C198.199 44.6278 198.544 44.6811 198.866 44.7876C199.19 44.8942 199.482 45.0504 199.743 45.2564C200.003 45.46 200.221 45.7086 200.396 46.0021C200.571 46.2933 200.692 46.6259 200.758 47ZM203.062 44.7273V52H202.181V44.7273H203.062ZM207.285 44.3864L204.941 53.0938H204.174L206.518 44.3864H207.285ZM214.245 47H213.364C213.312 46.7467 213.221 46.5241 213.09 46.3324C212.963 46.1406 212.806 45.9796 212.622 45.8494C212.439 45.7169 212.237 45.6174 212.014 45.5511C211.792 45.4848 211.56 45.4517 211.318 45.4517C210.878 45.4517 210.479 45.563 210.122 45.7855C209.767 46.008 209.484 46.3359 209.273 46.7692C209.065 47.2024 208.96 47.7339 208.96 48.3636C208.96 48.9934 209.065 49.5249 209.273 49.9581C209.484 50.3913 209.767 50.7192 210.122 50.9418C210.479 51.1643 210.878 51.2756 211.318 51.2756C211.56 51.2756 211.792 51.2424 212.014 51.1761C212.237 51.1098 212.439 51.0116 212.622 50.8814C212.806 50.7488 212.963 50.5866 213.09 50.3949C213.221 50.2008 213.312 49.9782 213.364 49.7273H214.245C214.178 50.099 214.058 50.4316 213.882 50.7251C213.707 51.0187 213.489 51.2685 213.229 51.4744C212.969 51.678 212.676 51.8331 212.352 51.9396C212.03 52.0462 211.685 52.0994 211.318 52.0994C210.698 52.0994 210.147 51.9479 209.664 51.6449C209.181 51.3419 208.801 50.911 208.524 50.3523C208.247 49.7936 208.108 49.1307 208.108 48.3636C208.108 47.5966 208.247 46.9337 208.524 46.375C208.801 45.8163 209.181 45.3854 209.664 45.0824C210.147 44.7794 210.698 44.6278 211.318 44.6278C211.685 44.6278 212.03 44.6811 212.352 44.7876C212.676 44.8942 212.969 45.0504 213.229 45.2564C213.489 45.46 213.707 45.7086 213.882 46.0021C214.058 46.2933 214.178 46.6259 214.245 47ZM217.912 52H215.668V44.7273H218.011C218.717 44.7273 219.321 44.8729 219.823 45.1641C220.324 45.4529 220.709 45.8684 220.977 46.4105C221.244 46.9503 221.378 47.5966 221.378 48.3494C221.378 49.107 221.243 49.7592 220.973 50.3061C220.703 50.8506 220.31 51.2696 219.794 51.5632C219.278 51.8544 218.651 52 217.912 52ZM216.548 51.2188H217.855C218.457 51.2188 218.955 51.1027 219.35 50.8707C219.746 50.6387 220.04 50.3085 220.234 49.88C220.429 49.4515 220.526 48.9413 220.526 48.3494C220.526 47.7623 220.43 47.2569 220.238 46.8331C220.046 46.407 219.76 46.0803 219.379 45.853C218.997 45.6233 218.523 45.5085 217.955 45.5085H216.548V51.2188Z" fill="black"/>
<path d="M93.2969 33H92.2813L95.2188 25H96.2188L99.1563 33H98.1406L95.75 26.2656H95.6875L93.2969 33ZM93.6719 29.875H97.7656V30.7344H93.6719V29.875ZM104.059 30.5469V27H104.98V33H104.059V31.9844H103.996C103.855 32.2891 103.637 32.5482 103.34 32.7617C103.043 32.9727 102.668 33.0781 102.215 33.0781C101.84 33.0781 101.507 32.9961 101.215 32.832C100.923 32.6654 100.694 32.4154 100.527 32.082C100.361 31.7461 100.277 31.3229 100.277 30.8125V27H101.199V30.75C101.199 31.1875 101.322 31.5365 101.566 31.7969C101.814 32.0573 102.129 32.1875 102.512 32.1875C102.741 32.1875 102.974 32.1289 103.211 32.0117C103.451 31.8945 103.651 31.7148 103.813 31.4727C103.977 31.2305 104.059 30.9219 104.059 30.5469ZM109.278 27V27.7812H106.169V27H109.278ZM107.075 25.5625H107.997V31.2812C107.997 31.5417 108.035 31.737 108.11 31.8672C108.188 31.9948 108.287 32.0807 108.407 32.125C108.53 32.1667 108.659 32.1875 108.794 32.1875C108.896 32.1875 108.979 32.1823 109.044 32.1719C109.109 32.1589 109.161 32.1484 109.2 32.1406L109.388 32.9687C109.325 32.9922 109.238 33.0156 109.126 33.0391C109.014 33.0651 108.872 33.0781 108.7 33.0781C108.44 33.0781 108.185 33.0221 107.935 32.9102C107.687 32.7982 107.481 32.6276 107.317 32.3984C107.156 32.1693 107.075 31.8802 107.075 31.5312V25.5625ZM113.038 33.125C112.496 33.125 112.021 32.9961 111.612 32.7383C111.206 32.4805 110.888 32.1198 110.659 31.6562C110.433 31.1927 110.319 30.651 110.319 30.0312C110.319 29.4062 110.433 28.8607 110.659 28.3945C110.888 27.9284 111.206 27.5664 111.612 27.3086C112.021 27.0508 112.496 26.9219 113.038 26.9219C113.58 26.9219 114.054 27.0508 114.46 27.3086C114.869 27.5664 115.187 27.9284 115.413 28.3945C115.642 28.8607 115.757 29.4062 115.757 30.0312C115.757 30.651 115.642 31.1927 115.413 31.6562C115.187 32.1198 114.869 32.4805 114.46 32.7383C114.054 32.9961 113.58 33.125 113.038 33.125ZM113.038 32.2969C113.45 32.2969 113.788 32.1914 114.054 31.9805C114.319 31.7695 114.516 31.4922 114.644 31.1484C114.771 30.8047 114.835 30.4323 114.835 30.0312C114.835 29.6302 114.771 29.2565 114.644 28.9102C114.516 28.5638 114.319 28.2839 114.054 28.0703C113.788 27.8568 113.45 27.75 113.038 27.75C112.627 27.75 112.288 27.8568 112.022 28.0703C111.757 28.2839 111.56 28.5638 111.433 28.9102C111.305 29.2565 111.241 29.6302 111.241 30.0312C111.241 30.4323 111.305 30.8047 111.433 31.1484C111.56 31.4922 111.757 31.7695 112.022 31.9805C112.288 32.1914 112.627 32.2969 113.038 32.2969ZM117.164 33V27H118.055V27.9375H118.133C118.258 27.6172 118.46 27.3685 118.738 27.1914C119.017 27.0117 119.352 26.9219 119.742 26.9219C120.138 26.9219 120.467 27.0117 120.73 27.1914C120.996 27.3685 121.203 27.6172 121.352 27.9375H121.414C121.568 27.6276 121.798 27.3815 122.105 27.1992C122.413 27.0143 122.781 26.9219 123.211 26.9219C123.747 26.9219 124.186 27.0898 124.527 27.4258C124.868 27.7591 125.039 28.2786 125.039 28.9844V33H124.117V28.9844C124.117 28.5417 123.996 28.2253 123.754 28.0352C123.512 27.8451 123.227 27.75 122.898 27.75C122.477 27.75 122.15 27.8776 121.918 28.1328C121.686 28.3854 121.57 28.7057 121.57 29.0937V33H120.633V28.8906C120.633 28.5495 120.522 28.2747 120.301 28.0664C120.079 27.8555 119.794 27.75 119.445 27.75C119.206 27.75 118.982 27.8138 118.773 27.9414C118.568 28.069 118.401 28.2461 118.273 28.4727C118.148 28.6966 118.086 28.9557 118.086 29.25V33H117.164ZM128.49 33.1406C128.11 33.1406 127.765 33.069 127.455 32.9258C127.145 32.7799 126.899 32.5703 126.717 32.2969C126.535 32.0208 126.443 31.6875 126.443 31.2969C126.443 30.9531 126.511 30.6745 126.646 30.4609C126.782 30.2448 126.963 30.0755 127.189 29.9531C127.416 29.8307 127.666 29.7396 127.939 29.6797C128.215 29.6172 128.493 29.5677 128.771 29.5313C129.136 29.4844 129.432 29.4492 129.658 29.4258C129.887 29.3997 130.054 29.3568 130.158 29.2969C130.265 29.237 130.318 29.1328 130.318 28.9844V28.9531C130.318 28.5677 130.213 28.2682 130.002 28.0547C129.794 27.8411 129.477 27.7344 129.053 27.7344C128.613 27.7344 128.268 27.8307 128.018 28.0234C127.768 28.2161 127.592 28.4219 127.49 28.6406L126.615 28.3281C126.771 27.9635 126.98 27.6797 127.24 27.4766C127.503 27.2708 127.79 27.1276 128.1 27.0469C128.412 26.9635 128.719 26.9219 129.021 26.9219C129.214 26.9219 129.436 26.9453 129.686 26.9922C129.938 27.0365 130.182 27.1289 130.416 27.2695C130.653 27.4102 130.85 27.6224 131.006 27.9062C131.162 28.1901 131.24 28.5703 131.24 29.0469V33H130.318V32.1875H130.271C130.209 32.3177 130.105 32.457 129.959 32.6055C129.813 32.7539 129.619 32.8802 129.377 32.9844C129.135 33.0885 128.839 33.1406 128.49 33.1406ZM128.631 32.3125C128.995 32.3125 129.303 32.2409 129.553 32.0977C129.805 31.9544 129.995 31.7695 130.123 31.543C130.253 31.3164 130.318 31.0781 130.318 30.8281V29.9844C130.279 30.0312 130.193 30.0742 130.061 30.1133C129.93 30.1497 129.779 30.1823 129.607 30.2109C129.438 30.237 129.273 30.2604 129.111 30.2812C128.952 30.2995 128.824 30.3151 128.725 30.3281C128.485 30.3594 128.261 30.4102 128.053 30.4805C127.847 30.5482 127.68 30.651 127.553 30.7891C127.428 30.9245 127.365 31.1094 127.365 31.3437C127.365 31.6641 127.484 31.9062 127.721 32.0703C127.96 32.2318 128.264 32.3125 128.631 32.3125ZM135.36 33.125C134.798 33.125 134.313 32.9922 133.907 32.7266C133.501 32.4609 133.188 32.0951 132.97 31.6289C132.751 31.1628 132.642 30.6302 132.642 30.0312C132.642 29.4219 132.754 28.8841 132.978 28.418C133.204 27.9492 133.519 27.5833 133.923 27.3203C134.329 27.0547 134.803 26.9219 135.345 26.9219C135.767 26.9219 136.147 27 136.485 27.1562C136.824 27.3125 137.101 27.5312 137.317 27.8125C137.534 28.0937 137.668 28.4219 137.72 28.7969H136.798C136.728 28.5234 136.571 28.2812 136.329 28.0703C136.09 27.8568 135.767 27.75 135.36 27.75C135.001 27.75 134.686 27.8437 134.415 28.0312C134.147 28.2161 133.937 28.4779 133.786 28.8164C133.638 29.1523 133.563 29.5469 133.563 30C133.563 30.4635 133.636 30.8672 133.782 31.2109C133.931 31.5547 134.139 31.8216 134.407 32.0117C134.678 32.2018 134.996 32.2969 135.36 32.2969C135.6 32.2969 135.817 32.2552 136.013 32.1719C136.208 32.0885 136.373 31.9688 136.509 31.8125C136.644 31.6562 136.741 31.4687 136.798 31.25H137.72C137.668 31.6042 137.539 31.9232 137.333 32.207C137.13 32.4883 136.86 32.7122 136.524 32.8789C136.191 33.043 135.803 33.125 135.36 33.125ZM134.923 32.9687H135.688L135.626 33.2813C135.829 33.3125 136.015 33.3971 136.185 33.5352C136.354 33.6758 136.438 33.8984 136.438 34.2031C136.438 34.5391 136.299 34.8125 136.021 35.0234C135.744 35.237 135.337 35.3438 134.798 35.3438L134.767 34.7344C135.009 34.7344 135.209 34.6953 135.368 34.6172C135.53 34.5417 135.61 34.4141 135.61 34.2344C135.61 34.0547 135.544 33.9323 135.411 33.8672C135.278 33.8021 135.063 33.7578 134.767 33.7344L134.923 32.9687ZM140.833 33.1406C140.453 33.1406 140.108 33.069 139.798 32.9258C139.488 32.7799 139.242 32.5703 139.06 32.2969C138.877 32.0208 138.786 31.6875 138.786 31.2969C138.786 30.9531 138.854 30.6745 138.989 30.4609C139.125 30.2448 139.306 30.0755 139.532 29.9531C139.759 29.8307 140.009 29.7396 140.282 29.6797C140.558 29.6172 140.836 29.5677 141.114 29.5313C141.479 29.4844 141.774 29.4492 142.001 29.4258C142.23 29.3997 142.397 29.3568 142.501 29.2969C142.608 29.237 142.661 29.1328 142.661 28.9844V28.9531C142.661 28.5677 142.556 28.2682 142.345 28.0547C142.136 27.8411 141.82 27.7344 141.396 27.7344C140.955 27.7344 140.61 27.8307 140.36 28.0234C140.11 28.2161 139.935 28.4219 139.833 28.6406L138.958 28.3281C139.114 27.9635 139.323 27.6797 139.583 27.4766C139.846 27.2708 140.132 27.1276 140.442 27.0469C140.755 26.9635 141.062 26.9219 141.364 26.9219C141.557 26.9219 141.778 26.9453 142.028 26.9922C142.281 27.0365 142.524 27.1289 142.759 27.2695C142.996 27.4102 143.192 27.6224 143.349 27.9062C143.505 28.1901 143.583 28.5703 143.583 29.0469V33H142.661V32.1875H142.614C142.552 32.3177 142.448 32.457 142.302 32.6055C142.156 32.7539 141.962 32.8802 141.72 32.9844C141.478 33.0885 141.182 33.1406 140.833 33.1406ZM140.974 32.3125C141.338 32.3125 141.646 32.2409 141.896 32.0977C142.148 31.9544 142.338 31.7695 142.466 31.543C142.596 31.3164 142.661 31.0781 142.661 30.8281V29.9844C142.622 30.0312 142.536 30.0742 142.403 30.1133C142.273 30.1497 142.122 30.1823 141.95 30.2109C141.781 30.237 141.616 30.2604 141.454 30.2812C141.295 30.2995 141.166 30.3151 141.067 30.3281C140.828 30.3594 140.604 30.4102 140.396 30.4805C140.19 30.5482 140.023 30.651 139.896 30.7891C139.771 30.9245 139.708 31.1094 139.708 31.3437C139.708 31.6641 139.826 31.9062 140.063 32.0703C140.303 32.2318 140.606 32.3125 140.974 32.3125ZM140.224 26.2812L139.505 26.25C139.505 25.8516 139.618 25.526 139.845 25.2734C140.074 25.0182 140.356 24.8906 140.692 24.8906C140.841 24.8906 140.972 24.9167 141.087 24.9687C141.201 25.0182 141.311 25.0755 141.415 25.1406C141.519 25.2057 141.626 25.2643 141.735 25.3164C141.847 25.3659 141.974 25.3906 142.114 25.3906C142.263 25.3906 142.388 25.3333 142.489 25.2187C142.593 25.1016 142.646 24.9609 142.646 24.7969L143.349 24.8594C143.349 25.2656 143.234 25.5885 143.005 25.8281C142.778 26.0677 142.497 26.1875 142.161 26.1875C141.981 26.1875 141.833 26.1628 141.716 26.1133C141.599 26.0612 141.494 26.0026 141.403 25.9375C141.312 25.8724 141.216 25.8151 141.114 25.7656C141.013 25.7135 140.888 25.6875 140.739 25.6875C140.591 25.6875 140.467 25.7461 140.368 25.8633C140.272 25.9779 140.224 26.1172 140.224 26.2812ZM147.703 33.125C147.161 33.125 146.686 32.9961 146.277 32.7383C145.871 32.4805 145.553 32.1198 145.324 31.6562C145.098 31.1927 144.984 30.651 144.984 30.0312C144.984 29.4062 145.098 28.8607 145.324 28.3945C145.553 27.9284 145.871 27.5664 146.277 27.3086C146.686 27.0508 147.161 26.9219 147.703 26.9219C148.245 26.9219 148.719 27.0508 149.125 27.3086C149.534 27.5664 149.852 27.9284 150.078 28.3945C150.307 28.8607 150.422 29.4062 150.422 30.0312C150.422 30.651 150.307 31.1927 150.078 31.6562C149.852 32.1198 149.534 32.4805 149.125 32.7383C148.719 32.9961 148.245 33.125 147.703 33.125ZM147.703 32.2969C148.115 32.2969 148.453 32.1914 148.719 31.9805C148.984 31.7695 149.181 31.4922 149.309 31.1484C149.436 30.8047 149.5 30.4323 149.5 30.0312C149.5 29.6302 149.436 29.2565 149.309 28.9102C149.181 28.5638 148.984 28.2839 148.719 28.0703C148.453 27.8568 148.115 27.75 147.703 27.75C147.292 27.75 146.953 27.8568 146.688 28.0703C146.422 28.2839 146.225 28.5638 146.098 28.9102C145.97 29.2565 145.906 29.6302 145.906 30.0312C145.906 30.4323 145.97 30.8047 146.098 31.1484C146.225 31.4922 146.422 31.7695 146.688 31.9805C146.953 32.1914 147.292 32.2969 147.703 32.2969ZM157.188 33.125C156.688 33.125 156.247 32.9987 155.864 32.7461C155.481 32.4909 155.182 32.1315 154.966 31.668C154.75 31.2018 154.642 30.651 154.642 30.0156C154.642 29.3854 154.75 28.8385 154.966 28.375C155.182 27.9115 155.483 27.5534 155.868 27.3008C156.254 27.0482 156.699 26.9219 157.204 26.9219C157.595 26.9219 157.903 26.987 158.13 27.1172C158.359 27.2448 158.534 27.3906 158.653 27.5547C158.776 27.7161 158.871 27.849 158.938 27.9531H159.017V25H159.938V33H159.048V32.0781H158.938C158.871 32.1875 158.774 32.3255 158.649 32.4922C158.524 32.6562 158.346 32.8034 158.114 32.9336C157.882 33.0612 157.574 33.125 157.188 33.125ZM157.313 32.2969C157.683 32.2969 157.996 32.2005 158.251 32.0078C158.506 31.8125 158.7 31.543 158.833 31.1992C158.966 30.8529 159.032 30.4531 159.032 30C159.032 29.5521 158.967 29.1602 158.837 28.8242C158.707 28.4857 158.514 28.2227 158.259 28.0352C158.004 27.8451 157.688 27.75 157.313 27.75C156.923 27.75 156.597 27.8503 156.337 28.0508C156.079 28.2487 155.885 28.5182 155.755 28.8594C155.627 29.1979 155.563 29.5781 155.563 30C155.563 30.4271 155.629 30.8151 155.759 31.1641C155.892 31.5104 156.087 31.7865 156.345 31.9922C156.605 32.1953 156.928 32.2969 157.313 32.2969ZM164.271 33.125C163.692 33.125 163.194 32.9974 162.774 32.7422C162.358 32.4844 162.036 32.125 161.81 31.6641C161.586 31.2005 161.474 30.6615 161.474 30.0469C161.474 29.4323 161.586 28.8906 161.81 28.4219C162.036 27.9505 162.351 27.5833 162.755 27.3203C163.161 27.0547 163.635 26.9219 164.177 26.9219C164.489 26.9219 164.798 26.974 165.103 27.0781C165.407 27.1823 165.685 27.3516 165.935 27.5859C166.185 27.8177 166.384 28.125 166.532 28.5078C166.681 28.8906 166.755 29.362 166.755 29.9219V30.3125H162.13V29.5156H165.817C165.817 29.1771 165.75 28.875 165.614 28.6094C165.481 28.3437 165.291 28.1341 165.044 27.9805C164.799 27.8268 164.51 27.75 164.177 27.75C163.81 27.75 163.492 27.8411 163.224 28.0234C162.958 28.2031 162.754 28.4375 162.61 28.7266C162.467 29.0156 162.396 29.3255 162.396 29.6562V30.1875C162.396 30.6406 162.474 31.0247 162.63 31.3398C162.789 31.6523 163.009 31.8906 163.29 32.0547C163.571 32.2161 163.898 32.2969 164.271 32.2969C164.513 32.2969 164.731 32.263 164.927 32.1953C165.125 32.125 165.295 32.0208 165.438 31.8828C165.582 31.7422 165.692 31.5677 165.771 31.3594L166.661 31.6094C166.567 31.9115 166.41 32.1771 166.188 32.4062C165.967 32.6328 165.694 32.8099 165.368 32.9375C165.043 33.0625 164.677 33.125 164.271 33.125ZM173.86 27V27.7812H170.751V27H173.86ZM171.657 25.5625H172.579V31.2812C172.579 31.5417 172.617 31.737 172.692 31.8672C172.771 31.9948 172.869 32.0807 172.989 32.125C173.112 32.1667 173.241 32.1875 173.376 32.1875C173.478 32.1875 173.561 32.1823 173.626 32.1719C173.691 32.1589 173.743 32.1484 173.782 32.1406L173.97 32.9687C173.907 32.9922 173.82 33.0156 173.708 33.0391C173.596 33.0651 173.454 33.0781 173.282 33.0781C173.022 33.0781 172.767 33.0221 172.517 32.9102C172.269 32.7982 172.063 32.6276 171.899 32.3984C171.738 32.1693 171.657 31.8802 171.657 31.5312V25.5625ZM177.698 33.125C177.12 33.125 176.621 32.9974 176.202 32.7422C175.785 32.4844 175.464 32.125 175.237 31.6641C175.013 31.2005 174.901 30.6615 174.901 30.0469C174.901 29.4323 175.013 28.8906 175.237 28.4219C175.464 27.9505 175.779 27.5833 176.183 27.3203C176.589 27.0547 177.063 26.9219 177.604 26.9219C177.917 26.9219 178.226 26.974 178.53 27.0781C178.835 27.1823 179.112 27.3516 179.362 27.5859C179.612 27.8177 179.812 28.125 179.96 28.5078C180.108 28.8906 180.183 29.362 180.183 29.9219V30.3125H175.558V29.5156H179.245C179.245 29.1771 179.177 28.875 179.042 28.6094C178.909 28.3437 178.719 28.1341 178.472 27.9805C178.227 27.8268 177.938 27.75 177.604 27.75C177.237 27.75 176.92 27.8411 176.651 28.0234C176.386 28.2031 176.181 28.4375 176.038 28.7266C175.895 29.0156 175.823 29.3255 175.823 29.6562V30.1875C175.823 30.6406 175.901 31.0247 176.058 31.3398C176.216 31.6523 176.437 31.8906 176.718 32.0547C176.999 32.2161 177.326 32.2969 177.698 32.2969C177.94 32.2969 178.159 32.263 178.354 32.1953C178.552 32.125 178.723 32.0208 178.866 31.8828C179.009 31.7422 179.12 31.5677 179.198 31.3594L180.089 31.6094C179.995 31.9115 179.838 32.1771 179.616 32.4062C179.395 32.6328 179.121 32.8099 178.796 32.9375C178.47 33.0625 178.104 33.125 177.698 33.125ZM185.835 28.3437L185.007 28.5781C184.955 28.4401 184.878 28.306 184.776 28.1758C184.677 28.043 184.542 27.9336 184.37 27.8477C184.198 27.7617 183.978 27.7187 183.71 27.7187C183.343 27.7187 183.037 27.8034 182.792 27.9727C182.55 28.1393 182.429 28.3516 182.429 28.6094C182.429 28.8385 182.512 29.0195 182.679 29.1523C182.845 29.2852 183.106 29.3958 183.46 29.4844L184.351 29.7031C184.887 29.8333 185.287 30.0326 185.55 30.3008C185.813 30.5664 185.944 30.9089 185.944 31.3281C185.944 31.6719 185.845 31.9792 185.647 32.25C185.452 32.5208 185.179 32.7344 184.827 32.8906C184.476 33.0469 184.067 33.125 183.601 33.125C182.989 33.125 182.482 32.9922 182.081 32.7266C181.68 32.4609 181.426 32.0729 181.319 31.5625L182.194 31.3437C182.278 31.6667 182.435 31.9089 182.667 32.0703C182.901 32.2318 183.207 32.3125 183.585 32.3125C184.015 32.3125 184.356 32.2214 184.608 32.0391C184.864 31.8542 184.991 31.6328 184.991 31.375C184.991 31.1667 184.918 30.9922 184.772 30.8516C184.627 30.7083 184.403 30.6016 184.101 30.5312L183.101 30.2969C182.551 30.1667 182.147 29.9648 181.89 29.6914C181.634 29.4154 181.507 29.0703 181.507 28.6562C181.507 28.3177 181.602 28.0182 181.792 27.7578C181.985 27.4974 182.246 27.293 182.577 27.1445C182.91 26.9961 183.288 26.9219 183.71 26.9219C184.304 26.9219 184.77 27.0521 185.108 27.3125C185.45 27.5729 185.692 27.9167 185.835 28.3437ZM189.941 27V27.7812H186.832V27H189.941ZM187.738 25.5625H188.66V31.2812C188.66 31.5417 188.698 31.737 188.773 31.8672C188.852 31.9948 188.951 32.0807 189.07 32.125C189.193 32.1667 189.322 32.1875 189.457 32.1875C189.559 32.1875 189.642 32.1823 189.707 32.1719C189.772 32.1589 189.824 32.1484 189.863 32.1406L190.051 32.9687C189.988 32.9922 189.901 33.0156 189.789 33.0391C189.677 33.0651 189.535 33.0781 189.363 33.0781C189.103 33.0781 188.848 33.0221 188.598 32.9102C188.35 32.7982 188.145 32.6276 187.98 32.3984C187.819 32.1693 187.738 31.8802 187.738 31.5312V25.5625ZM193.779 33.125C193.201 33.125 192.702 32.9974 192.283 32.7422C191.867 32.4844 191.545 32.125 191.318 31.6641C191.094 31.2005 190.982 30.6615 190.982 30.0469C190.982 29.4323 191.094 28.8906 191.318 28.4219C191.545 27.9505 191.86 27.5833 192.264 27.3203C192.67 27.0547 193.144 26.9219 193.686 26.9219C193.998 26.9219 194.307 26.974 194.611 27.0781C194.916 27.1823 195.193 27.3516 195.443 27.5859C195.693 27.8177 195.893 28.125 196.041 28.5078C196.189 28.8906 196.264 29.362 196.264 29.9219V30.3125H191.639V29.5156H195.326C195.326 29.1771 195.258 28.875 195.123 28.6094C194.99 28.3437 194.8 28.1341 194.553 27.9805C194.308 27.8268 194.019 27.75 193.686 27.75C193.318 27.75 193.001 27.8411 192.732 28.0234C192.467 28.2031 192.262 28.4375 192.119 28.7266C191.976 29.0156 191.904 29.3255 191.904 29.6562V30.1875C191.904 30.6406 191.982 31.0247 192.139 31.3398C192.298 31.6523 192.518 31.8906 192.799 32.0547C193.08 32.2161 193.407 32.2969 193.779 32.2969C194.021 32.2969 194.24 32.263 194.436 32.1953C194.633 32.125 194.804 32.0208 194.947 31.8828C195.09 31.7422 195.201 31.5677 195.279 31.3594L196.17 31.6094C196.076 31.9115 195.919 32.1771 195.697 32.4062C195.476 32.6328 195.202 32.8099 194.877 32.9375C194.551 33.0625 194.186 33.125 193.779 33.125Z" fill="black"/>
<path d="M253.179 66.7273L255.338 72.8494H255.423L257.582 66.7273H258.506L255.835 74H254.926L252.256 66.7273H253.179ZM261.304 74.1136C260.778 74.1136 260.325 73.9976 259.944 73.7656C259.565 73.5312 259.273 73.2045 259.067 72.7855C258.863 72.3641 258.761 71.8741 258.761 71.3153C258.761 70.7566 258.863 70.2642 259.067 69.8381C259.273 69.4096 259.559 69.0758 259.926 68.8366C260.295 68.5952 260.726 68.4744 261.219 68.4744C261.503 68.4744 261.783 68.5218 262.06 68.6165C262.337 68.7112 262.589 68.8651 262.817 69.0781C263.044 69.2888 263.225 69.5682 263.36 69.9162C263.495 70.2642 263.562 70.6927 263.562 71.2017V71.5568H259.358V70.8324H262.71C262.71 70.5246 262.649 70.25 262.526 70.0085C262.405 69.767 262.232 69.5765 262.007 69.4368C261.785 69.2971 261.522 69.2273 261.219 69.2273C260.885 69.2273 260.596 69.3101 260.352 69.4759C260.111 69.6392 259.925 69.8523 259.795 70.1151C259.665 70.3778 259.599 70.6596 259.599 70.9602V71.4432C259.599 71.8551 259.67 72.2043 259.812 72.4908C259.957 72.7749 260.157 72.9915 260.413 73.1406C260.668 73.2874 260.965 73.3608 261.304 73.3608C261.524 73.3608 261.723 73.33 261.901 73.2685C262.08 73.2045 262.236 73.1098 262.366 72.9844C262.496 72.8565 262.597 72.6979 262.668 72.5085L263.477 72.7358C263.392 73.0104 263.249 73.2519 263.048 73.4602C262.846 73.6662 262.598 73.8272 262.302 73.9432C262.006 74.0568 261.673 74.1136 261.304 74.1136ZM264.837 74V68.5455H265.647V69.3693H265.704C265.803 69.0994 265.983 68.8804 266.244 68.7124C266.504 68.5443 266.798 68.4602 267.124 68.4602C267.186 68.4602 267.263 68.4614 267.355 68.4638C267.447 68.4661 267.517 68.4697 267.565 68.4744V69.3267C267.536 69.3196 267.471 69.3089 267.369 69.2947C267.27 69.2782 267.165 69.2699 267.053 69.2699C266.788 69.2699 266.551 69.3255 266.343 69.4368C266.137 69.5457 265.974 69.6972 265.853 69.8913C265.735 70.0831 265.675 70.3021 265.675 70.5483V74H264.837ZM271.484 66.7273H272.535L275.007 72.7642H275.092L277.564 66.7273H278.615V74H277.791V68.4744H277.72L275.447 74H274.652L272.379 68.4744H272.308V74H271.484V66.7273ZM281.872 74.1278C281.527 74.1278 281.213 74.0627 280.931 73.9325C280.649 73.8 280.426 73.6094 280.26 73.3608C280.094 73.1098 280.011 72.8068 280.011 72.4517C280.011 72.1392 280.073 71.8859 280.196 71.6918C280.319 71.4953 280.484 71.3414 280.69 71.2301C280.896 71.1188 281.123 71.036 281.371 70.9815C281.622 70.9247 281.875 70.8797 282.128 70.8466C282.459 70.804 282.728 70.772 282.934 70.7507C283.142 70.727 283.294 70.688 283.388 70.6335C283.486 70.5791 283.534 70.4844 283.534 70.3494V70.321C283.534 69.9706 283.438 69.6984 283.246 69.5043C283.057 69.3101 282.769 69.2131 282.384 69.2131C281.983 69.2131 281.67 69.3007 281.442 69.4759C281.215 69.651 281.055 69.8381 280.963 70.0369L280.168 69.7528C280.31 69.4214 280.499 69.1634 280.736 68.9787C280.975 68.7917 281.235 68.6615 281.517 68.5881C281.801 68.5123 282.08 68.4744 282.355 68.4744C282.53 68.4744 282.732 68.4957 282.959 68.5384C283.188 68.5786 283.41 68.6626 283.623 68.7905C283.838 68.9183 284.017 69.1113 284.159 69.3693C284.301 69.6274 284.372 69.973 284.372 70.4062V74H283.534V73.2614H283.491C283.435 73.3797 283.34 73.5064 283.207 73.6413C283.075 73.7763 282.898 73.8911 282.678 73.9858C282.458 74.0805 282.189 74.1278 281.872 74.1278ZM282 73.375C282.331 73.375 282.611 73.3099 282.838 73.1797C283.068 73.0495 283.241 72.8814 283.357 72.6754C283.475 72.4695 283.534 72.2528 283.534 72.0256V71.2585C283.499 71.3011 283.42 71.3402 283.3 71.3757C283.181 71.4089 283.044 71.4384 282.888 71.4645C282.734 71.4882 282.584 71.5095 282.437 71.5284C282.292 71.545 282.175 71.5592 282.085 71.571C281.867 71.5994 281.664 71.6456 281.474 71.7095C281.287 71.7711 281.136 71.8646 281.02 71.9901C280.906 72.1132 280.849 72.2812 280.849 72.4943C280.849 72.7855 280.957 73.0057 281.173 73.1548C281.39 73.3016 281.666 73.375 282 73.375ZM285.902 74V68.5455H286.74V74H285.902ZM286.328 67.6364C286.165 67.6364 286.024 67.5807 285.905 67.4695C285.789 67.3582 285.731 67.2244 285.731 67.0682C285.731 66.9119 285.789 66.7782 285.905 66.6669C286.024 66.5556 286.165 66.5 286.328 66.5C286.491 66.5 286.631 66.5556 286.747 66.6669C286.865 66.7782 286.925 66.9119 286.925 67.0682C286.925 67.2244 286.865 67.3582 286.747 67.4695C286.631 67.5807 286.491 67.6364 286.328 67.6364ZM292.138 69.767L291.386 69.9801C291.338 69.8546 291.268 69.7327 291.176 69.6143C291.086 69.4936 290.963 69.3942 290.807 69.3161C290.651 69.2379 290.451 69.1989 290.207 69.1989C289.873 69.1989 289.595 69.2758 289.372 69.4297C289.152 69.5812 289.042 69.7741 289.042 70.0085C289.042 70.2169 289.118 70.3814 289.269 70.5021C289.421 70.6229 289.657 70.7235 289.979 70.804L290.789 71.0028C291.277 71.1212 291.64 71.3023 291.879 71.5462C292.118 71.7876 292.238 72.099 292.238 72.4801C292.238 72.7926 292.148 73.072 291.968 73.3182C291.79 73.5644 291.542 73.7585 291.222 73.9006C290.903 74.0426 290.531 74.1136 290.107 74.1136C289.551 74.1136 289.09 73.9929 288.726 73.7514C288.361 73.5099 288.13 73.1572 288.033 72.6932L288.829 72.4943C288.905 72.7879 289.048 73.008 289.259 73.1548C289.472 73.3016 289.75 73.375 290.093 73.375C290.484 73.375 290.794 73.2921 291.023 73.1264C291.255 72.9583 291.371 72.7571 291.371 72.5227C291.371 72.3333 291.305 72.1747 291.173 72.0469C291.04 71.9167 290.836 71.8196 290.562 71.7557L289.653 71.5426C289.153 71.4242 288.786 71.2408 288.552 70.9922C288.32 70.7412 288.204 70.4276 288.204 70.0511C288.204 69.7434 288.29 69.4711 288.463 69.2344C288.638 68.9976 288.876 68.8118 289.177 68.6768C289.48 68.5419 289.823 68.4744 290.207 68.4744C290.746 68.4744 291.17 68.5928 291.478 68.8295C291.788 69.0663 292.008 69.3788 292.138 69.767Z" fill="#0015FF"/>
<path d="M252 75.9886H292.735V76.6705H252V75.9886Z" fill="#0015FF"/>
<path d="M4 10C4 4.47715 8.47715 0 14 0H87V83H14C8.47715 83 4 78.5229 4 73V10Z" fill="#ECEEFF"/>
<path d="M44.4424 32.4922L63.1318 13.7994L75.0596 25.729L56.3685 44.4201L44.4424 32.4922Z" fill="#CCD6DD"/>
<path d="M47.0724 29.8965L50.3609 27.7042L68.4477 29.8965L70.092 30.9927L68.9958 32.0889L60.7745 40.3101L39.9473 61.6855L35.5626 64.974L33.3703 66.0701L29.5337 65.522L26.2452 63.3297L24.0529 59.4931V55.6565L25.6971 52.9161L31.726 45.2429L47.0724 29.8965Z" fill="#68E090"/>
<path d="M69.5162 30.3161C69.4168 30.9655 65.0147 31.603 59.7645 30.9039C54.516 30.2047 50.371 28.8082 50.5063 27.7852C50.6434 26.7623 55.0078 26.4984 60.258 27.1975C65.5082 27.8966 69.6738 29.2949 69.5162 30.3161ZM38.0628 47.6278C37.9363 47.7542 37.7862 47.8544 37.621 47.9227C37.4558 47.9911 37.2788 48.0262 37.1 48.0261C36.9212 48.026 36.7442 47.9907 36.5791 47.9222C36.414 47.8538 36.264 47.7534 36.1376 47.627C36.0113 47.5005 35.9111 47.3504 35.8427 47.1852C35.7744 47.02 35.7393 46.843 35.7393 46.6642C35.7394 46.4855 35.7747 46.3085 35.8432 46.1433C35.9117 45.9782 36.012 45.8282 36.1385 45.7018C36.3939 45.4466 36.7402 45.3034 37.1012 45.3035C37.4623 45.3037 37.8084 45.4473 38.0636 45.7027C38.3188 45.9581 38.4621 46.3044 38.4619 46.6654C38.4617 47.0265 38.3182 47.3726 38.0628 47.6278ZM43.7465 52.1087C43.5409 52.3195 43.2955 52.4874 43.0245 52.6026C42.7535 52.7178 42.4623 52.778 42.1679 52.7798C41.8734 52.7816 41.5815 52.7249 41.3091 52.613C41.0368 52.5011 40.7893 52.3363 40.5812 52.128C40.373 51.9197 40.2083 51.6722 40.0965 51.3997C39.9848 51.1273 39.9282 50.8354 39.9302 50.5409C39.9322 50.2465 39.9926 49.9553 40.1079 49.6844C40.2233 49.4135 40.3913 49.1681 40.6022 48.9627C41.0212 48.5544 41.5841 48.3277 42.1691 48.3316C42.754 48.3355 43.3139 48.5697 43.7274 48.9834C44.141 49.3972 44.3748 49.9572 44.3784 50.5421C44.382 51.1271 44.155 51.6899 43.7465 52.1087ZM46.6201 42.9859C46.2217 43.3462 45.7 43.5397 45.163 43.5262C44.626 43.5128 44.1147 43.2934 43.7348 42.9136C43.355 42.5337 43.1357 42.0224 43.1222 41.4854C43.1088 40.9484 43.3022 40.4268 43.6625 40.0284C43.8567 39.8342 44.0873 39.6801 44.341 39.575C44.5947 39.4699 44.8667 39.4158 45.1413 39.4158C45.4159 39.4158 45.6879 39.4699 45.9416 39.575C46.1953 39.6801 46.4259 39.8342 46.6201 40.0284C46.8143 40.2225 46.9683 40.4531 47.0734 40.7068C47.1785 40.9605 47.2326 41.2325 47.2326 41.5071C47.2326 41.7818 47.1785 42.0537 47.0734 42.3074C46.9683 42.5612 46.8143 42.7917 46.6201 42.9859ZM34.8516 58.1643C34.6161 58.4073 34.3345 58.601 34.0233 58.7342C33.7122 58.8673 33.3776 58.9372 33.0392 58.9398C32.7007 58.9424 32.3651 58.8777 32.052 58.7493C31.7388 58.621 31.4543 58.4316 31.215 58.1922C30.9757 57.9528 30.7865 57.6682 30.6583 57.355C30.5301 57.0417 30.4655 56.7061 30.4682 56.3677C30.471 56.0292 30.5411 55.6947 30.6744 55.3836C30.8077 55.0725 31.0015 54.791 31.2447 54.5556C31.7257 54.0897 32.3707 53.8317 33.0404 53.8371C33.71 53.8426 34.3507 54.1111 34.8241 54.5848C35.2976 55.0584 35.5658 55.6992 35.5709 56.3689C35.5761 57.0386 35.3177 57.6834 34.8516 58.1643ZM54.3789 42.4718C54.0387 42.8118 53.5775 43.0026 53.0966 43.0025C52.6157 43.0023 52.1546 42.8111 51.8146 42.471C51.4747 42.1308 51.2838 41.6696 51.284 41.1887C51.2841 40.7078 51.4753 40.2466 51.8155 39.9067C51.9839 39.7384 52.1838 39.6049 52.4039 39.5138C52.6239 39.4228 52.8597 39.376 53.0978 39.376C53.3359 39.3761 53.5717 39.4231 53.7916 39.5143C54.0116 39.6055 54.2114 39.7391 54.3798 39.9076C54.5481 40.076 54.6816 40.2759 54.7726 40.4959C54.8637 40.716 54.9105 40.9518 54.9104 41.1899C54.9103 41.428 54.8634 41.6638 54.7722 41.8837C54.681 42.1037 54.5473 42.3035 54.3789 42.4718ZM52.3107 35.1243C52.2018 35.2405 52.0707 35.3337 51.9251 35.3983C51.7795 35.4629 51.6223 35.4975 51.4631 35.5001C51.3038 35.5026 51.1456 35.4732 50.998 35.4134C50.8504 35.3536 50.7163 35.2647 50.6037 35.152C50.4911 35.0393 50.4024 34.9051 50.3427 34.7574C50.2831 34.6097 50.2537 34.4515 50.2565 34.2922C50.2592 34.133 50.294 33.9759 50.3587 33.8303C50.4234 33.6848 50.5168 33.5537 50.6332 33.445C50.8583 33.2347 51.1563 33.1201 51.4643 33.1254C51.7723 33.1308 52.0662 33.2556 52.2839 33.4735C52.5016 33.6914 52.6261 33.9854 52.6311 34.2935C52.6361 34.6015 52.5212 34.8994 52.3107 35.1243Z" fill="#17BF63"/>
<path d="M74.8606 26.3098L38.5606 63.3697C35.2145 66.7858 29.7329 66.8426 26.3167 63.4965C22.9008 60.1504 22.8439 54.6686 26.1899 51.2526L62.4899 14.1928L74.8606 26.3098Z" stroke="black" stroke-width="1.6"/>
<path d="M62.9641 13.8176C63.4496 13.4176 64.0978 13.4694 64.5717 13.5842C65.1269 13.7187 65.7611 14.0121 66.423 14.4025C67.7574 15.1895 69.358 16.4631 70.9247 18.0298C72.4913 19.5963 73.7644 21.1963 74.5514 22.5306C74.942 23.1927 75.2359 23.8272 75.3705 24.3826C75.4929 24.8881 75.5428 25.591 75.0501 26.0841C74.557 26.5771 73.8535 26.5276 73.3479 26.4052C72.7925 26.2707 72.1581 25.9768 71.4959 25.5863C70.1615 24.7993 68.5615 23.5262 66.9949 21.9597C65.4282 20.393 64.1545 18.7925 63.3675 17.4581C62.9771 16.7962 62.6837 16.1621 62.5492 15.6068C62.4267 15.1012 62.3764 14.3971 62.8695 13.904L62.9641 13.8176Z" fill="#CCD6DD" stroke="black" stroke-width="1.5"/>
<defs>
<filter id="filter0_d_73_106" x="0" y="0" width="306" height="91" filterUnits="userSpaceOnUse" color-interpolation-filters="sRGB">
<feFlood flood-opacity="0" result="BackgroundImageFix"/>
<feColorMatrix in="SourceAlpha" type="matrix" values="0 0 0 0 0 0 0 0 0 0 0 0 0 0 0 0 0 0 127 0" result="hardAlpha"/>
<feOffset dy="4"/>
<feGaussianBlur stdDeviation="2"/>
<feComposite in2="hardAlpha" operator="out"/>
<feColorMatrix type="matrix" values="0 0 0 0 0 0 0 0 0 0 0 0 0 0 0 0 0 0 0.25 0"/>
<feBlend mode="normal" in2="BackgroundImageFix" result="effect1_dropShadow_73_106"/>
<feBlend mode="normal" in="SourceGraphic" in2="effect1_dropShadow_73_106" result="shape"/>
</filter>
</defs>
</svg>
